<svg width="196" height="206" fill="none" xmlns="http://www.w3.org/2000/svg"><path d="M19.269 110.979c10.642 0 19.269-8.641 19.269-19.3 0-10.66-8.627-19.301-19.27-19.301C8.628 72.378 0 81.019 0 91.678c0 10.66 8.627 19.301 19.269 19.301Zm39.461 89.717h-.02a2.567 2.567 0 0 1-2.56-2.563V47.648a2.56 2.56 0 0 1 2.56-2.563h126.45a2.569 2.569 0 0 1 2.56 2.563v117.01a2.569 2.569 0 0 1-.744 1.805 2.559 2.559 0 0 1-1.796.758L58.729 200.696ZM110.194 0h25.29a2.414 2.414 0 0 1 2.409 2.413V38.6h-30.108V2.413A2.414 2.414 0 0 1 110.194 0Z" fill="#EFF3F2"/><path d="M36.853 206a.346.346 0 0 1-.346-.347v-70.829a.353.353 0 0 1 .1-.247.36.36 0 0 1 .113-.076.356.356 0 0 1 .266 0 .345.345 0 0 1 .213.323v70.829a.346.346 0 0 1-.346.347Z" fill="#151A40"/><path d="M37.156 169.435c-.12 0-.237 0-.357-.003a30.557 30.557 0 0 1-21.399-9.09 30.659 30.659 0 0 1-8.84-21.532c0-8.901 3.66-23.148 8.9-34.644 3.77-8.268 11.6-22.139 21.696-22.139 4.159 0 8.346 2.375 12.447 7.057.203.231.407.47.608.713l.069.083v76.596l-.17.082a30.255 30.255 0 0 1-12.605 2.874c-.112.003-.232.003-.35.003Zm0-86.805c-9.76 0-17.439 13.65-21.147 21.786-5.209 11.427-8.846 25.57-8.846 34.394 0 16.368 13.3 29.834 29.647 30.019.122.003.235.004.354.003.11 0 .221 0 .33-.003a29.664 29.664 0 0 0 12.184-2.733V90.098c-.175-.21-.351-.415-.527-.615-3.982-4.547-8.017-6.853-11.995-6.853Z" fill="#151A40"/><path d="M37.154 148.057a.342.342 0 0 1-.144-.032.332.332 0 0 1-.118-.088l-17.421-20.124a.347.347 0 0 1 .523-.455l17.422 20.124a.35.35 0 0 1 .053.372.348.348 0 0 1-.315.203Zm.001 11.613a.346.346 0 0 1-.245-.592l9.9-9.916a.345.345 0 0 1 .244-.1.345.345 0 0 1 .346.346c0 .092-.036.18-.101.245l-9.9 9.916a.342.342 0 0 1-.244.101ZM64.358 26.236l.223.44c.099.19.15.402.15.616v11.912H75.27V27.292c0-.214.052-.425.15-.615l.224-.44H64.358Zm10.309 1.056V38.6h-9.333V27.29c0-.151-.018-.303-.055-.451h9.442c-.036.148-.054.3-.054.452Zm2.939-1.056.222.44c.1.19.15.402.15.616v11.912h10.538V27.292c0-.214.052-.425.151-.615l.223-.44H77.606Zm10.308 1.056V38.6h-9.333V27.29c0-.151-.018-.303-.054-.451h9.442c-.037.148-.055.3-.055.452Zm2.939-1.056.223.44c.098.19.15.402.15.616v11.912h10.538V27.292c0-.214.052-.425.15-.615l.223-.44H90.853Zm10.309 1.056V38.6h-9.334V27.29c0-.151-.018-.303-.054-.451h9.442c-.036.148-.054.3-.054.452Zm2.938-1.056.223.44c.099.19.15.402.151.616v11.912h10.537V27.292c0-.214.052-.425.151-.615l.223-.44H104.1Zm10.309 1.056V38.6h-9.333V27.29c0-.151-.018-.303-.055-.451h9.442c-.036.148-.054.3-.054.452Zm2.939-1.056.222.44c.099.19.151.402.151.616v11.912h10.538V27.292c0-.214.051-.425.15-.615l.223-.44h-11.284Zm10.308 1.056V38.6h-9.333V27.29c0-.151-.018-.303-.054-.451h9.442c-.037.148-.055.3-.055.452Zm2.939-1.056.223.44c.098.19.15.402.15.616v11.912h10.538V27.292c0-.214.052-.425.15-.615l.223-.44h-11.284Zm10.309 1.056V38.6h-9.334V27.29a1.863 1.863 0 0 0-.054-.451h9.442c-.036.148-.054.3-.054.452Zm2.938-1.056.223.44c.099.19.15.402.151.616v11.912h10.537V27.292c0-.214.052-.425.151-.615l.223-.44h-11.285Zm10.309 1.056V38.6h-9.333V27.29c0-.151-.018-.303-.054-.451h9.441c-.036.148-.054.3-.054.452Zm2.939-1.056.222.44c.099.19.151.402.151.616v11.912h10.538V27.292c0-.214.051-.425.15-.615l.223-.44H157.09Zm10.308 1.056V38.6h-9.333V27.29c0-.151-.018-.303-.054-.451h9.442c-.037.148-.055.3-.055.452Zm2.939-1.056.223.44c.099.19.15.402.15.616v11.912h10.538V27.292c0-.214.052-.425.15-.615l.223-.44h-11.284Zm10.309 1.056V38.6h-9.334V27.29a1.863 1.863 0 0 0-.054-.451h9.442c-.036.148-.054.3-.054.452Zm-10.309-1.056.223.44c.099.19.15.402.15.616v11.912h10.538V27.292c0-.214.052-.425.15-.615l.223-.44h-11.284Zm10.309 1.056V38.6h-9.334V27.29a1.863 1.863 0 0 0-.054-.451h9.442c-.036.148-.054.3-.054.452Zm-23.556-1.056.222.44c.099.19.151.402.151.616v11.912h10.538V27.292c0-.214.051-.425.15-.615l.223-.44H157.09Zm10.308 1.056V38.6h-9.333V27.29c0-.151-.018-.303-.054-.451h9.442c-.037.148-.055.3-.055.452Zm-23.556-1.056.223.44c.099.19.15.402.151.616v11.912h10.537V27.292c0-.214.052-.425.151-.615l.223-.44h-11.285Zm10.309 1.056V38.6h-9.333V27.29c0-.151-.018-.303-.054-.451h9.441c-.036.148-.054.3-.054.452Zm-23.556-1.056.223.44c.098.19.15.402.15.616v11.912h10.538V27.292c0-.214.052-.425.15-.615l.223-.44h-11.284Zm10.309 1.056V38.6h-9.334V27.29a1.863 1.863 0 0 0-.054-.451h9.442c-.036.148-.054.3-.054.452Zm-23.556-1.056.222.44c.099.19.151.402.151.616v11.912h10.538V27.292c0-.214.051-.425.15-.615l.223-.44h-11.284Zm10.308 1.056V38.6h-9.333V27.29c0-.151-.018-.303-.054-.451h9.442c-.037.148-.055.3-.055.452ZM104.1 26.236l.223.44c.099.19.15.402.151.616v11.912h10.537V27.292c0-.214.052-.425.151-.615l.223-.44H104.1Zm10.309 1.056V38.6h-9.333V27.29c0-.151-.018-.303-.055-.451h9.442c-.036.148-.054.3-.054.452Zm-23.556-1.056.223.44c.098.19.15.402.15.616v11.912h10.538V27.292c0-.214.052-.425.15-.615l.223-.44H90.853Zm10.309 1.056V38.6h-9.334V27.29c0-.151-.018-.303-.054-.451h9.442c-.036.148-.054.3-.054.452Zm-23.556-1.056.222.44c.1.19.15.402.15.616v11.912h10.538V27.292c0-.214.052-.425.151-.615l.223-.44H77.606Zm10.308 1.056V38.6h-9.333V27.29c0-.151-.018-.303-.054-.451h9.442c-.037.148-.055.3-.055.452Zm-23.556-1.056.223.44c.099.19.15.402.15.616v11.912H75.27V27.292c0-.214.052-.425.15-.615l.224-.44H64.358Zm10.309 1.056V38.6h-9.333V27.29c0-.151-.018-.303-.055-.451h9.442c-.036.148-.054.3-.054.452Zm95.67-1.056.223.44c.099.19.15.402.15.616v11.912h10.538V27.292c0-.214.052-.425.15-.615l.223-.44h-11.284Zm10.309 1.056V38.6h-9.334V27.29a1.863 1.863 0 0 0-.054-.451h9.442c-.036.148-.054.3-.054.452Zm-23.556-1.056.222.44c.099.19.151.402.151.616v11.912h10.538V27.292c0-.214.051-.425.15-.615l.223-.44H157.09Zm10.308 1.056V38.6h-9.333V27.29c0-.151-.018-.303-.054-.451h9.442c-.037.148-.055.3-.055.452Zm-23.556-1.056.223.44c.099.19.15.402.151.616v11.912h10.537V27.292c0-.214.052-.425.151-.615l.223-.44h-11.285Zm10.309 1.056V38.6h-9.333V27.29c0-.151-.018-.303-.054-.451h9.441c-.036.148-.054.3-.054.452Zm-23.556-1.056.223.44c.098.19.15.402.15.616v11.912h10.538V27.292c0-.214.052-.425.15-.615l.223-.44h-11.284Zm10.309 1.056V38.6h-9.334V27.29a1.863 1.863 0 0 0-.054-.451h9.442c-.036.148-.054.3-.054.452Zm-23.556-1.056.222.44c.099.19.151.402.151.616v11.912h10.538V27.292c0-.214.051-.425.15-.615l.223-.44h-11.284Zm10.308 1.056V38.6h-9.333V27.29c0-.151-.018-.303-.054-.451h9.442c-.037.148-.055.3-.055.452ZM104.1 26.236l.223.44c.099.19.15.402.151.616v11.912h10.537V27.292c0-.214.052-.425.151-.615l.223-.44H104.1Zm10.309 1.056V38.6h-9.333V27.29c0-.151-.018-.303-.055-.451h9.442c-.036.148-.054.3-.054.452Zm-23.556-1.056.223.44c.098.19.15.402.15.616v11.912h10.538V27.292c0-.214.052-.425.15-.615l.223-.44H90.853Zm10.309 1.056V38.6h-9.334V27.29c0-.151-.018-.303-.054-.451h9.442c-.036.148-.054.3-.054.452Zm-23.556-1.056.222.44c.1.19.15.402.15.616v11.912h10.538V27.292c0-.214.052-.425.151-.615l.223-.44H77.606Zm10.308 1.056V38.6h-9.333V27.29c0-.151-.018-.303-.054-.451h9.442c-.037.148-.055.3-.055.452Zm-23.556-1.056.223.44c.099.19.15.402.15.616v11.912H75.27V27.292c0-.214.052-.425.15-.615l.224-.44H64.358Zm10.309 1.056V38.6h-9.333V27.29c0-.151-.018-.303-.055-.451h9.442c-.036.148-.054.3-.054.452Zm95.67-1.056.223.44c.099.19.15.402.15.616v11.912h10.538V27.292c0-.214.052-.425.15-.615l.223-.44h-11.284Zm10.309 1.056V38.6h-9.334V27.29a1.863 1.863 0 0 0-.054-.451h9.442c-.036.148-.054.3-.054.452Zm-23.556-1.056.222.44c.099.19.151.402.151.616v11.912h10.538V27.292c0-.214.051-.425.15-.615l.223-.44H157.09Zm10.308 1.056V38.6h-9.333V27.29c0-.151-.018-.303-.054-.451h9.442c-.037.148-.055.3-.055.452Zm-23.556-1.056.223.44c.099.19.15.402.151.616v11.912h10.537V27.292c0-.214.052-.425.151-.615l.223-.44h-11.285Zm10.309 1.056V38.6h-9.333V27.29c0-.151-.018-.303-.054-.451h9.441c-.036.148-.054.3-.054.452Zm-23.556-1.056.223.44c.098.19.15.402.15.616v11.912h10.538V27.292c0-.214.052-.425.15-.615l.223-.44h-11.284Zm10.309 1.056V38.6h-9.334V27.29a1.863 1.863 0 0 0-.054-.451h9.442c-.036.148-.054.3-.054.452Zm-23.556-1.056.222.44c.099.19.151.402.151.616v11.912h10.538V27.292c0-.214.051-.425.15-.615l.223-.44h-11.284Zm10.308 1.056V38.6h-9.333V27.29c0-.151-.018-.303-.054-.451h9.442c-.037.148-.055.3-.055.452ZM104.1 26.236l.223.44c.099.19.15.402.151.616v11.912h10.537V27.292c0-.214.052-.425.151-.615l.223-.44H104.1Zm10.309 1.056V38.6h-9.333V27.29c0-.151-.018-.303-.055-.451h9.442c-.036.148-.054.3-.054.452Zm-23.556-1.056.223.44c.098.19.15.402.15.616v11.912h10.538V27.292c0-.214.052-.425.15-.615l.223-.44H90.853Zm10.309 1.056V38.6h-9.334V27.29c0-.151-.018-.303-.054-.451h9.442c-.036.148-.054.3-.054.452Zm-23.556-1.056.222.44c.1.19.15.402.15.616v11.912h10.538V27.292c0-.214.052-.425.151-.615l.223-.44H77.606Zm10.308 1.056V38.6h-9.333V27.29c0-.151-.018-.303-.054-.451h9.442c-.037.148-.055.3-.055.452Zm-23.556-1.056.223.44c.099.19.15.402.15.616v11.912H75.27V27.292c0-.214.052-.425.15-.615l.224-.44H64.358Zm10.309 1.056V38.6h-9.333V27.29c0-.151-.018-.303-.055-.451h9.442c-.036.148-.054.3-.054.452Zm95.67-1.056.223.44c.099.19.15.402.15.616v11.912h10.538V27.292c0-.214.052-.425.15-.615l.223-.44h-11.284Zm10.309 1.056V38.6h-9.334V27.29a1.863 1.863 0 0 0-.054-.451h9.442c-.036.148-.054.3-.054.452Zm-23.556-1.056.222.44c.099.19.151.402.151.616v11.912h10.538V27.292c0-.214.051-.425.15-.615l.223-.44H157.09Zm10.308 1.056V38.6h-9.333V27.29c0-.151-.018-.303-.054-.451h9.442c-.037.148-.055.3-.055.452Zm-23.556-1.056.223.44c.099.19.15.402.151.616v11.912h10.537V27.292c0-.214.052-.425.151-.615l.223-.44h-11.285Zm10.309 1.056V38.6h-9.333V27.29c0-.151-.018-.303-.054-.451h9.441c-.036.148-.054.3-.054.452Zm-23.556-1.056.223.44c.098.19.15.402.15.616v11.912h10.538V27.292c0-.214.052-.425.15-.615l.223-.44h-11.284Zm10.309 1.056V38.6h-9.334V27.29a1.863 1.863 0 0 0-.054-.451h9.442c-.036.148-.054.3-.054.452Zm-23.556-1.056.222.44c.099.19.151.402.151.616v11.912h10.538V27.292c0-.214.051-.425.15-.615l.223-.44h-11.284Zm10.308 1.056V38.6h-9.333V27.29c0-.151-.018-.303-.054-.451h9.442c-.037.148-.055.3-.055.452ZM104.1 26.236l.223.44c.099.19.15.402.151.616v11.912h10.537V27.292c0-.214.052-.425.151-.615l.223-.44H104.1Zm10.309 1.056V38.6h-9.333V27.29c0-.151-.018-.303-.055-.451h9.442c-.036.148-.054.3-.054.452Zm-23.556-1.056.223.44c.098.19.15.402.15.616v11.912h10.538V27.292c0-.214.052-.425.15-.615l.223-.44H90.853Zm10.309 1.056V38.6h-9.334V27.29c0-.151-.018-.303-.054-.451h9.442c-.036.148-.054.3-.054.452Zm-23.556-1.056.222.44c.1.19.15.402.15.616v11.912h10.538V27.292c0-.214.052-.425.151-.615l.223-.44H77.606Zm10.308 1.056V38.6h-9.333V27.29c0-.151-.018-.303-.054-.451h9.442c-.037.148-.055.3-.055.452Zm-23.556-1.056.223.44c.099.19.15.402.15.616v11.912H75.27V27.292c0-.214.052-.425.15-.615l.224-.44H64.358Zm10.309 1.056V38.6h-9.333V27.29c0-.151-.018-.303-.055-.451h9.442c-.036.148-.054.3-.054.452Zm95.67-1.056.223.44c.099.19.15.402.15.616v11.912h10.538V27.292c0-.214.052-.425.15-.615l.223-.44h-11.284Zm10.309 1.056V38.6h-9.334V27.29a1.863 1.863 0 0 0-.054-.451h9.442c-.036.148-.054.3-.054.452Zm-23.334-.615c.099.19.151.4.151.615v11.912h10.538V27.292c0-.214.051-.425.15-.615l.223-.44H157.09l.222.44Zm10.141.163c-.037.148-.055.3-.055.452V38.6h-9.333V27.29c0-.151-.018-.303-.054-.451h9.442Zm-23.388-.163c.099.19.15.4.151.615v11.912h10.537V27.292c0-.214.052-.425.151-.615l.223-.44h-11.285l.223.44Zm10.14.163c-.036.148-.054.3-.054.452V38.6h-9.333V27.29c0-.151-.018-.303-.054-.451h9.441Zm-23.387-.163c.098.19.15.4.15.615v11.912h10.538V27.292c0-.214.052-.425.15-.615l.223-.44h-11.284l.223.44Zm10.14.163c-.036.148-.054.3-.054.452V38.6h-9.334V27.29a1.863 1.863 0 0 0-.054-.451h9.442Zm-23.388-.163c.099.19.151.4.151.615v11.912h10.538V27.292c0-.214.051-.425.15-.615l.223-.44h-11.284l.222.44Zm10.141.163c-.037.148-.055.3-.055.452V38.6h-9.333V27.29c0-.151-.018-.303-.054-.451h9.442Zm-23.388-.163c.099.19.15.4.151.615v11.912h10.537V27.292c0-.214.052-.425.151-.615l.223-.44H104.1l.223.44Zm10.14.163c-.036.148-.054.3-.054.452V38.6h-9.333V27.29c0-.151-.018-.303-.055-.451h9.442Zm-23.387-.163c.098.19.15.4.15.615v11.912h10.538V27.292c0-.214.052-.425.15-.615l.223-.44H90.853l.223.44Zm10.14.163c-.036.148-.054.3-.054.452V38.6h-9.334V27.29c0-.151-.018-.303-.054-.451h9.442Zm-23.388-.163c.1.19.15.4.15.615v11.912h10.538V27.292c0-.214.052-.425.151-.615l.223-.44H77.606l.222.44Zm10.14.163c-.036.148-.054.3-.054.452V38.6h-9.333V27.29c0-.151-.018-.303-.054-.451h9.442Zm-23.387-.163c.099.19.15.4.15.615v11.912H75.27V27.292c0-.214.052-.425.15-.615l.224-.44H64.358l.223.44Zm10.14.163c-.036.148-.054.3-.054.452V38.6h-9.333V27.29c0-.151-.018-.303-.055-.451h9.442Zm95.839-.163c.099.19.15.4.15.615v11.912h10.538V27.292c0-.214.052-.425.15-.615l.223-.44h-11.284l.223.44Zm10.14.163c-.036.148-.054.3-.054.452V38.6h-9.334V27.29a1.863 1.863 0 0 0-.054-.451h9.442Zm-23.388-.163c.099.19.151.4.151.615v11.912h10.538V27.292c0-.214.051-.425.15-.615l.223-.44H157.09l.222.44Zm10.141.163c-.037.148-.055.3-.055.452V38.6h-9.333V27.29c0-.151-.018-.303-.054-.451h9.442Zm-23.388-.163c.099.19.15.4.151.615v11.912h10.537V27.292c0-.214.052-.425.151-.615l.223-.44h-11.285l.223.44Zm10.14.163c-.036.148-.054.3-.054.452V38.6h-9.333V27.29c0-.151-.018-.303-.054-.451h9.441Zm-23.387-.163c.098.19.15.4.15.615v11.912h10.538V27.292c0-.214.052-.425.15-.615l.223-.44h-11.284l.223.44Zm10.14.163c-.036.148-.054.3-.054.452V38.6h-9.334V27.29a1.863 1.863 0 0 0-.054-.451h9.442Zm-23.388-.163c.099.19.151.4.151.615v11.912h10.538V27.292c0-.214.051-.425.15-.615l.223-.44h-11.284l.222.44Zm10.141.163c-.037.148-.055.3-.055.452V38.6h-9.333V27.29c0-.151-.018-.303-.054-.451h9.442Zm-23.388-.163c.099.19.15.4.151.615v11.912h10.537V27.292c0-.214.052-.425.151-.615l.223-.44H104.1l.223.44Zm10.14.163c-.036.148-.054.3-.054.452V38.6h-9.333V27.29c0-.151-.018-.303-.055-.451h9.442Zm-23.387-.163c.098.19.15.4.15.615v11.912h10.538V27.292c0-.214.052-.425.15-.615l.223-.44H90.853l.223.44Zm10.14.163c-.036.148-.054.3-.054.452V38.6h-9.334V27.29c0-.151-.018-.303-.054-.451h9.442Zm-23.388-.163c.1.19.15.4.15.615v11.912h10.538V27.292c0-.214.052-.425.151-.615l.223-.44H77.606l.222.44Zm10.14.163c-.036.148-.054.3-.054.452V38.6h-9.333V27.29c0-.151-.018-.303-.054-.451h9.442Zm-23.387-.163c.099.19.15.4.15.615v11.912H75.27V27.292c0-.214.052-.425.15-.615l.224-.44H64.358l.223.44Zm10.14.163c-.036.148-.054.3-.054.452V38.6h-9.333V27.29c0-.151-.018-.303-.055-.451h9.442Zm118.57 14.173h-3.589a3.325 3.325 0 0 0-3.185-2.412h-1.957V27.29a1.871 1.871 0 0 0-.136-.708 1.807 1.807 0 0 0-.918-3.362H62.474a1.801 1.801 0 0 0-1.743 1.33 1.81 1.81 0 0 0 .824 2.032c-.09.226-.136.466-.135.709V38.6h-1.957a3.318 3.318 0 0 0-3.186 2.412h-3.89a2.72 2.72 0 0 0-2.71 2.714v159.231c.002.719.288 1.408.796 1.917a2.714 2.714 0 0 0 1.914.797h140.904a2.715 2.715 0 0 0 2.71-2.714V43.728a2.72 2.72 0 0 0-2.71-2.715Zm2.108 161.945a2.115 2.115 0 0 1-2.108 2.111H52.387a2.114 2.114 0 0 1-2.108-2.111V43.728a2.115 2.115 0 0 1 2.108-2.111h4.372l.048-.242a2.725 2.725 0 0 1 2.656-2.171h2.559V27.292c0-.245.067-.486.193-.697l.186-.31-.34-.127a1.201 1.201 0 0 1-.773-1.34 1.204 1.204 0 0 1 1.186-.994h121.032a1.2 1.2 0 0 1 1.043 1.805 1.201 1.201 0 0 1-.63.529l-.341.127.187.31c.126.21.193.452.193.697v11.912h2.559a2.715 2.715 0 0 1 2.655 2.171l.048.242h4.071a2.11 2.11 0 0 1 2.107 2.11l.001 159.231ZM64.359 26.236l.222.44c.099.19.15.402.15.616v11.912H75.27V27.292c0-.214.052-.425.15-.615l.224-.44H64.358Zm10.308 1.056V38.6h-9.333V27.29c0-.151-.018-.303-.055-.451h9.442c-.036.148-.054.3-.054.452Zm2.939-1.056.222.44c.1.19.15.402.15.616v11.912h10.538V27.292c0-.214.052-.425.151-.615l.223-.44H77.606Zm10.308 1.056V38.6h-9.333V27.29c0-.151-.018-.303-.054-.451h9.442c-.037.148-.055.3-.055.452Zm2.939-1.056.223.44c.098.19.15.402.15.616v11.912h10.538V27.292c0-.214.052-.425.15-.615l.223-.44H90.853Zm10.309 1.056V38.6h-9.334V27.29c0-.151-.018-.303-.054-.451h9.442c-.036.148-.054.3-.054.452Zm2.938-1.056.223.44c.099.19.15.402.151.616v11.912h10.537V27.292c0-.214.052-.425.151-.615l.223-.44H104.1Zm10.309 1.056V38.6h-9.333V27.29c0-.151-.018-.303-.055-.451h9.442c-.036.148-.054.3-.054.452Zm2.939-1.056.222.44c.099.19.151.402.151.616v11.912h10.538V27.292c0-.214.051-.425.15-.615l.223-.44h-11.284Zm10.308 1.056V38.6h-9.333V27.29c0-.151-.018-.303-.054-.451h9.442c-.037.148-.055.3-.055.452Zm2.939-1.056.223.44c.098.19.15.402.15.616v11.912h10.538V27.292c0-.214.052-.425.15-.615l.223-.44h-11.284Zm10.309 1.056V38.6h-9.334V27.29a1.863 1.863 0 0 0-.054-.451h9.442c-.036.148-.054.3-.054.452Zm2.938-1.056.223.44c.099.19.15.402.151.616v11.912h10.537V27.292c0-.214.052-.425.151-.615l.223-.44h-11.285Zm10.309 1.056V38.6h-9.333V27.29c0-.151-.018-.303-.054-.451h9.441c-.036.148-.054.3-.054.452Zm2.939-1.056.222.44c.099.19.151.402.151.616v11.912h10.538V27.292c0-.214.051-.425.15-.615l.223-.44H157.09Zm10.308 1.056V38.6h-9.333V27.29c0-.151-.018-.303-.054-.451h9.442c-.037.148-.055.3-.055.452Zm2.939-1.056.223.44c.099.19.15.402.15.616v11.912h10.538V27.292c0-.214.052-.425.15-.615l.223-.44h-11.284Zm10.309 1.056V38.6h-9.334V27.29a1.863 1.863 0 0 0-.054-.451h9.442c-.036.148-.054.3-.054.452ZM64.358 26.236l.223.44c.099.19.15.402.15.616v11.912H75.27V27.292c0-.214.052-.425.15-.615l.224-.44H64.358Zm10.309 1.056V38.6h-9.333V27.29c0-.151-.018-.303-.055-.451h9.442c-.036.148-.054.3-.054.452Zm2.939-1.056.222.44c.1.19.15.402.15.616v11.912h10.538V27.292c0-.214.052-.425.151-.615l.223-.44H77.606Zm10.308 1.056V38.6h-9.333V27.29c0-.151-.018-.303-.054-.451h9.442c-.037.148-.055.3-.055.452Zm2.939-1.056.223.44c.098.19.15.402.15.616v11.912h10.538V27.292c0-.214.052-.425.15-.615l.223-.44H90.853Zm10.309 1.056V38.6h-9.334V27.29c0-.151-.018-.303-.054-.451h9.442c-.036.148-.054.3-.054.452Zm2.938-1.056.223.44c.099.19.15.402.151.616v11.912h10.537V27.292c0-.214.052-.425.151-.615l.223-.44H104.1Zm10.309 1.056V38.6h-9.333V27.29c0-.151-.018-.303-.055-.451h9.442c-.036.148-.054.3-.054.452Zm2.939-1.056.222.44c.099.19.151.402.151.616v11.912h10.538V27.292c0-.214.051-.425.15-.615l.223-.44h-11.284Zm10.308 1.056V38.6h-9.333V27.29c0-.151-.018-.303-.054-.451h9.442c-.037.148-.055.3-.055.452Zm2.939-1.056.223.44c.098.19.15.402.15.616v11.912h10.538V27.292c0-.214.052-.425.15-.615l.223-.44h-11.284Zm10.309 1.056V38.6h-9.334V27.29a1.863 1.863 0 0 0-.054-.451h9.442c-.036.148-.054.3-.054.452Zm2.938-1.056.223.44c.099.19.15.402.151.616v11.912h10.537V27.292c0-.214.052-.425.151-.615l.223-.44h-11.285Zm10.309 1.056V38.6h-9.333V27.29c0-.151-.018-.303-.054-.451h9.441c-.036.148-.054.3-.054.452Zm2.939-1.056.222.44c.099.19.151.402.151.616v11.912h10.538V27.292c0-.214.051-.425.15-.615l.223-.44H157.09Zm10.308 1.056V38.6h-9.333V27.29c0-.151-.018-.303-.054-.451h9.442c-.037.148-.055.3-.055.452Zm2.939-1.056.223.44c.099.19.15.402.15.616v11.912h10.538V27.292c0-.214.052-.425.15-.615l.223-.44h-11.284Zm10.309 1.056V38.6h-9.334V27.29a1.863 1.863 0 0 0-.054-.451h9.442c-.036.148-.054.3-.054.452ZM64.358 26.236l.223.44c.099.19.15.402.15.616v11.912H75.27V27.292c0-.214.052-.425.15-.615l.224-.44H64.358Zm10.309 1.056V38.6h-9.333V27.29c0-.151-.018-.303-.055-.451h9.442c-.036.148-.054.3-.054.452Zm2.939-1.056.222.44c.1.19.15.402.15.616v11.912h10.538V27.292c0-.214.052-.425.151-.615l.223-.44H77.606Zm10.308 1.056V38.6h-9.333V27.29c0-.151-.018-.303-.054-.451h9.442c-.037.148-.055.3-.055.452Zm2.939-1.056.223.44c.098.19.15.402.15.616v11.912h10.538V27.292c0-.214.052-.425.15-.615l.223-.44H90.853Zm10.309 1.056V38.6h-9.334V27.29c0-.151-.018-.303-.054-.451h9.442c-.036.148-.054.3-.054.452Zm2.938-1.056.223.44c.099.19.15.402.151.616v11.912h10.537V27.292c0-.214.052-.425.151-.615l.223-.44H104.1Zm10.309 1.056V38.6h-9.333V27.29c0-.151-.018-.303-.055-.451h9.442c-.036.148-.054.3-.054.452Zm2.939-1.056.222.44c.099.19.151.402.151.616v11.912h10.538V27.292c0-.214.051-.425.15-.615l.223-.44h-11.284Zm10.308 1.056V38.6h-9.333V27.29c0-.151-.018-.303-.054-.451h9.442c-.037.148-.055.3-.055.452Zm2.939-1.056.223.44c.098.19.15.402.15.616v11.912h10.538V27.292c0-.214.052-.425.15-.615l.223-.44h-11.284Zm10.309 1.056V38.6h-9.334V27.29a1.863 1.863 0 0 0-.054-.451h9.442c-.036.148-.054.3-.054.452Zm2.938-1.056.223.44c.099.19.15.402.151.616v11.912h10.537V27.292c0-.214.052-.425.151-.615l.223-.44h-11.285Zm10.309 1.056V38.6h-9.333V27.29c0-.151-.018-.303-.054-.451h9.441c-.036.148-.054.3-.054.452Zm2.939-1.056.222.44c.099.19.151.402.151.616v11.912h10.538V27.292c0-.214.051-.425.15-.615l.223-.44H157.09Zm10.308 1.056V38.6h-9.333V27.29c0-.151-.018-.303-.054-.451h9.442c-.037.148-.055.3-.055.452Zm2.939-1.056.223.44c.099.19.15.402.15.616v11.912h10.538V27.292c0-.214.052-.425.15-.615l.223-.44h-11.284Zm10.309 1.056V38.6h-9.334V27.29a1.863 1.863 0 0 0-.054-.451h9.442c-.036.148-.054.3-.054.452ZM64.358 26.236l.223.44c.099.19.15.402.15.616v11.912H75.27V27.292c0-.214.052-.425.15-.615l.224-.44H64.358Zm10.309 1.056V38.6h-9.333V27.29c0-.151-.018-.303-.055-.451h9.442c-.036.148-.054.3-.054.452Zm2.939-1.056.222.44c.1.19.15.402.15.616v11.912h10.538V27.292c0-.214.052-.425.151-.615l.223-.44H77.606Zm10.308 1.056V38.6h-9.333V27.29c0-.151-.018-.303-.054-.451h9.442c-.037.148-.055.3-.055.452Zm2.939-1.056.223.44c.098.19.15.402.15.616v11.912h10.538V27.292c0-.214.052-.425.15-.615l.223-.44H90.853Zm10.309 1.056V38.6h-9.334V27.29c0-.151-.018-.303-.054-.451h9.442c-.036.148-.054.3-.054.452Zm2.938-1.056.223.44c.099.19.15.402.151.616v11.912h10.537V27.292c0-.214.052-.425.151-.615l.223-.44H104.1Zm10.309 1.056V38.6h-9.333V27.29c0-.151-.018-.303-.055-.451h9.442c-.036.148-.054.3-.054.452Zm2.939-1.056.222.44c.099.19.151.402.151.616v11.912h10.538V27.292c0-.214.051-.425.15-.615l.223-.44h-11.284Zm10.308 1.056V38.6h-9.333V27.29c0-.151-.018-.303-.054-.451h9.442c-.037.148-.055.3-.055.452Zm2.939-1.056.223.44c.098.19.15.402.15.616v11.912h10.538V27.292c0-.214.052-.425.15-.615l.223-.44h-11.284Zm10.309 1.056V38.6h-9.334V27.29a1.863 1.863 0 0 0-.054-.451h9.442c-.036.148-.054.3-.054.452Zm2.938-1.056.223.44c.099.19.15.402.151.616v11.912h10.537V27.292c0-.214.052-.425.151-.615l.223-.44h-11.285Zm10.309 1.056V38.6h-9.333V27.29c0-.151-.018-.303-.054-.451h9.441c-.036.148-.054.3-.054.452Zm2.939-1.056.222.44c.099.19.151.402.151.616v11.912h10.538V27.292c0-.214.051-.425.15-.615l.223-.44H157.09Zm10.308 1.056V38.6h-9.333V27.29c0-.151-.018-.303-.054-.451h9.442c-.037.148-.055.3-.055.452Zm2.939-1.056.223.44c.099.19.15.402.15.616v11.912h10.538V27.292c0-.214.052-.425.15-.615l.223-.44h-11.284Zm10.309 1.056V38.6h-9.334V27.29a1.863 1.863 0 0 0-.054-.451h9.442c-.036.148-.054.3-.054.452Z" fill="#151A40"/><path d="M100.154 79.012H77.951a1.764 1.764 0 0 1-1.763-1.767V65.398a1.77 1.77 0 0 1 1.763-1.766h22.203a1.765 1.765 0 0 1 1.763 1.767v11.846a1.766 1.766 0 0 1-1.763 1.767Zm33.787 0h-22.203a1.763 1.763 0 0 1-1.763-1.767V65.398a1.766 1.766 0 0 1 1.763-1.766h22.203a1.764 1.764 0 0 1 1.763 1.767v11.846a1.766 1.766 0 0 1-1.763 1.767Zm33.786 0h-22.203a1.764 1.764 0 0 1-1.763-1.767V65.398a1.766 1.766 0 0 1 1.763-1.766h22.203a1.772 1.772 0 0 1 1.764 1.767v11.846a1.772 1.772 0 0 1-1.764 1.767Zm-67.573 39.505H77.951a1.767 1.767 0 0 1-1.763-1.767v-11.847a1.769 1.769 0 0 1 1.763-1.766h22.203a1.763 1.763 0 0 1 1.763 1.766v11.847a1.766 1.766 0 0 1-1.763 1.767Zm33.787 0h-22.203a1.766 1.766 0 0 1-1.763-1.767v-11.847a1.765 1.765 0 0 1 1.763-1.766h22.203a1.765 1.765 0 0 1 1.763 1.766v11.847a1.766 1.766 0 0 1-1.763 1.767Z" fill="#fff"/><path d="M167.727 118.517h-22.203a1.767 1.767 0 0 1-1.763-1.767v-11.847a1.765 1.765 0 0 1 1.763-1.766h22.203a1.77 1.77 0 0 1 1.764 1.766v11.847a1.77 1.77 0 0 1-1.764 1.767Z" fill="#A3CC4A"/><path d="M100.154 158.024H77.951a1.767 1.767 0 0 1-1.763-1.767V144.41a1.769 1.769 0 0 1 1.763-1.766h22.203a1.765 1.765 0 0 1 1.763 1.766v11.847a1.767 1.767 0 0 1-1.763 1.767Zm33.787 0h-22.203a1.766 1.766 0 0 1-1.763-1.767V144.41a1.765 1.765 0 0 1 1.763-1.766h22.203a1.765 1.765 0 0 1 1.763 1.766v11.847a1.767 1.767 0 0 1-1.763 1.767Zm33.786 0h-22.203a1.767 1.767 0 0 1-1.763-1.767V144.41a1.765 1.765 0 0 1 1.763-1.766h22.203a1.77 1.77 0 0 1 1.764 1.766v11.847a1.773 1.773 0 0 1-1.764 1.767Z" fill="#fff"/><path d="M96.56 80.533H70.84a2.353 2.353 0 0 1-2.344-2.348V64.46a2.353 2.353 0 0 1 2.343-2.349h25.72a2.345 2.345 0 0 1 2.345 2.348v13.724a2.353 2.353 0 0 1-2.344 2.349ZM70.84 62.715a1.743 1.743 0 0 0-1.743 1.745v13.724a1.748 1.748 0 0 0 1.742 1.746h25.72a1.743 1.743 0 0 0 1.743-1.746V64.46a1.749 1.749 0 0 0-1.743-1.745H70.84Zm64.859 17.818h-25.72a2.347 2.347 0 0 1-2.344-2.349V64.46a2.352 2.352 0 0 1 2.344-2.348h25.72a2.347 2.347 0 0 1 2.344 2.348v13.724a2.348 2.348 0 0 1-2.344 2.349Zm-25.72-17.818a1.745 1.745 0 0 0-1.742 1.745v13.724a1.745 1.745 0 0 0 1.742 1.746h25.72a1.745 1.745 0 0 0 1.742-1.745V64.46a1.745 1.745 0 0 0-1.742-1.745h-25.72Zm64.861 17.818h-25.72a2.353 2.353 0 0 1-2.345-2.348V64.46a2.352 2.352 0 0 1 2.345-2.349h25.72a2.347 2.347 0 0 1 2.344 2.348v13.724a2.347 2.347 0 0 1-2.344 2.348Zm-25.72-17.818a1.745 1.745 0 0 0-1.742 1.745v13.724a1.748 1.748 0 0 0 1.742 1.746h25.72a1.75 1.75 0 0 0 1.742-1.745V64.46a1.75 1.75 0 0 0-1.742-1.745h-25.72Zm-52.56 57.323H70.84a2.348 2.348 0 0 1-2.345-2.349v-13.724a2.352 2.352 0 0 1 2.344-2.348h25.72a2.348 2.348 0 0 1 2.345 2.348v13.724a2.352 2.352 0 0 1-2.344 2.349ZM70.84 102.22a1.746 1.746 0 0 0-1.743 1.745v13.724a1.747 1.747 0 0 0 1.742 1.745h25.72a1.74 1.74 0 0 0 1.743-1.745v-13.724a1.748 1.748 0 0 0-1.743-1.745H70.84Zm64.859 17.818h-25.72a2.35 2.35 0 0 1-2.344-2.349v-13.724a2.35 2.35 0 0 1 2.344-2.348h25.72a2.346 2.346 0 0 1 2.344 2.348v13.724a2.347 2.347 0 0 1-2.344 2.349Zm-25.72-17.818a1.744 1.744 0 0 0-1.742 1.745v13.724a1.745 1.745 0 0 0 1.742 1.745h25.72a1.745 1.745 0 0 0 1.742-1.745v-13.724a1.745 1.745 0 0 0-1.742-1.745h-25.72Zm64.861 17.818h-25.72a2.352 2.352 0 0 1-2.345-2.349v-13.724a2.352 2.352 0 0 1 2.345-2.348h25.72a2.35 2.35 0 0 1 2.344 2.348v13.724a2.35 2.35 0 0 1-2.344 2.349Zm-25.72-17.818a1.748 1.748 0 0 0-1.742 1.745v13.724a1.743 1.743 0 0 0 1.742 1.745h25.72c.462 0 .905-.184 1.231-.511a1.75 1.75 0 0 0 .511-1.234v-13.724a1.75 1.75 0 0 0-1.742-1.745h-25.72Zm-52.56 57.323H70.84a2.342 2.342 0 0 1-1.657-.688 2.352 2.352 0 0 1-.688-1.66v-13.724a2.352 2.352 0 0 1 2.344-2.348h25.72a2.352 2.352 0 0 1 2.344 2.348v13.724a2.347 2.347 0 0 1-2.343 2.348Zm-25.72-17.817a1.746 1.746 0 0 0-1.743 1.745v13.724a1.747 1.747 0 0 0 1.742 1.745h25.72a1.74 1.74 0 0 0 1.743-1.745v-13.724a1.748 1.748 0 0 0-1.743-1.745H70.84Zm64.859 17.817h-25.72a2.344 2.344 0 0 1-2.344-2.348v-13.724a2.35 2.35 0 0 1 2.344-2.348h25.72a2.346 2.346 0 0 1 2.344 2.348v13.724a2.347 2.347 0 0 1-2.344 2.348Zm-25.72-17.817a1.744 1.744 0 0 0-1.742 1.745v13.724a1.747 1.747 0 0 0 1.742 1.745h25.72a1.747 1.747 0 0 0 1.742-1.745v-13.724a1.745 1.745 0 0 0-1.742-1.745h-25.72Zm64.861 17.817h-25.72a2.352 2.352 0 0 1-2.345-2.348v-13.724a2.352 2.352 0 0 1 2.345-2.348h25.72a2.345 2.345 0 0 1 2.344 2.348v13.724a2.344 2.344 0 0 1-2.344 2.348Zm-25.72-17.817a1.748 1.748 0 0 0-1.742 1.745v13.724a1.743 1.743 0 0 0 1.742 1.745h25.72c.462 0 .905-.184 1.231-.511.327-.328.51-.771.511-1.234v-13.724a1.75 1.75 0 0 0-1.742-1.745h-25.72Zm-11.076 35.209a2.59 2.59 0 0 0-2.559-2.626H122.84v31.212h15.204v-28.586Z" fill="#151A40"/><path d="M123.139 205.219h-15.806v-28.197a2.87 2.87 0 0 1 2.86-2.865h12.946v31.062Zm-15.204-.603h14.602V174.76h-12.344a2.263 2.263 0 0 0-2.258 2.262v27.594Z" fill="#151A40"/><path d="M109.29 191.8a.904.904 0 0 0 .903-.905.904.904 0 1 0-1.806 0c0 .5.404.905.903.905Z" fill="#151A40"/></svg>