<svg width="306" height="178" fill="none" xmlns="http://www.w3.org/2000/svg"><path d="M113.447 24.079 6.078.397 4.683.09a3.783 3.783 0 0 0-2.134.146A3.868 3.868 0 0 0 .818 1.52 4.027 4.027 0 0 0 .4 5.7l42.63 88.517a3.942 3.942 0 0 0 1.182 1.436 3.83 3.83 0 0 0 1.696.719 3.756 3.756 0 0 0 1.835-.166 3.828 3.828 0 0 0 1.547-1.02L78.9 63.264a2.25 2.25 0 0 1 .75-.546c.284-.127.591-.192.901-.192.422-.006.837.105 1.202.322.364.217.665.53.868.909l6.065 11.47a3.81 3.81 0 0 0 1.779 1.733 3.698 3.698 0 0 0 2.446.246l.03-.007a3.765 3.765 0 0 0 2.118-1.304 3.915 3.915 0 0 0 .876-2.365l1.215-26.477c.015-.33.095-.654.237-.951a2.59 2.59 0 0 1 .609-.769l17.082-14.337a3.96 3.96 0 0 0 1.213-1.799 4.04 4.04 0 0 0 .092-2.183 3.975 3.975 0 0 0-1.055-1.9 3.846 3.846 0 0 0-1.881-1.035Zm.655 5.698L97.02 44.114a3.855 3.855 0 0 0-.6.622L5.883 2.754a1.515 1.515 0 0 0-1.294.012 1.564 1.564 0 0 0-.741.76 1.614 1.614 0 0 0-.096 1.068c.09.357.3.67.593.885l74.44 55.91a3.744 3.744 0 0 0-1.008.786L48.17 94.097a2.311 2.311 0 0 1-.928.61 2.269 2.269 0 0 1-2.118-.329 2.357 2.357 0 0 1-.71-.862L1.783 5a2.422 2.422 0 0 1 .258-2.503c.268-.35.627-.617 1.035-.769a2.274 2.274 0 0 1 1.277-.092l1.429.316 107.335 23.673c.426.094.817.31 1.13.62.312.312.532.707.635 1.14a2.42 2.42 0 0 1-.054 1.31 2.373 2.373 0 0 1-.726 1.082Z" fill="#A3CC4A"/><path d="M96.135 72.222c1.097-4.132 5.661-9.16 11.933-8.084 3.111.534 5.125 2.583 6.427 4.708 1.802 2.939 2.48 6.285 2.652 9.51.198 3.721-.301 7.437-.829 11.13-.52 3.645-.986 7.29-1.271 10.952a143.507 143.507 0 0 0 3.121 42.747 138.895 138.895 0 0 0 2.761 10.307 71.47 71.47 0 0 0 3.479 9.467c1.917 4.061 5.647 10.663 12.554 10.125 3.663-.286 6.588-2.479 8.626-4.692 2.464-2.675 4.086-5.77 5.66-8.802 7.323-14.103 14.56-28.233 21.839-42.35 1.699-3.294 3.353-6.611 5.344-9.808 1.863-2.994 4.029-5.973 7.023-8.383 2.614-2.104 6.125-3.984 10.049-3.918 3.254.055 6.016 1.561 8.08 3.406 5.11 4.567 7.181 11.027 8.267 16.866 1.348 7.253 1.341 14.612 2.643 21.871 1.051 5.861 3.081 12.123 7.836 16.89a14.8 14.8 0 0 0 7.074 4.117c2.817.609 5.75.313 8.394-.846 3.033-1.292 5.448-3.351 7.427-5.517a33.154 33.154 0 0 0 5.496-8.367c3.017-6.438 4.587-13.207 6.902-19.801 1.136-3.234 2.38-6.501 4.331-9.504 1.652-2.544 3.879-5.316 7.19-6.731 6.833-2.92 10.905 4.047 12.447 7.994a52.042 52.042 0 0 1 2.326 8.263c.126.595 1.294.343 1.169-.25a50.07 50.07 0 0 0-2.491-8.676c-.973-2.381-2.251-4.837-4.45-6.707a9.21 9.21 0 0 0-3.399-1.848 9.117 9.117 0 0 0-3.844-.281c-3.279.495-5.805 2.648-7.634 4.67-2.42 2.674-4 5.723-5.288 8.814-1.357 3.256-2.414 6.58-3.451 9.904-2.072 6.641-3.919 13.58-8.328 19.575-3.085 4.194-8.868 9.891-16.037 8.496-3.182-.619-5.67-2.5-7.5-4.529a26.448 26.448 0 0 1-4.849-8.111c-5.258-13.285-1.498-27.906-8.639-40.849-2.427-4.4-6.848-9.746-13.803-9.79-3.613-.021-6.927 1.451-9.546 3.272-3.137 2.181-5.457 5.005-7.395 7.879a91.918 91.918 0 0 0-5.356 9.407 9715.965 9715.965 0 0 0-5.479 10.624l-11.084 21.495-5.507 10.68c-1.681 3.259-3.293 6.602-5.76 9.566-2.021 2.426-5.335 5.293-9.451 5.046-3.268-.197-5.626-2.405-7.203-4.423-2.042-2.612-3.363-5.547-4.461-8.467-1.265-3.369-2.316-6.792-3.26-10.222a140.084 140.084 0 0 1-4.127-21.446 143.362 143.362 0 0 1-.799-21.787c.146-3.674.435-7.343.867-11.006.447-3.776 1.136-7.535 1.442-11.32.276-3.425.212-6.882-.676-10.254-.742-2.816-2.065-5.79-4.645-7.927a10.16 10.16 0 0 0-6.94-2.218 12.339 12.339 0 0 0-6.877 2.598 11.767 11.767 0 0 0-4.15 6.285c-.156.59 1.012.842 1.17.25Z" fill="#EFF3F2"/><path d="M129.966 170.145c0 3.873 3.087 7.013 6.895 7.013 3.809 0 6.896-3.14 6.896-7.013 0-3.873-3.087-7.012-6.896-7.012-3.808 0-6.895 3.139-6.895 7.012Z" fill="#151A40"/><path d="M227.155 157.351c0 3.873 3.088 7.013 6.896 7.013s6.896-3.14 6.896-7.013c0-3.873-3.088-7.012-6.896-7.012s-6.896 3.139-6.896 7.012Zm68.035-38.578-19.145 8.465a3.517 3.517 0 0 0-1.848 1.949 3.6 3.6 0 0 0 .045 2.708l5.945 13.91a3.506 3.506 0 0 0 1.916 1.88 3.423 3.423 0 0 0 2.661-.046l19.145-8.465a3.519 3.519 0 0 0 1.849-1.949 3.6 3.6 0 0 0-.045-2.708l-5.945-13.91a3.512 3.512 0 0 0-1.916-1.88 3.43 3.43 0 0 0-2.662.046Zm.793 1.854c.114-.05.234-.085.358-.105l-6.473 12.422-13.294-3.7c.083-.06.171-.11.264-.151l19.145-8.466Zm7.133 16.692-19.144 8.466c-.363.16-.773.167-1.141.019a1.501 1.501 0 0 1-.821-.806l-5.891-13.784 13.992 3.895c.218.06.45.044.657-.048a.998.998 0 0 0 .484-.454l6.775-13.002 5.862 13.718c.158.369.165.787.02 1.161-.145.374-.43.674-.793.835Z" fill="#A3CC4A"/><path d="M113.447 24.079 6.078.397 4.683.09a3.783 3.783 0 0 0-2.134.146A3.868 3.868 0 0 0 .818 1.52 4.027 4.027 0 0 0 .4 5.7l42.63 88.517a3.942 3.942 0 0 0 1.182 1.436 3.83 3.83 0 0 0 1.696.719 3.756 3.756 0 0 0 1.835-.166 3.828 3.828 0 0 0 1.547-1.02L78.9 63.264a2.25 2.25 0 0 1 .75-.546c.284-.127.591-.192.901-.192.422-.006.837.105 1.202.322.364.217.665.53.868.909l6.065 11.47a3.81 3.81 0 0 0 1.779 1.733 3.698 3.698 0 0 0 2.446.246l.03-.007a3.765 3.765 0 0 0 2.118-1.304 3.915 3.915 0 0 0 .876-2.365l1.215-26.477c.015-.33.095-.654.237-.951a2.59 2.59 0 0 1 .609-.769l17.082-14.337a3.96 3.96 0 0 0 1.213-1.799 4.04 4.04 0 0 0 .092-2.183 3.975 3.975 0 0 0-1.055-1.9 3.846 3.846 0 0 0-1.881-1.035Zm.655 5.698L97.02 44.114a3.855 3.855 0 0 0-1.012 1.28 3.8 3.8 0 0 0-.28.752l.002.007c-.071.27-.112.549-.122.828l-1.215 26.477a2.324 2.324 0 0 1-.519 1.422 2.24 2.24 0 0 1-1.274.78l-.015.003a2.203 2.203 0 0 1-1.472-.138 2.27 2.27 0 0 1-1.07-1.042l-6.066-11.478a3.907 3.907 0 0 0-1.322-1.45 3.796 3.796 0 0 0-1.844-.608l-.008.002c-.088-.004-.176-.009-.262-.005a3.69 3.69 0 0 0-1.754.445c-.378.201-.72.467-1.009.786L48.17 94.097a2.311 2.311 0 0 1-.928.61 2.269 2.269 0 0 1-2.118-.329 2.358 2.358 0 0 1-.71-.862L1.783 5a2.422 2.422 0 0 1 .258-2.503c.268-.35.627-.617 1.035-.769a2.274 2.274 0 0 1 1.277-.092l1.429.316 107.335 23.673c.426.094.817.31 1.13.62.312.312.532.707.635 1.14a2.42 2.42 0 0 1-.054 1.31 2.373 2.373 0 0 1-.726 1.082Z" fill="#151A40"/><path d="m96.406 44.648-.633 1.436-.391-.178-.002-.007L5.567 4.038l74.996 56.636.007-.002.199.157-.905 1.27-1.304-.986L4.656 5.31a1.58 1.58 0 0 1-.59-.883 1.619 1.619 0 0 1 .096-1.067c.152-.333.412-.601.736-.758a1.497 1.497 0 0 1 1.284-.012l89.884 41.901.34.157Z" fill="#151A40"/></svg>