<svg width="212" height="364" fill="none" xmlns="http://www.w3.org/2000/svg"><path fill-rule="evenodd" clip-rule="evenodd" d="M212 0h-92.3a29.741 29.741 0 0 0-21.001 8.675A29.578 29.578 0 0 0 90 29.62v280.762a29.58 29.58 0 0 0 8.699 20.944A29.744 29.744 0 0 0 119.7 340H212v-7.705h-91.627a22.213 22.213 0 0 1-15.684-6.479 22.088 22.088 0 0 1-6.497-15.641V29.826a22.088 22.088 0 0 1 6.497-15.64 22.211 22.211 0 0 1 15.684-6.48h13.257a10.495 10.495 0 0 0 4.802 13.244 10.562 10.562 0 0 0 4.955 1.235h62.286A10.56 10.56 0 0 0 212 20.08V0Z" fill="#EFF3F2"/><path d="m77.594 336.791-1.058 10.043 5.997-.693.706-8.311-5.645-1.039Z" fill="#FFB9B9"/><path d="M61.72 260.604s-30.693 29.089-11.29 38.093h5.998s13.053-21.126 19.404-20.778l1.763 20.086-1.058 40.517 7.761.347s4.587-20.432 4.234-31.86l8.114-42.25-34.926-4.155Z" fill="#151A40"/><path d="m52.194 297.312 4.234 1.386s16.58-3.81 17.638-3.463l3.283-.023-.107-8.289h-14.11l-10.938 10.389Zm31.046 47.444s-6.35-2.771-7.409 0c-1.058 2.77-.705 10.735-.705 10.735a7.58 7.58 0 0 1 .705 5.195c-.705 2.77 2.823 4.155 7.409 2.77 4.586-1.385 4.586-4.848 4.586-4.848l-4.586-13.852Zm5.292-58.527s4.939-2.771 4.586 1.385A26.974 26.974 0 0 1 91 295.579s4.586 11.774 0 12.813c-4.586 1.039-8.114-1.385-8.114-3.117 0-1.731 5.645-19.046 5.645-19.046Z" fill="#151A40"/><path d="m73.008 191.342.706 13.16 5.997 5.194 6.703-9.35v-9.35l-13.406.346Z" fill="#FFB9B9"/><path d="m77.594 204.502-4.038-2.946-2.664 3.985-11.995 6.925 7.055 18.008.353 17.662s-13.053 13.159-5.292 14.891c7.762 1.732 35.28 5.541 36.69 2.424 1.411-3.116-1.764-35.323-1.764-35.323l1.059-27.358-10.583-3.756-8.82 5.488Z" fill="#A3CC4A"/><path d="M56.074 226.436s-2.822 19.622 2.47 19.622a24.71 24.71 0 0 0 9.172-1.732l-4.233-10.735 1.764-7.273-9.173.118Z" fill="#FFB9B9"/><path d="m64.19 243.635 3.88.692s11.29-6.925 11.995-7.272c.705-.347-11.29-6.234-11.29-6.234l-8.114 3.117 3.528 9.697Z" fill="#FFB9B9"/><path opacity=".1" d="m68.775 230.821-5.095 1.957 1.568-6.459-9.173.116s-2.822 19.622 2.47 19.622a24.688 24.688 0 0 0 9.172-1.731l-.026-.068.379.068s11.29-6.926 11.995-7.272c.705-.347-11.29-6.233-11.29-6.233Z" fill="#151A40"/><path d="M81.17 197.908c5.563 0 10.074-4.427 10.074-9.888 0-5.462-4.51-9.889-10.074-9.889s-10.074 4.427-10.074 9.889c0 5.461 4.51 9.888 10.074 9.888Z" fill="#FFB9B9"/><path d="m72.264 176.864-1.968-.773s4.115-4.448 9.841-4.061l-1.61-1.741s3.936-1.547 7.515 2.514c1.881 2.134 4.057 4.644 5.416 7.471h2.108l-.88 1.901 3.078 1.902-3.16-.341a10.323 10.323 0 0 1-.3 4.924l.085 1.504s-3.663-5.563-3.663-6.337v1.934s-1.968-1.74-1.968-2.901l-1.074 1.354-.538-2.13-6.62 2.127 1.073-1.741-4.116.58 1.611-2.127s-4.652 2.514-4.831 4.642c-.18 2.127-2.505 4.834-2.505 4.834l-1.074-1.934s-1.61-8.7 3.58-11.601Z" fill="#151A40"/><path d="M89.943 220.432a12.308 12.308 0 0 0-2.823 7.619l-18.698-.693s-4.939-.692-4.939 2.771v3.463s2.47-1.039 3.881 0c1.411 1.038 16.581 10.043 23.99 6.579 7.409-3.463 9.172-16.968 9.172-16.968s-6.702-5.542-10.583-2.771Z" fill="#FFB9B9"/><path d="m94.178 203.117 2.822-.346s5.645.692 4.939 11.428c-.705 10.735-1.058 11.428-1.058 11.428s-7.409-6.58-12.7-3.463l5.997-19.047Zm-33.87 9.351h-1.411a12.68 12.68 0 0 0-2.822 7.965 37.669 37.669 0 0 1-1.235 9.177l11.113-1.905-5.645-15.237Z" fill="#A3CC4A"/><circle cx="20" cy="143" r="19.5" fill="#fff" stroke="#EFF3F2"/><path d="M13.394 142.735a576.804 576.804 0 0 1 6.98-3.07c3.325-1.411 4.016-1.657 4.466-1.665.099-.002.32.023.464.142a.52.52 0 0 1 .17.331c.016.095.036.312.02.481-.18 1.933-.96 6.623-1.356 8.787-.168.916-.498 1.223-.818 1.254-.695.065-1.223-.47-1.896-.92-1.054-.705-1.65-1.144-2.672-1.832-1.182-.796-.415-1.233.258-1.947.176-.187 3.24-3.031 3.298-3.289.008-.033.015-.153-.055-.216-.07-.064-.174-.042-.248-.025-.106.025-1.789 1.16-5.05 3.408-.477.335-.91.498-1.297.489-.428-.009-1.25-.247-1.861-.449-.75-.249-1.346-.381-1.294-.803.027-.22.324-.445.89-.676Z" fill="#25A3E1"/><path d="M36 163a4 4 0 1 0 0-8 4 4 0 0 0 0 8Z" fill="#3F3D56"/><path d="M36.8 161.133h-.814v-3.07c-.3.28-.66.491-1.052.618v-.739c.252-.092.486-.226.692-.396a1.5 1.5 0 0 0 .513-.68h.661v4.267Z" fill="#3F3D56"/><path d="M36 163a4 4 0 1 0 0-8 4 4 0 0 0 0 8Z" fill="#A3CC4A"/><path d="M36.8 161.133h-.814v-3.07c-.3.28-.66.491-1.052.618v-.739c.252-.092.486-.226.692-.396a1.5 1.5 0 0 0 .513-.68h.661v4.267Z" fill="#fff"/><circle cx="140" cy="103" r="19.5" fill="#fff" stroke="#EFF3F2"/><path d="M145.375 97.606a6.811 6.811 0 0 0-4.881-2.043c-3.859 0-6.962 3.14-6.924 6.962 0 1.21.34 2.383.908 3.443l-.984 3.594 3.67-.945a6.764 6.764 0 0 0 3.292.832c3.822 0 6.925-3.141 6.925-6.962a6.866 6.866 0 0 0-2.006-4.881Zm-4.881 10.67a5.619 5.619 0 0 1-2.913-.795l-.227-.113-2.195.567.568-2.156-.152-.227c-1.665-2.687-.87-6.244 1.854-7.908 2.725-1.665 6.244-.87 7.908 1.854 1.665 2.724.871 6.243-1.854 7.908-.87.567-1.929.87-2.989.87Zm3.33-4.2-.416-.189s-.606-.265-.984-.454c-.038 0-.076-.038-.114-.038-.113 0-.189.038-.265.076 0 0-.037.037-.567.643a.208.208 0 0 1-.189.113h-.038a.28.28 0 0 1-.151-.075l-.19-.076c-.416-.189-.794-.416-1.097-.719-.076-.076-.189-.151-.265-.227-.265-.265-.53-.567-.719-.908l-.038-.076c-.037-.038-.037-.075-.075-.151 0-.076 0-.151.038-.189 0 0 .151-.189.264-.303.076-.076.114-.189.19-.265.075-.113.113-.265.075-.378-.038-.189-.492-1.211-.605-1.438a.437.437 0 0 0-.265-.19h-.416c-.076 0-.152.039-.227.039l-.038.037c-.076.038-.151.114-.227.152-.076.076-.114.151-.189.227-.265.34-.416.757-.416 1.173 0 .303.075.605.189.87l.038.114c.34.719.794 1.362 1.4 1.929l.151.152c.113.113.227.189.303.302a6.757 6.757 0 0 0 2.724 1.438c.113.038.265.038.378.076h.379c.189 0 .416-.076.567-.151.114-.076.189-.076.265-.152l.076-.075c.075-.076.151-.114.227-.19a.977.977 0 0 0 .189-.227c.076-.151.114-.34.151-.529v-.265s-.037-.038-.113-.076Z" fill="#0DC143"/><path d="M156 123a4 4 0 1 0 0-8 4 4 0 0 0 0 8Z" fill="#3F3D56"/><path d="M155.524 119.654a.933.933 0 0 0 .172.603.503.503 0 0 0 .392.212.429.429 0 0 0 .354-.174.91.91 0 0 0 .142-.57.95.95 0 0 0-.153-.597.482.482 0 0 0-.586-.143.478.478 0 0 0-.168.135.804.804 0 0 0-.153.534Zm1.735-1.747-.741.086a.579.579 0 0 0-.142-.354.4.4 0 0 0-.296-.114.502.502 0 0 0-.41.228 1.994 1.994 0 0 0-.212.95.874.874 0 0 1 .711-.354 1.061 1.061 0 0 1 .822.382c.234.274.357.626.341.986.019.377-.11.746-.359 1.029a1.282 1.282 0 0 1-.983.386 1.265 1.265 0 0 1-.934-.49c-.26-.328-.39-.865-.39-1.612 0-.766.135-1.318.406-1.656a1.283 1.283 0 0 1 1.054-.507c.276-.01.545.085.753.266.213.206.348.48.38.774Z" fill="#3F3D56"/><path d="M156 123a4 4 0 1 0 0-8 4 4 0 0 0 0 8Z" fill="#A3CC4A"/><path d="M155.524 119.654a.933.933 0 0 0 .172.603.503.503 0 0 0 .392.212.429.429 0 0 0 .354-.174.91.91 0 0 0 .142-.57.95.95 0 0 0-.153-.597.482.482 0 0 0-.586-.143.478.478 0 0 0-.168.135.804.804 0 0 0-.153.534Zm1.735-1.747-.741.086a.579.579 0 0 0-.142-.354.4.4 0 0 0-.296-.114.502.502 0 0 0-.41.228 1.994 1.994 0 0 0-.212.95.874.874 0 0 1 .711-.354 1.061 1.061 0 0 1 .822.382c.234.274.357.626.341.986.019.377-.11.746-.359 1.029a1.282 1.282 0 0 1-.983.386 1.265 1.265 0 0 1-.934-.49c-.26-.328-.39-.865-.39-1.612 0-.766.135-1.318.406-1.656a1.283 1.283 0 0 1 1.054-.507c.276-.01.545.085.753.266.213.206.348.48.38.774Z" fill="#fff"/><circle cx="100" cy="223" r="19.5" fill="#fff" stroke="#EFF3F2"/><path d="M105.877 217.092c-.397-.365-2.004-1.533-5.586-1.549 0 0-4.222-.256-6.28 1.633-1.147 1.146-1.55 2.82-1.592 4.9-.041 2.078-.096 5.974 3.66 7.03h.002l-.003 1.61s-.022.653.407.785c.518.16.826-.336 1.322-.871.272-.294.647-.723.931-1.053 2.568.214 4.543-.279 4.767-.352.519-.17 3.454-.544 3.931-4.44.493-4.008-.24-6.547-1.559-7.693Zm.435 7.411c-.403 3.252-2.781 3.457-3.22 3.598-.186.061-1.921.493-4.104.349 0 0-1.626 1.962-2.132 2.471-.08.08-.173.112-.234.096-.086-.022-.112-.124-.108-.275l.012-2.679c-.003 0-.003 0 0 0-3.178-.881-2.993-4.197-2.957-5.932.035-1.735.361-3.16 1.331-4.117 1.738-1.575 5.327-1.341 5.327-1.341 3.028.013 4.478.925 4.814 1.229 1.118.961 1.688 3.249 1.271 6.601Z" fill="#675DA9"/><path d="M101.767 222.192a.203.203 0 0 1-.202-.192c-.035-.689-.359-1.025-1.018-1.06a.203.203 0 0 1-.192-.214.203.203 0 0 1 .214-.192c.871.048 1.358.547 1.402 1.443a.2.2 0 0 1-.192.212c-.006.003-.009.003-.012.003Z" fill="#675DA9"/><path d="M102.804 222.537h-.003a.204.204 0 0 1-.199-.208c.016-.691-.182-1.252-.605-1.713-.419-.461-.999-.71-1.764-.765a.2.2 0 0 1-.185-.217.2.2 0 0 1 .217-.186c.865.064 1.546.365 2.033.896.49.535.727 1.204.711 1.995a.205.205 0 0 1-.205.198Z" fill="#675DA9"/><path d="M103.867 222.953a.2.2 0 0 1-.202-.201c-.009-1.239-.365-2.184-1.088-2.891-.714-.698-1.62-1.053-2.686-1.063a.204.204 0 0 1-.202-.205c0-.112.093-.201.202-.201 1.175.009 2.174.403 2.964 1.178.794.774 1.201 1.844 1.214 3.175a.201.201 0 0 1-.202.208c.003 0 .003 0 0 0Zm-3.272 1.745s.285.026.439-.163l.298-.374c.144-.186.493-.305.832-.116.189.106.531.317.743.474.227.167.688.551.691.554.221.186.272.458.122.749v.006a3.122 3.122 0 0 1-.621.765c-.004 0-.004.004-.007.004-.214.179-.426.281-.63.304-.026.006-.055.006-.093.006a.897.897 0 0 1-.269-.041l-.007-.01c-.32-.09-.851-.314-1.735-.804a10.272 10.272 0 0 1-1.46-.963 7.537 7.537 0 0 1-.655-.583l-.023-.022-.022-.023-.023-.022-.022-.022a7.963 7.963 0 0 1-.583-.657 10.104 10.104 0 0 1-.963-1.459c-.49-.887-.714-1.418-.804-1.735l-.01-.007a.868.868 0 0 1-.035-.362c.026-.208.128-.416.305-.63 0-.003.003-.003.003-.007.237-.262.493-.467.765-.621h.006c.288-.15.56-.099.75.122 0 0 .387.464.553.692.157.214.368.553.474.742.189.34.07.688-.115.833l-.375.297c-.189.154-.163.439-.163.439s.554 2.106 2.634 2.634Z" fill="#675DA9"/><path d="M116 243a4 4 0 1 0 0-8 4 4 0 0 0 0 8Z" fill="#3F3D56"/><path d="M115.505 238a.52.52 0 0 0 .132.373.462.462 0 0 0 .35.134.48.48 0 0 0 .354-.136.51.51 0 0 0 .132-.374.511.511 0 0 0-.029-.194.515.515 0 0 0-.102-.167.465.465 0 0 0-.347-.135.49.49 0 0 0-.357.137.497.497 0 0 0-.133.362Zm-.072 1.789a.75.75 0 0 0 .165.515.538.538 0 0 0 .809.007.756.756 0 0 0 .158-.514.675.675 0 0 0-.161-.471.52.52 0 0 0-.406-.178.48.48 0 0 0-.425.202.757.757 0 0 0-.14.439Zm-.088-.983a.912.912 0 0 1-.438-.361.944.944 0 0 1-.137-.502 1.012 1.012 0 0 1 .316-.772 1.476 1.476 0 0 1 1.798 0 1.02 1.02 0 0 1 .32.772.912.912 0 0 1-.559.863c.208.077.386.218.509.402.124.183.187.402.18.623a1.243 1.243 0 0 1-.363.945 1.236 1.236 0 0 1-.948.357 1.416 1.416 0 0 1-.922-.299 1.19 1.19 0 0 1-.434-.969 1.223 1.223 0 0 1 .163-.622c.12-.198.3-.352.515-.437Z" fill="#3F3D56"/><path d="M116 243a4 4 0 1 0 0-8 4 4 0 0 0 0 8Z" fill="#A3CC4A"/><path d="M115.505 238a.52.52 0 0 0 .132.373.462.462 0 0 0 .35.134.48.48 0 0 0 .354-.136.51.51 0 0 0 .132-.374.511.511 0 0 0-.029-.194.515.515 0 0 0-.102-.167.465.465 0 0 0-.347-.135.49.49 0 0 0-.357.137.497.497 0 0 0-.133.362Zm-.072 1.789a.75.75 0 0 0 .165.515.538.538 0 0 0 .809.007.756.756 0 0 0 .158-.514.675.675 0 0 0-.161-.471.52.52 0 0 0-.406-.178.48.48 0 0 0-.425.202.757.757 0 0 0-.14.439Zm-.088-.983a.912.912 0 0 1-.438-.361.944.944 0 0 1-.137-.502 1.012 1.012 0 0 1 .316-.772 1.476 1.476 0 0 1 1.798 0 1.02 1.02 0 0 1 .32.772.912.912 0 0 1-.559.863c.208.077.386.218.509.402.124.183.187.402.18.623a1.243 1.243 0 0 1-.363.945 1.236 1.236 0 0 1-.948.357 1.416 1.416 0 0 1-.922-.299 1.19 1.19 0 0 1-.434-.969 1.223 1.223 0 0 1 .163-.622c.12-.198.3-.352.515-.437Z" fill="#fff"/></svg>