<svg width="196" height="158" fill="none" xmlns="http://www.w3.org/2000/svg"><path d="M146.686 47.138c-14.644-2.341-31.32-3.59-48.686-3.59-15.894 0-31.206 1.044-44.91 3.014.003-.21.006-.421.015-.632A46.922 46.922 0 0 1 67.39 13.583 46.757 46.757 0 0 1 100.171.44a46.761 46.761 0 0 1 32.619 13.543 46.926 46.926 0 0 1 13.896 33.155Z" fill="#A3CC4A"/><path opacity=".1" d="M106.025.422a46.736 46.736 0 0 0-19.407 1.463 46.79 46.79 0 0 0-17.135 9.242A46.888 46.888 0 0 0 57.578 26.55a46.967 46.967 0 0 0-4.63 19.573 274.815 274.815 0 0 1 12.616-1.506A46.933 46.933 0 0 1 77.82 15.193 46.781 46.781 0 0 1 106.025.423Z" fill="#fff"/><path d="M167.159 50.856A188.259 188.259 0 0 0 146.68 46.5a295.817 295.817 0 0 0-34.156-3.288 355.42 355.42 0 0 0-26.074-.107 305.17 305.17 0 0 0-33.345 2.822 195.81 195.81 0 0 0-24.264 4.928C10.243 56.006 0 62.91 0 70.292S10.243 84.578 28.84 89.73c13.08 3.625 29.206 6.095 46.777 7.228 7.253.472 14.75.71 22.383.71 7.658 0 15.181-.242 22.455-.714 15.991-1.035 30.785-3.178 43.167-6.293.066-.019.129-.034.195-.05a148.64 148.64 0 0 0 2.472-.642c.292-.082.581-.16.87-.24a.309.309 0 0 1 .05-.015c.277-.075.55-.154.823-.23.547-.157 1.087-.311 1.618-.472l.069-.018c.462-.139.914-.277 1.363-.416.368-.116.732-.23 1.093-.346.264-.085.525-.17.782-.255.189-.063.374-.123.556-.186.249-.081.497-.166.742-.251.103-.035.207-.07.307-.107.236-.079.465-.16.695-.243.248-.088.496-.179.741-.267.204-.072.408-.148.609-.223.17-.066.336-.13.506-.192.462-.173.914-.353 1.36-.529l.666-.27a89.834 89.834 0 0 0 1.687-.714c.163-.076.33-.149.49-.218l.364-.167c.088-.037.176-.078.261-.12.317-.144.631-.292.939-.44a48.502 48.502 0 0 0 3.307-1.737c6.424-3.684 9.813-7.772 9.813-12.02 0-7.382-10.243-14.285-28.841-19.436Zm-.169 38.269c-13.095 3.628-29.265 6.098-46.883 7.221-7.165.456-14.572.692-22.107.692-7.51 0-14.892-.233-22.034-.689-17.647-1.12-33.842-3.59-46.955-7.224C10.707 84.052.628 77.365.628 70.292c.001-.625.08-1.247.233-1.853 1.602-6.381 11.455-12.353 28.15-16.979a195.647 195.647 0 0 1 24.079-4.9 306.072 306.072 0 0 1 33.546-2.831 357.965 357.965 0 0 1 25.696.104 295.186 295.186 0 0 1 34.354 3.304 187.848 187.848 0 0 1 20.304 4.323c16.691 4.626 26.541 10.595 28.146 16.973a7.52 7.52 0 0 1 .236 1.86c0 7.073-10.08 13.76-28.382 18.832Z" fill="#EFF3F2"/><path d="M195.821 70.579c0 4.204-3.458 8.18-9.634 11.733a50.977 50.977 0 0 1-4.246 2.178c-.085.04-.173.082-.261.12l-.364.166c-.16.07-.327.142-.49.217a89.834 89.834 0 0 1-1.687.714c-.22.092-.443.18-.666.271-.446.176-.898.356-1.36.529a48.187 48.187 0 0 1-1.115.415c-.245.088-.493.18-.741.267-.23.082-.459.164-.695.243-.1.037-.204.072-.307.107-.245.085-.493.17-.742.251-.182.063-.367.123-.556.186-.257.085-.518.17-.782.255-.361.116-.725.23-1.093.346-.449.139-.901.277-1.363.415l-.069.02c-.531.16-1.071.314-1.618.471-.273.076-.546.154-.823.23a.309.309 0 0 0-.05.016c-.289.078-.578.157-.87.239a230.355 230.355 0 0 1-2.667.692c-12.046 3.015-26.824 5.21-43.179 6.271-7.165.463-14.634.708-22.308.708a345.7 345.7 0 0 1-22.496-.72C32.532 94.103.449 83.379.449 70.579a7.901 7.901 0 0 1 .352-2.297c.019.053.038.103.06.157 4.482 11.793 36.291 21.324 77.564 23.65 6.323.358 12.872.544 19.575.544 6.731 0 13.305-.189 19.653-.547 41.239-2.335 73.017-11.87 77.483-23.653a6.36 6.36 0 0 0 .198-.567 7.97 7.97 0 0 1 .487 2.713ZM28.794 67.192c-5.228 0-10.784-1.126-10.784-3.214 0-2.089 5.556-3.215 10.784-3.215 5.227 0 10.783 1.126 10.783 3.215 0 2.088-5.556 3.214-10.783 3.214Zm0-5.8c-5.985 0-10.155 1.363-10.155 2.585 0 1.223 4.17 2.586 10.155 2.586 5.984 0 10.155-1.363 10.155-2.586 0-1.222-4.17-2.585-10.155-2.585Z" fill="#EFF3F2"/><path d="M51.095 81.981c-5.228 0-10.783-1.126-10.783-3.214 0-2.089 5.555-3.215 10.783-3.215 5.227 0 10.783 1.126 10.783 3.215 0 2.088-5.556 3.214-10.783 3.214Zm0-5.8c-5.985 0-10.155 1.363-10.155 2.586 0 1.222 4.17 2.585 10.155 2.585 5.984 0 10.155-1.363 10.155-2.585 0-1.223-4.17-2.586-10.155-2.586Zm115.904-8.989c-5.228 0-10.784-1.126-10.784-3.214 0-2.089 5.556-3.215 10.784-3.215 5.227 0 10.783 1.126 10.783 3.215 0 2.088-5.556 3.214-10.783 3.214Zm0-5.8c-5.985 0-10.155 1.363-10.155 2.585 0 1.223 4.17 2.586 10.155 2.586 5.984 0 10.155-1.363 10.155-2.586 0-1.222-4.171-2.585-10.155-2.585Zm-22.302 20.589c-5.228 0-10.783-1.126-10.783-3.214 0-2.089 5.555-3.215 10.783-3.215 5.227 0 10.783 1.126 10.783 3.215 0 2.088-5.556 3.214-10.783 3.214Zm0-5.8c-5.985 0-10.155 1.363-10.155 2.586 0 1.222 4.17 2.585 10.155 2.585 5.984 0 10.155-1.363 10.155-2.585 0-1.223-4.171-2.586-10.155-2.586ZM97.896 88.904c-5.228 0-10.784-1.126-10.784-3.215 0-2.088 5.556-3.214 10.784-3.214 5.227 0 10.783 1.126 10.783 3.214 0 2.089-5.556 3.215-10.783 3.215Zm0-5.8c-5.985 0-10.156 1.363-10.156 2.585 0 1.223 4.171 2.586 10.156 2.586 5.984 0 10.155-1.363 10.155-2.586 0-1.222-4.171-2.585-10.155-2.585Zm7.95 71.934c7.288 0 13.196-5.919 13.196-13.22 0-7.301-5.908-13.219-13.196-13.219-7.288 0-13.196 5.918-13.196 13.219 0 7.301 5.908 13.22 13.196 13.22Z" fill="#EFF3F2"/><path d="m100.828 150.504-6.423 3.222 1.795 3.591 6.423-3.222-1.795-3.591Z" fill="#EFF3F2"/><path d="M97.047 156.952c.38-.579-.56-1.872-2.1-2.89-1.54-1.017-3.098-1.373-3.479-.794-.38.578.56 1.872 2.1 2.89 1.54 1.017 3.098 1.373 3.479.794Zm13.816-6.448-1.795 3.591 6.423 3.222 1.795-3.591-6.423-3.222Z" fill="#EFF3F2"/><path d="M118.123 156.158c1.54-1.018 2.48-2.312 2.099-2.89-.38-.579-1.938-.223-3.478.794-1.541 1.017-2.481 2.311-2.1 2.89.381.579 1.939.223 3.479-.794Z" fill="#EFF3F2"/><path d="M104.922 143.103a4.514 4.514 0 0 0 4.51-4.519 4.514 4.514 0 0 0-4.51-4.518 4.514 4.514 0 0 0-4.51 4.518 4.514 4.514 0 0 0 4.51 4.519Z" fill="#A3CC4A"/><path d="M106.019 137.718a1.506 1.506 0 0 0-.008-2.128 1.5 1.5 0 0 0-2.124-.008 1.507 1.507 0 0 0 .007 2.129c.589.589 1.54.593 2.125.007Z" fill="#3F3D56"/><path d="M116.255 127.437c.199-4.894-4.012-9.04-9.404-9.259-5.393-.219-9.925 3.57-10.123 8.464-.199 4.894 3.55 6.006 8.942 6.226 5.392.219 10.387-.537 10.585-5.431Z" fill="#A3CC4A"/><path d="M123.863 148.74c.868-.746-.353-3.597-2.727-6.366-2.373-2.77-5.001-4.411-5.869-3.664-.868.746.353 3.597 2.726 6.367 2.374 2.77 5.002 4.41 5.87 3.663Zm-30.127-3.663c2.373-2.77 3.594-5.621 2.726-6.367-.868-.747-3.496.894-5.87 3.663-2.373 2.77-3.594 5.621-2.726 6.367.868.747 3.496-.894 5.87-3.663Z" fill="#EFF3F2"/><path d="M109.47 147.029a3.007 3.007 0 0 1-4.669 3.016 3.014 3.014 0 0 1-1.247-1.938l-.001-.005c-.296-1.637.967-2.217 2.601-2.513 1.635-.296 3.02-.197 3.316 1.44Z" fill="#151A40"/></svg>