<svg width="306" height="212" fill="none" xmlns="http://www.w3.org/2000/svg"><path d="M180.071 155.526c42.408 0 76.787-34.816 76.787-77.763S222.479 0 180.071 0c-42.407 0-76.786 34.816-76.786 77.763s34.379 77.763 76.786 77.763Z" fill="#EFF3F2" fill-opacity=".2"/><path d="M43.307 188.014a12.71 12.71 0 0 0 6.503.54 12.8 12.8 0 0 0 5.929-2.757c4.354-3.701 5.719-9.799 6.83-15.444l3.285-16.7-6.878 4.797c-4.947 3.449-10.005 7.009-13.43 12.005-3.425 4.996-4.92 11.816-2.168 17.222" fill="#EFF3F2" fill-opacity=".1"/><path d="M43.895 208.232c-.696-5.135-1.412-10.337-.924-15.527.434-4.61 1.823-9.113 4.65-12.804a21.12 21.12 0 0 1 5.396-4.952c.54-.345 1.036.521.499.864a20.196 20.196 0 0 0-7.909 9.664c-1.722 4.436-1.998 9.271-1.702 13.982.18 2.85.56 5.68.943 8.507a.525.525 0 0 1-.052.377.514.514 0 0 1-.293.239.496.496 0 0 1-.608-.35Z" fill="#fff"/><path d="M89.967 201.159a7.34 7.34 0 0 0 3.044 2.164 7.245 7.245 0 0 0 3.7.375c3.194-.549 5.601-3.148 7.754-5.6l6.368-7.251-4.747.35c-3.414.252-6.914.526-10.02 1.982-3.106 1.457-5.782 4.374-5.968 7.835" fill="#EFF3F2" fill-opacity=".1"/><path d="M84.501 211.271c1.12-2.728 2.248-5.494 3.966-7.904 1.525-2.14 3.49-3.948 5.93-4.938a11.844 11.844 0 0 1 4.063-.859c.364-.013.361.558 0 .57a11.311 11.311 0 0 0-6.64 2.443c-2.11 1.678-3.621 3.975-4.816 6.378-.723 1.453-1.342 2.956-1.958 4.458a.29.29 0 0 1-.345.202.29.29 0 0 1-.2-.35Z" fill="#fff"/><path d="M50.6 199.145a9.518 9.518 0 0 0 3.57 3.253 9.38 9.38 0 0 0 4.688 1.063c4.18-.201 7.664-3.155 10.8-5.96l9.279-8.296-6.14-.298c-4.417-.214-8.947-.413-13.152.966-4.207 1.379-8.086 4.698-8.855 9.107" fill="#EFF3F2" fill-opacity=".1"/><path d="M41.928 211.185c3.35-6.005 7.237-12.678 14.182-14.811a15.638 15.638 0 0 1 5.965-.624c.634.055.476 1.044-.157.989a14.565 14.565 0 0 0-9.52 2.55c-2.683 1.851-4.773 4.423-6.542 7.151-1.084 1.671-2.054 3.413-3.025 5.152-.31.556-1.217.155-.903-.407Zm144.71-102.49c6.662-3.708 14.954-2.964 22.133-.429 7.179 2.536 13.684 6.69 20.655 9.762 21.302 9.389 46.977 7.875 67.06-3.954 1.899 4.474-.138 9.592-2.377 13.902-2.238 4.311-4.789 8.983-3.867 13.763 1.179 6.116 7.511 9.784 10.077 15.448 2.436 5.377 1.128 11.692-.74 17.297-1.869 5.606-4.294 11.253-3.976 17.16.317 5.907 4.555 12.154 10.397 12.158-8.657 1.363-17.485 2.726-26.137 1.33-8.652-1.396-17.258-6.03-21.275-13.915-2.008-3.941-2.782-8.473-5.088-12.243-3.928-6.421-11.466-9.441-18.578-11.717s-14.723-4.468-19.731-10.066c-4.771-5.334-6.282-12.765-8.81-19.491-4.257-11.261-11.652-21.027-21.285-28.112" fill="#fff"/><path d="M194.357 80.749c-2.339-1.102-5.21-1.464-7.59-.44s-4.002 3.649-3.233 5.971c.349 1.053 1.144 2.089.834 3.153-.238.818-1.07 1.359-1.886 1.743-.816.384-1.709.707-2.3 1.355-.59.649-.713 1.764.024 2.267.243.166.547.244.783.419a1.266 1.266 0 0 1 .383 1.409 2.965 2.965 0 0 1-.939 1.251c-.837.732-1.944 1.569-1.684 2.607.097.277.258.527.47.728a1.8 1.8 0 0 0 .748.426c.581.169 1.184.25 1.789.239l24.705.788a9.243 9.243 0 0 0 2.44-.138 2.875 2.875 0 0 0 1.915-1.303c.473-.887.163-1.98-.422-2.808-.584-.828-1.411-1.481-2.094-2.242-.683-.76-1.242-1.71-1.122-2.692.097-.787.609-1.467.977-2.182.368-.714.581-1.608.105-2.265-.671-.927-2.283-.843-3.046-1.707-.576-.651-.465-1.59-.522-2.43-.138-2.021-1.52-3.93-3.487-4.817a6.787 6.787 0 0 0-6.246.431l-.602.237Z" fill="#2F2E41"/><path d="m178.745 207.623-3.869-1.177 2.643-15.675 5.711 1.737-4.485 15.115Z" fill="#A0616A"/><path d="m178.605 211.722-12.476-3.796.047-.16a5.17 5.17 0 0 1 .928-1.77c.421-.522.94-.955 1.526-1.275a5.037 5.037 0 0 1 1.892-.587 5.023 5.023 0 0 1 1.969.192h.001l7.62 2.318-1.507 5.078Z" fill="#2F2E41"/><path d="M215.259 207.756h-4.04l-1.922-15.782h5.963l-.001 15.782Z" fill="#A0616A"/><path d="M216.289 211.722h-13.027v-.167c0-.674.131-1.342.386-1.965a5.142 5.142 0 0 1 1.099-1.666 5.066 5.066 0 0 1 1.645-1.113 5.017 5.017 0 0 1 1.94-.391h7.957v5.302Zm-6.638-15.903c-.353 0-.694-.128-.962-.359a1.511 1.511 0 0 1-.502-.905l-5.999-37.899a1.175 1.175 0 0 0-.34-.658 1.15 1.15 0 0 0-.664-.317 1.137 1.137 0 0 0-.718.152 1.162 1.162 0 0 0-.482.56l-15.542 37.892c-.145.35-.415.631-.755.789a1.473 1.473 0 0 1-1.084.06l-5.614-1.895a1.485 1.485 0 0 1-.824-.687 1.512 1.512 0 0 1-.153-1.069l12.737-57.078a1.508 1.508 0 0 1 1.111-1.132l17.082-4.015a1.476 1.476 0 0 1 1.222.256c11.247 8.277 10.297 35.318 8.201 64.68a1.51 1.51 0 0 1-.446.969 1.474 1.474 0 0 1-.969.424l-5.234.23a1.455 1.455 0 0 1-.065.002Z" fill="#2F2E41"/><path d="M195.271 102.47c4.471 0 8.095-3.67 8.095-8.197 0-4.527-3.624-8.197-8.095-8.197-4.47 0-8.094 3.67-8.094 8.197 0 4.528 3.624 8.197 8.094 8.197Z" fill="#A0616A"/><path d="M195.621 136.758a13.004 13.004 0 0 1-5.61-1.313l-.061-.028-.024-.063-7.259-19.049-.139-3.31a8.025 8.025 0 0 1 .538-3.242 7.945 7.945 0 0 1 1.789-2.743 7.814 7.814 0 0 1 2.734-1.773 7.753 7.753 0 0 1 3.208-.499l7.708.44a7.791 7.791 0 0 1 5.237 2.457 7.994 7.994 0 0 1 2.157 5.423c.2.389 1.622 3.435-1.165 6.296-.104.651-1.078 7.425 2.6 11.149l.103.105-.09.116c-.059.076-4.782 6.033-11.726 6.034Z" fill="#3F3D56"/><path d="M206.444 138.196a3.29 3.29 0 0 0 1.212-.78 3.365 3.365 0 0 0 .96-2.668 3.371 3.371 0 0 0-.433-1.387l7.698-9.026-6.068-.8-6.38 8.694a3.375 3.375 0 0 0-1.37 1.955 3.409 3.409 0 0 0 .259 2.383 3.346 3.346 0 0 0 1.755 1.608c.76.3 1.602.308 2.367.021Z" fill="#A0616A"/><path d="M211.258 131.229c-.29 0-.573-.086-.814-.247l-3.807-2.529a1.511 1.511 0 0 1-.461-2.024l2.756-4.69a2.114 2.114 0 0 0-.233-2.463 2.08 2.08 0 0 0-.698-.518l-7.918-3.595a4.75 4.75 0 0 1-2.255-2.182 4.84 4.84 0 0 1-.419-3.129 4.779 4.779 0 0 1 .903-1.962 4.701 4.701 0 0 1 1.669-1.353 4.632 4.632 0 0 1 4.162.059l12.013 6.234a6.366 6.366 0 0 1 2.085 1.738 6.48 6.48 0 0 1 .158 7.704l-5.939 8.333a1.483 1.483 0 0 1-1.202.624Z" fill="#3F3D56"/><path d="M186.991 93.109c2.556-.208 4.678-2.794 4.412-5.377a4.377 4.377 0 0 0 1.005 2.918 4.273 4.273 0 0 0 2.667 1.502c1.173.131 2.458-.228 3.479.37 1.13.664 1.492 2.276 2.669 2.849 1.138.553 2.583-.202 3.145-1.346.563-1.145.425-2.52.052-3.742a10.585 10.585 0 0 0-2.808-4.566 10.39 10.39 0 0 0-4.664-2.574 10.303 10.303 0 0 0-5.311.086 10.4 10.4 0 0 0-4.581 2.724c-1.075 1.095-1.928 2.49-2.067 4.028-.138 1.537.566 3.205 1.93 3.896l.072-.768Z" fill="#2F2E41"/><path d="M168.16 70.402a3.357 3.357 0 0 1 1.673 2.279 3.396 3.396 0 0 1-.65 2.762l6.314 10.067-6.119-.106-5.058-9.544a3.41 3.41 0 0 1-.474-4.456 3.333 3.333 0 0 1 1.969-1.331 3.296 3.296 0 0 1 2.345.329Z" fill="#A0616A"/><path d="m173.249 77.571 8.131 19.458 8.526 14.64a4.79 4.79 0 0 1 .327 4.128 4.747 4.747 0 0 1-1.182 1.755 4.656 4.656 0 0 1-1.822 1.055 4.644 4.644 0 0 1-3.254-.217 4.733 4.733 0 0 1-2.332-2.309l-16.43-35.555a1.51 1.51 0 0 1-.017-1.236 1.502 1.502 0 0 1 .906-.83l5.328-1.733a1.46 1.46 0 0 1 1.213.137c.272.164.484.412.606.707Z" fill="#3F3D56"/><path d="M250.669 212H.331c-.088 0-.172-.053-.234-.146A.652.652 0 0 1 0 211.5c0-.133.035-.26.097-.354.062-.093.146-.146.234-.146H250.67c.088 0 .172.053.234.146a.653.653 0 0 1 .097.354c0 .133-.035.26-.097.354-.062.093-.146.146-.234.146ZM197.027 36.116v27.367a.336.336 0 0 1-.097.236.327.327 0 0 1-.466 0 .335.335 0 0 1-.096-.236V36.116a.328.328 0 1 1 .659 0Zm28.614 23.217-9.322 9.44a.324.324 0 0 1-.465 0 .335.335 0 0 1-.001-.472l9.322-9.44a.32.32 0 0 1 .233-.098.326.326 0 0 1 .233.097.337.337 0 0 1 0 .473Zm-57.887 0 9.321 9.44a.328.328 0 0 0 .563-.236.335.335 0 0 0-.097-.236l-9.321-9.44a.335.335 0 0 0-.233-.098.327.327 0 0 0-.305.206.33.33 0 0 0 0 .256.34.34 0 0 0 .072.108Z" fill="#fff"/></svg>