<svg width="196" height="164" fill="none" xmlns="http://www.w3.org/2000/svg"><path d="M16.423 92.73C7.353 92.73 0 85.427 0 76.417s7.353-16.314 16.423-16.314c9.07 0 16.424 7.304 16.424 16.314s-7.353 16.315-16.424 16.315Z" fill="#EFF3F2"/><path d="M16.423 80.71c-2.387 0-4.322-1.922-4.322-4.294 0-2.37 1.935-4.293 4.322-4.293s4.322 1.922 4.322 4.293c0 2.371-1.935 4.294-4.322 4.294Z" fill="#A3CC4A"/><path d="M17.212 76.508c-1.82 1.475-2.375 3.8-2.036 6.046a10.482 10.482 0 0 0 3.628 6.302c2.165 1.912 4.805 3.204 7.353 4.526a53.558 53.558 0 0 1 6.732 4.06c8.194 5.916 14.386 14.34 17.929 23.741 3.537 9.385 4.486 20.038 1.798 29.765-1.33 4.812-4.02 10.004-9.032 11.815-3.995 1.444-9.45.514-11.484-3.576-2.185-4.394.864-9.333 4.791-11.514 5.09-2.827 11.171-.761 15.75 2.101 5.04 3.15 9.092 7.672 14.355 10.496a18.139 18.139 0 0 0 7.712 2.235 19.434 19.434 0 0 0 7.308-1.122 24.728 24.728 0 0 0 11.955-9.218c3.343-4.827 4.84-10.744 5.112-16.54.61-12.968-4.546-25.101-8.684-37.127a112.83 112.83 0 0 1-4.979-19.26 99.125 99.125 0 0 1-1.1-19.916c.274-5.887.859-12.044 3.475-17.421 2.3-4.729 6.504-8.599 11.819-9.574a11.863 11.863 0 0 1 7.105.81c.758.344.1 1.454-.655 1.112-4.703-2.13-10.263-.057-13.737 3.384-4.056 4.02-5.546 9.954-6.208 15.43A96.238 96.238 0 0 0 89.563 91.7c3.608 12.172 9.282 23.836 10.591 36.59.598 5.819.291 11.835-1.582 17.415a27.198 27.198 0 0 1-8.677 12.694c-3.822 3.069-8.523 5.16-13.472 5.392-5.556.262-10.428-2.198-14.738-5.471-4.616-3.506-8.864-7.831-14.456-9.796-2.549-.896-5.453-1.314-8.07-.452a10.114 10.114 0 0 0-5.382 4.299c-1.137 1.877-1.556 4.225-.519 6.243.976 1.896 2.88 2.993 4.94 3.369a9.644 9.644 0 0 0 6.364-1.074c2.258-1.281 3.91-3.431 5.068-5.702 2.308-4.53 3.083-9.921 3.2-14.948a49.182 49.182 0 0 0-1.878-14.534 51.237 51.237 0 0 0-15.598-24.699 45.758 45.758 0 0 0-6.04-4.417c-2.325-1.424-4.807-2.562-7.177-3.905-2.333-1.322-4.631-2.901-6.238-5.076a10.872 10.872 0 0 1-2.112-6.419 7.158 7.158 0 0 1 .622-3.085 7.203 7.203 0 0 1 1.887-2.527c.64-.52 1.564.386.916.91Z" fill="#EFF3F2"/><path d="M170.535 151.549a37.932 37.932 0 0 1-19.22 5.985 10.78 10.78 0 0 0 3.695 4.512 10.857 10.857 0 0 0 11.183.748 10.772 10.772 0 0 0 4.251-3.948 10.672 10.672 0 0 0 1.569-5.567v-1.73h-1.478Zm-40.311.506v1.223a10.67 10.67 0 0 0 2.268 6.578 10.798 10.798 0 0 0 5.855 3.811c2.324.588 4.779.391 6.977-.562a10.758 10.758 0 0 0 5.161-4.696c.158-.28.301-.568.428-.863a37.995 37.995 0 0 1-20.689-5.491ZM115.685 22.664c.324-.047.653-.077.981-.099a35.838 35.838 0 0 0-.722 26.924 13.63 13.63 0 0 1-9.005-4.962 13.468 13.468 0 0 1-2.992-8.828 13.473 13.473 0 0 1 3.463-8.655 13.642 13.642 0 0 1 8.275-4.38Zm67.591-.099a13.644 13.644 0 0 1 9.257 4.478 13.477 13.477 0 0 1 3.462 8.656 13.468 13.468 0 0 1-2.992 8.827 13.631 13.631 0 0 1-9.005 4.963 35.834 35.834 0 0 0-.722-26.924Z" fill="#151A40"/><path d="M115.686 22.664a37.026 37.026 0 0 1 18.504-19.17 37.395 37.395 0 0 1 26.67-1.874 37.13 37.13 0 0 1 21.035 16.395 36.712 36.712 0 0 1 4.515 26.178 36.897 36.897 0 0 1-14.343 22.415 37.348 37.348 0 0 1-25.777 7.052 37.253 37.253 0 0 1-23.872-11.96 36.78 36.78 0 0 1-9.615-24.782 36.767 36.767 0 0 1 2.883-14.254Zm.259 26.825a36.138 36.138 0 0 0 17.459 19.513 36.514 36.514 0 0 0 26.14 2.692 36.275 36.275 0 0 0 21.117-15.539 35.855 35.855 0 0 0 5.025-25.624 36.022 36.022 0 0 0-13.704-22.277 36.467 36.467 0 0 0-25.246-7.25 36.387 36.387 0 0 0-23.555 11.579 35.924 35.924 0 0 0-9.514 24.335 35.918 35.918 0 0 0 2.278 12.57Z" fill="#151A40"/><path d="M130.954 28.546h38.033c2.006 0 3.93.791 5.349 2.2a7.49 7.49 0 0 1 2.215 5.313 7.49 7.49 0 0 1-2.215 5.313 7.592 7.592 0 0 1-5.349 2.2h-38.033a7.59 7.59 0 0 1-5.348-2.2 7.49 7.49 0 0 1-2.215-5.313 7.49 7.49 0 0 1 2.215-5.312 7.59 7.59 0 0 1 5.348-2.201Zm19.017 52.594a39.033 39.033 0 0 1 27.181 11.016 38.523 38.523 0 0 1 11.688 26.75 38.498 38.498 0 0 1-10.462 27.247 39.008 39.008 0 0 1-27.892 12.257c-.173.009-.342.009-.515.009a39.028 39.028 0 0 1-27.504-11.317 38.512 38.512 0 0 1-11.393-27.323 38.508 38.508 0 0 1 11.393-27.322 39.027 39.027 0 0 1 27.504-11.317Zm-19.747 70.916a37.986 37.986 0 0 0 20.69 5.491c.134 0 .267-.004.401-.012a38.189 38.189 0 0 0 24.549-10.057 37.708 37.708 0 0 0 11.952-23.555 37.61 37.61 0 0 0-6.463-25.585 38.052 38.052 0 0 0-21.733-15.157 38.286 38.286 0 0 0-26.42 2.65 37.912 37.912 0 0 0-18.243 19.167 37.572 37.572 0 0 0-1.184 26.352 37.845 37.845 0 0 0 16.451 20.706Z" fill="#151A40"/><path d="M122.671 110.262h17c1.184 0 2.32-.468 3.158-1.3a4.423 4.423 0 0 0 1.308-3.137 4.425 4.425 0 0 0-1.308-3.137 4.482 4.482 0 0 0-3.158-1.299h-17a4.479 4.479 0 0 0-3.158 1.299 4.419 4.419 0 0 0 0 6.274 4.48 4.48 0 0 0 3.158 1.3Z" fill="#151A40"/><path d="M138.537 108.076a2.26 2.26 0 0 1-2.267-2.251 2.26 2.26 0 0 1 2.267-2.252 2.26 2.26 0 0 1 2.267 2.252 2.26 2.26 0 0 1-2.267 2.251Zm-7.366 0a2.26 2.26 0 0 1-2.267-2.251 2.26 2.26 0 0 1 2.267-2.252 2.26 2.26 0 0 1 2.267 2.252 2.26 2.26 0 0 1-2.267 2.251Z" fill="#EFF3F2"/><path d="M123.805 108.076a2.26 2.26 0 0 1-2.267-2.251 2.26 2.26 0 0 1 2.267-2.252 2.26 2.26 0 0 1 2.266 2.252 2.259 2.259 0 0 1-2.266 2.251Z" fill="#A3CC4A"/></svg>