<svg width="254" height="208" fill="none" xmlns="http://www.w3.org/2000/svg"><path fill-rule="evenodd" clip-rule="evenodd" d="M254 172.328V200a8 8 0 0 1-8 8H7.44a29.194 29.194 0 0 1-.513-3.304c-.387-3.836-1.82-7.982-3.284-12.214-2.857-8.26-5.827-16.847-1.347-24.098 5.284-8.549 17.233-7.059 25.707-2.596 1.756.925 3.513 1.945 5.276 2.969 6.74 3.915 13.586 7.89 20.978 6.875 7.863-1.08 14.31-7.871 17.793-15.706 3.484-7.835 4.506-16.67 5.486-25.323 1.232-10.871 2.463-21.749 3.693-32.633.45-3.98.983-8.18 3.242-11.33 2.985-4.154 8.458-5.43 13.139-4.182 4.681 1.249 8.673 4.598 12.088 8.333 6.437 7.039 11.232 15.535 16.037 24.048 3.362 5.956 6.728 11.92 10.665 17.4 1.947 2.71 4.146 5.389 7.056 6.698 4.193 1.882 9.008.55 13.104-1.545 12.709-6.489 21.451-19.399 29.866-31.823l1.305-1.927c4.294-6.316 9.528-13.071 16.67-13.76 7.514-.74 14.038 5.603 18.454 12.319 6.21 9.468 10.282 20.451 14.338 31.389 4.595 12.393 9.169 24.728 16.807 34.738Z" fill="#EFF3F2"/><path d="M139.697 146.964s3.327-.751 5.506 1.47c0 0-1.401 1.253-4.697-.135l-.809-1.335Zm-.368-.032s-1.97 2.775-.72 5.623c0 0 1.703-.814 1.655-4.371l-.935-1.252Zm-2.218-4.183s1.182-2.542 6.804.531c0 0-.605 1.698-2.994 1.723-2.388.025-3.104-1.004-3.81-2.254Zm-.357-.155s-2.814-.13-2.656 6.241c0 0 1.797.251 2.918-1.848 1.122-2.099.527-3.183-.262-4.393Zm-1.961-4.959s1.26-4.429 7.174-1.724c0 0-1.033 4.055-6.501 3.166l-.673-1.442Zm-2.194-6.347s2.666-4.569 8.187-.862c0 0-1.56 4.225-7.633 2.392l-.554-1.53Zm-1.044-6.112s3.182-4.245 8.658-.578c0 0-3.039 3.741-8.59 1.603l-.068-1.025Zm-.942-5.941s3.216-4.423 8.465-.789c0 0-3.7 3.965-8.399 1.771l-.066-.982Zm-.045-5.324s3.314-5.643 8.228-2.297c0 0-3.634 4.902-8.157 3.321l-.071-1.024Zm.446-6.257s3.528-5.61 8.338-1.798c0 0-4.309 4.946-8.283 2.792l-.055-.994Zm.914-5.626s4.284-5.337 8.454-3.599c0 0-4.455 5.661-8.568 4.949l.114-1.35Zm1.26-5.359s4.924-6.512 8.157-4.664c0 0-3.606 5.032-8.462 5.848l.305-1.184Zm1.92-6.247s4.327-5.34 7.812-4.317c0 0-3.641 5.482-8.341 5.93l.529-1.612Zm1.726-5.838s4.834-5.16 7.134-4.464c0 0-3.364 5.6-7.287 5.548l.153-1.085Zm1.707-5.4s4.055-6.049 6.506-5.76c0 0-2.346 5.306-6.466 6.343l-.04-.583Zm1.761-7.242s3.626-4.673 5.748-4.803c0 0-2.699 6.096-5.814 6.261l.066-1.458Zm1.008-4.811 3.17-9.44s.756 8.29-3.528 11.176l.358-1.736Zm.853-10.233s.111-7.712-.335-8.308c0 0 3.142 6.196.539 11.699l-.204-3.391Zm-7.531 80.644s-4.097-2.159-6.241 3.94c0 0 3.653 2.073 6.803-2.457l-.562-1.483Zm-2.178-6.492s-4.969-1.866-6.892 4.478c0 0 3.899 2.292 7.437-2.945l-.545-1.533Zm-1.097-5.49s-3.727-3.785-8.659.583c0 0 3.513 3.304 8.727.449l-.068-1.032Zm-.862-6.315s-3.78-3.96-8.495.341c0 0 4.198 3.439 8.568.639l-.073-.98Zm.082-5.185s-2.862-5.878-8.02-2.922c0 0 3.24 5.167 7.872 3.942l.148-1.02Z" fill="#A3CC4A"/><path d="M131.309 107.608s-2.855-5.986-8.079-2.772c0 0 3.695 5.412 7.898 3.739l.181-.967Zm1.141-5.585s-1.421-6.674-5.934-6.98c0 0 1.431 7.045 5.42 8.235l.514-1.255Zm.854-5.349s-.925-8.093-4.652-8.13c0 0 .542 6.154 4.312 9.305l.34-1.175Zm2.175-6.51s-1.565-6.677-5.159-7.264c0 0 .882 6.512 4.922 8.947l.237-1.683Zm1.779-5.56s-.504-7.03-2.746-7.92c0 0-.91 6.457 2.179 8.862l.567-.942Zm1.444-5.508S137.908 71.87 135.6 71c0 0-.378 5.783 2.797 8.59l.305-.495Zm1.953-6.597s-.413-5.889-2.104-7.166c0 0-1.154 6.56 1.348 8.406l.756-1.24Z" fill="#A3CC4A"/><path d="m141.093 66.853-2.218-9.703s-1.569 8.176 2.412 11.467l-.194-1.764Zm-.346-9.767s-4.442-6.332-4.407-7.068c0 0 .892 6.882 6.151 9.99l-1.744-2.922Zm.347-1.977s-4.4-9.114-6.156-9.768c0 0 5.566 2.362 6.453 9.467l-.297.3Z" fill="#A3CC4A"/><path d="m140.221 73.448-.252-.062c2.482-10.52 2.832-17.152.983-18.675l.171-.205c1.95 1.613 1.643 8.165-.902 18.942Z" fill="#151A40"/><path d="m133.096 98.16-.391-.109c.275-.966.572-1.95.89-2.92 2.771-8.446 5.075-16.28 6.488-22.276l.32-.188c-1.416 6.011-3.656 14.134-6.423 22.587a77.478 77.478 0 0 0-.884 2.905Z" fill="#151A40"/><path d="M144.951 154.362c-.056-.052-5.599-5.477-9.858-15.088a57.905 57.905 0 0 1-4.689-17.725c-.756-7.646.277-16.313 2.519-24.27l.323.33c-5.04 17.861-1.56 32.646 2.326 41.427 4.216 9.518 9.696 14.89 9.752 14.943l-.373.383Z" fill="#151A40"/><path d="M151.055 125.758s2.016-.459 3.331.889c0 0-.849.751-2.84-.083l-.491-.806Zm-.22-.018s-1.189 1.678-.433 3.399c0 0 1.028-.501 1.008-2.642l-.575-.757Zm-1.341-2.533s.713-1.535 4.108.323c0 0-.366 1.025-1.81 1.04-1.444.015-1.867-.606-2.298-1.363Zm-.216-.092s-1.704-.077-1.608 3.772c0 0 1.086.151 1.764-1.117.678-1.267.32-1.923-.156-2.655Zm-1.192-2.998s.774-2.677 4.342-1.047c0 0-.623 2.452-3.929 1.914l-.413-.867Zm-1.32-3.837s1.61-2.756 4.949-.521c0 0-.945 2.554-4.614 1.445l-.335-.924Zm-.633-3.695s1.925-2.567 5.234-.35c0 0-1.835 2.254-5.191.969l-.043-.619Zm-.571-3.591s1.946-2.675 5.118-.476c0 0-2.235 2.397-5.077 1.069l-.041-.593Zm-.024-3.221s2.016-3.409 4.972-1.387c0 0-2.198 2.963-4.932 2.003l-.04-.616Zm.263-3.78s2.139-3.393 5.04-1.097c0 0-2.606 2.991-5.01 1.688l-.03-.591Zm.559-3.401s2.588-3.226 5.11-2.174c0 0-2.694 3.421-5.173 2.99l.063-.816Zm.761-3.241s2.976-3.935 4.932-2.82c0 0-2.18 3.043-5.115 3.536l.183-.716Zm1.161-3.771s2.616-3.23 4.727-2.61c0 0-2.199 3.313-5.039 3.584l.312-.975Zm1.044-3.535s2.92-3.118 4.311-2.697c0 0-2.031 3.383-4.405 3.353l.094-.656Zm1.03-3.264s2.452-3.657 3.934-3.486c0 0-1.416 3.208-3.908 3.837l-.026-.35Zm1.069-4.378s2.192-2.825 3.475-2.905c0 0-1.633 3.687-3.515 3.78l.04-.875Zm.606-2.91 1.913-5.7s.454 5.01-2.139 6.762l.226-1.062Zm.517-6.186s.065-4.661-.204-5.022c0 0 1.9 3.745.325 7.073l-.121-2.051Zm-4.555 48.755s-2.475-1.307-3.78 2.379c0 0 2.21 1.253 4.115-1.482l-.335-.897Zm-1.313-3.938s-3.007-1.127-4.168 2.708c0 0 2.356 1.385 4.495-1.779l-.327-.929Zm-.668-3.308s-2.25-2.286-5.234.351c0 0 2.125 2.004 5.277.271l-.043-.622Zm-.519-3.817s-2.286-2.392-5.136.208c0 0 2.538 2.076 5.176.386l-.04-.594Zm.05-3.143s-1.731-3.554-4.851-1.768c0 0 1.961 3.123 4.76 2.384l.091-.616Z" fill="#A3CC4A"/><path d="M145.985 101.961s-1.726-3.62-4.891-1.676c0 0 2.232 3.274 4.775 2.255l.116-.579Zm.689-3.369s-.859-4.037-3.588-4.22c0 0 .864 4.258 3.276 4.977l.312-.757Zm.517-3.238s-.554-4.891-2.822-4.916c0 0 .328 3.721 2.606 5.627l.216-.71Zm1.313-3.936s-.945-4.037-3.117-4.393c0 0 .534 3.935 2.976 5.408l.141-1.015Zm1.076-3.361s-.31-4.258-1.658-4.788c0 0-.552 3.904 1.315 5.357l.343-.569Zm.874-3.331s-.479-4.368-1.875-4.894c0 0-.229 3.507 1.691 5.195l.184-.3Zm1.18-3.986s-.252-3.56-1.26-4.334c0 0-.698 3.968.814 5.082l.446-.749Z" fill="#A3CC4A"/><path d="m151.906 77.326-1.34-5.866s-.95 4.944 1.456 6.933l-.116-1.067Zm-.214-5.904s-2.684-3.824-2.664-4.273c0 0 .537 4.16 3.717 6.04l-1.053-1.767Zm.202-1.197s-2.661-5.51-3.722-5.899c0 0 3.366 1.428 3.901 5.726l-.179.173Z" fill="#A3CC4A"/><path d="m151.372 81.31-.159-.037c1.512-6.36 1.713-10.37.595-11.288l.103-.126c1.187.977 1 4.94-.539 11.452Z" fill="#151A40"/><path d="m147.065 96.253-.237-.068c.166-.583.348-1.177.539-1.753 1.671-5.107 3.067-9.843 3.921-13.467l.194-.115c-.856 3.631-2.21 8.545-3.883 13.657-.191.579-.37 1.162-.534 1.746Z" fill="#151A40"/><path d="M154.232 130.231c-.032-.033-3.384-3.311-5.959-9.122a35.067 35.067 0 0 1-2.835-10.715c-.461-4.623.169-9.863 1.527-14.674l.194.2c-3.047 10.798-.942 19.737 1.406 25.046 2.55 5.761 5.861 9 5.897 9.032l-.23.233Z" fill="#151A40"/><path d="M161.811 142.753a9.75 9.75 0 0 0-1.89.536C146.329 148.684 146.555 184 146.555 184h-4.001s-1.26-15.156-6.751-36.778c-4.946-19.454 15.341-36.888 19.461-40.195.464-.368.721-.563.721-.563 20.434 7.464 5.826 36.289 5.826 36.289Z" fill="#151A40"/><path opacity=".2" d="M157.473 107.077c-.472-.215-.958-.42-1.474-.608 0 0-.252.195-.721.563-4.12 3.306-24.408 20.741-19.461 40.195 5.491 21.622 6.738 36.773 6.738 36.773h2.25s-1.247-15.156-6.751-36.778c-4.926-19.364 15.165-36.733 19.419-40.145Z" fill="#fff"/><path d="M229.229 147.227c-5.503 21.622-6.743 36.773-6.743 36.773h-4.009s.252-36.909-14.295-41.029a8.113 8.113 0 0 0-.961-.223s-14.615-28.825 5.826-36.284c0 0 .207.153.58.451 3.787 3.013 24.604 20.633 19.602 40.312Z" fill="#151A40"/><path opacity=".1" d="M161.812 142.753a9.7 9.7 0 0 0-1.89.536 243.788 243.788 0 0 1-4.656-36.257c.463-.368.72-.563.72-.563 20.434 7.459 5.826 36.284 5.826 36.284Zm47.823-35.833a224.275 224.275 0 0 1-5.446 36.066 7.858 7.858 0 0 0-.96-.222s-14.615-28.826 5.826-36.285c-.007-.01.199.143.58.441Z" fill="#151A40"/><path d="M202.152 148.219a271.507 271.507 0 0 1-4.962 17.031s-9.001 9.32-30.742 0c0 0-2.172-6.086-4.561-16.433-5.259-22.749-11.566-66.102 1.872-110.631A165.236 165.236 0 0 1 180.688 0s11.48 13.102 19.907 38.178c8.426 25.076 13.789 62.132 1.557 110.041Z" fill="#EFF3F2"/><path d="M182.515 91.477c9.968 0 18.05-8.032 18.05-17.94 0-9.909-8.082-17.941-18.05-17.941-9.969 0-18.05 8.032-18.05 17.94 0 9.909 8.081 17.941 18.05 17.941Z" fill="#151A40"/><path d="M195.316 73.546c0 2.41-.688 4.77-1.985 6.805a12.773 12.773 0 0 1-5.339 4.695 12.868 12.868 0 0 1-13.591-1.66 12.905 12.905 0 0 1-3.225-3.936 12.633 12.633 0 0 1-1.459-5.904v-.303a12.685 12.685 0 0 1 2.684-7.5 12.822 12.822 0 0 1 6.639-4.452 13.316 13.316 0 0 1 3.085-.466h.383a12.869 12.869 0 0 1 4.9.966 12.799 12.799 0 0 1 4.155 2.757 12.695 12.695 0 0 1 3.753 8.998Z" fill="#A3CC4A"/><path d="M200.593 38.178c-20.479 9.745-36.846 0-36.846 0A165.247 165.247 0 0 1 180.688 0s11.481 13.102 19.905 38.178Zm1.559 110.041a266.358 266.358 0 0 1-3.2 11.433 237.732 237.732 0 0 1-1.764 5.591s-9.001 9.319-30.743 0c0 0-.705-1.976-1.763-5.591a203.141 203.141 0 0 1-2.805-10.842s8.094 3.434 19.582 3.434a54.247 54.247 0 0 0 20.693-4.025Z" fill="#151A40"/><path d="M198.952 159.652a237.732 237.732 0 0 1-1.764 5.591s-9.001 9.319-30.742 0c0 0-.706-1.976-1.764-5.591-.003 0 22.157 6.337 34.27 0Z" fill="#EFF3F2"/><path opacity=".2" d="m179.048 61.273-.028.02-9.298 11.933v.303a12.633 12.633 0 0 0 1.459 5.903l10.956-18.624-3.089.465Zm2.968 10.77-7.615 11.333a12.905 12.905 0 0 1-2.399-2.587l9.072-9.678.942.932Z" fill="#fff"/><path opacity=".2" d="M171.312 165.246s-2.172-6.089-4.561-16.433c-5.259-22.752-11.566-66.105 1.872-110.634a165.86 165.86 0 0 1 14.83-34.587c-1.706-2.377-2.772-3.59-2.772-3.59a165.26 165.26 0 0 0-16.934 38.176c-13.438 44.53-7.131 87.883-1.872 110.635 2.389 10.344 4.561 16.433 4.561 16.433 8.59 3.679 15.19 4.45 20.033 4.04-4.137-.313-9.162-1.473-15.157-4.04Z" fill="#fff"/></svg>