<svg width="306" height="196" fill="none" xmlns="http://www.w3.org/2000/svg"><path d="M249.042 6.774 1.088 42.546 18.084 160.05l247.954-35.772L249.042 6.774Z" fill="#EFF3F2"/><path d="M243.409 17.873 9.636 51.6l14.18 98.038 233.774-33.726-14.181-98.039Z" fill="#fff"/><path d="M247.954 0 0 35.773l1.522 10.52L249.475 10.52 247.954 0Z" fill="#EFF3F2"/><path d="M8.723 42.799a1.971 1.971 0 1 0 0-3.94 1.97 1.97 0 1 0 0 3.94Zm7.41-1.069c1.09 0 1.973-.882 1.973-1.97s-.884-1.97-1.973-1.97a1.971 1.971 0 1 0 0 3.94Zm7.412-1.07a1.97 1.97 0 1 0 0-3.94 1.971 1.971 0 1 0 0 3.94Z" fill="#fff"/><path d="M306 57.334H55.473v118.725H306V57.334Z" fill="#EFF3F2"/><path d="M298.837 67.515h-236.2v99.056h236.2V67.515Z" fill="#fff"/><path d="M305.893 50.475H55.365v10.629h250.528v-10.63Z" fill="#EFF3F2"/><path d="M63.275 58.695c1.09 0 1.973-.882 1.973-1.97s-.883-1.97-1.973-1.97a1.97 1.97 0 1 0 0 3.94Zm7.488 0a1.97 1.97 0 1 0 0-3.94c-1.09 0-1.973.882-1.973 1.97s.883 1.97 1.973 1.97Zm7.487 0c1.09 0 1.973-.882 1.973-1.97s-.883-1.97-1.973-1.97-1.973.882-1.973 1.97.883 1.97 1.973 1.97Z" fill="#fff"/><path d="M232.008 82.575h-33.266v2.497h33.266v-2.497Zm18.104 7.33h-51.37v2.497h51.37v-2.497Zm-8.97 6.982h-41.866v2.497h41.866v-2.497Zm-17.96 7.66h-24.44v2.497h24.44v-2.497Zm12.447 7.482h-36.887v2.497h36.887v-2.497ZM187.653 81.79h-4.073v4.067h4.073V81.79Zm0 7.33h-4.073v4.068h4.073V89.12Zm0 6.982h-4.073v4.068h4.073v-4.068Zm0 7.66h-4.073v4.068h4.073v-4.068Zm0 7.482h-4.073v4.068h4.073v-4.068Zm44.355 8.315h-33.266v2.497h33.266v-2.497Zm18.104 7.331h-51.37v2.497h51.37v-2.497Zm-8.97 6.981h-41.866v2.497h41.866v-2.497Zm-17.96 7.66h-24.44v2.497h24.44v-2.497Zm12.447 7.483h-36.887v2.497h36.887v-2.497Zm-47.976-30.241h-4.073v4.069h4.073v-4.069Zm0 7.331h-4.073v4.068h4.073v-4.068Zm0 6.981h-4.073v4.068h4.073v-4.068Zm0 7.66h-4.073v4.068h4.073v-4.068Zm0 7.483h-4.073v4.068h4.073v-4.068Zm-60.881-9.082H93.506v2.497h33.266v-2.497Zm4.148 6.489H89.055v2.497h41.865v-2.497Zm.84-37.988a21.676 21.676 0 0 1-2.832 10.705 21.706 21.706 0 0 1-7.753 7.916 21.748 21.748 0 0 1-21.435.483l-.004-.005a21.701 21.701 0 0 1-8.223-7.771 21.669 21.669 0 0 1-.483-21.826 21.707 21.707 0 0 1 7.871-8.126 21.745 21.745 0 0 1 21.859-.242 21.711 21.711 0 0 1 8.05 7.95 21.673 21.673 0 0 1 2.95 10.916Z" fill="#EFF3F2"/><path d="M110.15 106.594a5.9 5.9 0 0 0 5.904-5.897 5.9 5.9 0 0 0-5.904-5.897 5.901 5.901 0 0 0-5.905 5.897 5.901 5.901 0 0 0 5.905 5.897Zm10.083 12.184a30.47 30.47 0 0 1-20.381-.079l-.004-.003 4.399-8.672h11.809l4.177 8.754Z" fill="#fff"/><path d="M44.775 161.492c-10.292 0-18.665-8.883-18.665-19.802s8.373-19.801 18.665-19.801 18.665 8.882 18.665 19.801c0 10.919-8.373 19.802-18.665 19.802Zm0-34.6c-7.53 0-13.655 6.638-13.655 14.798s6.126 14.798 13.655 14.798c7.53 0 13.655-6.638 13.655-14.798s-6.125-14.798-13.655-14.798Z" fill="#A3CC4A"/><path d="M62.45 196H27.1a11.783 11.783 0 0 1-8.31-3.443 11.75 11.75 0 0 1-3.447-8.3v-34.629a8.044 8.044 0 0 1 2.36-5.682 8.063 8.063 0 0 1 5.69-2.357h42.765c2.135.002 4.18.85 5.69 2.357a8.044 8.044 0 0 1 2.36 5.682v34.629a11.75 11.75 0 0 1-3.448 8.3A11.783 11.783 0 0 1 62.45 196Z" fill="#A3CC4A"/><path d="M51.664 161.289a6.88 6.88 0 0 0-7.019-6.883 6.887 6.887 0 0 0-6.753 7.143 6.872 6.872 0 0 0 3.752 5.863v10.763h6.262v-10.763a6.88 6.88 0 0 0 3.758-6.123Z" fill="#fff"/></svg>