<svg width="393" height="24" fill="none" xmlns="http://www.w3.org/2000/svg"><g clip-path="url(#a)"><path d="M106.885.058c.157.01.314-.01.463-.058.018.468-.15.914-.165 1.378-.073.464-.144.928-.214 1.392-.103.46-.176.924-.218 1.392-.103.46-.175.924-.214 1.393a32.23 32.23 0 0 0-.436 2.784 8.634 8.634 0 0 0-.222 1.392c-.02.34-.23.412-.535.371a1.545 1.545 0 0 0-.313.019 1.628 1.628 0 0 0-.347-.015c-.318.054-.415-.088-.378-.37.029-.17.023-.344-.017-.513l-.474.418-.214.144a3.679 3.679 0 0 1-1.421.473c-.499-.007-.981-.086-1.417-.348l-.224-.18c-.368-.395-.551-.873-.647-1.391l.026-1.385.348-1.313c.405-.905.999-1.64 1.917-2.096.459-.162.94-.257 1.427-.283.407.061.828.047 1.219.193.221.082.306.024.335-.2.083-.627.181-1.253.274-1.88.071-.626.078-1.305 1.025-1.246.141-.003.29.015.422-.07Zm-3.281 4.594c-.491-.048-.878.158-1.193.496-.471.506-.674 1.125-.728 1.797a1.95 1.95 0 0 0-.006.893c.129.685.652 1.02 1.352.867.943-.209 1.466-.814 1.509-1.76a8.47 8.47 0 0 0 .221-1.387c.179-.674.153-.716-.527-.87a1.815 1.815 0 0 0-.628-.038v.002ZM87.913.61C88.61.196 89.369.081 90.17.151c.214.019.31.094.298.322-.015.3.01.602.016.905 0 .178-.097.177-.25.164-.3-.027-.604-.085-.895.047a.495.495 0 0 0-.338.172c-.274.278-.307.639-.323 1.001-.15.588-.15.589.451.58.072 0 .143-.01.21-.016.541.042.54.042.547.597 0 .079.012.158.017.237-.047.547-.047.547-.562.576-.047-.005-.093-.013-.143-.013-.87-.018-.87-.017-.975.835-.072.46-.144.92-.214 1.38-.147.927-.291 1.857-.434 2.788 0 .303-.156.404-.46.372-.204-.023-.415.006-.624.012a1.385 1.385 0 0 0-.31-.017c-.321.051-.411-.086-.346-.37l.215-1.39c.101-.458.173-.923.214-1.391.103-.46.174-.924.214-1.392.02-.149.051-.296.092-.44.116-.326.005-.414-.336-.397-.559.026-.56.007-.54-.557a1.49 1.49 0 0 0 .052-.164c.115-.627.115-.627.735-.669.285.078.428-.025.423-.315 0-.08.007-.16.01-.24.117-.429.139-.877.301-1.295.173-.33.41-.623.697-.865Z" fill="#114796"/><path d="M92.192.272c.731.153.892.36.864 1.106-.143.418-.453.677-.864.836h-.072c-.689.03-1.058-.193-1.126-.683-.072-.5.34-1.054.885-1.19.104-.03.21-.048.313-.069Z" fill="#124896"/><path d="M72.218.481a.073.073 0 0 0 0 .054 5.372 5.372 0 0 0-.46.835c-.276.453-.526.92-.75 1.398a2.07 2.07 0 0 0-.296.554 4.97 4.97 0 0 0-.468.84l-.74 1.388a.916.916 0 0 0-.199.352c-.19.347-.378.693-.563 1.04a14.43 14.43 0 0 0-.743 1.387l-.149.279a7.981 7.981 0 0 0-.612 1.121c-.128.324-.357.487-.722.428l-1.417-.035a.94.94 0 0 0-.09-.394l-.308-1.397c-.103-.468-.212-.93-.327-1.386-.06-.474-.192-.934-.305-1.397l-.636-2.777c-.08-.47-.19-.935-.327-1.392.022-.227-.204-.487-.056-.648.118-.13.407-.113.62-.162.345-.05.687-.105 1.032-.15.123-.016.252-.058.374.01.06.317.12.633.178.95.096.47.19.938.282 1.407l.276 1.377c.065.47.159.934.28 1.392l.393 2.08h.083l.324-.683.719-1.39.713-1.392c.265-.45.504-.915.714-1.392.138-.23.29-.454.349-.722.177-.194.263-.436.366-.669.071-.131.169-.255.214-.394.134-.397.373-.62.827-.541l1.424.03Z" fill="#114796"/><path d="M119.735 5.552a6.27 6.27 0 0 0-.5.975 19.59 19.59 0 0 0-.956 1.801c-.551.91-.959 1.896-1.543 2.789l-.296.335c-.395.345-.897.55-1.426.583-.642-.037-.642-.037-.651-.68 0-.08-.01-.158-.015-.237.022-.095.01-.202.183-.166.156.033.323.014.485.018.699-.038 1.142-.626.928-1.247a9.607 9.607 0 0 0-.299-1.392l-.296-1.392c-.076-.375-.127-.755-.263-1.114a.452.452 0 0 0-.056-.278c.031-.165-.116-.323-.017-.488l1.343-.123.113.626.257 1.382.226 1.488.086.015.698-1.498c.097-.126.166-.27.203-.422.205-.305.342-.643.487-.975.137-.41.383-.664.867-.575h.708l-.266.575Z" fill="#124896"/><path d="M92.192 3.325c.302-.018.417.09.312.393-.048.14-.037.291-.053.438l-.225 1.392-.44 2.788c-.074.464-.145.927-.215 1.388-.008.295-.155.418-.46.37a1.69 1.69 0 0 0-.345.018c-.207-.007-.418-.039-.623-.012-.331.042-.4-.095-.324-.372l.219-1.396c.073-.467.145-.93.214-1.388l.218-1.392.214-1.392.172-.824 1.337-.01Z" fill="#114796"/><path d="M83.412 1.376c.042-.215.118-.422.226-.614.39-.404.849-.574 1.41-.403.417.226.499.595.447 1.017a1.55 1.55 0 0 1-.523.687c-.416.194-.833.228-1.249 0a.993.993 0 0 1-.31-.687Z" fill="#124896"/><path d="M90.765 23.852h-1.427c-.214-.006-.428-.02-.642-.013-.156.007-.214-.049-.204-.195.123-.457.176-.925.243-1.392.067-.467.153-.932.23-1.398.078-.466.149-.926.222-1.392a41.36 41.36 0 0 0 .466-2.774l.235-1.388.225-1.406c.052-.284.113-.568.152-.854.024-.179.084-.26.285-.257.82.011 1.641.007 2.46 0 .163 0 .235.025.194.213-.064.294-.095.595-.143.893l-.227 1.397c-.102.459-.177.924-.222 1.392-.113.456-.19.92-.228 1.387-.126.455-.172.924-.244 1.387l-.021.15-.191 1.125c-.081.506-.162 1.011-.241 1.518-.11.458-.185.923-.227 1.392-.045.168-.156.218-.33.2a2.529 2.529 0 0 0-.365.015Zm11.412 0c-.209-.004-.419-.018-.628-.013-.176.005-.153-.085-.117-.193l.595-1.398a1.92 1.92 0 0 0 .23-.557c.156-.262.278-.543.36-.835a10.4 10.4 0 0 0 .566-1.315 48.91 48.91 0 0 0 1.226-2.854l.604-1.398c.043-.065.094-.126.087-.209.196-.382.364-.778.503-1.183.209-.439.456-.843.956-1.023.437-.096.882-.07 1.324-.094h1.427c.133.007.203.059.229.204.054.306.137.609.209.912l.297 1.404.302 1.392c.18.929.36 1.857.603 2.773.066.47.164.934.293 1.392.078.505.186 1.006.323 1.5l.272 1.295c.034.157-.046.19-.192.188-.303-.004-.607.007-.911.012h-1.427c-.142-.004-.192-.097-.222-.213-.042-.213-.08-.426-.124-.639-.177-.849-.177-.848-1.079-.805-.475-.03-.952-.032-1.427-.004-.357 0-.714.01-1.07-.016-.286-.022-.421.077-.434.348-.176.357-.316.73-.419 1.114-.062.152-.167.215-.344.2a5.673 5.673 0 0 0-.586.011l-1.426.004Zm3.915-4.39c-.221.465-.22.467.295.442a.335.335 0 0 0 .072-.015h1.427c.142-.035.436.192.388-.156-.064-.467-.206-.923-.315-1.383a.444.444 0 0 0-.056-.278 9.146 9.146 0 0 0-.293-1.388 2.408 2.408 0 0 0-.18-.815c-.04.094-.071.156-.093.22-.071.193-.136.388-.204.583l-.518 1.405a2.59 2.59 0 0 0-.226.626 2.719 2.719 0 0 0-.297.76Zm-5.398 3.068c-.453.456-1.004.77-1.583 1.044l-1.22.325-1.421.1-1.42-.104c-.493-.117-.992-.202-1.477-.356-.263-.084-.356-.197-.288-.472.067-.275.083-.546.12-.82.064-.328.156-.654.183-.984.028-.33.143-.313.389-.195.784.37 1.607.615 2.492.6.499.043.986.01 1.433-.242.277-.105.483-.278.56-.57.142-.465-.015-.779-.566-1.113a2 2 0 0 0-.642-.355c-.244-.17-.518-.282-.785-.404-.108-.07-.214-.14-.326-.209-.819-.502-1.46-1.137-1.677-2.097-.016-.464-.014-.926.118-1.377.127-.379.34-.714.551-1.05.39-.412.84-.764 1.339-1.044.465-.19.941-.353 1.426-.488 1.133-.164 2.259-.188 3.375.113.72.194.721.187.625.89a1.418 1.418 0 0 0-.005.172c-.114.456-.19.92-.229 1.387-.057.18-.162.126-.291.07-.652-.279-1.326-.465-2.048-.418-.52-.044-1.02 0-1.456.316l-.01.005c-.506.4-.496.822.03 1.23.118.127.265.224.429.283.313.214.65.392 1.007.528l.334.191c.838.465 1.538 1.053 1.847 1.987.102.458.088.918.036 1.38a4.38 4.38 0 0 1-.599 1.384l-.251.293Zm-15.481-.28a2.058 2.058 0 0 0-.224.557 3.515 3.515 0 0 0-.357.835c-.062.15-.181.182-.336.179-.221-.006-.442.01-.664.017a7.117 7.117 0 0 0-1.427 0 5.425 5.425 0 0 0-.552-.017c-.159.01-.232-.062-.28-.188a41.743 41.743 0 0 0-.747-2.775l-.377-1.406c-.112-.464-.214-.93-.386-1.378-.206-.937-.48-1.856-.742-2.78l-.256-1.043c.776.391 1.427.938 2.043 1.535.805.784 1.385 1.717 1.874 2.71h-.005l.06.152c.063.275.128.55.193.825l.127.725.078.011.253-.736a2.01 2.01 0 0 0 .214-.557c.131-.265.236-.542.314-.826.205-.456.384-.924.535-1.4.2-.452.374-.915.52-1.387a.133.133 0 0 0 .059-.143l.482-1.253c.09-.224.214-.442.263-.674.076-.343.268-.48.613-.443h1.427c.281.006.564.028.846.011.295-.017.417.025.249.34-.13.24-.205.51-.305.765-.222.452-.414.917-.576 1.392a2.813 2.813 0 0 0-.292.696 2.91 2.91 0 0 0-.286.696c-.227.448-.42.911-.581 1.386-.406.89-.783 1.792-1.13 2.707-.237.477-.446.967-.627 1.467Z" fill="#104695"/><path d="M113.94 5.632c.188.417.235.86.233 1.31a7.448 7.448 0 0 1-.293 1.393l-.369.692-.724.69-.623.295c-.468.134-.948.152-1.431.155a10.81 10.81 0 0 1-1.321-.185c-.138-.114-.392-.028-.462-.257.106-.458.177-.923.214-1.392.187-.92.329-1.847.438-2.78a9.11 9.11 0 0 0 .222-1.391 9.83 9.83 0 0 0 .225-1.384c.162-.265.468-.125.686-.232.114-.009.227-.023.339-.044.242-.059.373-.005.319.266l-.215 1.392c-.071.432-.149.863-.233 1.35.243-.152.414-.278.602-.368.199-.096.416-.16.624-.238.461-.077.935.007 1.339.238l.43.49Zm-1.141 1.313c-.007-.543-.194-.809-.634-.905a2.006 2.006 0 0 0-.316-.01c-.515.064-1.076.531-1.106.91-.099.594-.183 1.19-.303 1.779-.053.265.064.332.285.348.521.07 1.034.106 1.442-.313.539-.492.633-1.135.629-1.81h.003ZM98.254 8.404c.158-.026.286-.118.41-.2.175-.115.185.01.213.123-.02.194-.027.388-.021.582.032.337-.042.604-.385.747l-.581.256c-.463.143-.938.25-1.418.318-.473 0-.946.023-1.414-.07-1.02-.232-1.67-.84-1.942-1.83a5.8 5.8 0 0 1-.038-1.383c.08-.47.2-.934.357-1.386.092-.185.184-.373.275-.562l.687-.844.648-.488a4.93 4.93 0 0 1 1.431-.46c.477-.027.954.024 1.414.15.424.168.792.446 1.065.805l.304.69.127.696a9.518 9.518 0 0 1-.11 1.267c-.034.209-.127.258-.325.253-.351-.009-.704.007-1.055.014h-2.854c-.183-.047-.291-.01-.286.208.012.318.012.634.2.914l.076.14c.335.535.863.614 1.44.578a3.397 3.397 0 0 0 1.782-.518Zm-1.783-2.426c.285.007.567.016.85.018.452 0 .452 0 .372-.448-.027-.826-.451-1.224-1.23-1.154-.7.099-1.064.557-1.306 1.15-.214.454-.214.456.296.453.339-.002.677-.012 1.017-.017v-.002Z" fill="#124896"/><path d="m84.442 6.944-.218 1.388-.215 1.395c-.025.217-.064.422-.368.384l-1.427-.043.04-.334.021-.15.201-1.248.22-1.396.218-1.388c.1-.459.172-.924.214-1.392.036-.145.063-.293.078-.443.011-.278.133-.417.428-.39l1.337.008v.334c-.083.153-.061.323-.085.488l-.225 1.392-.22 1.395Z" fill="#114796"/><path d="M82.781 18.492c-.489-.993-1.07-1.926-1.874-2.71-.613-.597-1.267-1.144-2.042-1.536a8.574 8.574 0 0 0-2.365-1.033c-.19-.06-.38-.118-.57-.18-.067-.022-.143-.048-.123-.14.02-.09.09-.092.163-.095l.53-.015 4.28.013c.642.109 1.015.488 1.142 1.104.059.47.152.935.279 1.393.055.47.149.936.28 1.392.058.47.152.935.281 1.392l.02.415Z" fill="#F0AD17"/><path d="M75.07 3.273c1.176.327 1.647 1.173 1.763 2.28-.006.465-.043.93-.112 1.391-.038.099-.126.124-.22.14a12.198 12.198 0 0 0-1.427 0h-1.426c-.403-.006-.806-.01-1.208-.019-.143 0-.22.031-.218.191.004.384.017.766.267 1.089.261.437.678.57 1.164.572.487.048.978-.03 1.423-.228a1.59 1.59 0 0 0 .642-.279l.586-.274c0 .399-.007.766 0 1.13.004.16-.09.225-.214.279l-1.021.464a9.893 9.893 0 0 1-1.427.244c-.445-.017-.891-.023-1.328-.123l-.862-.408-.575-.627-.301-.765c-.083-.46-.066-.924-.05-1.388.116-.513.214-1.03.437-1.516a4.98 4.98 0 0 1 .89-1.272l.388-.315c.433-.275.91-.475 1.412-.594a5.143 5.143 0 0 1 1.417.028Zm.005 2.705c.06.006.087-.02.076-.08a.698.698 0 0 0-.006-.348c0-.946-.706-1.415-1.584-1.054-.5.19-.765.587-.954 1.044-.209.454-.209.456.302.454.246 0 .492-.013.738-.02.475.032.952.033 1.428.006v-.002Z" fill="#124896"/><path d="m82.242 4.158-.032.713c-.755.08-1.473.36-2.075.813-.438.32-.692.71-.651 1.253-.193.919-.321 1.846-.444 2.776-.013.305-.157.431-.483.384-.204-.03-.418.005-.627.012a1.398 1.398 0 0 0-.273-.02c-.297.038-.462-.04-.38-.367.1-.46.172-.925.214-1.392.107-.459.18-.924.219-1.393a9.57 9.57 0 0 0 .218-1.392.563.563 0 0 0 .064-.348c.086-.342.139-.692.157-1.044.039-.19.1-.38.11-.57.012-.223.123-.257.318-.25.258.009.516-.008.774-.014.357-.04.465.12.428.453-.031.26-.006.527-.006.892a6.254 6.254 0 0 1 1.01-.995c.44-.247.901-.434 1.416-.47l.043.96Z" fill="#114796"/></g><mask id="c" style="mask-type:alpha" maskUnits="userSpaceOnUse" x="0" y="0" width="39" height="24"><rect width="39" height="24" rx="3" fill="url(#b)"/></mask><g mask="url(#c)" fill="#306FC8"><path d="M16.879 17.576v-3.494l-1.68 1.72 1.68 1.774Zm-7.04-3.056v.787l2.402-.005v.901H9.839v.863h2.693l1.253-1.278-1.203-1.268H9.839ZM20.043 7.9a.455.455 0 0 0 .226-.414.42.42 0 0 0-.226-.391c-.13-.072-.325-.076-.521-.076h-1.354v.972h1.339c.21 0 .386-.01.536-.09Zm-18.027.687h1.5l-.753-1.735-.747 1.735Zm17.391 5.933h-1.43v1.097h1.42c.416 0 .677-.19.677-.567-.005-.377-.276-.53-.667-.53Z"/><path d="M2.297 10.355h.942l.427.977H7.35v-.744l.331.744h1.906l.33-.753v.753h9.157V9.74h.18c.131 0 .166.014.166.21v1.382h4.734v-.377c.376.196.968.377 1.76.377h1.99l.432-.977h.943l.426.977h3.826v-.925l.587.925h3.074V5.25h-3.039v.715l-.436-.715h-3.124v.715l-.381-.715H25.99c-.712 0-1.339.09-1.835.348V5.25h-2.908v.348c-.341-.262-.768-.348-1.25-.348H9.353L8.63 6.818 7.908 5.25h-3.35v.715l-.38-.715h-2.86L0 8.134v3.198h1.87l.427-.977ZM24.36 6.618c.35-.348.912-.51 1.67-.51h1.047v.934H26.05c-.407 0-.632.057-.848.262-.19.181-.32.53-.32.987 0 .467.094.796.31 1.025.16.171.466.224.762.224h.492l1.544-3.432h1.635l1.86 4.128V6.108h1.675l1.926 3.036V6.108h1.128v4.366H34.65l-2.07-3.27v3.27h-2.232l-.421-.977h-2.282l-.421.977H25.95c-.536 0-1.213-.12-1.594-.486-.387-.372-.582-.872-.582-1.664 0-.648.12-1.239.587-1.706Zm-2.247-.51h1.123v4.366h-1.123V6.108Zm-5.04 0h2.528c.556 0 .968.019 1.319.21.35.195.566.481.566.967a1.23 1.23 0 0 1-.782 1.159c.24.085.446.243.542.371.155.21.18.41.18.792v.867h-1.103v-.553c0-.257.025-.639-.18-.844-.156-.157-.397-.19-.798-.19h-1.178v1.587H17.07V6.108h.005Zm-4.422 0h3.66v.91h-2.567v.787h2.502V8.7h-2.502v.863l2.567-.005v.91h-3.66v-4.36ZM1.203 10.474H.01l1.96-4.366h1.635l1.86 4.128V6.108h1.796l1.43 2.96 1.318-2.96h1.825v4.366h-1.123V7.056l-1.59 3.418H8.16L6.564 7.052v3.422H4.328l-.422-.977H1.625l-.422.977Z"/><path d="m28.783 6.852-.747 1.735h1.494l-.747-1.735Zm7.788 7.769c-.115.072-.165.176-.165.315 0 .162.1.276.24.324.11.038.236.048.422.048l.586.014c.607.014 1.008.11 1.254.353a.809.809 0 0 1 .09.1v-1.23h-1.99c-.196 0-.332.01-.437.076Z"/><path d="M37.519 17.971h-2.117v-.934h2.106c.206 0 .352-.029.442-.105a.374.374 0 0 0 .13-.286.357.357 0 0 0-.135-.29c-.08-.067-.196-.096-.381-.096-1.023-.029-2.312.033-2.312-1.354 0-.624.416-1.296 1.57-1.296h2.18v-.858h-2.03c-.607 0-1.063.133-1.374.348v-.348h-2.994c-.476 0-1.048.11-1.313.348v-.348H25.93v.348c-.426-.286-1.143-.348-1.484-.348H20.91v.348c-.335-.31-1.078-.348-1.534-.348h-3.962l-.907.934-.843-.934H7.757v6.082h5.802l.928-.949.882.944 3.57.005v-1.435h.357c.471 0 1.033-.01 1.52-.21v1.645h2.958v-1.592h.145c.18 0 .196.014.196.176v1.416h8.95c.562 0 1.17-.138 1.5-.386v.386h2.838c.587 0 1.169-.081 1.61-.281v-1.13c-.286.372-.787.548-1.494.548Zm-18.183-1.458h-1.364v1.458h-2.136l-1.344-1.434-1.404 1.439H8.74V13.61h4.413l1.344 1.435 1.399-1.435h3.51c.863 0 1.84.238 1.84 1.444-.005 1.206-.952 1.459-1.91 1.459Zm6.599-.196c.155.21.18.41.186.791v.863h-1.104v-.553c0-.257.025-.638-.18-.843-.16-.158-.396-.191-.797-.191h-1.18v1.587h-1.098v-4.366h2.527c.557 0 .963.02 1.32.215.35.195.566.481.566.967a1.23 1.23 0 0 1-.778 1.158c.241.086.447.244.537.372Zm4.508-1.797h-2.562v.787h2.507v.9H27.88v.863h2.567v.906h-3.66V13.61h3.66v.91h-.005Zm2.788 3.451h-2.136v-.934h2.126c.206 0 .351-.029.441-.105a.374.374 0 0 0 .13-.286.357.357 0 0 0-.135-.29c-.08-.067-.195-.096-.38-.096-1.024-.029-2.312.033-2.312-1.354 0-.629.416-1.296 1.57-1.296h2.196v.934H32.72c-.2 0-.331.005-.442.072-.115.071-.16.176-.16.314 0 .162.1.277.24.324.116.039.236.048.422.048l.587.014c.606.015 1.008.11 1.253.353.216.22.331.472.331.925.005.934-.607 1.377-1.72 1.377Z"/><path d="M24.737 14.592c-.13-.067-.331-.072-.522-.072h-1.354v.973h1.34c.21 0 .39-.005.536-.086a.455.455 0 0 0 .225-.415.445.445 0 0 0-.225-.4Z"/></g><g clip-path="url(#d)"><path d="M153.865 2.57c-.835 2.022-1.713 4.029-2.481 6.074-.258.69-.688.64-1.236.67-.588.032-.902-.124-1.125-.709a64.902 64.902 0 0 0-2.617-5.899v3.429c0 1.202-.027 2.407.009 3.607.022.698-.449.56-.842.55-.394-.011-.872.192-.868-.521.02-2.993 0-5.986.013-8.98 0-.14.023-.385.086-.403.731-.195 1.481-.065 2.222-.083.417-.01.399.38.502.625.865 2.054 1.723 4.11 2.572 6.165.36-.013.349-.317.429-.507.779-1.836 1.563-3.673 2.29-5.53.222-.565.484-.801 1.14-.781 1.746.05 1.748.014 1.748 1.682 0 2.465-.022 4.928.012 7.394.011.667-.074.979-.891.979-.817 0-.844-.328-.836-.937.027-2.27.01-4.539.01-6.807l-.137-.018Z" fill="#E8232D"/><path d="M147.739 23.966a6.646 6.646 0 0 1-3.347-.926c-.372-.222-.57-.464-.181-.796.283-.235.213-1.02 1.001-.53 1.117.692 2.357 1.01 3.687.616.636-.19 1.183-.516 1.181-1.254-.002-.739-.61-.946-1.21-1.075-.846-.177-1.708-.289-2.547-.493-1.105-.267-1.885-.906-2.04-2.07-.169-1.287.379-2.341 1.562-2.899 1.804-.855 3.607-.632 5.35.232.348.177.575.391.223.708-.283.257-.214 1.052-.981.636a4.64 4.64 0 0 0-3.12-.504 1.94 1.94 0 0 0-.891.385c-.772.617-.664 1.486.245 1.885.55.24 1.153.288 1.742.384a10.48 10.48 0 0 1 1.57.354c1.011.333 1.711.987 1.803 2.074.092 1.087-.352 1.948-1.262 2.56-.781.541-1.687.7-2.785.713Z" fill="#F9A121"/><path d="M220.361 9.641c-1.586 1.144-3.348 1.038-4.571-.19-1.294-1.296-1.372-3.584-.18-4.993 1.162-1.366 2.915-1.548 4.792-.404 0-1.17.043-2.265-.016-3.354-.034-.65.27-.709.797-.709s.819.032.81.69c-.038 2.962-.015 5.923-.02 8.882 0 .324.135.781-.465.724-.451-.033-1.14.317-1.147-.646Zm.18-2.752c.013-1.24-.869-2.168-2.065-2.185-1.196-.018-2.085.86-2.099 2.125-.015 1.264.826 2.178 2.039 2.189 1.214.01 2.107-.902 2.12-2.129h.005Z" fill="#E8242D"/><path d="M188.535 18.954c0-2.125 1.127-3.818 3.025-4.56 1.984-.777 4.368-.365 5.661 1.015.18.186.801.462.204.78-.392.208-.66 1.037-1.38.355-1.38-1.323-3.564-1.321-4.842-.064-1.34 1.314-1.346 3.696-.011 5.026 1.334 1.33 3.427 1.344 4.828-.021.738-.709.979.142 1.353.354.541.31-.015.593-.217.799-1.307 1.335-3.676 1.732-5.591.965s-3.03-2.451-3.03-4.649Z" fill="#F8A120"/><path d="M212.376 17.727c0-1.07.038-2.087-.012-3.097-.034-.66.263-.747.844-.767.669-.02.705.294.701.799-.016 2.784 0 5.57-.016 8.354 0 .253.191.685-.245.724-.406.037-.94.308-1.234-.154-.211-.331-.315-.188-.541-.071-1.502.795-3.21.48-4.184-.756-1.068-1.36-1.015-3.38.123-4.631 1.112-1.224 2.694-1.417 4.215-.532.113.053.23.096.349.131Zm-3.883 2.756c-.012 1.24.832 2.14 2.001 2.125 1.123-.009 1.973-.896 1.983-2.068.013-1.24-.826-2.113-2.009-2.108-1.154.01-1.962.847-1.975 2.051Z" fill="#F9A121"/><path d="M205.979 9.636c-1.558 1.063-3.066 1.075-4.312.089-1.207-.948-1.658-2.72-1.082-4.233.575-1.512 1.91-2.32 3.587-2.201.59.04 1.041.396 1.553.593.236.092.609-.531 1.181-.448.478.07.666.149.658.657-.028 1.845-.014 3.69 0 5.538 0 .37.024.75-.541.667-.418-.062-1.116.325-1.044-.662Zm-1.933-.607c1.208-.016 2.059-.932 2.039-2.195-.019-1.262-.889-2.137-2.108-2.125-1.19.014-2.081.96-2.061 2.19.02 1.228.923 2.139 2.13 2.13Z" fill="#E8232D"/><path d="M162.754 9.623c-1.694 1.178-3.523 1.033-4.715-.281-1.192-1.314-1.228-3.588-.031-4.933 1.198-1.344 3.002-1.49 4.715-.345.04-.935.741-.552 1.216-.588.569-.04.375.423.376.694a282.3 282.3 0 0 1 0 5.366c0 .301.197.797-.423.755-.453-.023-1.147.331-1.138-.668Zm.104-2.78c0-1.266-.867-2.15-2.088-2.141-1.221.009-2.085.936-2.074 2.176.01 1.24.919 2.163 2.11 2.15 1.19-.012 2.058-.912 2.052-2.185Zm21.042.569c-.66 0-1.32.02-1.984 0-.709-.027-.66.283-.402.745.579 1.034 1.948 1.298 3.322.55.417-.227.557-.167.844.162.491.562.28.848-.285 1.102-1.479.664-2.969.786-4.347-.177-1.377-.964-1.56-2.375-1.296-3.865.324-1.83 2.112-2.95 4.04-2.606 1.623.292 2.835 2.033 2.613 3.696-.05.39-.252.396-.541.394-.648-.005-1.297-.001-1.964-.001Zm-.828-1.134c.361 0 .721-.025 1.082 0 .711.062.75-.221.469-.756a1.553 1.553 0 0 0-.617-.675 1.6 1.6 0 0 0-.896-.22c-.682 0-1.217.242-1.555.842-.277.496-.389.885.451.811a10.83 10.83 0 0 1 1.066-.002Z" fill="#E7202A"/><path d="M202.28 23.977c-2.04 0-3.63-1.527-3.623-3.487.007-1.96 1.609-3.46 3.661-3.452 2.052.009 3.632 1.53 3.607 3.489-.023 1.992-1.558 3.444-3.645 3.45Zm2.101-3.47c0-1.19-.867-2.061-2.061-2.072-1.194-.01-2.074.833-2.087 2.037-.013 1.24.902 2.168 2.094 2.146a2.097 2.097 0 0 0 1.474-.636 2.036 2.036 0 0 0 .58-1.475Z" fill="#F9A121"/><path d="M184.838 21.071c-.599 0-1.201.03-1.804-.009-.746-.048-.633.29-.386.723.541.954 1.779 1.183 3.101.547.34-.163.571-.319.891.1.393.515.312.786-.237 1.08-1.336.708-3.345.593-4.411-.298-1.108-.924-1.486-2.632-.916-4.121a3.223 3.223 0 0 1 1.544-1.706 3.32 3.32 0 0 1 2.308-.265c1.529.368 2.584 1.882 2.447 3.464-.034.382-.198.498-.566.487-.653-.02-1.313-.002-1.971-.002Zm-.767-1.09c.207.023.416.023.623 0 .36-.082.968.267 1.062-.235.086-.464-.296-.919-.769-1.184a1.73 1.73 0 0 0-2.11.324c-.231.264-.519.597-.396.922.135.363.575.137.88.177.236.013.474.01.71-.007v.004Z" fill="#F9A222"/><path d="M156.897 21.071c-.627 0-1.262.018-1.884 0-.587-.021-.576.244-.381.646.476.982 1.75 1.25 3.066.67.256-.112.483-.471.853-.082.559.59.559.886-.198 1.222-1.414.622-2.857.73-4.175-.19-1.319-.922-1.474-2.293-1.234-3.72.285-1.7 1.939-2.8 3.715-2.557 1.647.223 2.863 1.797 2.736 3.496-.029.366-.135.531-.526.517-.653-.02-1.313-.002-1.972-.002Zm-.858-1.09c.388 0 .775-.015 1.163 0 .676.035.68-.267.433-.748a1.645 1.645 0 0 0-.532-.609 1.685 1.685 0 0 0-1.572-.187c-.257.1-.486.26-.664.466-.233.268-.502.603-.361.932.124.297.541.111.817.138.238.014.477.016.716.005v.004Z" fill="#F9A121"/><path d="M219.391 21.07c-.599 0-1.202.034-1.804-.008-.745-.053-.635.287-.395.717.519.924 1.818 1.24 3.014.583.642-.354.902-.137 1.163.354.334.625-.269.708-.581.836-1.461.593-2.921.68-4.234-.354-1.097-.86-1.469-2.48-.991-3.948a3.219 3.219 0 0 1 1.486-1.812 3.316 3.316 0 0 1 2.342-.348c1.855.407 2.505 1.932 2.535 3.483 0 .374-.191.503-.564.49-.651-.012-1.311.008-1.971.008Zm-.709-1.088c.388 0 .775-.02 1.159 0 .565.035.581-.202.397-.627a1.563 1.563 0 0 0-.556-.725 1.605 1.605 0 0 0-.874-.297 1.58 1.58 0 0 0-.87.143 1.54 1.54 0 0 0-.65.586c-.15.24-.406.505-.24.788.166.284.489.103.743.123.296.023.593.005.891.005v.003Z" fill="#F9A222"/><path d="M169.205 3.274a5.11 5.11 0 0 1 2.097.41c.249.102.774.15.46.624-.213.323-.198 1.017-.974.654a3.463 3.463 0 0 0-2.092-.317c-.406.07-.779.21-.833.664-.061.517.361.616.75.696.585.124 1.183.177 1.76.32 1.115.279 1.732.953 1.755 1.846.024.923-.591 1.709-1.663 2.044a5.384 5.384 0 0 1-4.005-.324c-.307-.144-.648-.307-.291-.698.24-.262.224-.944.931-.501.763.474 1.647.508 2.525.373.422-.063.869-.244.876-.735 0-.458-.414-.598-.809-.673-.498-.094-1.005-.15-1.497-.26-1.378-.303-1.984-.935-1.954-2.012.031-1.077.785-1.83 2.076-2.05.295-.036.591-.057.888-.06Z" fill="#E8222C"/><path d="M173.959 19.558v1.495c-.027 1.77-1.144 2.847-3.001 2.924-1.789.072-3.091-.927-3.225-2.605-.097-1.224-.023-2.46-.04-3.691-.009-.664.491-.434.83-.462.339-.029.721-.068.721.492a75.882 75.882 0 0 0 0 3.165c.029 1.133.505 1.652 1.496 1.701 1.047.054 1.612-.42 1.7-1.585.075-1.052.09-2.107.044-3.16-.024-.631.312-.63.773-.628.462.002.758.025.722.595-.036.57-.02 1.173-.02 1.759Z" fill="#F9A324"/><path d="M174.287 6.822a7.39 7.39 0 0 1 .009-1.063c.101-.708-.14-1.045-.911-.926-.595.092-.506-.339-.494-.679.013-.34-.151-.8.466-.688 1.102.2.964-.532.923-1.157-.041-.625-.016-1.047.853-.981.579.042.676.218.675.723 0 1.416.019 1.367 1.459 1.432.402.018 1.123-.467 1.217.478.065.661-.115.914-.86.895-1.827-.048-1.827 0-1.827 1.751v.709c0 1.604.559 2.006 2.117 1.416.597-.225.561.211.722.459.205.313.348.602-.159.838-1.03.481-2.071.63-3.1.092-.944-.493-1.108-1.39-1.092-2.343.002-.312.002-.634.002-.956Z" fill="#E7202A"/><path d="M193.188 7.006c.019-1.573.583-2.695 1.885-3.328 1.302-.632 2.608-.59 3.838.2.222.142.74.332.319.709-.297.264-.382 1.016-1.148.531-1.083-.683-2.139-.531-2.819.296-.65.783-.63 2.171.041 2.94.671.768 1.728.926 2.758.264.755-.484.873.205 1.159.49.439.438-.117.616-.36.767-1.239.774-2.547.8-3.837.149-1.289-.652-1.819-1.794-1.836-3.018Z" fill="#E7212B"/><path d="M160.436 20.56c-.017-1.417.521-2.48 1.751-3.105 1.262-.637 2.539-.595 3.744.177.231.147.721.335.29.708-.29.259-.411.905-1.112.482-1.052-.632-2.015-.49-2.67.259a2.224 2.224 0 0 0 0 2.833c.653.753 1.687.926 2.671.285.769-.499.868.222 1.146.502.391.396-.143.556-.361.694-1.176.749-2.433.767-3.661.177-1.293-.613-1.826-1.706-1.798-3.012Z" fill="#F9A121"/><path d="M211.282 8.185c-.025.41-.021.82.01 1.228.103.752-.211.958-.943.906-.474-.032-.606-.177-.602-.616.02-1.872 0-3.744.016-5.617 0-.222-.159-.608.278-.599.391 0 .952-.248 1.143.149.191.396.235.354.503.136.484-.393 1.057-.5 1.676-.487 1.113.021 1.192.13.884 1.151-.121.399-.28.448-.7.354-1.344-.295-2.148.307-2.253 1.642-.045.581 0 1.169 0 1.753h-.012Zm-21.618-.042c-.029.41-.025.82.011 1.229.135.83-.247 1.01-1.001.94-.384-.037-.519-.14-.516-.517.011-1.936 0-3.871 0-5.807 0-.21-.092-.544.289-.508.38.035.977-.26 1.134.165.195.53.336.217.514.086.707-.519 1.51-.5 2.323-.4.417.051.455.303.291.627-.165.324.088.92-.563.875-2.024-.135-2.489.27-2.491 2.253l.009 1.057Z" fill="#E61E28"/><path d="M175.91 20.382c0-.792-.016-1.583 0-2.373.009-.262-.18-.687.22-.75.4-.061.954-.281 1.201.178.181.34.256.19.42.07a2.56 2.56 0 0 1 1.6-.472c1.025.02 1.145.187.864 1.122-.119.399-.272.442-.692.355-1.369-.277-2.12.354-2.147 1.725-.018.936-.038 1.877.009 2.812.029.59-.18.737-.764.745-.63 0-.749-.244-.722-.78.027-.88.011-1.752.011-2.632Z" fill="#F9A121"/></g><g clip-path="url(#e)"><path d="M269.314 6.626c-1.05 0-2.02-.008-2.989.005-.224 0-.339-.097-.466-.25-2.067-2.514-4.751-3.743-8.064-3.615-4.347.167-8.15 3.501-8.869 7.67-.882 5.104 2.687 10.029 8.049 10.732 3.841.503 6.926-.902 9.193-3.96.215-.292.419-.396.781-.395 11.887.009 23.773.025 35.659-.018 1.366-.005 2.427 1.246 2.244 2.773-.019.152-.094.189-.231.184-.117-.005-.235 0-.353 0-12.019 0-24.038-.002-36.056-.006a.97.97 0 0 0-.794.328c-2.525 2.65-5.66 3.967-9.364 3.925-6.005-.07-11.178-4.577-11.943-10.37-.843-6.383 3.399-12.133 9.893-13.408 5.171-1.015 10.71 1.549 13.156 6.092l.154.313Z" fill="#01A9E3"/><path d="M253.616 10.868v.51c0 1.33-.006 2.661.005 3.988 0 .25-.048.355-.336.343a39.975 39.975 0 0 0-2.028 0c-.229 0-.345-.035-.344-.299.008-2.544.008-5.088 0-7.631 0-.23.088-.29.311-.287.808.01 1.616-.008 2.424.007.705.015 1.245.45 1.458 1.16.334 1.108.655 2.22.988 3.328.034.112.014.301.177.303.162.002.149-.183.184-.3.323-1.08.64-2.164.964-3.246.26-.87.778-1.247 1.701-1.248.72 0 1.44.008 2.159-.004.247-.005.364.03.363.318-.011 2.53-.011 5.06 0 7.588 0 .247-.078.318-.326.312a34.005 34.005 0 0 0-1.94 0c-.34.013-.452-.074-.446-.422.022-1.3.008-2.6.008-3.901a2.212 2.212 0 0 0 0-.258c-.007-.077.034-.19-.088-.207-.121-.018-.116.099-.14.171-.202.625-.402 1.252-.601 1.879-.255.804-.519 1.604-.76 2.412-.068.228-.159.333-.419.32-.529-.025-1.168.157-1.551-.077-.383-.233-.371-.915-.529-1.4-.325-.99-.634-1.987-.952-2.98-.041-.12-.028-.28-.282-.379Z" fill="#2CB354"/><path d="M270.759 11.208h3.656c.479 0 .489.015.254.435-.273.489-.65.896-1.175 1.115-.341.145-.304.267-.124.515.496.687.97 1.397 1.445 2.098.055.08.164.16.123.258-.058.136-.207.065-.312.066-.779.007-1.557-.01-2.335.01-.281.008-.413-.098-.529-.33-.325-.639-.694-1.257-1.011-1.899-.141-.284-.308-.39-.636-.382-.815.021-.815.005-.815.779 0 .486-.014.972.005 1.459.01.265-.048.385-.353.375a37.16 37.16 0 0 0-2.028 0c-.239 0-.338-.053-.336-.307.012-1.3.015-2.6 0-3.9 0-.314.172-.298.389-.297 1.257.006 2.52.005 3.782.005Z" fill="#2EB456"/><path d="M269.452 7.496c.91 0 1.819-.006 2.734 0 .385.005.766.086 1.12.237.353.15.672.369.937.641a2.8 2.8 0 0 1 .609.945c.136.352.199.726.184 1.101-.012.327-.101.477-.484.466-1.554-.043-3.111.064-4.662-.053-1.706-.129-3.175-1.388-3.611-3.004-.077-.283-.01-.343.273-.339.963.013 1.931.006 2.9.006Z" fill="#05AAE4"/><path d="M265.481 11.622c0 1.243-.008 2.489.006 3.729 0 .277-.075.371-.372.362a34.714 34.714 0 0 0-2.028 0c-.251.006-.325-.075-.324-.317.008-2.528.008-5.056 0-7.586 0-.24.071-.322.324-.316.675.014 1.351.02 2.028 0 .296-.01.375.086.373.362-.015 1.25-.007 2.51-.007 3.766Z" fill="#2DB455"/><path d="M279.926 15.513c-.484.14-.706-.138-.761-.628-.038-.338-.238-.455-.572-.405a2.056 2.056 0 0 1-.308 0c-.801 0-.818-.005-1.036.745-.088.287-.258.287-.489.288-.935 0-.937 0-.644-.844.44-1.268.888-2.532 1.317-3.803.095-.28.222-.402.552-.394.923.023.928 0 1.223.836.419 1.185.83 2.372 1.242 3.559.219.645.218.646-.524.646Zm-1.676-3.754c-.121.43-.216.787-.319 1.14-.177.6-.177.575.472.587.329.006.317-.117.246-.348-.135-.434-.257-.872-.399-1.379Z" fill="#07ABE4"/><path d="M291.188 12.995c0-.714.009-1.429-.004-2.145-.005-.258.037-.384.353-.376a58.49 58.49 0 0 0 2.599 0c.264-.004.309.086.312.32.008.772.018.772-.779.772a5.66 5.66 0 0 1-.705-.005c-.391-.05-.491.091-.491.469 0 .377.121.476.475.429.187-.024.385.02.571-.01.462-.075.573.114.544.537-.039.55-.01.551-.578.552-.191.011-.382.01-.572-.004-.361-.048-.423.107-.441.43-.02.402.12.514.514.483.394-.03.794.005 1.189-.012.254-.011.36.043.36.324 0 .751.016.751-.755.751-.749 0-1.5-.01-2.247.005-.264.006-.359-.07-.353-.338.02-.725.008-1.453.008-2.182Z" fill="#0AACE4"/><path d="M285.786 12.973c.018-1.014.456-1.821 1.416-2.274 1.014-.477 2.018-.392 2.971.209.215.134.286.275.105.48a.443.443 0 0 0-.049.071c-.344.547-.344.548-.923.28-.624-.289-1.349-.214-1.771.183-.441.416-.552 1.142-.265 1.753.388.828 1.428 1.055 2.278.435.358-.258.479-.16.676.135.39.582.409.601-.203.95-.977.552-1.994.573-2.978.05-.898-.475-1.246-1.288-1.257-2.272Z" fill="#06AAE4"/><path d="M280.765 13.003c.03-1.055.474-1.878 1.457-2.322 1.014-.46 2.023-.37 2.967.245.204.133.225.258.082.453-.144.194-.227.48-.418.588-.19.108-.392-.164-.598-.25-.648-.272-1.4-.176-1.798.258-.418.453-.481 1.227-.148 1.807.425.74 1.411.917 2.215.331.353-.257.483-.165.686.133.402.592.423.595-.203.944-.977.551-1.993.578-2.978.054-.894-.475-1.242-1.286-1.264-2.241Z" fill="#07ABE4"/><path d="M303.521 10.327c.705 0 1.411.008 2.116-.004.252-.005.361.038.364.321.005.872.02.872-.889.872-.869 0-.869 0-.869.845 0 1.059-.012 2.117.007 3.176.006.307-.093.379-.396.377-1.024-.006-1.024.006-1.024-1.007 0-1-.016-2.001.009-3.004.008-.333-.101-.418-.421-.393-.336.027-.676-.008-1.013.011-.259.015-.316-.085-.321-.319-.02-.875-.028-.875.852-.875h1.585Z" fill="#05AAE4"/><path d="M297.086 10.472c.572 0 1.147-.01 1.715 0a1.93 1.93 0 0 1 1.293.507c.349.322.56.761.59 1.229.027.336-.045.526-.471.5-1.022-.057-2.053.087-3.07-.077-1.076-.172-1.783-.796-2.169-1.78-.104-.264-.107-.408.264-.39.617.031 1.233.01 1.848.01Z" fill="#2CB354"/><path d="M298.102 13.99c-.38 0-.762.01-1.146 0-.224-.008-.328.06-.305.29a3.52 3.52 0 0 1 0 .384c0 .974 0 .968-1.017.878-.194-.017-.25-.086-.248-.257.005-.713.009-1.427 0-2.139 0-.217.088-.257.287-.257 1.568.005 3.136.005 4.704 0 .245 0 .279.074.167.273-.304.535-.775.803-1.39.83-.347.01-.7-.002-1.052-.002Z" fill="#04AAE4"/></g><g clip-path="url(#f)" fill-rule="evenodd" clip-rule="evenodd"><path d="m373.017 13.823.622.185a1.134 1.134 0 0 1-.196.43.848.848 0 0 1-.336.261 1.272 1.272 0 0 1-.507.087c-.25 0-.454-.035-.613-.105a.98.98 0 0 1-.409-.378c-.115-.18-.172-.41-.172-.69 0-.374.101-.661.302-.861.203-.202.489-.302.859-.302.289 0 .516.058.682.173.166.116.289.292.37.53l-.627.136a.458.458 0 0 0-.069-.15.389.389 0 0 0-.145-.123.423.423 0 0 0-.193-.043.42.42 0 0 0-.37.19c-.064.095-.097.244-.097.446 0 .251.039.423.117.516.078.093.187.14.327.14.136 0 .238-.038.307-.112a.675.675 0 0 0 .152-.325l-.004-.005Zm.876-.205c0-.368.105-.655.314-.86.208-.206.499-.309.872-.309.383 0 .677.101.885.304.207.201.311.484.311.848 0 .264-.046.48-.137.65a.954.954 0 0 1-.39.394c-.171.094-.383.14-.637.14a1.5 1.5 0 0 1-.642-.12.963.963 0 0 1-.411-.386 1.266 1.266 0 0 1-.158-.66h-.007Zm.71.003c0 .228.043.392.128.492.086.1.204.15.352.15a.44.44 0 0 0 .354-.148c.083-.098.124-.274.124-.526 0-.212-.044-.367-.132-.465a.447.447 0 0 0-.354-.148.434.434 0 0 0-.345.148c-.087.098-.131.263-.131.494l.004.003Zm2.048-1.133h.933l.361 1.374.359-1.374h.931v2.258h-.58v-1.722l-.449 1.722h-.524l-.448-1.722v1.722h-.582v-2.258h-.001Zm3.031 0h1.181c.256 0 .449.06.576.18.129.12.193.29.193.512 0 .228-.07.406-.21.534-.139.128-.352.192-.638.192h-.388v.838h-.713v-2.259l-.001.003Zm.714.962h.173c.137 0 .233-.023.289-.069a.227.227 0 0 0 .083-.18.249.249 0 0 0-.072-.18c-.048-.05-.139-.075-.271-.075h-.203v.504h.001Zm1.609-.962h.708v1.702h1.108v.556h-1.818v-2.258h.002Zm2.17 0h.71v2.258h-.712v-2.258h.002Zm2.632 1.885h-.81l-.111.373h-.727l.864-2.258h.773l.863 2.26h-.742l-.113-.372.003-.003Zm-.15-.488-.255-.812-.253.812h.508Zm1.235-1.397h.663l.865 1.249v-1.25h.669v2.259h-.669l-.86-1.24v1.24h-.668v-2.258Zm2.509 0h2.158v.557h-.725v1.7h-.708v-1.7h-.725v-.557Zm-25.93 3.447 2.056-.637-.666-1.458c-.495.6-.983 1.376-1.391 2.093l.001.002Zm-.701-6.674-4.031-8.83-29.513 1.648 8.176 21.933 15.739-4.877c-.998-1.415-1.367-3.096-.211-3.918 1.296-.92 3.245.144 4.497 1.656 1.201-1.985 4.572-6.566 5.344-7.611h-.001Z" fill="#225E63"/><path d="M358.823 6.812c1.235 0 2.237-.929 2.237-2.074 0-1.146-1.003-2.074-2.238-2.074s-2.237.929-2.237 2.074c0 1.146 1.002 2.074 2.238 2.074Zm-1.83.9h3.66v9.395h-3.66V7.712Zm-1.807 2.741c.025.015.047.003.047-.027v-2.38a.1.1 0 0 0-.049-.08s-.48-.308-1.945-.394c-.079-.042-1.355-.049-1.707 0-5.324.42-5.521 4.206-5.521 4.379v.919c0 .112 0 3.983 5.521 4.326.538.04 1.595 0 1.707 0 1.271 0 2.151-.377 2.151-.377a.09.09 0 0 0 .051-.075v-2.228c0-.03-.021-.04-.048-.025 0 0-.395.313-2.132.478-.493.054-.726.03-.904 0-2.463-.407-2.582-2.181-2.582-2.181a1.274 1.274 0 0 1-.006-.107v-.677c0-.03.003-.077.006-.107 0 0 .166-1.901 2.58-2.102h.903c1.066.14 1.921.66 1.921.66l.007-.002Zm-19.327 6.617c0 .03.024.054.055.054h3.565c.03 0 .055-.024.055-.053v-2.728c0-.028.024-.051.055-.05 0 0 5.692.405 5.692-3.352 0-2.964-3.571-3.289-4.747-3.234h-4.62a.056.056 0 0 0-.055.054v9.31-.001Zm3.612-4.86V9.752h.872s1.27.056 1.369.905c.023.066.017.481 0 .504-.162.999-1.265 1.048-1.265 1.048l-.973-.002-.003.001Z" fill="#FEFEFE"/><path d="M358.923 21.643c.298 0 .526 0 .902-.164 1.299-.671 5.674-11.174 10.288-14.405a.443.443 0 0 0 .087-.081c.03-.043.031-.086.031-.086s0-.216-.685-.216c-4.107-.11-8.379 8.356-10.623 11.705-.028.037-.183 0-.183 0s-1.504-1.745-2.811-2.414a.814.814 0 0 0-.331-.048c-.102 0-.71.119-.994.415-.333.347-.327.542-.324.964a.757.757 0 0 0 .065.247c.319.55 1.779 2.522 2.975 3.61.186.13.468.476 1.605.476l-.002-.003Z" fill="#2BBC5D"/><path d="M371.326 3.89h3.417c.675 0 1.218.09 1.631.27.416.18.76.438 1.031.775.271.335.467.726.589 1.172.122.446.183.918.183 1.417 0 .781-.092 1.389-.274 1.822-.18.43-.43.791-.752 1.084a2.483 2.483 0 0 1-1.036.578 5.468 5.468 0 0 1-1.371.198h-3.418V3.888v.003Zm2.3 1.658v4h.563c.481 0 .823-.052 1.026-.155.203-.106.362-.289.477-.548.114-.263.172-.688.172-1.273 0-.775-.129-1.306-.387-1.592-.258-.285-.684-.428-1.281-.428h-.573l.003-.004Zm5.176 3.241 2.188-.134c.047.35.143.616.288.798.237.297.575.445 1.016.445.329 0 .581-.075.756-.225.179-.152.268-.329.268-.53 0-.188-.085-.357-.255-.507-.17-.15-.563-.29-1.178-.423-1.009-.223-1.729-.519-2.16-.889a1.772 1.772 0 0 1-.65-1.412c0-.375.11-.73.331-1.062.222-.335.556-.598 1-.788.447-.193 1.058-.29 1.833-.29.95 0 1.674.175 2.172.525.5.347.797.9.893 1.659l-2.169.125c-.058-.33-.18-.569-.367-.718-.184-.15-.438-.225-.762-.225-.268 0-.469.057-.605.17a.504.504 0 0 0-.205.405c0 .116.056.221.167.314.108.097.366.187.772.27 1.006.215 1.725.431 2.158.651.437.217.754.487.95.81.201.323.301.684.301 1.084 0 .47-.132.903-.397 1.299a2.492 2.492 0 0 1-1.107.904c-.473.201-1.069.302-1.79.302-1.266 0-2.144-.24-2.631-.719-.489-.479-.765-1.088-.829-1.827l.012-.012Zm7.338 0 2.188-.134c.047.35.143.616.288.798.236.297.575.445 1.016.445.329 0 .581-.075.756-.225.18-.152.269-.329.269-.53 0-.188-.085-.357-.255-.507-.17-.15-.563-.29-1.178-.423-1.009-.223-1.729-.519-2.159-.889a1.77 1.77 0 0 1-.651-1.412c0-.375.11-.73.33-1.062.223-.335.557-.598 1-.788.446-.193 1.057-.29 1.833-.29.95 0 1.674.175 2.172.525.501.347.798.9.893 1.659l-2.167.124c-.059-.33-.181-.57-.367-.719-.183-.15-.437-.224-.763-.224-.267 0-.469.056-.604.17a.503.503 0 0 0-.205.406c0 .116.056.221.167.314.108.097.365.187.772.27 1.005.214 1.725.43 2.159.65.436.216.752.486.95.81.199.323.299.684.299 1.083 0 .47-.132.903-.395 1.3a2.495 2.495 0 0 1-1.109.904c-.473.202-1.069.303-1.789.303-1.267 0-2.144-.24-2.632-.72-.487-.479-.764-1.088-.829-1.827l.011-.01Z" fill="#225E63"/></g><defs><clipPath id="a"><path fill="#fff" transform="translate(63)" d="M0 0h57v24H0z"/></clipPath><clipPath id="d"><path fill="#fff" transform="translate(144)" d="M0 0h78v24H0z"/></clipPath><clipPath id="e"><path fill="#fff" transform="translate(246)" d="M0 0h60v24H0z"/></clipPath><clipPath id="f"><path fill="#fff" transform="translate(330)" d="M0 0h63v24H0z"/></clipPath><linearGradient id="b" x1="19.5" y1="0" x2="19.5" y2="24" gradientUnits="userSpaceOnUse"><stop stop-color="#F9F9F9"/><stop offset="1" stop-color="#005D9C"/></linearGradient></defs></svg>