<svg width="306" height="240" fill="none" xmlns="http://www.w3.org/2000/svg"><g clip-path="url(#a)"><path d="M45.307 150.903a1.217 1.217 0 0 1-1.21 1.213H42.38a1.212 1.212 0 0 1 0 2.424h2.417a1.21 1.21 0 0 1 1.21 1.212 1.212 1.212 0 0 1-1.21 1.212H33.44c7.76 21.779 22.31 40.819 41.44 55.167.199-.137.435-.211.677-.212h13.996a1.21 1.21 0 0 1 1.21 1.212 1.21 1.21 0 0 1-1.21 1.213h-1.716a1.212 1.212 0 0 1 0 2.424h2.42a1.21 1.21 0 0 1 1.21 1.212 1.212 1.212 0 0 1-1.21 1.212h-4.975C106.715 232.317 132.65 240 160.588 240a147.054 147.054 0 0 0 48.66-8.182 149.884 149.884 0 0 0 6.163-2.321 142.38 142.38 0 0 0 10.358-4.679 133.473 133.473 0 0 0 4.31-2.259l.066-.034.32-.178.833-.461c1.679-.94 3.334-1.912 4.962-2.917l1.001-.622a124.21 124.21 0 0 0 2.514-1.625 127.422 127.422 0 0 0 4.88-3.381l.572-.425.461-.341a129.197 129.197 0 0 0 6.275-4.954l.086-.072c.995-.839 1.976-1.692 2.943-2.559l.086-.077a125.456 125.456 0 0 0 9.013-8.941 120.293 120.293 0 0 0 11.658-15.011h-5.577a1.207 1.207 0 0 1-1.21-1.212 1.213 1.213 0 0 1 1.21-1.212h-2.417a1.211 1.211 0 0 1 0-2.424h1.716a1.214 1.214 0 1 1 0-2.422h10.666c8.867-15.967 13.853-33.958 13.853-52.995a107.659 107.659 0 0 0-5.933-35.276H264.32a2.556 2.556 0 0 1-2.472-2.56c0-.665.258-1.304.719-1.782a2.555 2.555 0 0 1 1.753-.78h-5.109a2.552 2.552 0 0 1-2.554-2.558c0-.679.269-1.33.748-1.81a2.552 2.552 0 0 1 1.806-.75h3.65a2.556 2.556 0 0 1-2.472-2.56c0-.664.258-1.303.719-1.78a2.555 2.555 0 0 1 1.753-.78h18.566C260.132 29.49 214.03 1.396 160.588 1.396c-31.217 0-59.926 9.585-82.662 25.642h5.95a2.556 2.556 0 0 1 2.47 2.56 2.555 2.555 0 0 1-2.472 2.56h-3.64a2.562 2.562 0 0 1 0 5.118h5.108a2.553 2.553 0 0 1 2.44 1.56 2.566 2.566 0 0 1-1.435 3.392c-.32.123-.662.181-1.005.17H59.92C39.518 63.35 27.161 90.733 27.161 120.696a107.61 107.61 0 0 0 3.973 28.995h12.963a1.217 1.217 0 0 1 1.21 1.212Z" fill="#fff"/><path d="M233.514 99.705c-1.193-.103-5.349-3.459-7.757-4.447-1.11-.456-1.805.507-2.234 1.676-1.476-.966-3.095-2.035-4.29-2.522a1.23 1.23 0 0 0-.993-.02c-1.55.674-1.882 4.734-1.882 4.734l.054.255c-.76.6-3.043.975-4.033 1.041-1.164.074-2.703.246-3.246.515-.543.27-6.865 1.794-10.5 2.906-3.636 1.112-13.026 6.651-13.026 6.651l-8.901 2.006-1.25-.24c-.398-1.433-2.217-1.419-4.348-.84-3.461-.636-6.913-1.132-8.029-.625 3.19-1.627 7.111-4.209 7.065-7.058-.063-3.886-7.74 1.565-10.646 3.768l-.249.19-.065-.247s-2.12.828-6.639.719c-4.519-.108-6.53 2.021-6.936 2.233-.406.212-4.542 1.607-4.863 1.662-.249.04-7.382.688-10.983 1.011-4.98-.449-12.171.336-12.566 1.081-.452.86-5.926 3.989-5.926 3.989l-1.876.493s-.224.573-.481 1.306a5.069 5.069 0 0 1-.463-.885 15.05 15.05 0 0 1-.664-2.338c-.023-.106-.049-.212-.074-.318 0-.026-.015-.052-.02-.078l-.069-.266-.017-.066a9.238 9.238 0 0 0-.338-1.012 5.367 5.367 0 0 0-.486-.948 3.353 3.353 0 0 0-1.081-1.078c-.718-.438-1.585-.542-2.42-.636a10.56 10.56 0 0 0-2.125-.092c-.609.058-1.207.224-1.816.261-.981.057-1.945-.221-2.918-.37-.972-.149-2.03-.146-2.86.399-.698.464-1.101 1.246-1.55 1.954a12.67 12.67 0 0 1-3.193 3.422c-.858.622-1.833 1.22-2.145 2.223-.312 1.003.12 1.975.312 2.964.423 2.177-.26 4.567.5 6.591.018.045.035.088.055.134a3.62 3.62 0 0 0 .303.614c.056.091.12.178.189.26.067.083.143.157.226.224.081.068.17.127.266.175.35.15.737.195 1.112.129l.206-.029.19-.034a5.94 5.94 0 0 0 .657-.158c.215-.063.421-.155.612-.272a1.391 1.391 0 0 0 .638-.995 3.38 3.38 0 0 0 .04-.541v-.126l.043.131a8.52 8.52 0 0 0 2.847 3.906 8.494 8.494 0 0 0 12.639-2.713l.323-.109a20.045 20.045 0 0 1 3.18-.74c.118.239.25.471.395.694 3.521 5.499 14.525 5.688 14.525 5.688s12.159-.473 13.1-.719c.941-.247 3.747.183 4.556.937.81.754 4.377 1.066 5.535-.883 1.158-1.948 2.488-1.573 2.488-1.573.24-.326.446-.677.613-1.046l.775.037c2.045.109 5.328.321 6.038.608 1.047.421 5.543.39 7.974-.636 2.432-1.026 10.011-5.376 10.011-5.376s4.714-1.433 5.552-1.72c.838-.286 3.032-2.384 3.032-2.384l4.519-1.754s4.774-2.579 6.788-2.848c2.013-.27 3.838-2.035 3.838-2.035l12.8-5.972a6.625 6.625 0 0 1 2.574.129c1.145.358 8.596-.736 10.852-3.152 0 0 .083-.313.195-.823.103 0 .209-.02.32-.023.481.106.775.178.775.178.951.713 1.964 1.34 3.027 1.871 1.518.731 3.146 1.132 3.718-.12.085-.193.143-.398.172-.608 1.47 1.046 6.418 4.27 6.558.43.172-4.51-7.039-8.617-8.229-8.72Z" fill="url(#b)"/><path d="M114.125 129.211s-2.311-.146-5.531.885a20.326 20.326 0 0 0-3.104 1.27c-4.736 2.39-.804-10.506-.804-10.506s1.319 0 2.904-.135c1.893-.151 4.164-.467 5.005-1.126 1.545-1.223 1.53 9.612 1.53 9.612Zm55.937-25.278c.057 3.605-6.327 6.777-9.359 8.081-.944.404-1.568.627-1.568.627l-.66-4.149s.414-.335 1.084-.843c2.88-2.175 10.44-7.551 10.503-3.716Z" fill="#EFB7B9"/><path opacity=".1" d="M160.703 112.014c-.944.404-1.568.627-1.568.627l-.66-4.149s.414-.335 1.084-.843l1.144 4.365Z" fill="#000"/><path d="M128.204 113.323s12.517-1.126 12.846-1.18c.329-.055 4.407-1.433 4.808-1.637.4-.203 2.382-2.312 6.842-2.203 4.459.108 6.55-.708 6.55-.708l1.473 5.616-29.73 3.379-2.789-3.267Z" fill="#E1E7EF"/><path opacity=".05" d="M128.204 113.323s12.517-1.126 12.846-1.18c.329-.055 4.407-1.433 4.808-1.637.4-.203 2.382-2.312 6.842-2.203 4.459.108 6.55-.708 6.55-.708l1.473 5.616-29.73 3.379-2.789-3.267Z" fill="#000"/><path d="M215.654 99.367s.458-5.625 2.832-4.651c2.374.974 6.476 4.298 7.651 4.39 1.176.092 8.295 4.152 8.126 8.597-.168 4.445-6.864-.719-6.864-.719s-6.23-1.533-8.244-.843c-2.013.691-3.501-6.774-3.501-6.774Z" fill="#B07473"/><path opacity=".1" d="M234.264 107.712c-.163 4.444-6.865-.72-6.865-.72s-6.227-1.533-8.243-.842c-.572.2-1.145-.287-1.602-1.092-.901-1.524-1.553-4.167-1.791-5.227-.066-.287-.097-.456-.097-.456s.458-5.625 2.832-4.648c2.374.977 6.473 4.284 7.648 4.388 1.176.103 8.278 4.152 8.118 8.597Z" fill="#000"/><path opacity=".1" d="M221.418 102.697c-.203.521-1.642 1.35-3.875 2.361-.901-1.524-1.554-4.167-1.791-5.227.42-.18.718-.39.767-.624.165-.786 6.063.498 4.899 3.49Z" fill="#000"/><path d="m171.635 113.696 13.686-3.107s9.268-5.465 12.872-6.559c3.604-1.095 9.819-2.599 10.357-2.866.537-.267 2.053-.438 3.2-.51 1.147-.072 4.062-.573 4.228-1.355.166-.783 6.064.495 4.9 3.487-1.165 2.992-42.759 16.011-42.759 16.011l-6.484-5.101Z" fill="#444053"/><path opacity=".1" d="m171.635 113.696 13.686-3.107s9.268-5.465 12.872-6.559c3.604-1.095 9.819-2.599 10.357-2.866.537-.267 2.053-.438 3.2-.51 1.147-.072 4.062-.573 4.228-1.355.166-.783 6.064.495 4.9 3.487-1.165 2.992-42.759 16.011-42.759 16.011l-6.484-5.101Z" fill="#000"/><path d="M240.694 108.537c-.163 4.448-6.864-.719-6.864-.719s-4.357-1.072-6.96-1.02a4.265 4.265 0 0 0-1.284.178c-2.002.69-3.492-6.775-3.492-6.775s.028-.361.111-.882c.243-1.548.947-4.497 2.723-3.769 2.374.977 6.473 4.299 7.649 4.388 1.175.088 8.277 4.163 8.117 8.599Z" fill="#B07473"/><path opacity=".1" d="M226.862 106.818a4.266 4.266 0 0 0-1.285.177c-2.002.691-3.492-6.774-3.492-6.774s.029-.361.111-.883c1.671-.358 3.07-.679 3.07-.679 3.066.135 2.059 6.024 1.596 8.159Z" fill="#000"/><path d="M226.118 107.652c-2.228 2.387-9.585 3.464-10.706 3.115a6.522 6.522 0 0 0-2.531-.132l-12.626 5.889s-1.802 1.736-3.787 2.006c-1.985.269-6.696 2.808-6.696 2.808l-4.456 1.719s-2.177 2.101-3 2.388c-.824.286-5.478 1.693-5.478 1.693s-7.474 4.299-9.874 5.304c-2.399 1.006-6.83 1.041-7.865.625-.698-.286-3.939-.49-5.953-.599-.955-.048-1.636-.074-1.636-.074l-2.357-17.856s1.948-.433 4.408-1.015c3.573-.842 8.226-2.006 9.516-2.613 2.183-1.029 13.815 2.006 15.949 2.049 2.134.043 13.017-3.439 13.017-3.439s13.598-7.686 16.35-7.689c2.751-.002 6.324-1.203 8.544-1.51 2.219-.306 7.762-1.579 7.762-1.579 3.745.172 1.419 8.91 1.419 8.91Z" fill="#444053"/><path opacity=".1" d="M109.469 124.826a8.398 8.398 0 0 1-.875 5.27 20.326 20.326 0 0 0-3.104 1.27c-4.736 2.39-.804-10.506-.804-10.506s1.319 0 2.904-.134a8.377 8.377 0 0 1 1.879 4.1Z" fill="#000"/><path d="M109.186 124.872a8.415 8.415 0 0 1-1.271 5.936 8.39 8.39 0 0 1-4.931 3.53 8.371 8.371 0 0 1-6.017-.719 8.4 8.4 0 0 1-4.108-5.025 8.193 8.193 0 0 1-.245-1.072 8.42 8.42 0 0 1 1.377-6.08 8.378 8.378 0 0 1 11.31-2.391 8.4 8.4 0 0 1 3.885 5.821Z" fill="#EFB7B9"/><path opacity=".1" d="M152.92 124.855c1.782 3.478.896 6.27.226 7.602-.955-.049-1.636-.074-1.636-.074l-2.357-17.856s1.948-.433 4.408-1.015l.255-.02s-3.416 6.445-.896 11.363Z" fill="#000"/><path d="M152.073 124.989c2.52 4.92-.286 8.462-.286 8.462s-1.313-.369-2.454 1.554c-1.141 1.922-4.668 1.616-5.46.859-.793-.756-3.567-1.172-4.494-.925-.927.246-12.92.707-12.92.707s-10.852-.183-14.327-5.608a6.554 6.554 0 0 1-.389-.682s-2.743-5.141-2.829-6.287c-.037-.447.143-1.221.372-2.006.363-1.218.858-2.453.858-2.453l1.851-.487s5.4-3.086 5.843-3.932c.444-.845 9.668-1.736 14.356-.794 4.688.943 13.549.823 13.549.823l7.243-.611s-3.419 6.462-.913 11.38Z" fill="#E1E7EF"/><path opacity=".1" d="M141.447 133.468a21.77 21.77 0 0 0 3.147-1.522c1.667-1-3.147 1.522-3.147 1.522Zm-26.489-11.789s3.564 6.637 11.184 4.453c7.62-2.183 13.326-.573 13.326-.573s7.128-.409 8.441-.957a53.29 53.29 0 0 1 6.023-1.88c1.124-.229 2.692-.682 3.933-1.069 1.242-.386 7.875-1.785 7.875-1.785s-2.097-4.694-1.082-5.293c0 0-6.547 1.336-6.621.86-.074-.476-7.411-.765-8.009-.287-.598.479-7.151.952-7.723 1.167-.572.215-10.697 1.106-10.697 1.106s-15.191-6.187-16.65 4.258Z" fill="#000"/><path d="M163.011 115.062s11.93-6.926 12.368-2.353c.437 4.574-11.224 6.242-11.224 6.242l-1.144-3.889Z" fill="#EFB7B9"/><path opacity=".1" d="M115.102 120.785s3.575 6.637 11.183 4.453c7.609-2.184 13.329-.573 13.329-.573s7.128-.41 8.438-.957a52.95 52.95 0 0 1 6.027-1.88c1.121-.229 2.691-.682 3.933-1.069 1.241-.387 7.874-1.785 7.874-1.785s-2.099-4.694-1.084-5.293c0 0-6.544 1.335-6.622.859-.077-.475-7.411-.765-8.008-.286-.598.478-7.151.951-7.723 1.166-.572.215-10.689 1.103-10.689 1.103s-15.197-6.184-16.658 4.262Z" fill="#000"/><path d="M114.863 121.112s3.567 6.637 11.184 4.453c7.617-2.184 13.329-.573 13.329-.573s7.128-.41 8.438-.957a53.103 53.103 0 0 1 6.027-1.883c1.121-.226 2.691-.682 3.932-1.069 1.242-.387 7.875-1.782 7.875-1.782s-2.1-4.697-1.084-5.293c0 0-6.545 1.335-6.622.86-.077-.476-7.411-.766-8.009-.287-.597.479-7.136.951-7.722 1.169-.587.218-10.695 1.098-10.695 1.098s-15.191-6.182-16.653 4.264Z" fill="#E1E7EF"/><path opacity=".1" d="M139.731 119.639c-.111-.306 1.811-.16 5.603-.894 3.793-.733 10.177-2.487 10.177-2.487s-14.927 5.697-15.78 3.381Zm-14.625-2.109s.18.516-1.67 1.634l1.67-1.634Zm3.885.75a2.059 2.059 0 0 1-1.35 2.43" fill="#000"/><path opacity=".1" d="m112.347 129.723 1.476 1.372s1.584.86 1.753 1.319c.169.458 3.387.375 3.387.375l3.718 2.35-1.579-2.207a4.306 4.306 0 0 0 3.644-.776c1.811-1.353 5.403-4.872 5.403-4.872l6.484-5.055.109-3.258-5.103-.828-11.876 12.053-2.691.381-2.86-.318-1.865-.536Z" fill="#000"/><path d="m112.021 129.485 1.475 1.372s1.582.86 1.754 1.319c.171.458 3.389.375 3.389.375l3.719 2.35-1.579-2.207a4.297 4.297 0 0 0 3.641-.776c1.813-1.353 5.406-4.872 5.406-4.872l6.493-5.041.108-3.258-5.102-.828-11.891 12.053-2.691.381-2.86-.318-1.862-.55Z" fill="#67647E"/><path opacity=".1" d="m115.985 128.769-3.255 1.476a6.077 6.077 0 0 1-.387-.685s-2.745-5.138-2.831-6.287c-.037-.447.143-1.221.374-2.006l6.099 7.502Z" fill="#000"/><path d="m115.376 128.577-3.255 1.472a6.554 6.554 0 0 1-.389-.682s-2.743-5.141-2.829-6.287c-.037-.447.143-1.221.372-2.006l6.101 7.503Z" fill="#E1E7EF"/><path d="M109.014 124.052a1.522 1.522 0 0 1-.503.424c-.507.232-1.096 0-1.651.026-.555.026-1.115.33-1.69.375a4.392 4.392 0 0 1-1.202-.149c-.758-.157-1.581-.246-2.288.098-.706.344-1.144 1.272-.732 1.928-.449.634-1.322.837-2.091.731-1.802-.255-3.312-1.808-5.148-.605-.799.531-.747 1.35-.73 2.144a8.216 8.216 0 0 1-.389-1.504 8.421 8.421 0 0 1 1.378-6.081 8.379 8.379 0 0 1 11.311-2.391 8.4 8.4 0 0 1 3.712 5.004h.023Z" fill="url(#c)"/><path d="M92.29 130.532a3.523 3.523 0 0 1-1.252.424 2.36 2.36 0 0 1-1.487-.066 1.97 1.97 0 0 1-.827-.923c-1.058-2.103-.24-4.66-.69-6.972-.188-.975-.603-1.978-.308-2.923.294-.946 1.281-1.579 2.113-2.192a12.563 12.563 0 0 0 3.147-3.376c.443-.699.84-1.47 1.527-1.926.807-.539 1.854-.539 2.812-.392.958.146 1.908.418 2.877.361.601-.035 1.19-.198 1.791-.255.7-.043 1.403-.012 2.096.091.824.092 1.677.195 2.386.625 1.25.756 1.736 2.292 2.062 3.725.326 1.433.655 2.975 1.759 3.929.182.117.32.29.395.493a.87.87 0 0 1-.249.648l-1.304 1.736a1.93 1.93 0 0 1-.678.648c-.504.235-1.096 0-1.65.023-.555.023-1.113.335-1.691.378a4.272 4.272 0 0 1-1.201-.149c-.758-.158-1.582-.246-2.274.098-.692.343-1.144 1.272-.732 1.928-.452.633-1.325.84-2.091.731-1.805-.252-3.315-1.808-5.149-.605-1.487.997.032 3.044-1.381 3.941Z" fill="#585268"/><path opacity=".1" d="M108.093 115.87c.252 1.092.504 2.258 1.104 3.173a14.981 14.981 0 0 1-.652-2.293 8.338 8.338 0 0 0-.995-2.668c.23.58.412 1.178.543 1.788Zm2.208 4.797-.088-.083a1.514 1.514 0 0 1-.215.358l-1.304 1.737c-.17.268-.403.49-.678.647-.503.235-1.096 0-1.65.023-.555.023-1.113.336-1.691.379a4.309 4.309 0 0 1-1.201-.149c-.758-.158-1.582-.247-2.288.097-.707.344-1.145 1.272-.733 1.929-.452.633-1.321.839-2.09.73-1.802-.252-3.313-1.808-5.15-.604-1.5.991.018 3.037-1.398 3.934a3.43 3.43 0 0 1-1.25.424c-.497.095-1.035.161-1.487-.065a1.598 1.598 0 0 1-.572-.513c.057.155.123.307.197.455.17.389.46.713.827.923a2.36 2.36 0 0 0 1.487.066c.44-.06.866-.204 1.253-.424 1.413-.897-.106-2.943 1.399-3.935 1.822-1.203 3.332.353 5.148.605.767.109 1.639-.098 2.091-.731-.412-.656.037-1.585.732-1.929.695-.343 1.516-.255 2.274-.097.392.106.796.157 1.202.149.572-.043 1.112-.352 1.69-.378.578-.026 1.144.212 1.65-.023.276-.157.509-.379.678-.648l1.305-1.736a.863.863 0 0 0 .248-.648.99.99 0 0 0-.386-.493Zm66.837-3.791s2.234 4.012 1.759 4.677c-.475.665-1.759-4.677-1.759-4.677Zm7.345-1.175s1.408 2.468 1.122 2.958l-1.122-2.958Zm8.432-5.705s1.628 1.146 1.024 1.891l-1.024-1.891Zm1.64-.628s2.068 2.533 1.381 3.224l-1.381-3.224Zm28.436-6.943s.315 4.238 1.559 3.877c1.244-.361-1.559-3.877-1.559-3.877Z" fill="#000"/><path d="M212.823 207.179s1.737-5.906-.326-10.253a9.332 9.332 0 0 1-.752-5.857c.191-.939.468-1.858.827-2.746" stroke="#535461" stroke-width="2" stroke-miterlimit="10"/><path d="M211.287 185.581c0 .722 1.31 2.823 1.31 2.823s1.307-2.101 1.307-2.823a1.309 1.309 0 0 0-2.213-.888 1.317 1.317 0 0 0-.404.888Zm-2.163 4.009c.395.608 2.632 1.657 2.632 1.657s-.043-2.473-.435-3.081a1.31 1.31 0 0 0-2.381.445c-.071.341-.005.696.184.988v-.009Zm.095 6.852c.646.327 3.106.1 3.106.1s-1.281-2.115-1.928-2.441a1.305 1.305 0 0 0-1.704.607 1.312 1.312 0 0 0 .526 1.734Zm1.238 5.166c.573.43 3.044.625 3.044.625s-.907-2.292-1.488-2.731a1.305 1.305 0 0 0-1.829.274 1.314 1.314 0 0 0 .273 1.832Zm4.039-10.221c-.517.504-2.932 1.026-2.932 1.026s.59-2.402 1.11-2.906a1.308 1.308 0 1 1 1.822 1.88Zm1.376 6.064c-.647.324-3.106.1-3.106.1s1.281-2.115 1.927-2.442a1.313 1.313 0 0 1 1.179 2.342Zm.524 6.075c-.572.43-3.043.625-3.043.625s.906-2.293 1.487-2.734a1.303 1.303 0 0 1 1.485-.109 1.309 1.309 0 0 1 .437 1.842c-.095.149-.22.277-.366.376Z" fill="#A3CC4A"/><path d="M255.202 201.165s1.736-5.907-.326-10.254a9.348 9.348 0 0 1-.753-5.86c.191-.94.468-1.86.827-2.748" stroke="#535461" stroke-width="2" stroke-miterlimit="10"/><path d="M253.665 179.566c0 .722 1.311 2.823 1.311 2.823s1.307-2.101 1.307-2.823a1.325 1.325 0 0 0-.361-.967 1.32 1.32 0 0 0-.948-.407 1.304 1.304 0 0 0-.948.407 1.312 1.312 0 0 0-.361.967Zm-2.162 4.009c.395.607 2.632 1.656 2.632 1.656s-.04-2.473-.435-3.081a1.31 1.31 0 0 0-2.387.958c.032.169.096.331.19.475v-.008Zm.097 6.849c.643.326 3.103.103 3.103.103s-1.281-2.118-1.928-2.442a1.307 1.307 0 0 0-1.855 1.581c.057.165.147.317.263.448.117.13.259.235.417.31Zm1.225 5.17c.572.43 3.043.624 3.043.624s-.907-2.292-1.487-2.733a1.312 1.312 0 0 0-1.556 2.109Zm4.055-10.222c-.518.505-2.932 1.026-2.932 1.026s.592-2.401 1.11-2.906a1.306 1.306 0 0 1 2.219.959 1.31 1.31 0 0 1-.397.921Zm1.379 6.06c-.647.327-3.107.1-3.107.1s1.285-2.114 1.928-2.438a1.302 1.302 0 0 1 1.756.579 1.307 1.307 0 0 1-.577 1.759Zm.515 6.076c-.572.43-3.044.625-3.044.625s.907-2.293 1.488-2.731a1.306 1.306 0 0 1 .971-.243 1.304 1.304 0 0 1 1.1 1.489 1.31 1.31 0 0 1-.515.86Z" fill="#A3CC4A"/><path d="M221.819 200.591s1.736-5.906-.326-10.253a9.34 9.34 0 0 1-.752-5.86c.19-.939.467-1.858.826-2.746" stroke="#535461" stroke-width="2" stroke-miterlimit="10"/><path d="M220.283 178.992c0 .723 1.31 2.823 1.31 2.823s1.307-2.1 1.307-2.823a1.309 1.309 0 0 0-2.213-.888 1.317 1.317 0 0 0-.404.888Zm-2.163 4.009c.395.608 2.632 1.657 2.632 1.657s-.04-2.473-.435-3.081a1.307 1.307 0 0 0-1.813-.384 1.317 1.317 0 0 0-.384 1.817v-.009Zm.095 6.853c.644.327 3.104.1 3.104.1s-1.282-2.114-1.928-2.441a1.304 1.304 0 0 0-1.892 1.074 1.306 1.306 0 0 0 .716 1.267Zm1.239 5.167c.572.429 3.043.624 3.043.624s-.907-2.292-1.487-2.731a1.318 1.318 0 0 0-.972-.242 1.311 1.311 0 0 0-.858.516 1.314 1.314 0 0 0 .274 1.833Zm4.044-10.222c-.518.504-2.932 1.026-2.932 1.026s.592-2.402 1.11-2.906a1.308 1.308 0 1 1 1.822 1.88Zm1.37 6.064c-.646.324-3.106.1-3.106.1s1.284-2.115 1.928-2.441a1.305 1.305 0 0 1 1.704.607 1.311 1.311 0 0 1-.526 1.734Zm.523 6.074c-.572.43-3.043.625-3.043.625s.906-2.293 1.487-2.734a1.312 1.312 0 0 1 1.485-.109 1.322 1.322 0 0 1 .611.828 1.326 1.326 0 0 1-.173 1.015 1.324 1.324 0 0 1-.367.375Z" fill="#A3CC4A"/><path d="M251.966 206.876v.745l.086-.072c.995-.838 1.977-1.691 2.943-2.559l.086-.077a125.456 125.456 0 0 0 9.013-8.941c-3.052-5.319-10.2-5.347-11.484-5.307h-.2s-.461 9.574-.444 16.211Z" fill="#EFEFEF"/><path opacity=".1" d="M251.966 206.876v.745l.086-.072c.995-.838 1.977-1.691 2.943-2.559l.086-.077a125.456 125.456 0 0 0 9.013-8.941c-3.052-5.319-10.2-5.347-11.484-5.307h-.2s-.461 9.574-.444 16.211Z" fill="#fff"/><path d="m221.498 196.665.24 1.588 2.449 16.131.801 5.29.78 5.141c1.453-.728 2.89-1.481 4.311-2.258l.066-.035.32-.177.832-.462a134.1 134.1 0 0 0 4.963-2.917l1.001-.622c.847-.533 1.685-1.074 2.514-1.625a127.074 127.074 0 0 0 4.88-3.381l.572-.424.461-.341a129.833 129.833 0 0 0 6.275-4.955l.086-.072a123.63 123.63 0 0 0 2.943-2.559l-1.43-7.379a68.719 68.719 0 0 1-1.018-7.534c-.492-6.152-2.003-18.933-6.239-21.939a3.19 3.19 0 0 0-2.86-.507c-.42.118-.834.259-1.238.424-2.972 1.192-5.784 3.559-8.115 6.018a42.507 42.507 0 0 0-8.009 12.104l-4.29 9.689-.015.032-.04.088-.24.682Z" fill="#EFEFEF"/><path opacity=".1" d="m231.944 213.203 4.974-17.045s4.657 12.537 8.321 16.759l.461-.341-6.605-16.349s-2.162-9.316-.432-12.709c1.373-2.694 5.881-11.75 7.68-15.383a3.19 3.19 0 0 0-2.86-.507c-.421.118-.834.259-1.239.424-2.288 3.633-6.521 10.889-6.836 15.391a56.522 56.522 0 0 0 .504 11.792l-3.968 17.968Z" fill="#fff"/><path d="M209.248 231.818a149.928 149.928 0 0 0 6.164-2.321 142.357 142.357 0 0 0 10.357-4.679c1.453-.728 2.89-1.481 4.311-2.259l.065-.034-.166-1.052-.18-1.146-.592-3.8s-2.754-11.933-5.666-17.953a11.23 11.23 0 0 0-1.691-2.703c-.042-.048-.088-.091-.134-.134a3.211 3.211 0 0 0-2.002-.487 4.225 4.225 0 0 0-2.463 1.16c-1.43 1.275-2.989 3.829-4.327 8.715-2.063 7.491-3.135 18.566-3.676 26.693Z" fill="#EFEFEF"/><path opacity=".1" d="M215.412 229.497c3.535-1.43 6.988-2.99 10.357-4.679 1.453-.728 2.89-1.481 4.311-2.258a11.445 11.445 0 0 0-.1-1.086s-.364-2.006-4.205-1.854c-.263 0-.526.031-.787.063a10.903 10.903 0 0 0-5.492 2.332 10.943 10.943 0 0 0-3.452 4.875 11.579 11.579 0 0 0-.632 2.607Zm5.074-28.138c.129-3.404-1.716-4.57-3.241-4.96a4.215 4.215 0 0 1 2.463-1.161 6.557 6.557 0 0 1 2.148 3.439l3.893 18.994s-5.481-10.606-5.263-16.312Z" fill="#fff"/><path d="m237.325 217.51-1.064 1.459 1.001-.622c.846-.533 1.685-1.075 2.514-1.625l-1.627-.341-.824 1.129Z" fill="#EFEFEF"/><path opacity=".1" d="M237.262 218.347c.846-.533 1.684-1.075 2.514-1.625a128.213 128.213 0 0 0 4.88-3.381c-1.125-.803-2.194-1.359-2.938-1.293 0 0-3.813.261-4.393 5.462-.029.267-.052.545-.063.837Z" fill="#fff"/><path opacity=".1" d="m221.71 195.726.086.263 8.009 24.336.666 2.023.832-.462a61.863 61.863 0 0 0-7.757-23.315c-.823-1.404-1.45-2.312-1.716-2.671a2.931 2.931 0 0 0-.12-.166v-.008Zm30.257 11.149c.025.224.057.447.088.674.996-.839 1.977-1.692 2.943-2.559l.086-.078-2.214-11.8-.457-2.439a52.512 52.512 0 0 0-.446 16.202Z" fill="#000"/><path d="M147.4 21.42h3.65a2.556 2.556 0 0 1-2.472-2.56c0-.664.258-1.303.719-1.78a2.555 2.555 0 0 1 1.753-.78h29.564a2.553 2.553 0 0 1 1.752.78 2.565 2.565 0 0 1 0 3.561 2.554 2.554 0 0 1-1.752.78h-3.65a2.552 2.552 0 0 1 2.554 2.559 2.552 2.552 0 0 1-2.554 2.56h5.108a2.556 2.556 0 0 1 2.472 2.56c0 .664-.258 1.303-.719 1.78a2.555 2.555 0 0 1-1.753.78h-29.564a2.553 2.553 0 0 1-1.752-.78 2.565 2.565 0 0 1 0-3.562 2.553 2.553 0 0 1 1.752-.78H147.4a2.552 2.552 0 0 1-2.554-2.558 2.552 2.552 0 0 1 2.554-2.559Zm42.141 39.224h3.649a2.552 2.552 0 0 1-2.554-2.56 2.552 2.552 0 0 1 2.554-2.559h29.564a2.562 2.562 0 0 1 1.806 4.369 2.55 2.55 0 0 1-1.806.75h-3.649a2.552 2.552 0 0 1 2.554 2.559 2.56 2.56 0 0 1-2.554 2.559h5.117a2.553 2.553 0 0 1 1.752.78 2.565 2.565 0 0 1 0 3.561 2.553 2.553 0 0 1-1.752.78h-29.573a2.557 2.557 0 0 1-2.472-2.561 2.557 2.557 0 0 1 2.472-2.56h-5.108a2.553 2.553 0 0 1-2.555-2.56 2.553 2.553 0 0 1 2.555-2.559Zm-42.834 122.482h1.716a1.212 1.212 0 0 1 0-2.425h14.016a1.21 1.21 0 0 1 .855 2.069 1.207 1.207 0 0 1-.855.356h-1.717a1.207 1.207 0 0 1 1.21 1.212 1.213 1.213 0 0 1-1.21 1.212h2.417a1.211 1.211 0 0 1 0 2.424h-14.012a1.207 1.207 0 0 1-1.21-1.212 1.213 1.213 0 0 1 1.21-1.212h-2.42a1.211 1.211 0 0 1 0-2.424Zm-38.531 20.6h1.379a.97.97 0 0 1 0-1.934h11.172a.965.965 0 0 1 .914.967.969.969 0 0 1-.914.967h-1.378a.971.971 0 0 1 .914.967.972.972 0 0 1-.914.968h1.93a.965.965 0 0 1 .915.967.97.97 0 0 1-.915.967h-11.183a.972.972 0 0 1-.941-.584.973.973 0 0 1 .223-1.086.955.955 0 0 1 .718-.264h-1.931a.975.975 0 0 1-.717-.264.97.97 0 0 1 .717-1.671h.011Zm-47.226-36.05h1.73a1.212 1.212 0 0 1 0-2.424h13.996a1.21 1.21 0 0 1 1.21 1.212 1.211 1.211 0 0 1-1.21 1.212H74.96a1.21 1.21 0 0 1 1.21 1.212 1.21 1.21 0 0 1-1.21 1.213h2.42a1.212 1.212 0 0 1 0 2.424H63.37a1.21 1.21 0 0 1-1.21-1.212 1.212 1.212 0 0 1 1.21-1.212h-2.42a1.21 1.21 0 0 1-1.21-1.213 1.215 1.215 0 0 1 1.21-1.212Zm122.083 37.893h1.716a1.209 1.209 0 0 1-1.21-1.212 1.212 1.212 0 0 1 1.21-1.212h14.016a1.212 1.212 0 0 1 0 2.424h-1.716a1.21 1.21 0 0 1 .855 2.069 1.206 1.206 0 0 1-.855.355h2.419a1.212 1.212 0 0 1 0 2.422h-14.021a1.216 1.216 0 0 1-.893-.333 1.225 1.225 0 0 1-.375-.878 1.218 1.218 0 0 1 .375-.878 1.215 1.215 0 0 1 .893-.333h-2.414a1.212 1.212 0 0 1 0-2.424Z" fill="#EFF3F2"/><path d="M202.483 88.191a.817.817 0 0 0-.263-1.052.41.41 0 0 1 .332-.734c.029.009.058.02.085.035a.814.814 0 0 0 1.053-.26.369.369 0 0 1 .06-.072.407.407 0 0 1 .65.149c.033.08.04.17.019.255a.534.534 0 0 1-.034.086.817.817 0 0 0 .263 1.052.41.41 0 0 1 .072.06.41.41 0 0 1-.404.67.276.276 0 0 1-.085-.034.819.819 0 0 0-1.053.264.359.359 0 0 1-.057.071.41.41 0 0 1-.654-.147.406.406 0 0 1 .016-.343Z" fill="#A3CC4A"/><path d="M293.063 39.853a.816.816 0 0 0-.263-1.052.414.414 0 0 1-.118-.547.412.412 0 0 1 .452-.186c.029.009.057.02.083.034a.812.812 0 0 0 1.053-.263.407.407 0 0 1 .71.08c.033.08.04.17.019.255a.279.279 0 0 1-.034.083.82.82 0 0 0 .263 1.055c.026.017.05.038.072.06a.412.412 0 0 1-.149.651.41.41 0 0 1-.255.02.348.348 0 0 1-.085-.035.815.815 0 0 0-1.05.264.909.909 0 0 1-.06.071.41.41 0 0 1-.654-.146.406.406 0 0 1 .016-.344Z" fill="#fff"/><path opacity=".3" d="M294.456 169.685a.817.817 0 0 0-.263-1.052.406.406 0 0 1 .417-.696.82.82 0 0 0 1.053-.264.392.392 0 0 1 .057-.072.406.406 0 0 1 .654.147.405.405 0 0 1-.016.343.815.815 0 0 0 .263 1.052.33.33 0 0 1 .069.06.414.414 0 0 1 .037.467.405.405 0 0 1-.426.192.27.27 0 0 1-.086-.031.812.812 0 0 0-1.053.261.401.401 0 0 1-.294.173.41.41 0 0 1-.412-.58Z" fill="#A3CC4A"/><path d="M14.098 10.895a.818.818 0 0 0-.263-1.054.408.408 0 0 1 .332-.73c.03.007.059.018.086.033a.814.814 0 0 0 1.053-.263.473.473 0 0 1 .06-.072.409.409 0 0 1 .635.49.818.818 0 0 0 .263 1.055c.026.016.05.035.071.057a.41.41 0 0 1-.403.673.384.384 0 0 1-.086-.034.814.814 0 0 0-1.052.264.334.334 0 0 1-.058.068.409.409 0 0 1-.638-.487ZM.44 2.193a.815.815 0 0 0-.262-1.051A.41.41 0 0 1 .51.408a.42.42 0 0 1 .085.034.814.814 0 0 0 1.053-.26.484.484 0 0 1 .057-.072.409.409 0 0 1 .672.393.425.425 0 0 1-.034.083.818.818 0 0 0 .263 1.063.346.346 0 0 1 .069.06.407.407 0 0 1-.412.673.285.285 0 0 1-.086-.034.817.817 0 0 0-1.052.264.364.364 0 0 1-.06.071.409.409 0 0 1-.67-.404.539.539 0 0 1 .046-.086Z" fill="#fff"/><path d="M109.238 65.395a.817.817 0 0 0-.263-1.052.41.41 0 0 1 .331-.734c.03.008.059.02.086.035a.815.815 0 0 0 1.053-.261.356.356 0 0 1 .057-.072.411.411 0 0 1 .486-.048.406.406 0 0 1 .186.453.415.415 0 0 1-.034.082.815.815 0 0 0 .263 1.055.405.405 0 0 1 .12.546.408.408 0 0 1-.538.15.816.816 0 0 0-1.052.264.368.368 0 0 1-.06.072.407.407 0 0 1-.65-.15.413.413 0 0 1-.02-.254.535.535 0 0 1 .035-.086ZM58.79 99.064a.815.815 0 0 0-.262-1.052.408.408 0 0 1 .332-.73c.03.006.059.017.085.034a.817.817 0 0 0 1.053-.264.476.476 0 0 1 .057-.072.408.408 0 0 1 .638.49.815.815 0 0 0 .263 1.052.408.408 0 0 1-.332.73.287.287 0 0 1-.085-.034.817.817 0 0 0-1.053.264.489.489 0 0 1-.057.072.41.41 0 0 1-.638-.49Zm78.944-44.032a.812.812 0 0 0-.383-1.014.412.412 0 0 1-.211-.272.4.4 0 0 1 .026-.258.402.402 0 0 1 .428-.235.309.309 0 0 1 .089.023.816.816 0 0 0 1.015-.384.408.408 0 0 1 .764.246.464.464 0 0 1-.026.089.818.818 0 0 0 .386 1.014.408.408 0 0 1 .177.526.41.41 0 0 1-.423.24.431.431 0 0 1-.088-.023.812.812 0 0 0-1.013.384.594.594 0 0 1-.051.077.411.411 0 0 1-.476.102.405.405 0 0 1-.236-.426.34.34 0 0 1 .022-.089Z" fill="#A3CC4A"/><path d="M266.419 143.565a1.131 1.131 0 0 0 .629-1.367.595.595 0 0 1-.023-.126.573.573 0 0 1 1.016-.376.618.618 0 0 1 .063.112 1.13 1.13 0 0 0 1.364.631.6.6 0 0 1 .126-.026.568.568 0 0 1 .554.375.577.577 0 0 1-.18.645.53.53 0 0 1-.111.063 1.146 1.146 0 0 0-.629 1.367.455.455 0 0 1 .025.126.573.573 0 0 1-1.018.376.432.432 0 0 1-.06-.112 1.124 1.124 0 0 0-1.364-.631.6.6 0 0 1-.126.026.568.568 0 0 1-.554-.375.562.562 0 0 1-.014-.351.569.569 0 0 1 .193-.294.562.562 0 0 1 .109-.063Z" fill="#EFF3F2"/><path d="M92.245 154.419a1.144 1.144 0 0 0 .63-1.367.465.465 0 0 1-.027-.123.575.575 0 0 1 .725-.572.57.57 0 0 1 .294.194.602.602 0 0 1 .063.112 1.128 1.128 0 0 0 1.364.63.467.467 0 0 1 .123-.023.57.57 0 0 1 .565.724.571.571 0 0 1-.19.293.512.512 0 0 1-.11.064 1.129 1.129 0 0 0-.63 1.366.63.63 0 0 1 .025.127.574.574 0 0 1-1.016.375.541.541 0 0 1-.063-.112 1.146 1.146 0 0 0-1.364-.63.672.672 0 0 1-.126.026.577.577 0 0 1-.554-.375.575.575 0 0 1 .18-.646.583.583 0 0 1 .11-.063Zm54.443 2.783a1.127 1.127 0 0 0 .629-1.367.6.6 0 0 1-.026-.126.574.574 0 0 1 .725-.569c.116.032.218.1.293.194a.495.495 0 0 1 .063.112 1.13 1.13 0 0 0 1.365.627.67.67 0 0 1 .125-.023.575.575 0 0 1 .566.724.575.575 0 0 1-.191.294.578.578 0 0 1-.111.063 1.126 1.126 0 0 0-.63 1.367.6.6 0 0 1 .026.126.574.574 0 0 1-.725.569.568.568 0 0 1-.293-.194.474.474 0 0 1-.063-.112 1.146 1.146 0 0 0-1.364-.63.496.496 0 0 1-.126.026.568.568 0 0 1-.55-.375.57.57 0 0 1 .175-.643.557.557 0 0 1 .112-.063Z" fill="#A3CC4A"/><path d="M34.858 34.328a4.724 4.724 0 0 0 4.72-4.729 4.724 4.724 0 0 0-4.72-4.728 4.724 4.724 0 0 0-4.72 4.729 4.724 4.724 0 0 0 4.72 4.728Zm235.34 4.728a4.724 4.724 0 0 0 4.719-4.728 4.724 4.724 0 0 0-4.719-4.728 4.723 4.723 0 0 0-4.719 4.728 4.723 4.723 0 0 0 4.719 4.728ZM57.169 8.703a2.577 2.577 0 0 0 2.574-2.579 2.577 2.577 0 0 0-2.574-2.58 2.577 2.577 0 0 0-2.574 2.58 2.577 2.577 0 0 0 2.574 2.58Zm246.257 75.055a2.576 2.576 0 0 0 2.574-2.58 2.576 2.576 0 0 0-2.574-2.578 2.576 2.576 0 0 0-2.574 2.579 2.576 2.576 0 0 0 2.574 2.579ZM39.578 215.782a2.576 2.576 0 0 0 2.574-2.579 2.577 2.577 0 0 0-2.574-2.579 2.577 2.577 0 0 0-2.574 2.579 2.576 2.576 0 0 0 2.574 2.579Zm9.868 11.614a2.576 2.576 0 0 0 2.575-2.579 2.577 2.577 0 0 0-2.575-2.579 2.577 2.577 0 0 0-2.574 2.579 2.576 2.576 0 0 0 2.574 2.579Zm-19.307 7.001a2.576 2.576 0 0 0 2.574-2.579 2.577 2.577 0 0 0-2.574-2.579 2.577 2.577 0 0 0-2.575 2.579 2.576 2.576 0 0 0 2.575 2.579Z" fill="#fff"/></g><defs><linearGradient id="b" x1="166.898" y1="133.414" x2="161.776" y2="101.354" gradientUnits="userSpaceOnUse"><stop stop-color="gray" stop-opacity=".25"/><stop offset=".54" stop-color="gray" stop-opacity=".12"/><stop offset="1" stop-color="gray" stop-opacity=".1"/></linearGradient><linearGradient id="c" x1="6468.79" y1="4970.7" x2="7435.93" y2="4970.7" gradientUnits="userSpaceOnUse"><stop stop-color="gray" stop-opacity=".25"/><stop offset=".54" stop-color="gray" stop-opacity=".12"/><stop offset="1" stop-color="gray" stop-opacity=".1"/></linearGradient><clipPath id="a"><path fill="#fff" d="M0 0h306v240H0z"/></clipPath></defs></svg>