<svg width="393" height="24" viewBox="0 0 393 24" fill="none" xmlns="http://www.w3.org/2000/svg">
<g clip-path="url(#clip0_553:10704)">
<path d="M106.885 0.0584663C107.042 0.0677067 107.199 0.0478691 107.348 0C107.366 0.467749 107.198 0.91392 107.183 1.37819C107.11 1.84223 107.039 2.30626 106.969 2.7703C106.866 3.22937 106.793 3.69434 106.751 4.16241C106.648 4.6212 106.576 5.0863 106.537 5.55452C106.35 6.4761 106.207 7.40325 106.101 8.33875C105.989 8.79636 105.915 9.26184 105.879 9.73086C105.859 10.0712 105.649 10.1429 105.344 10.1025C105.24 10.0979 105.135 10.1039 105.031 10.1206C104.917 10.1034 104.8 10.0985 104.684 10.106C104.366 10.1603 104.269 10.0183 104.306 9.73642C104.335 9.56599 104.329 9.39166 104.289 9.22343L103.815 9.64106L103.601 9.78515C103.166 10.0381 102.683 10.1994 102.18 10.2585C101.681 10.2508 101.199 10.1722 100.763 9.91044L100.539 9.73086C100.171 9.3348 99.9879 8.85661 99.8916 8.33875L99.918 6.95429C100.034 6.51624 100.15 6.07842 100.266 5.64083C100.671 4.73596 101.265 4.00162 102.183 3.54501C102.642 3.38301 103.123 3.28756 103.61 3.26172C104.017 3.32297 104.438 3.30904 104.829 3.45452C105.05 3.53665 105.135 3.47888 105.164 3.25475C105.247 2.6283 105.345 2.00185 105.438 1.3754C105.509 0.748952 105.516 0.0702999 106.463 0.128769C106.604 0.125984 106.753 0.144081 106.885 0.0584663ZM103.604 4.65243C103.113 4.60371 102.726 4.81044 102.411 5.14803C101.94 5.65406 101.737 6.27285 101.683 6.94524C101.612 7.23844 101.61 7.54355 101.677 7.83758C101.806 8.5232 102.329 8.858 103.029 8.70487C103.972 8.49606 104.495 7.89118 104.538 6.94594C104.65 6.48983 104.724 6.02568 104.759 5.558C104.938 4.88422 104.912 4.84176 104.232 4.68793C104.027 4.63896 103.814 4.62623 103.604 4.65035V4.65243Z" fill="#114796"/>
<path d="M87.9126 0.609371C88.6096 0.197306 89.3687 0.0817644 90.1706 0.152066C90.3847 0.17086 90.4803 0.246033 90.4689 0.473643C90.4539 0.773643 90.4781 1.07573 90.4853 1.37852C90.4853 1.55671 90.3875 1.55601 90.2341 1.54278C89.9359 1.51633 89.6306 1.45786 89.3395 1.59012C89.2743 1.59509 89.2107 1.61289 89.1527 1.64243C89.0948 1.67198 89.0435 1.71266 89.002 1.76204C88.7281 2.04046 88.6953 2.40102 88.6788 2.76297C88.5297 3.35113 88.5297 3.35183 89.1304 3.34348C89.2018 3.34348 89.2731 3.33304 89.3395 3.32747C89.881 3.36854 89.8803 3.36854 89.8874 3.92399C89.8874 4.00264 89.8988 4.08199 89.9045 4.16065C89.8567 4.70844 89.8567 4.70845 89.3416 4.73699C89.2952 4.73211 89.2489 4.72446 89.1989 4.72376C88.3293 4.70636 88.3293 4.70705 88.2237 5.55903C88.1519 6.01935 88.0805 6.47921 88.0096 6.93861C87.8631 7.86622 87.7186 8.79569 87.5759 9.72701C87.5759 10.0298 87.4196 10.1314 87.1164 10.0987C86.9117 10.0764 86.7005 10.105 86.4922 10.1112C86.3897 10.0938 86.2856 10.0879 86.1818 10.0938C85.8608 10.1453 85.7709 10.0075 85.8365 9.72353C85.9079 9.25949 85.9792 8.79661 86.0505 8.3349C86.1521 7.87576 86.2236 7.41078 86.2646 6.94279C86.3677 6.48393 86.4392 6.01885 86.4786 5.55067C86.4993 5.40216 86.5303 5.25518 86.5713 5.11077C86.6869 4.78501 86.5756 4.69731 86.2353 4.71401C85.676 4.74046 85.6753 4.72097 85.6953 4.15717C85.7158 4.1035 85.733 4.04864 85.7466 3.9929C85.8622 3.36645 85.8615 3.36645 86.4822 3.32399C86.7675 3.40195 86.9102 3.29893 86.9052 3.00937C86.9052 2.92933 86.9124 2.84858 86.9159 2.76854C87.0322 2.34046 87.0536 1.89151 87.2163 1.47388C87.3891 1.14462 87.6256 0.851061 87.9126 0.609371Z" fill="#114796"/>
<path d="M92.1925 0.272461C92.923 0.424897 93.0842 0.631627 93.0557 1.37849C92.913 1.79613 92.6027 2.05506 92.1917 2.21376C92.1682 2.21376 92.1447 2.21376 92.1204 2.21376C91.4312 2.24439 91.0624 2.02095 90.9939 1.53093C90.9225 1.03047 91.3349 0.477101 91.8793 0.34137C91.9827 0.310743 92.0883 0.292647 92.1925 0.272461Z" fill="#124896"/>
<path d="M72.2184 0.481181C72.2116 0.498439 72.2116 0.51752 72.2184 0.534778C72.04 0.799508 71.8858 1.079 71.7575 1.37005C71.4824 1.82293 71.2321 2.2897 71.0077 2.76842C70.8811 2.93736 70.7813 3.1239 70.7116 3.32178C70.5287 3.58687 70.3722 3.86843 70.2443 4.16262L69.5045 5.54986C69.4124 5.65154 69.3444 5.7718 69.3054 5.90206C69.1152 6.2487 68.9273 6.59533 68.7418 6.94197C68.4687 7.39092 68.2208 7.85402 67.9991 8.32921C67.9499 8.42178 67.9 8.51366 67.85 8.60763C67.616 8.96509 67.4113 9.34004 67.2379 9.72898C67.1102 10.0526 66.8812 10.2162 66.5159 10.1571L65.099 10.1216C65.0981 9.98579 65.0677 9.85175 65.0098 9.72828C64.9071 9.26424 64.8041 8.79835 64.7009 8.3306C64.5977 7.86285 64.4888 7.4009 64.3741 6.94475C64.3142 6.47074 64.1815 6.01134 64.0688 5.54777L63.4331 2.77121C63.3532 2.30108 63.2439 1.83617 63.1057 1.37909C63.1278 1.15218 62.9023 0.891855 63.05 0.731066C63.1684 0.600904 63.4574 0.617608 63.6707 0.568884C64.0146 0.518072 64.357 0.464474 64.7016 0.418534C64.825 0.402525 64.9535 0.36146 65.0755 0.429673C65.1354 0.745682 65.1951 1.06216 65.2545 1.37909C65.3497 1.84824 65.4434 2.31714 65.5356 2.78582L65.8124 4.16332C65.8773 4.6324 65.9709 5.09727 66.0928 5.55543C66.2236 6.2487 66.3544 6.9422 66.4852 7.63594H66.568C66.6764 7.40763 66.7844 7.17956 66.8919 6.95172L67.611 5.56239L68.3244 4.17028C68.5894 3.71998 68.8277 3.25518 69.0379 2.77816C69.1763 2.54777 69.3282 2.32364 69.3868 2.05566C69.5644 1.86215 69.65 1.61993 69.7527 1.38745C69.8241 1.25589 69.9218 1.13199 69.9668 0.99278C70.1009 0.596028 70.3399 0.372597 70.7936 0.451947L72.2184 0.481181Z" fill="#114796"/>
<path d="M119.735 5.55225C119.54 5.86239 119.373 6.18844 119.235 6.52673C118.885 7.11061 118.566 7.71189 118.279 8.32812C117.728 9.23856 117.32 10.2235 116.736 11.1165L116.44 11.452C116.045 11.7969 115.543 12.0023 115.014 12.0353C114.372 11.9984 114.372 11.9984 114.363 11.3546C114.363 11.2759 114.353 11.1966 114.348 11.1179C114.37 11.0233 114.358 10.9161 114.531 10.9523C114.687 10.985 114.854 10.9662 115.016 10.9704C115.715 10.9321 116.158 10.3439 115.944 9.72302C115.879 9.25251 115.779 8.78723 115.645 8.33091C115.546 7.86687 115.448 7.40283 115.349 6.9388C115.273 6.56432 115.222 6.18427 115.086 5.82511C115.098 5.72891 115.078 5.6316 115.03 5.54669C115.061 5.38242 114.914 5.22372 115.013 5.05945L116.356 4.93555L116.469 5.562L116.726 6.94436L116.952 8.43183L117.038 8.44715L117.736 6.94854C117.833 6.82324 117.902 6.67959 117.939 6.52673C118.144 6.22186 118.281 5.88427 118.426 5.55225C118.563 5.14158 118.809 4.88822 119.293 4.97662H120.001L119.735 5.55225Z" fill="#124896"/>
<path d="M92.1925 3.32516C92.4943 3.30706 92.6092 3.41565 92.5036 3.71843C92.4558 3.85764 92.4672 4.00938 92.4515 4.15625C92.3763 4.62028 92.3012 5.08432 92.226 5.54836L91.7851 8.33606C91.7124 8.8001 91.641 9.26274 91.5711 9.724C91.5626 10.0191 91.4156 10.1416 91.1102 10.0943C90.9953 10.0884 90.88 10.0942 90.7664 10.1117C90.5587 10.1054 90.3476 10.0734 90.1435 10.0999C89.8118 10.1423 89.7433 10.0045 89.8189 9.72817C89.8917 9.26414 89.9647 8.79871 90.0379 8.33188C90.1112 7.86506 90.1825 7.40242 90.252 6.94395L90.4703 5.55184L90.6843 4.15973C90.7414 3.88455 90.7987 3.60985 90.8563 3.3356L92.1925 3.32516Z" fill="#114796"/>
<path d="M83.4121 1.37618C83.4538 1.16095 83.5301 0.953515 83.6383 0.761568C84.0271 0.357856 84.4865 0.188016 85.0473 0.359246C85.4654 0.585464 85.5467 0.954373 85.4946 1.37618C85.3902 1.64853 85.2092 1.88664 84.9724 2.06319C84.5557 2.25739 84.1391 2.2915 83.7232 2.06319C83.5323 1.88205 83.4208 1.63581 83.4121 1.37618Z" fill="#124896"/>
<path d="M90.7648 23.852H89.3379C89.1239 23.8464 88.9099 23.8311 88.6959 23.8394C88.5396 23.8457 88.4818 23.79 88.4918 23.6438C88.6152 23.1872 88.668 22.7188 88.7351 22.2517C88.8022 21.7847 88.8885 21.3204 88.9655 20.854C89.0426 20.3877 89.1139 19.9276 89.1874 19.4619C89.3815 18.5431 89.5206 17.6167 89.6533 16.6881C89.7318 16.2241 89.81 15.7615 89.888 15.3002L90.1127 13.8942C90.1648 13.6095 90.2262 13.3262 90.2647 13.0401C90.289 12.8612 90.3489 12.7805 90.5501 12.7833C91.3698 12.7944 92.191 12.7902 93.0093 12.7833C93.1727 12.7833 93.2447 12.8076 93.2041 12.9963C93.1399 13.29 93.1092 13.5907 93.0614 13.8886L92.8345 15.2856C92.7318 15.7449 92.6574 16.2097 92.6119 16.6777C92.4988 17.1336 92.4227 17.5974 92.3843 18.0649C92.258 18.5202 92.2117 18.9886 92.1403 19.4522L92.1189 19.6025C92.0557 19.9779 91.9919 20.3529 91.9277 20.7274C91.8469 21.2327 91.7665 21.7385 91.6866 22.2448C91.5774 22.703 91.5018 23.1682 91.4604 23.6369C91.4148 23.8053 91.3035 23.8554 91.1308 23.8366C91.0086 23.8329 90.8863 23.838 90.7648 23.852Z" fill="#104695"/>
<path d="M102.177 23.8524C101.968 23.8476 101.758 23.8343 101.549 23.8392C101.373 23.8441 101.396 23.7536 101.432 23.6464L102.027 22.248C102.133 22.0751 102.21 21.8873 102.257 21.6912C102.413 21.4293 102.535 21.1485 102.617 20.8559C102.836 20.4304 103.025 19.9912 103.183 19.5411C103.625 18.6021 104.029 17.6485 104.409 16.6872C104.61 16.2209 104.812 15.7548 105.013 15.2889C105.056 15.2241 105.107 15.1629 105.1 15.08C105.296 14.6979 105.464 14.3024 105.603 13.8967C105.812 13.4582 106.059 13.0538 106.559 12.8742C106.996 12.7782 107.441 12.8046 107.883 12.7803H109.31C109.443 12.7872 109.513 12.8387 109.539 12.9842C109.593 13.2905 109.676 13.5926 109.748 13.896L110.045 15.3L110.347 16.6921C110.527 17.6206 110.707 18.5492 110.95 19.4645C111.016 19.9343 111.114 20.3993 111.243 20.8566C111.321 21.3624 111.429 21.8635 111.566 22.3573C111.656 22.7889 111.747 23.2204 111.838 23.652C111.872 23.8093 111.792 23.842 111.646 23.8399C111.343 23.8357 111.039 23.8469 110.735 23.8524H109.308C109.166 23.8476 109.116 23.755 109.086 23.6394C109.044 23.4264 109.006 23.2128 108.962 23.0005C108.785 22.1513 108.785 22.152 107.883 22.1951C107.408 22.1642 106.931 22.1628 106.456 22.1909C106.099 22.1909 105.742 22.2014 105.386 22.1749C105.1 22.1534 104.965 22.2522 104.952 22.523C104.776 22.8802 104.636 23.2532 104.533 23.6367C104.471 23.7891 104.366 23.8517 104.189 23.8378C103.994 23.8312 103.798 23.8347 103.603 23.8483L102.177 23.8524ZM106.092 19.4624C105.871 19.9267 105.872 19.9288 106.387 19.9044C106.412 19.9019 106.436 19.8967 106.459 19.8891H107.886C108.028 19.8543 108.322 20.0805 108.274 19.7325C108.21 19.2661 108.068 18.8102 107.959 18.3501C107.971 18.2538 107.952 18.1562 107.903 18.0717C107.841 17.6025 107.744 17.1385 107.61 16.6838C107.598 16.4044 107.537 16.129 107.43 15.8694C107.39 15.9633 107.359 16.0246 107.337 16.0886C107.266 16.2821 107.201 16.477 107.133 16.6719L106.615 18.0766C106.513 18.2751 106.437 18.4857 106.389 18.703C106.252 18.9407 106.152 19.1965 106.092 19.4624Z" fill="#104695"/>
<path d="M100.694 22.5304C100.241 22.9863 99.6898 23.3009 99.1112 23.5744L97.8912 23.8995L96.47 23.9983L95.0496 23.8946C94.5573 23.7784 94.0579 23.6928 93.5735 23.5389C93.3095 23.4554 93.2168 23.3419 93.2845 23.067C93.3523 22.7921 93.368 22.5213 93.4058 22.2471C93.4693 21.9192 93.5614 21.5935 93.5885 21.2628C93.6156 20.9322 93.7312 20.9503 93.9766 21.0679C94.7614 21.4382 95.5839 21.6826 96.4686 21.6672C96.968 21.7111 97.4546 21.6784 97.9019 21.4264C98.1794 21.3213 98.3849 21.148 98.4612 20.8563C98.6039 20.3914 98.447 20.0774 97.8962 19.7426C97.7067 19.5865 97.4889 19.4663 97.2541 19.3884C97.0101 19.2185 96.7361 19.1058 96.4693 18.9839C96.3609 18.9143 96.2553 18.8447 96.1426 18.7751C95.3243 18.2733 94.6822 17.6378 94.466 16.6779C94.4496 16.2143 94.4517 15.7522 94.5837 15.3011C94.7114 14.9225 94.9247 14.587 95.1352 14.2508C95.5245 13.8385 95.9758 13.4865 96.4736 13.2067C96.9389 13.0169 97.4154 12.8542 97.9005 12.7194C99.0327 12.5552 100.159 12.5308 101.275 12.8322C101.995 13.0264 101.996 13.0187 101.9 13.7225C101.895 13.7796 101.893 13.837 101.895 13.8944C101.781 14.35 101.705 14.8136 101.666 15.2809C101.609 15.4619 101.504 15.4069 101.375 15.3505C100.723 15.0721 100.049 14.8856 99.3266 14.9329C98.8073 14.8891 98.3071 14.9329 97.8705 15.2489L97.8612 15.2545C97.3547 15.6547 97.3654 16.0765 97.8919 16.4837C98.0087 16.6109 98.1557 16.7081 98.32 16.767C98.6329 16.9814 98.9708 17.1588 99.3266 17.2953C99.4379 17.3587 99.5485 17.4234 99.6605 17.486C100.499 17.951 101.199 18.5392 101.508 19.4726C101.61 19.9306 101.596 20.3914 101.544 20.8529C101.426 21.3441 101.224 21.8122 100.945 22.2373L100.694 22.5304Z" fill="#104695"/>
<path d="M85.2134 22.2503C85.1115 22.4244 85.0358 22.6119 84.9887 22.8071C84.8338 23.0696 84.714 23.3503 84.6319 23.6424C84.5699 23.792 84.4507 23.8241 84.2959 23.8206C84.0748 23.815 83.8536 23.831 83.6324 23.838C83.1581 23.7902 82.6799 23.7902 82.2055 23.838C82.0217 23.823 81.8371 23.8175 81.6526 23.8213C81.4942 23.831 81.4215 23.7586 81.3737 23.6326C81.1563 22.699 80.9071 21.7739 80.626 20.8575C80.5004 20.3888 80.3746 19.9203 80.2486 19.4521C80.1366 18.9879 80.0346 18.5215 79.8633 18.0739C79.6572 17.1371 79.3825 16.2176 79.1214 15.2946C79.0357 14.9461 78.9504 14.5981 78.8652 14.2505C79.6407 14.6424 80.2921 15.1888 80.9078 15.786C81.7126 16.5705 82.2926 17.5032 82.782 18.4958H82.777L82.8362 18.6482C82.9004 18.9234 82.9649 19.1983 83.0296 19.473C83.0724 19.7152 83.1149 19.957 83.1573 20.1983L83.235 20.2094L83.4883 19.473C83.5871 19.2986 83.6592 19.111 83.7023 18.9162C83.8333 18.651 83.9382 18.3744 84.0155 18.09C84.2214 17.6338 84.4001 17.1665 84.5506 16.6902C84.7515 16.238 84.9254 15.7748 85.0714 15.3029C85.0951 15.288 85.1135 15.2662 85.1239 15.2407C85.1344 15.2151 85.1365 15.187 85.1299 15.1603L85.6115 13.9074C85.7014 13.6832 85.8255 13.4654 85.8747 13.2329C85.9511 12.8904 86.143 12.7526 86.4876 12.7902H87.9145C88.1963 12.7958 88.4795 12.818 88.7606 12.8013C89.056 12.7839 89.178 12.8264 89.0096 13.1403C88.8805 13.3811 88.8048 13.6505 88.705 13.906C88.4832 14.3577 88.2909 14.8227 88.1292 15.2981C88.0006 15.5165 87.9023 15.7505 87.8367 15.9941C87.7116 16.2134 87.6157 16.4473 87.5513 16.6902C87.3245 17.1383 87.1302 17.6014 86.9699 18.076C86.5637 18.9661 86.1868 19.8684 85.8391 20.783C85.6029 21.2604 85.394 21.7503 85.2134 22.2503Z" fill="#104695"/>
<path d="M113.94 5.63182C114.128 6.04946 114.175 6.49215 114.173 6.9425C114.12 7.41448 114.022 7.88058 113.88 8.33461L113.511 9.02718L112.787 9.71767L112.164 10.0121C111.696 10.1457 111.216 10.1645 110.733 10.1673C110.289 10.1328 109.848 10.071 109.412 9.98217C109.274 9.86802 109.02 9.95363 108.95 9.72533C109.056 9.26696 109.127 8.8017 109.164 8.33321C109.351 7.41303 109.493 6.48588 109.602 5.55386C109.712 5.09593 109.786 4.63058 109.824 4.16175C109.932 3.70604 110.007 3.24371 110.049 2.77799C110.211 2.5128 110.517 2.6527 110.735 2.54621C110.849 2.53741 110.962 2.52254 111.074 2.50166C111.316 2.44319 111.447 2.49748 111.393 2.76825L111.178 4.16036C111.107 4.59191 111.029 5.02347 110.945 5.51001C111.188 5.35827 111.359 5.23159 111.547 5.1418C111.746 5.04575 111.963 4.9824 112.171 4.90444C112.632 4.82722 113.106 4.91128 113.51 5.1418L113.94 5.63182ZM112.799 6.94458C112.792 6.40235 112.605 6.13646 112.165 6.03971C112.06 6.02793 111.955 6.02444 111.849 6.02927C111.334 6.094 110.773 6.56106 110.743 6.94041C110.644 7.53414 110.56 8.12996 110.44 8.71883C110.387 8.98402 110.504 9.05085 110.725 9.06685C111.246 9.13646 111.759 9.17266 112.167 8.75363C112.706 8.26221 112.8 7.61906 112.796 6.94319L112.799 6.94458Z" fill="#124896"/>
<path d="M98.2544 8.40402C98.4121 8.37827 98.5398 8.28569 98.6632 8.20356C98.8387 8.0894 98.8494 8.214 98.8772 8.32745C98.8566 8.52073 98.8495 8.71514 98.8558 8.90936C98.8879 9.24555 98.8137 9.51284 98.4706 9.65623L97.8898 9.91168C97.4267 10.0554 96.9524 10.162 96.4715 10.2305C95.9992 10.2305 95.5262 10.2534 95.0582 10.1609C94.038 9.92769 93.3881 9.32073 93.1162 8.33094C93.0484 7.8727 93.0357 7.40829 93.0784 6.94718C93.158 6.47642 93.2773 6.01289 93.4352 5.56133C93.5269 5.37571 93.6187 5.18824 93.7105 4.99892L94.3969 4.1546L95.0454 3.66736C95.4946 3.44148 95.9776 3.2862 96.4765 3.20727C96.9529 3.18024 97.4305 3.23081 97.8898 3.35692C98.3136 3.52515 98.682 3.80343 98.955 4.16156L99.2589 4.85205L99.3859 5.5481C99.3776 5.97226 99.3409 6.39543 99.2761 6.81493C99.2418 7.02374 99.1491 7.07316 98.9507 7.06829C98.5997 7.05924 98.2473 7.07525 97.8956 7.08152H96.4687H95.0418C94.8585 7.03488 94.7507 7.07247 94.7564 7.29033C94.7679 7.60773 94.7679 7.92444 94.9562 8.20425C94.9812 8.25019 95.0069 8.29613 95.0325 8.34347C95.3671 8.87873 95.8951 8.95808 96.4715 8.92189C97.1041 8.91764 97.7225 8.73804 98.2544 8.40402ZM96.4708 5.97827C96.7562 5.98453 97.038 5.99428 97.3219 5.99567C97.7728 5.99567 97.7728 5.99567 97.6929 5.5481C97.6658 4.72189 97.242 4.32444 96.4623 4.39404C95.7631 4.49288 95.3992 4.95089 95.1567 5.54462C94.9426 5.99776 94.9426 5.99984 95.4527 5.99706C95.7916 5.99497 96.1305 5.98453 96.4701 5.97966L96.4708 5.97827Z" fill="#124896"/>
<path d="M84.4419 6.94372C84.3692 7.40776 84.2966 7.8704 84.2243 8.33166L84.0089 9.72725C83.9839 9.94442 83.9454 10.1491 83.6407 10.1115L82.2139 10.0676L82.2545 9.73421C82.2617 9.68409 82.2681 9.63398 82.2752 9.58456L82.4764 8.33583C82.5492 7.87179 82.6222 7.4066 82.6954 6.94024L82.9137 5.55231C83.0146 5.09304 83.086 4.62811 83.1278 4.1602C83.1644 4.01457 83.1906 3.86666 83.2063 3.7175C83.217 3.43908 83.339 3.29987 83.6343 3.32772L84.9713 3.33467V3.66948C84.8878 3.82191 84.9099 3.99175 84.8864 4.15672C84.8112 4.62075 84.7361 5.08479 84.661 5.54883L84.4419 6.94372Z" fill="#114796"/>
<path d="M82.7815 18.4916C82.2921 17.499 81.7114 16.5663 80.9073 15.7818C80.2938 15.1846 79.6402 14.6382 78.8647 14.2463C78.1356 13.7855 77.3382 13.4369 76.5004 13.2127C76.3106 13.1528 76.1194 13.095 75.9297 13.0331C75.8633 13.0108 75.787 12.9851 75.8069 12.8939C75.8269 12.8027 75.8968 12.8006 75.9703 12.7985L76.4997 12.7832L80.7803 12.7964C81.4224 12.905 81.7948 13.2837 81.9218 13.9004C81.9808 14.3703 82.074 14.8355 82.2008 15.2925C82.2559 15.7631 82.3499 16.2287 82.4819 16.6846C82.5393 17.1549 82.633 17.6202 82.7622 18.0767L82.7815 18.4916Z" fill="#F0AD17"/>
<path d="M75.0702 3.27338C76.2459 3.59983 76.7168 4.44554 76.8331 5.55227C76.8273 6.01821 76.7899 6.48326 76.7211 6.94438C76.6825 7.04252 76.5948 7.06758 76.5013 7.08359C76.0261 7.05575 75.5497 7.05575 75.0745 7.08359H73.6476C73.2452 7.07802 72.8421 7.07454 72.4397 7.06549C72.2971 7.06549 72.22 7.09612 72.2221 7.25621C72.2264 7.64044 72.2393 8.02187 72.489 8.34484C72.7501 8.78196 73.1674 8.91561 73.6533 8.917C74.1398 8.9651 74.6308 8.88631 75.0759 8.68869C75.3087 8.64442 75.5283 8.54923 75.718 8.41027L76.3037 8.13602C76.3037 8.53486 76.2973 8.90168 76.3037 9.26642C76.308 9.42581 76.2145 9.49055 76.0897 9.54484L75.0688 10.0091C74.6001 10.1252 74.1231 10.2069 73.6419 10.2534C73.1967 10.236 72.7508 10.2298 72.3135 10.1302L71.4523 9.72164L70.8766 9.09519C70.7762 8.84043 70.6759 8.58521 70.5755 8.32953C70.4928 7.86944 70.5099 7.40586 70.5263 6.94229C70.6419 6.4286 70.7403 5.91143 70.9629 5.42628C71.1901 4.95972 71.4902 4.53047 71.8526 4.15389L72.2407 3.83858C72.6736 3.56436 73.151 3.36361 73.6526 3.24484C74.1241 3.18886 74.6014 3.19847 75.0702 3.27338ZM75.0752 5.97755C75.1358 5.98382 75.1615 5.95737 75.1515 5.89821C75.1788 5.78345 75.1766 5.66391 75.1451 5.55018C75.1451 4.60424 74.4395 4.1351 73.5605 4.49635C73.0611 4.68637 72.7965 5.08313 72.6067 5.54043C72.3984 5.99426 72.3984 5.99635 72.9092 5.99357C73.1553 5.99357 73.4007 5.98104 73.6469 5.97408C74.1224 6.00551 74.5994 6.00737 75.0752 5.97965V5.97755Z" fill="#124896"/>
<path d="M82.2422 4.15811L82.2101 4.87087C81.4548 4.95031 80.7366 5.23164 80.1347 5.68386C79.6966 6.00474 79.4434 6.39384 79.484 6.93676C79.2907 7.85555 79.163 8.7834 79.0395 9.71263C79.0267 10.0175 78.8833 10.1442 78.5566 10.0969C78.3525 10.0676 78.1392 10.1024 77.9302 10.1087C77.8399 10.0935 77.7484 10.0872 77.6569 10.0899C77.3601 10.1275 77.1953 10.0495 77.2774 9.72168C77.3779 9.26237 77.4494 8.79745 77.4914 8.32957C77.5979 7.87117 77.6709 7.40596 77.7097 6.93746C77.8166 6.47914 77.8896 6.01389 77.928 5.54534C77.9864 5.4388 78.0088 5.31703 77.9922 5.19732C78.0783 4.85493 78.1309 4.50533 78.1492 4.15323C78.1877 3.96321 78.2498 3.77388 78.2598 3.58247C78.2712 3.36042 78.3825 3.32562 78.5772 3.33258C78.8348 3.34163 79.0931 3.32493 79.3513 3.31936C79.708 3.27968 79.8158 3.43838 79.7794 3.77249C79.748 4.03212 79.773 4.29871 79.773 4.66414C80.07 4.2963 80.4089 3.9626 80.7832 3.66947C81.2234 3.42168 81.6843 3.23513 82.1986 3.19824L82.2422 4.15811Z" fill="#114796"/>
</g>
<mask id="mask0_553:10704" style="mask-type:alpha" maskUnits="userSpaceOnUse" x="0" y="0" width="39" height="24">
<rect width="39" height="24" rx="3" fill="url(#paint0_linear_553:10704)"/>
</mask>
<g mask="url(#mask0_553:10704)">
<path d="M16.8786 17.5758V14.082L15.1987 15.8027L16.8786 17.5758Z" fill="#306FC8"/>
<path d="M9.83887 14.5205V15.307L12.2408 15.3022V16.2031H9.83887V17.0658H12.5317L13.7853 15.7884L12.5818 14.5205H9.83887Z" fill="#306FC8"/>
<path d="M20.0434 7.90035C20.1838 7.82408 20.2691 7.67156 20.2691 7.48567C20.2691 7.29978 20.1788 7.16631 20.0434 7.09482C19.913 7.02332 19.7175 7.01855 19.5219 7.01855H18.168V7.99091H19.5068C19.7175 7.99091 19.893 7.98138 20.0434 7.90035Z" fill="#306FC8"/>
<path d="M2.01611 8.58655H3.51546L2.76328 6.85156L2.01611 8.58655Z" fill="#306FC8"/>
<path d="M19.4067 14.5205H17.9775V15.6168H19.3967C19.8129 15.6168 20.0736 15.4261 20.0736 15.0496C20.0686 14.673 19.7978 14.5205 19.4067 14.5205Z" fill="#306FC8"/>
<path d="M2.29666 10.3549H3.23939L3.66562 11.332H7.3513V10.5884L7.68226 11.332H9.58778L9.91874 10.5789V11.332H19.0753V9.73999H19.2558C19.3862 9.73999 19.4213 9.75429 19.4213 9.94971V11.332H24.155V10.9554C24.5311 11.1509 25.1228 11.332 25.9151 11.332H27.9059L28.3371 10.3549H29.2799L29.7061 11.332H33.5322V10.4073L34.1189 11.332H37.1928V5.25H34.154V5.96497L33.7177 5.25H30.5937V5.96497L30.2126 5.25H25.9903C25.2783 5.25 24.6514 5.34056 24.155 5.59795V5.25H21.2466V5.59795C20.9056 5.3358 20.4793 5.25 19.9979 5.25H9.3521L8.63001 6.81816L7.90792 5.25H4.55821V5.96497L4.1771 5.25H1.31882L0 8.1337V11.332H1.87042L2.29666 10.3549ZM24.3606 6.61797C24.7116 6.27002 25.2732 6.10796 26.0304 6.10796H27.0785V7.04218H26.0505C25.6443 7.04218 25.4187 7.09938 25.203 7.30434C25.0125 7.48546 24.8821 7.83341 24.8821 8.29099C24.8821 8.7581 24.9774 9.08699 25.193 9.31578C25.3535 9.48737 25.6594 9.5398 25.9552 9.5398H26.4466L27.9911 6.10796H29.6259L31.4862 10.2357V6.10796H33.1611L35.0867 9.14419V6.10796H36.2149V10.474H34.6504L32.5794 7.20424V10.474H30.3479L29.9267 9.4969H27.6451L27.2239 10.474H25.9502C25.4136 10.474 24.7367 10.3549 24.3556 9.98785C23.9695 9.61606 23.7739 9.11559 23.7739 8.32436C23.7739 7.67612 23.8942 7.08508 24.3606 6.61797ZM22.1141 6.10796H23.2373V10.474H22.1141V6.10796ZM17.0745 6.10796H19.6018C20.1584 6.10796 20.5696 6.12703 20.9206 6.31768C21.2716 6.51311 21.4873 6.79909 21.4873 7.28527C21.4873 7.97641 20.9958 8.33389 20.705 8.44352C20.9457 8.52931 21.1513 8.68661 21.2466 8.8153C21.402 9.02502 21.4271 9.22522 21.4271 9.60653V10.474H20.3239V9.92112C20.3239 9.66373 20.349 9.28241 20.1434 9.07746C19.9879 8.92016 19.7472 8.8868 19.3461 8.8868H18.1676V10.474H17.0695V6.10796H17.0745ZM12.6517 6.10796H16.3123V7.01835H13.7448V7.80481H16.2471V8.70091H13.7448V9.56363L16.3123 9.55887V10.4693H12.6517V6.10796ZM1.20349 10.474H0.0100291L1.97071 6.10796H3.60545L5.46584 10.2357V6.10796H7.26104L8.69018 9.06792L10.009 6.10796H11.8343V10.474H10.711V7.05648L9.12143 10.474H8.15864L6.56402 7.05172V10.474H4.32754L3.90632 9.4969H1.62471L1.20349 10.474Z" fill="#306FC8"/>
<path d="M28.7833 6.85156L28.0361 8.58655H29.5305L28.7833 6.85156Z" fill="#306FC8"/>
<path d="M36.5712 14.6212C36.4559 14.6927 36.4058 14.7975 36.4058 14.9358C36.4058 15.0978 36.5061 15.2122 36.6465 15.2599C36.7568 15.298 36.8821 15.3076 37.0677 15.3076L37.6544 15.3219C38.2611 15.3362 38.6623 15.4315 38.908 15.6746C38.9431 15.7079 38.9732 15.7413 38.9983 15.7747V14.5449H37.0075C36.8119 14.5449 36.6765 14.5545 36.5712 14.6212Z" fill="#306FC8"/>
<path d="M37.5186 17.9712H35.4024V17.037H37.5085C37.7141 17.037 37.8596 17.0084 37.9498 16.9321C38.025 16.8654 38.0802 16.7701 38.0802 16.6461C38.0802 16.5174 38.025 16.4173 37.9448 16.3554C37.8646 16.2887 37.7492 16.2601 37.5637 16.2601C36.5407 16.2315 35.252 16.2934 35.252 14.9064C35.252 14.282 35.6682 13.6099 36.8216 13.6099H39.0029V12.752H36.972C36.3652 12.752 35.9089 12.8854 35.598 13.0999V12.752H32.6043C32.128 12.752 31.5563 12.8616 31.2905 13.0999V12.752H25.93V13.0999C25.5038 12.8139 24.7867 12.752 24.4457 12.752H20.9104V13.0999C20.5745 12.7901 19.8323 12.752 19.376 12.752H15.4145L14.5069 13.6862L13.6644 12.752H7.75732V18.8339H13.5591L14.4868 17.8854L15.3694 18.8292L18.9397 18.8339V17.3992H19.2958C19.7671 17.3992 20.3288 17.3897 20.8152 17.1895V18.8339H23.7737V17.2419H23.9192C24.0997 17.2419 24.1147 17.2562 24.1147 17.4183V18.8339H33.0657C33.6273 18.8339 34.2341 18.6957 34.565 18.4479V18.8339H37.4032C37.9899 18.8339 38.5716 18.7529 39.0129 18.5527V17.4231C38.7271 17.7949 38.2256 17.9712 37.5186 17.9712ZM19.3359 16.5127H17.9719V17.9712H15.8357L14.4918 16.5365L13.0878 17.976H8.74017V13.6099H13.153L14.4969 15.0446L15.8959 13.6099H19.4061C20.2686 13.6099 21.2464 13.8482 21.2464 15.0541C21.2414 16.2601 20.2937 16.5127 19.3359 16.5127ZM25.935 16.3173C26.0905 16.527 26.1155 16.7272 26.1205 17.1085V17.9712H25.0173V17.4183C25.0173 17.1609 25.0424 16.7796 24.8368 16.5746C24.6764 16.4173 24.4407 16.384 24.0395 16.384H22.8611V17.9712H21.7629V13.6051H24.2902C24.8469 13.6051 25.253 13.6242 25.6091 13.8196C25.9601 14.0151 26.1757 14.301 26.1757 14.7872C26.1757 15.4784 25.6843 15.8358 25.3984 15.9455C25.6391 16.0313 25.8447 16.1886 25.935 16.3173ZM30.4431 14.5203H27.8806V15.3068H30.3879V16.2076H27.8806V17.0704H30.4481V17.976H26.7875V13.6099H30.4481V14.5203H30.4431ZM33.2311 17.9712H31.095V17.037H33.2211C33.4267 17.037 33.5721 17.0084 33.6624 16.9321C33.7376 16.8654 33.7928 16.7701 33.7928 16.6461C33.7928 16.5174 33.7376 16.4173 33.6574 16.3554C33.5772 16.2887 33.4618 16.2601 33.2763 16.2601C32.2533 16.2315 30.9646 16.2934 30.9646 14.9064C30.9646 14.2772 31.3808 13.6099 32.5341 13.6099H34.7305V14.5441H32.7197C32.5191 14.5441 32.3887 14.5489 32.2784 14.6156C32.1631 14.6871 32.1179 14.792 32.1179 14.9302C32.1179 15.0923 32.2182 15.2067 32.3586 15.2543C32.474 15.2925 32.5943 15.302 32.7798 15.302L33.3665 15.3163C33.9733 15.3306 34.3745 15.4259 34.6202 15.669C34.8358 15.8883 34.9511 16.1409 34.9511 16.5937C34.9561 17.5279 34.3444 17.9712 33.2311 17.9712Z" fill="#306FC8"/>
<path d="M24.7368 14.592C24.6064 14.5253 24.4058 14.5205 24.2153 14.5205H22.8613V15.4929H24.2002C24.4108 15.4929 24.5913 15.4881 24.7368 15.4071C24.8772 15.3308 24.9624 15.1783 24.9624 14.9924C24.9574 14.8017 24.8722 14.6683 24.7368 14.592Z" fill="#306FC8"/>
</g>
<g clip-path="url(#clip1_553:10704)">
<path d="M153.865 2.56989C153.03 4.59233 152.152 6.59882 151.384 8.64427C151.126 9.33317 150.696 9.28359 150.148 9.31369C149.56 9.34557 149.246 9.18972 149.023 8.60531C148.249 6.62007 147.4 4.65962 146.406 2.70625C146.406 3.84911 146.406 4.99197 146.406 6.13483C146.406 7.33731 146.379 8.54156 146.415 9.74227C146.437 10.44 145.966 10.3019 145.573 10.2913C145.179 10.2806 144.701 10.4843 144.705 9.7706C144.725 6.77769 144.705 3.78477 144.718 0.791851C144.718 0.651946 144.741 0.405783 144.804 0.388074C145.535 0.193269 146.285 0.322548 147.026 0.304839C147.443 0.294213 147.425 0.685594 147.528 0.929986C148.393 2.9843 149.251 5.03919 150.1 7.09468C150.46 7.08229 150.449 6.77769 150.529 6.58819C151.308 4.75171 152.092 2.91523 152.819 1.05749C153.041 0.49256 153.303 0.257022 153.959 0.276503C155.705 0.326089 155.707 0.29067 155.707 1.95891C155.707 4.42408 155.685 6.88748 155.719 9.35265C155.73 10.0203 155.645 10.332 154.828 10.332C154.011 10.332 153.984 10.0044 153.992 9.39516C154.019 7.12479 154.002 4.8562 154.002 2.5876L153.865 2.56989Z" fill="#E8232D"/>
<path d="M147.739 23.9659C146.559 23.9586 145.402 23.6386 144.392 23.0396C144.02 22.8183 143.822 22.5756 144.211 22.2445C144.494 22.0089 144.424 21.2244 145.212 21.7132C146.329 22.4056 147.569 22.7244 148.899 22.3295C149.535 22.14 150.082 21.8141 150.08 21.0756C150.078 20.3372 149.47 20.13 148.87 20.0007C148.024 19.8236 147.162 19.712 146.323 19.5083C145.218 19.2409 144.438 18.6016 144.283 17.4381C144.114 16.1506 144.662 15.0969 145.845 14.539C147.649 13.6837 149.452 13.9068 151.195 14.771C151.543 14.9481 151.77 15.1624 151.418 15.4794C151.135 15.7362 151.204 16.5314 150.437 16.1152C149.491 15.5875 148.385 15.4085 147.317 15.6105C146.991 15.6621 146.684 15.795 146.426 15.9965C145.654 16.6128 145.762 17.4824 146.671 17.8808C147.221 18.1217 147.824 18.1695 148.413 18.2651C148.945 18.3428 149.47 18.4613 149.983 18.6193C150.994 18.9523 151.694 19.6058 151.786 20.6931C151.878 21.7805 151.434 22.6412 150.524 23.2539C149.743 23.7941 148.837 23.9535 147.739 23.9659Z" fill="#F9A121"/>
<path d="M220.361 9.64115C218.775 10.7852 217.013 10.6789 215.79 9.45166C214.496 8.15532 214.418 5.86724 215.61 4.45756C216.772 3.09216 218.525 2.90975 220.402 4.05378C220.402 2.88318 220.445 1.78873 220.386 0.699593C220.352 0.0496525 220.656 -0.00878906 221.183 -0.00878906C221.71 -0.00878906 222.002 0.0230871 221.993 0.681883C221.955 3.64292 221.978 6.60396 221.973 9.56323C221.973 9.88731 222.108 10.3442 221.508 10.2875C221.057 10.2539 220.368 10.6045 220.361 9.64115ZM220.541 6.88909C220.554 5.64942 219.672 4.72143 218.476 4.70372C217.28 4.68601 216.391 5.56441 216.377 6.82887C216.362 8.09333 217.203 9.00715 218.416 9.01777C219.63 9.0284 220.523 8.11636 220.536 6.88909H220.541Z" fill="#E8242D"/>
<path d="M188.535 18.9542C188.535 16.829 189.662 15.136 191.56 14.394C193.544 13.6165 195.928 14.0291 197.221 15.4087C197.401 15.5947 198.022 15.8709 197.425 16.1897C197.033 16.3969 196.765 17.2257 196.045 16.5439C194.665 15.221 192.481 15.2228 191.203 16.4801C189.863 17.7942 189.857 20.1761 191.192 21.5061C192.526 22.8361 194.619 22.8503 196.02 21.4849C196.758 20.7765 196.999 21.6265 197.373 21.8391C197.914 22.149 197.358 22.4323 197.156 22.6378C195.849 23.9731 193.48 24.3698 191.565 23.6029C189.65 22.8361 188.535 21.1519 188.535 18.9542Z" fill="#F8A120"/>
<path d="M212.376 17.7275C212.376 16.6561 212.414 15.6396 212.364 14.6301C212.33 13.9696 212.627 13.8828 213.208 13.8633C213.877 13.8421 213.913 14.1573 213.909 14.662C213.893 17.446 213.909 20.2317 213.893 23.0156C213.893 23.2689 214.084 23.701 213.648 23.7399C213.242 23.7771 212.708 24.0481 212.414 23.5859C212.203 23.2547 212.099 23.3981 211.873 23.515C210.371 24.3102 208.663 23.995 207.689 22.7588C206.621 21.3987 206.674 19.3798 207.812 18.1278C208.924 16.9041 210.506 16.711 212.027 17.5965C212.14 17.6486 212.257 17.6924 212.376 17.7275ZM208.493 20.4832C208.481 21.7228 209.325 22.6225 210.494 22.6083C211.617 22.5994 212.467 21.7122 212.477 20.5398C212.49 19.3002 211.651 18.4271 210.468 18.4324C209.314 18.4412 208.506 19.2789 208.493 20.4832Z" fill="#F9A121"/>
<path d="M205.979 9.63609C204.421 10.6987 202.913 10.7111 201.667 9.72464C200.46 8.77718 200.009 7.00445 200.585 5.49205C201.16 3.97966 202.495 3.1721 204.172 3.29076C204.762 3.33149 205.213 3.68745 205.725 3.88403C205.961 3.97612 206.334 3.35274 206.906 3.43598C207.384 3.50681 207.572 3.58473 207.564 4.093C207.536 5.93834 207.55 7.78367 207.564 9.63078C207.564 10.0009 207.588 10.3817 207.023 10.2984C206.605 10.2364 205.907 10.6225 205.979 9.63609ZM204.046 9.02865C205.254 9.01272 206.105 8.09713 206.085 6.83444C206.066 5.57174 205.196 4.69689 203.977 4.70929C202.787 4.72346 201.896 5.66915 201.916 6.89819C201.936 8.12724 202.839 9.03751 204.046 9.02865Z" fill="#E8232D"/>
<path d="M162.754 9.62316C161.06 10.8008 159.231 10.6556 158.039 9.34157C156.847 8.02752 156.811 5.75362 158.008 4.40947C159.206 3.06531 161.01 2.91832 162.723 4.06413C162.763 3.12906 163.464 3.51159 163.939 3.47617C164.508 3.43544 164.314 3.89943 164.315 4.17039C164.332 5.95905 164.332 7.74771 164.315 9.53638C164.315 9.83744 164.512 10.3333 163.892 10.2908C163.439 10.2678 162.745 10.622 162.754 9.62316ZM162.858 6.84276C162.858 5.57652 161.991 4.69282 160.77 4.70167C159.549 4.71053 158.685 5.6385 158.696 6.87817C158.706 8.11784 159.615 9.04051 160.806 9.02812C161.996 9.01572 162.864 8.11607 162.858 6.84276Z" fill="#E7202A"/>
<path d="M183.9 7.41167C183.24 7.41167 182.58 7.43115 181.916 7.41167C181.207 7.38511 181.256 7.69502 181.514 8.15724C182.093 9.19148 183.462 9.45536 184.836 8.70624C185.253 8.47956 185.393 8.53977 185.68 8.86917C186.171 9.43057 185.96 9.71746 185.395 9.97071C183.916 10.6348 182.426 10.757 181.048 9.79361C179.671 8.83021 179.488 7.41876 179.752 5.92938C180.076 4.09821 181.864 2.97897 183.792 3.32254C185.415 3.61474 186.627 5.35559 186.405 7.01852C186.355 7.4099 186.153 7.41522 185.864 7.41345C185.216 7.40813 184.567 7.41167 183.9 7.41167ZM183.072 6.27826C183.433 6.27826 183.793 6.25347 184.154 6.27826C184.865 6.34025 184.904 6.05689 184.623 5.52207C184.491 5.24168 184.276 5.00665 184.006 4.84726C183.736 4.68787 183.424 4.61141 183.11 4.62773C182.428 4.62773 181.893 4.86858 181.555 5.46893C181.278 5.9648 181.166 6.35442 182.006 6.28004C182.361 6.26196 182.717 6.26137 183.072 6.27826Z" fill="#E7202A"/>
<path d="M202.28 23.9767C200.24 23.9767 198.65 22.4502 198.657 20.4897C198.664 18.5293 200.266 17.0293 202.318 17.0381C204.37 17.047 205.95 18.5682 205.925 20.5269C205.902 22.5192 204.367 23.9714 202.28 23.9767ZM204.381 20.5074C204.381 19.3173 203.514 18.446 202.32 18.4354C201.126 18.4248 200.246 19.2678 200.233 20.472C200.22 21.7117 201.135 22.6397 202.327 22.6184C202.603 22.6129 202.876 22.5538 203.129 22.4446C203.382 22.3354 203.61 22.1783 203.801 21.9821C203.992 21.7859 204.141 21.5547 204.241 21.3016C204.34 21.0485 204.388 20.7787 204.381 20.5074Z" fill="#F9A121"/>
<path d="M184.838 21.0711C184.239 21.0711 183.637 21.1012 183.034 21.0622C182.288 21.0144 182.401 21.3527 182.648 21.7848C183.189 22.7393 184.427 22.9678 185.749 22.332C186.089 22.1691 186.32 22.0132 186.64 22.4312C187.033 22.9465 186.952 23.2175 186.403 23.5115C185.067 24.2198 183.058 24.1047 181.992 23.2139C180.884 22.2895 180.506 20.5823 181.076 19.0929C181.36 18.3577 181.909 17.7508 182.62 17.3874C183.33 17.024 184.151 16.9295 184.928 17.1218C186.457 17.4902 187.512 19.0044 187.375 20.5858C187.341 20.9684 187.177 21.0835 186.809 21.0729C186.156 21.0534 185.496 21.0711 184.838 21.0711ZM184.071 19.9819C184.278 20.0041 184.487 20.0041 184.694 19.9819C185.054 19.8987 185.662 20.2476 185.756 19.7464C185.842 19.2824 185.46 18.8273 184.987 18.5616C184.651 18.3715 184.258 18.2999 183.874 18.3589C183.491 18.4178 183.139 18.6037 182.877 18.8857C182.646 19.1496 182.358 19.4825 182.481 19.8084C182.616 20.1714 183.056 19.9447 183.361 19.9855C183.597 19.9982 183.835 19.9958 184.071 19.9784V19.9819Z" fill="#F9A222"/>
<path d="M156.897 21.071C156.27 21.071 155.635 21.0888 155.013 21.071C154.426 21.0498 154.437 21.3154 154.632 21.7174C155.108 22.6986 156.382 22.9677 157.698 22.3869C157.954 22.2753 158.181 21.9158 158.551 22.3054C159.11 22.8951 159.11 23.1909 158.353 23.5274C156.939 24.149 155.496 24.257 154.178 23.3361C152.859 22.4152 152.704 21.0445 152.944 19.6171C153.229 17.917 154.883 16.8172 156.659 17.0598C158.306 17.283 159.522 18.8573 159.395 20.5557C159.366 20.9223 159.26 21.087 158.869 21.0728C158.216 21.0533 157.556 21.071 156.897 21.071ZM156.039 19.9819C156.427 19.9819 156.814 19.966 157.202 19.9819C157.878 20.0156 157.882 19.7145 157.635 19.2328C157.512 18.9899 157.329 18.7808 157.103 18.6243C156.877 18.4678 156.616 18.3688 156.341 18.3362C156.067 18.3035 155.788 18.3382 155.531 18.4372C155.274 18.5362 155.045 18.6964 154.867 18.9034C154.634 19.1708 154.365 19.5055 154.506 19.8349C154.63 20.1324 155.047 19.9465 155.323 19.973C155.561 19.9872 155.8 19.989 156.039 19.9784V19.9819Z" fill="#F9A121"/>
<path d="M219.391 21.0706C218.792 21.0706 218.189 21.1043 217.587 21.0618C216.842 21.0086 216.952 21.3487 217.192 21.779C217.711 22.7035 219.01 23.0187 220.206 22.3617C220.848 22.0075 221.108 22.2253 221.369 22.7158C221.703 23.341 221.1 23.4242 220.788 23.5517C219.327 24.145 217.867 24.2318 216.554 23.1975C215.457 22.3386 215.085 20.7182 215.563 19.2501C215.81 18.4849 216.34 17.8383 217.049 17.4383C217.757 17.0382 218.593 16.9138 219.391 17.0895C221.246 17.4968 221.896 19.0216 221.926 20.573C221.926 20.9467 221.735 21.0759 221.362 21.0635C220.711 21.0511 220.051 21.0706 219.391 21.0706ZM218.682 19.9815C219.07 19.9815 219.457 19.962 219.841 19.9815C220.406 20.0169 220.422 19.7796 220.238 19.3546C220.13 19.064 219.936 18.8116 219.682 18.6296C219.427 18.4476 219.123 18.3442 218.808 18.3327C218.51 18.2969 218.208 18.3468 217.938 18.4763C217.668 18.6058 217.442 18.8094 217.288 19.0624C217.138 19.3014 216.882 19.5671 217.048 19.8504C217.214 20.1338 217.537 19.9532 217.791 19.9726C218.087 19.9957 218.384 19.9779 218.682 19.9779V19.9815Z" fill="#F9A222"/>
<path d="M169.205 3.27424C169.926 3.26151 170.641 3.40102 171.302 3.68333C171.551 3.78604 172.076 3.83386 171.762 4.30847C171.549 4.63079 171.564 5.325 170.788 4.96196C170.143 4.64095 169.41 4.52993 168.696 4.64495C168.29 4.71579 167.917 4.8557 167.863 5.30906C167.802 5.82618 168.224 5.92535 168.613 6.00505C169.198 6.12901 169.796 6.18214 170.373 6.32559C171.488 6.60363 172.105 7.27837 172.128 8.17093C172.152 9.0936 171.537 9.8799 170.465 10.2146C169.139 10.6275 167.7 10.5111 166.46 9.89053C166.153 9.74708 165.812 9.58415 166.169 9.19277C166.409 8.93067 166.393 8.24885 167.1 8.69159C167.863 9.16621 168.747 9.19985 169.625 9.06526C170.047 9.00151 170.494 8.82087 170.501 8.33031C170.501 7.87164 170.087 7.73173 169.692 7.65735C169.194 7.56349 168.687 7.50682 168.195 7.39702C166.817 7.09419 166.211 6.46195 166.241 5.38521C166.272 4.30847 167.026 3.55405 168.317 3.33445C168.612 3.29855 168.908 3.27845 169.205 3.27424Z" fill="#E8222C"/>
<path d="M173.959 19.558C173.959 20.0557 173.959 20.5551 173.959 21.0527C173.932 22.8237 172.815 23.9004 170.958 23.9766C169.169 24.0492 167.867 23.0504 167.733 21.3715C167.636 20.1478 167.71 18.9116 167.693 17.6808C167.684 17.0167 168.184 17.2469 168.523 17.2186C168.862 17.1903 169.244 17.1513 169.244 17.7109C169.222 18.7664 169.222 19.8213 169.244 20.8756C169.273 22.009 169.749 22.5279 170.74 22.5775C171.787 22.6307 172.352 22.1578 172.44 20.9925C172.515 19.9404 172.53 18.885 172.484 17.8314C172.46 17.2009 172.796 17.2027 173.257 17.2044C173.719 17.2062 174.015 17.2292 173.979 17.7995C173.943 18.3697 173.959 18.9719 173.959 19.558Z" fill="#F9A324"/>
<path d="M174.287 6.8215C174.264 6.46755 174.268 6.11246 174.296 5.75893C174.397 5.05054 174.156 4.71406 173.385 4.83271C172.79 4.9248 172.879 4.49446 172.891 4.15444C172.904 3.81442 172.74 3.35397 173.357 3.46554C174.459 3.66565 174.321 2.93425 174.28 2.3091C174.239 1.68395 174.264 1.26246 175.133 1.32799C175.712 1.37049 175.809 1.54582 175.808 2.05054C175.808 3.46731 175.827 3.41772 177.267 3.48325C177.669 3.50096 178.39 3.01572 178.484 3.96141C178.549 4.62197 178.369 4.87522 177.624 4.85574C175.797 4.80792 175.797 4.85573 175.797 6.60721C175.797 6.84098 175.797 7.07651 175.797 7.31559C175.797 8.92008 176.356 9.32209 177.914 8.73236C178.511 8.50745 178.475 8.94311 178.636 9.19104C178.841 9.5045 178.984 9.79316 178.477 10.0287C177.447 10.5104 176.406 10.6592 175.377 10.1208C174.433 9.62847 174.269 8.73059 174.285 7.77782C174.287 7.46613 174.287 7.14381 174.287 6.8215Z" fill="#E7202A"/>
<path d="M193.188 7.00594C193.207 5.43333 193.771 4.31055 195.073 3.67832C196.375 3.04609 197.681 3.08859 198.911 3.87844C199.133 4.02011 199.651 4.2096 199.23 4.58682C198.933 4.85069 198.848 5.60335 198.082 5.11811C196.999 4.43452 195.943 4.58682 195.263 5.41385C194.613 6.19661 194.633 7.58505 195.304 8.35364C195.975 9.12224 197.032 9.27985 198.062 8.61751C198.817 8.13404 198.935 8.82295 199.221 9.10807C199.66 9.5455 199.104 9.72436 198.861 9.87489C197.622 10.6488 196.314 10.6754 195.024 10.0237C193.735 9.37194 193.205 8.22967 193.188 7.00594Z" fill="#E7212B"/>
<path d="M160.436 20.5595C160.419 19.1427 160.957 18.0802 162.187 17.455C163.449 16.8175 164.726 16.86 165.931 17.6321C166.162 17.7791 166.652 17.9668 166.221 18.3405C165.931 18.599 165.81 19.2454 165.109 18.8222C164.057 18.19 163.094 18.3316 162.439 19.0808C162.109 19.4817 161.929 19.9818 161.929 20.4975C161.929 21.0132 162.109 21.5133 162.439 21.9143C163.092 22.6669 164.126 22.8405 165.11 22.1994C165.879 21.7 165.978 22.4208 166.256 22.7006C166.647 23.0973 166.113 23.2567 165.895 23.3948C164.719 24.1439 163.462 24.1616 162.234 23.5719C160.941 22.9591 160.408 21.8665 160.436 20.5595Z" fill="#F9A121"/>
<path d="M211.282 8.18536C211.257 8.59423 211.261 9.00425 211.292 9.41264C211.395 10.1653 211.081 10.3707 210.349 10.3194C209.875 10.2875 209.743 10.1423 209.747 9.70307C209.767 7.83117 209.747 5.95927 209.763 4.0856C209.763 3.86423 209.604 3.47816 210.041 3.48701C210.432 3.48701 210.993 3.23908 211.184 3.63577C211.375 4.03247 211.419 3.98997 211.687 3.77214C212.171 3.37899 212.744 3.27273 213.363 3.28513C214.476 3.30638 214.555 3.41441 214.247 4.43625C214.126 4.83472 213.967 4.8843 213.547 4.79044C212.203 4.49469 211.399 5.09681 211.294 6.43212C211.249 7.01299 211.294 7.60095 211.294 8.18536H211.282Z" fill="#E61E28"/>
<path d="M189.664 8.14278C189.635 8.55212 189.639 8.96304 189.675 9.37182C189.81 10.2024 189.428 10.3813 188.674 10.3122C188.29 10.275 188.155 10.1723 188.158 9.79508C188.169 7.85943 188.158 5.92377 188.158 3.98812C188.158 3.77737 188.066 3.44444 188.447 3.47986C188.827 3.51527 189.424 3.21952 189.581 3.64455C189.776 4.17584 189.917 3.86238 190.095 3.73133C190.802 3.21244 191.605 3.23192 192.418 3.33109C192.835 3.38245 192.873 3.63392 192.709 3.95801C192.544 4.28209 192.797 4.87714 192.146 4.83286C190.122 4.69827 189.657 5.10382 189.655 7.08552L189.664 8.14278Z" fill="#E61E28"/>
<path d="M175.91 20.3818C175.91 19.5902 175.894 18.7986 175.91 18.0087C175.919 17.7466 175.73 17.3216 176.13 17.2596C176.53 17.1976 177.084 16.978 177.331 17.4367C177.512 17.7767 177.587 17.6262 177.751 17.5076C178.215 17.1763 178.779 17.0095 179.351 17.0347C180.376 17.0542 180.496 17.2224 180.215 18.1575C180.096 18.556 179.943 18.5985 179.523 18.5117C178.154 18.2354 177.403 18.8659 177.376 20.2366C177.358 21.1734 177.338 22.1138 177.385 23.0489C177.414 23.6386 177.205 23.7856 176.621 23.7945C175.991 23.7945 175.872 23.5501 175.899 23.0135C175.926 22.1333 175.91 21.262 175.91 20.3818Z" fill="#F9A121"/>
</g>
<g clip-path="url(#clip2_553:10704)">
<path d="M269.314 6.62577C268.264 6.62577 267.294 6.61805 266.325 6.63092C266.101 6.63092 265.986 6.53395 265.859 6.38035C263.792 3.8669 261.108 2.63807 257.795 2.76593C253.448 2.93327 249.645 6.26708 248.926 10.4367C248.044 15.54 251.613 20.4647 256.975 21.1675C260.816 21.6713 263.901 20.2656 266.168 17.2073C266.383 16.9164 266.587 16.8117 266.949 16.8126C278.836 16.822 290.722 16.8383 302.608 16.7954C303.974 16.7902 305.035 18.0414 304.852 19.568C304.833 19.7199 304.758 19.7568 304.621 19.7516C304.504 19.7465 304.386 19.7516 304.268 19.7516C292.249 19.7516 280.23 19.7496 268.212 19.7456C268.062 19.737 267.913 19.7621 267.775 19.819C267.638 19.8759 267.515 19.9629 267.418 20.0734C264.893 22.7233 261.758 24.0414 258.054 23.9985C252.049 23.929 246.876 19.4221 246.111 13.6289C245.268 7.2462 249.51 1.49591 256.004 0.220737C261.175 -0.794423 266.714 1.76965 269.16 6.31342C269.202 6.39751 269.244 6.48504 269.314 6.62577Z" fill="#01A9E3"/>
<path d="M253.616 10.8682V11.3788C253.616 12.7081 253.61 14.039 253.621 15.3657C253.621 15.6154 253.573 15.7209 253.285 15.7089C252.61 15.6883 251.934 15.6952 251.257 15.7089C251.028 15.7089 250.912 15.6737 250.913 15.4103C250.921 12.8657 250.921 10.3219 250.913 7.779C250.913 7.54903 251.001 7.48896 251.224 7.49153C252.032 7.50183 252.84 7.48381 253.648 7.49926C254.353 7.51384 254.893 7.94891 255.106 8.65858C255.44 9.76728 255.761 10.8785 256.094 11.9872C256.128 12.0988 256.108 12.2884 256.271 12.2902C256.433 12.2919 256.42 12.1065 256.455 11.9907C256.778 10.9094 257.095 9.82563 257.419 8.74439C257.679 7.87426 258.197 7.49668 259.12 7.49582C259.84 7.49582 260.56 7.50355 261.279 7.49153C261.526 7.48724 261.643 7.52242 261.642 7.8099C261.631 10.3396 261.631 12.8691 261.642 15.3983C261.642 15.6454 261.564 15.7158 261.316 15.7098C260.671 15.6952 260.023 15.6875 259.376 15.7098C259.036 15.7227 258.924 15.636 258.93 15.2884C258.952 13.9884 258.938 12.6875 258.938 11.3866C258.943 11.3008 258.943 11.2149 258.938 11.1291C258.931 11.0519 258.972 10.9386 258.85 10.9215C258.729 10.9043 258.734 11.021 258.71 11.0931C258.508 11.7184 258.308 12.3445 258.109 12.9715C257.854 13.7756 257.59 14.5762 257.349 15.3837C257.281 15.612 257.19 15.7166 256.93 15.7046C256.401 15.6789 255.762 15.8608 255.379 15.6274C254.996 15.394 255.008 14.7118 254.85 14.2269C254.525 13.2367 254.216 12.2404 253.898 11.2475C253.857 11.1265 253.87 10.9669 253.616 10.8682Z" fill="#2CB354"/>
<path d="M270.759 11.2077H274.415C274.894 11.2077 274.904 11.2231 274.669 11.6427C274.396 12.1319 274.019 12.5386 273.494 12.7583C273.153 12.9033 273.19 13.0252 273.37 13.2732C273.866 13.9597 274.34 14.6702 274.815 15.3713C274.87 15.4519 274.979 15.5317 274.938 15.6287C274.88 15.7651 274.731 15.6939 274.626 15.6948C273.847 15.7016 273.069 15.6853 272.291 15.7051C272.01 15.7128 271.878 15.6073 271.762 15.3747C271.437 14.7363 271.068 14.1184 270.751 13.4765C270.61 13.1916 270.443 13.0852 270.115 13.0938C269.3 13.1153 269.3 13.099 269.3 13.873C269.3 14.3587 269.286 14.8452 269.305 15.3318C269.315 15.597 269.257 15.7171 268.952 15.7068C268.277 15.6845 267.602 15.6922 266.924 15.7068C266.685 15.7068 266.586 15.6544 266.588 15.3996C266.6 14.0995 266.603 12.7995 266.588 11.5003C266.588 11.1862 266.76 11.2016 266.977 11.2025C268.234 11.2094 269.497 11.2077 270.759 11.2077Z" fill="#2EB456"/>
<path d="M269.452 7.49559C270.362 7.49559 271.271 7.48959 272.186 7.49559C272.571 7.50138 272.952 7.58211 273.306 7.73302C273.659 7.88394 273.978 8.102 274.243 8.37442C274.509 8.64684 274.716 8.96812 274.852 9.3194C274.988 9.67069 275.051 10.0449 275.036 10.4201C275.024 10.747 274.935 10.8972 274.552 10.886C272.998 10.8431 271.441 10.9495 269.89 10.8328C268.184 10.7041 266.715 9.44525 266.279 7.8294C266.202 7.54622 266.269 7.48615 266.552 7.49044C267.515 7.50332 268.483 7.49559 269.452 7.49559Z" fill="#05AAE4"/>
<path d="M265.481 11.6222C265.481 12.8648 265.473 14.1108 265.487 15.3508C265.487 15.6279 265.412 15.7223 265.115 15.7129C264.441 15.6906 263.764 15.6957 263.087 15.7129C262.836 15.7189 262.762 15.6382 262.763 15.3963C262.771 12.8682 262.771 10.3396 262.763 7.81044C262.763 7.56931 262.834 7.48779 263.087 7.4938C263.762 7.50838 264.438 7.51353 265.115 7.4938C265.411 7.48436 265.49 7.57961 265.488 7.85592C265.473 9.10535 265.481 10.3651 265.481 11.6222Z" fill="#2DB455"/>
<path d="M279.926 15.5127C279.442 15.6535 279.22 15.3746 279.165 14.8854C279.127 14.5473 278.927 14.4298 278.593 14.4804C278.491 14.4881 278.388 14.4881 278.285 14.4804C277.484 14.4804 277.467 14.4752 277.249 15.2252C277.161 15.5119 276.991 15.5119 276.76 15.5127C275.825 15.5127 275.823 15.5127 276.116 14.6692C276.556 13.4009 277.004 12.1369 277.433 10.866C277.528 10.5854 277.655 10.4635 277.985 10.4721C278.908 10.4953 278.913 10.4721 279.208 11.3079C279.627 12.493 280.038 13.6798 280.45 14.8666C280.669 15.5119 280.668 15.5127 279.926 15.5127ZM278.25 11.7593C278.129 12.1883 278.034 12.5462 277.931 12.8989C277.754 13.4996 277.754 13.4738 278.403 13.4858C278.732 13.4918 278.72 13.3691 278.649 13.1383C278.514 12.7041 278.392 12.2664 278.25 11.7593Z" fill="#07ABE4"/>
<path d="M291.188 12.9951C291.188 12.2812 291.197 11.5664 291.184 10.8498C291.179 10.5924 291.221 10.4662 291.537 10.474C292.403 10.4954 293.27 10.4911 294.136 10.474C294.4 10.4697 294.445 10.5598 294.448 10.794C294.456 11.5664 294.466 11.5664 293.669 11.5664C293.434 11.5793 293.199 11.5776 292.964 11.5612C292.573 11.5114 292.473 11.6522 292.473 12.0297C292.473 12.4073 292.594 12.506 292.948 12.4588C293.135 12.4348 293.333 12.4794 293.519 12.4494C293.981 12.3739 294.092 12.5635 294.063 12.9857C294.024 13.5358 294.053 13.5375 293.485 13.5383C293.294 13.5494 293.103 13.5479 292.913 13.534C292.552 13.486 292.49 13.6413 292.472 13.9631C292.452 14.3664 292.592 14.478 292.986 14.4471C293.38 14.4162 293.78 14.4522 294.175 14.4351C294.429 14.4239 294.535 14.478 294.535 14.7594C294.535 15.5103 294.551 15.5103 293.78 15.5103C293.031 15.5103 292.28 15.5009 291.533 15.5154C291.269 15.5206 291.174 15.4442 291.18 15.1773C291.2 14.4522 291.188 13.7237 291.188 12.9951Z" fill="#0AACE4"/>
<path d="M285.786 12.9727C285.804 11.9592 286.242 11.1517 287.202 10.6987C288.216 10.2215 289.22 10.3073 290.173 10.908C290.388 11.0419 290.459 11.1826 290.278 11.3877C290.259 11.4101 290.243 11.4339 290.229 11.459C289.885 12.0064 289.885 12.0073 289.306 11.7396C288.682 11.4504 287.957 11.525 287.535 11.9223C287.094 12.3385 286.983 13.0636 287.27 13.6746C287.658 14.5027 288.698 14.7301 289.548 14.1097C289.906 13.8523 290.027 13.9509 290.224 14.2453C290.614 14.8271 290.633 14.846 290.021 15.1944C289.044 15.747 288.027 15.7684 287.043 15.2458C286.145 14.7696 285.797 13.9569 285.786 12.9727Z" fill="#06AAE4"/>
<path d="M280.765 13.0029C280.795 11.9483 281.239 11.1253 282.222 10.6808C283.236 10.2217 284.245 10.3101 285.189 10.9263C285.393 11.0593 285.414 11.1837 285.271 11.3785C285.127 11.5733 285.044 11.859 284.853 11.9672C284.663 12.0753 284.461 11.8033 284.255 11.7174C283.607 11.4446 282.855 11.5415 282.457 11.9749C282.039 12.428 281.976 13.202 282.309 13.7821C282.734 14.5218 283.72 14.6994 284.524 14.1133C284.877 13.8559 285.007 13.9477 285.21 14.2463C285.612 14.8376 285.633 14.841 285.007 15.1903C284.03 15.7412 283.014 15.7678 282.029 15.2443C281.135 14.7689 280.787 13.958 280.765 13.0029Z" fill="#07ABE4"/>
<path d="M303.521 10.3269C304.226 10.3269 304.932 10.3355 305.637 10.3226C305.889 10.3175 305.998 10.3613 306.001 10.6444C306.006 11.5163 306.021 11.5163 305.112 11.5163C304.243 11.5163 304.243 11.5163 304.243 12.3615C304.243 13.4196 304.231 14.4777 304.25 15.5366C304.256 15.8438 304.157 15.9159 303.854 15.9142C302.83 15.9082 302.83 15.9202 302.83 14.9067C302.83 13.9062 302.814 12.9056 302.839 11.9033C302.847 11.5704 302.738 11.4854 302.418 11.5103C302.082 11.5369 301.742 11.5017 301.405 11.5214C301.146 11.536 301.089 11.4356 301.084 11.2022C301.064 10.3269 301.056 10.3269 301.936 10.3269H303.521Z" fill="#05AAE4"/>
<path d="M297.086 10.4718C297.658 10.4718 298.233 10.4615 298.801 10.4718C299.282 10.4752 299.744 10.6564 300.094 10.9786C300.443 11.3009 300.654 11.7402 300.684 12.2078C300.711 12.5441 300.639 12.7338 300.213 12.7089C299.191 12.6514 298.16 12.7947 297.143 12.6308C296.067 12.4592 295.36 11.8353 294.974 10.8511C294.87 10.5868 294.867 10.4435 295.238 10.4615C295.855 10.4924 296.471 10.4718 297.086 10.4718Z" fill="#2CB354"/>
<path d="M298.102 13.9896C297.722 13.9896 297.34 13.9991 296.956 13.9896C296.732 13.9819 296.628 14.0506 296.651 14.2797C296.658 14.4078 296.658 14.5361 296.651 14.6641C296.651 15.6381 296.651 15.6321 295.634 15.542C295.44 15.5248 295.384 15.4562 295.386 15.2846C295.391 14.5715 295.395 13.8584 295.386 13.1461C295.386 12.929 295.474 12.8887 295.673 12.8887C297.241 12.8938 298.809 12.8938 300.377 12.8887C300.622 12.8887 300.656 12.9633 300.544 13.1624C300.24 13.697 299.769 13.9648 299.154 13.9914C298.807 14.0017 298.454 13.9896 298.102 13.9896Z" fill="#04AAE4"/>
</g>
<g clip-path="url(#clip3_553:10704)">
<path fill-rule="evenodd" clip-rule="evenodd" d="M373.017 13.8233L373.639 14.0081C373.597 14.1795 373.532 14.3227 373.443 14.4378C373.353 14.5534 373.242 14.6407 373.107 14.6995C372.975 14.7573 372.806 14.7862 372.6 14.7862C372.35 14.7862 372.146 14.7511 371.987 14.6809C371.83 14.6087 371.693 14.4827 371.578 14.3031C371.463 14.1235 371.406 13.8933 371.406 13.6125C371.406 13.2388 371.507 12.9519 371.708 12.7516C371.911 12.5503 372.197 12.4497 372.567 12.4497C372.856 12.4497 373.083 12.5075 373.249 12.6231C373.415 12.7387 373.538 12.9152 373.619 13.1527L372.992 13.2889C372.971 13.2197 372.948 13.1697 372.923 13.1387C372.884 13.085 372.835 13.0443 372.778 13.0164C372.721 12.9875 372.656 12.973 372.585 12.973C372.425 12.973 372.301 13.0365 372.215 13.1635C372.151 13.2585 372.118 13.4071 372.118 13.6094C372.118 13.8603 372.157 14.0321 372.235 14.125C372.313 14.2179 372.422 14.2644 372.562 14.2644C372.698 14.2644 372.8 14.2272 372.869 14.1529C372.939 14.0786 372.99 13.9702 373.021 13.8277L373.017 13.8233ZM373.893 13.6183C373.893 13.2497 373.998 12.9628 374.207 12.7573C374.415 12.5519 374.706 12.4492 375.079 12.4492C375.462 12.4492 375.756 12.5504 375.964 12.7527C376.171 12.954 376.275 13.2366 376.275 13.6006C376.275 13.8647 376.229 14.0812 376.138 14.2503C376.049 14.4186 375.919 14.5502 375.748 14.6451C375.577 14.7387 375.365 14.7854 375.111 14.7854C374.853 14.7854 374.639 14.7452 374.469 14.6647C374.301 14.5841 374.164 14.4557 374.058 14.2794C373.953 14.1039 373.9 13.8841 373.9 13.6198L373.893 13.6183ZM374.603 13.6213C374.603 13.8493 374.646 14.0131 374.731 14.1128C374.817 14.2124 374.935 14.2622 375.083 14.2622C375.235 14.2622 375.353 14.2131 375.437 14.1148C375.52 14.0165 375.561 13.8414 375.561 13.5895C375.561 13.3768 375.517 13.2218 375.429 13.1245C375.342 13.0254 375.224 12.9758 375.075 12.9758C374.931 12.9758 374.816 13.0254 374.73 13.1245C374.643 13.2225 374.599 13.3872 374.599 13.6184L374.603 13.6213ZM376.651 12.4876H377.584L377.945 13.8617L378.304 12.4876H379.235V14.7458H378.655V13.024L378.206 14.7458H377.682L377.234 13.024V14.7458H376.652V12.4878L376.651 12.4876ZM379.682 12.4876H380.863C381.119 12.4876 381.312 12.5477 381.439 12.6679C381.568 12.7879 381.632 12.9586 381.632 13.1801C381.632 13.4079 381.562 13.5858 381.422 13.7138C381.283 13.8418 381.07 13.9058 380.784 13.9058H380.396V14.7441H379.683V12.4851L379.682 12.4876ZM380.396 13.4503H380.569C380.706 13.4503 380.802 13.4272 380.858 13.381C380.913 13.3339 380.941 13.2738 380.941 13.201C380.941 13.13 380.917 13.07 380.869 13.0207C380.821 12.9712 380.73 12.9464 380.598 12.9464H380.395V13.4496L380.396 13.4503ZM382.005 12.4876H382.713V14.1899H383.821V14.7458H382.003V12.4878L382.005 12.4876ZM384.175 12.4876H384.885V14.7458H384.173V12.4878L384.175 12.4876ZM386.807 14.3731H385.997L385.886 14.7459H385.159L386.023 12.4884H386.796L387.659 14.7475H386.917L386.804 14.3759L386.807 14.3731ZM386.657 13.8849L386.402 13.0732L386.149 13.8849H386.654H386.657ZM387.892 12.4876H388.555L389.42 13.7369V12.4876H390.089V14.7458H389.42L388.56 13.5058V14.7461H387.892V12.4875V12.4876ZM390.401 12.4876H392.559V13.0453H391.834V14.7458H391.126V13.0457H390.401V12.4879V12.4876Z" fill="#225E63"/>
<path fill-rule="evenodd" clip-rule="evenodd" d="M364.471 15.9347L366.527 15.2977L365.861 13.8399C365.366 14.4391 364.878 15.2164 364.47 15.9333L364.471 15.9347ZM363.77 9.26116L359.739 0.431641L330.226 2.07912L338.402 24.012L354.141 19.1349C353.143 17.7203 352.774 16.0386 353.93 15.2167C355.226 14.297 357.175 15.3607 358.427 16.8735C359.628 14.8885 362.999 10.3068 363.771 9.26163L363.77 9.26116Z" fill="#225E63"/>
<path fill-rule="evenodd" clip-rule="evenodd" d="M358.823 6.81157C360.058 6.81157 361.06 5.883 361.06 4.73751C361.06 3.59201 360.057 2.66406 358.822 2.66406C357.587 2.66406 356.585 3.59263 356.585 4.73828C356.585 5.88409 357.587 6.8125 358.823 6.8125L358.823 6.81157ZM356.993 7.71119H360.653V17.1071H356.993V7.7115V7.71119ZM355.186 10.4534C355.211 10.4684 355.233 10.456 355.233 10.4264V8.04626C355.233 8.01591 355.211 7.97968 355.184 7.96543C355.184 7.96543 354.704 7.65777 353.239 7.57214C353.16 7.52956 351.884 7.52321 351.532 7.57214C346.208 7.99175 346.011 11.7779 346.011 11.951V12.8699C346.011 12.9822 346.011 16.8533 351.532 17.1961C352.07 17.2361 353.127 17.1961 353.239 17.1961C354.51 17.1961 355.39 16.8194 355.39 16.8194C355.417 16.8073 355.441 16.7745 355.441 16.7445V14.5163C355.441 14.486 355.42 14.4752 355.393 14.4908C355.393 14.4908 354.998 14.8036 353.261 14.9692C352.768 15.0234 352.535 14.9987 352.357 14.9692C349.894 14.562 349.775 12.7876 349.775 12.7876C349.772 12.7582 349.769 12.7102 349.769 12.6807V12.0041C349.769 11.9747 349.772 11.9267 349.775 11.8973C349.775 11.8973 349.941 9.99583 352.355 9.79454H353.258C354.324 9.93544 355.179 10.4542 355.179 10.4542L355.186 10.4534ZM335.859 17.0696C335.859 17.0997 335.883 17.1238 335.914 17.1238H339.479C339.509 17.1238 339.534 17.0997 339.534 17.0707V14.3435C339.534 14.3147 339.558 14.2918 339.589 14.2929C339.589 14.2929 345.281 14.6975 345.281 10.9413C345.281 7.97735 341.71 7.6525 340.534 7.7067C340.51 7.70824 335.914 7.7067 335.914 7.7067C335.884 7.7067 335.859 7.73224 335.859 7.7612V17.0701L335.859 17.0696ZM339.471 12.2093V9.75258H340.343C340.343 9.75258 341.613 9.80894 341.712 10.6576C341.735 10.7242 341.729 11.1392 341.712 11.1624C341.55 12.1608 340.447 12.2097 340.447 12.2097L339.474 12.2082L339.471 12.2093Z" fill="#FEFEFE"/>
<path fill-rule="evenodd" clip-rule="evenodd" d="M358.923 21.6435C359.221 21.6435 359.449 21.6435 359.825 21.4794C361.124 20.8077 365.499 10.305 370.113 7.07441C370.14 7.05366 370.178 7.02362 370.2 6.99281C370.23 6.95023 370.231 6.90672 370.231 6.90672C370.231 6.90672 370.231 6.69149 369.546 6.69149C365.439 6.58155 361.167 15.0466 358.923 18.3957C358.895 18.4329 358.74 18.3957 358.74 18.3957C358.74 18.3957 357.236 16.6507 355.929 15.9818C355.902 15.9679 355.753 15.923 355.598 15.9338C355.496 15.9338 354.888 16.053 354.604 16.3488C354.271 16.6956 354.277 16.8907 354.28 17.3134C354.282 17.3475 354.304 17.4884 354.345 17.5596C354.664 18.1093 356.124 20.0819 357.32 21.1705C357.506 21.3005 357.788 21.6458 358.925 21.6458L358.923 21.6435Z" fill="#2BBC5D"/>
<path fill-rule="evenodd" clip-rule="evenodd" d="M371.326 3.89091H374.743C375.418 3.89091 375.961 3.98072 376.374 4.16033C376.79 4.34015 377.134 4.59822 377.405 4.93453C377.676 5.27001 377.872 5.66087 377.994 6.10712C378.116 6.55305 378.177 7.02531 378.177 7.52389C378.177 8.30531 378.085 8.9128 377.903 9.34635C377.723 9.77576 377.473 10.1371 377.151 10.4302C376.829 10.7192 376.484 10.9118 376.115 11.0078C375.61 11.1399 375.153 11.206 374.744 11.206H371.326V3.88844L371.326 3.89091ZM373.626 5.54846V9.54795H374.189C374.67 9.54795 375.012 9.49633 375.215 9.39311C375.418 9.28678 375.577 9.10407 375.692 8.84498C375.806 8.58175 375.864 8.15749 375.864 7.5722C375.864 6.79698 375.735 6.2664 375.477 5.98046C375.219 5.69453 374.793 5.55156 374.196 5.55156H373.623L373.626 5.54846ZM378.802 8.78924L380.99 8.65453C381.037 9.00446 381.133 9.27078 381.278 9.45349C381.515 9.74975 381.853 9.89788 382.294 9.89788C382.623 9.89788 382.875 9.82304 383.05 9.67336C383.229 9.52059 383.318 9.34407 383.318 9.14382C383.318 8.95491 383.233 8.78562 383.063 8.63595C382.893 8.48627 382.5 8.34536 381.885 8.21324C380.876 7.99027 380.156 7.69401 379.725 7.32446C379.292 6.95595 379.075 6.48524 379.075 5.91233C379.075 5.53659 379.185 5.18253 379.406 4.85014C379.628 4.51465 379.962 4.25194 380.406 4.06201C380.853 3.86898 381.464 3.77246 382.239 3.77246C383.189 3.77246 383.913 3.94743 384.411 4.29736C384.911 4.6442 385.208 5.19698 385.304 5.95569L383.135 6.08111C383.077 5.75182 382.955 5.51233 382.768 5.36265C382.584 5.21298 382.33 5.13814 382.006 5.13814C381.738 5.13814 381.537 5.19491 381.401 5.30846C381.265 5.41891 381.196 5.55362 381.196 5.71259C381.196 5.82924 381.252 5.93401 381.363 6.02691C381.471 6.12395 381.729 6.21427 382.135 6.29788C383.141 6.51156 383.86 6.72833 384.293 6.9482C384.73 7.16498 385.047 7.43491 385.243 7.75801C385.444 8.08111 385.544 8.4424 385.544 8.84188C385.544 9.31156 385.412 9.74459 385.147 10.141C384.882 10.5374 384.513 10.8386 384.04 11.0448C383.567 11.2461 382.971 11.3467 382.25 11.3467C380.984 11.3467 380.106 11.1072 379.619 10.6283C379.13 10.1493 378.854 9.54026 378.79 8.80116L378.802 8.78924ZM386.14 8.78924L388.328 8.65453C388.375 9.00446 388.471 9.27078 388.616 9.45349C388.852 9.74975 389.191 9.89788 389.632 9.89788C389.961 9.89788 390.213 9.82304 390.388 9.67336C390.568 9.52059 390.657 9.34407 390.657 9.14382C390.657 8.95491 390.572 8.78562 390.402 8.63595C390.232 8.48627 389.839 8.34536 389.224 8.21324C388.215 7.99027 387.495 7.69401 387.065 7.32446C386.631 6.95595 386.414 6.48524 386.414 5.91233C386.414 5.53659 386.524 5.18253 386.744 4.85014C386.967 4.51465 387.301 4.25194 387.744 4.06201C388.19 3.86898 388.801 3.77246 389.577 3.77246C390.527 3.77246 391.251 3.94743 391.749 4.29736C392.25 4.6442 392.547 5.19698 392.642 5.95569L390.475 6.07956C390.416 5.75027 390.294 5.51078 390.108 5.36111C389.925 5.21143 389.671 5.13659 389.345 5.13659C389.078 5.13659 388.876 5.19336 388.741 5.30691C388.604 5.41736 388.536 5.55259 388.536 5.71259C388.536 5.82924 388.592 5.93401 388.703 6.02691C388.811 6.12395 389.068 6.21427 389.475 6.29788C390.48 6.51053 391.2 6.72678 391.634 6.94665C392.07 7.16343 392.386 7.43336 392.584 7.75646C392.783 8.07956 392.883 8.44085 392.883 8.84033C392.883 9.31001 392.751 9.74304 392.488 10.1394C392.223 10.5358 391.853 10.8372 391.379 11.0437C390.906 11.246 390.31 11.3472 389.59 11.3472C388.323 11.3472 387.446 11.1072 386.958 10.6272C386.471 10.1482 386.194 9.53917 386.129 8.80007L386.14 8.78924Z" fill="#225E63"/>
</g>
<defs>
<linearGradient id="paint0_linear_553:10704" x1="19.5" y1="0" x2="19.5" y2="24" gradientUnits="userSpaceOnUse">
<stop stop-color="#F9F9F9"/>
<stop offset="1" stop-color="#005D9C"/>
</linearGradient>
<clipPath id="clip0_553:10704">
<rect width="57" height="24" fill="white" transform="translate(63)"/>
</clipPath>
<clipPath id="clip1_553:10704">
<rect width="78" height="24" fill="white" transform="translate(144)"/>
</clipPath>
<clipPath id="clip2_553:10704">
<rect width="60" height="24" fill="white" transform="translate(246)"/>
</clipPath>
<clipPath id="clip3_553:10704">
<rect width="63" height="24" fill="white" transform="translate(330)"/>
</clipPath>
</defs>
</svg>
