<svg width="306" height="240" viewBox="0 0 306 240" fill="none" xmlns="http://www.w3.org/2000/svg">
<g clip-path="url(#clip0_377:8927)">
<path d="M45.3068 150.903C45.3061 151.225 45.1784 151.532 44.9516 151.76C44.7249 151.987 44.4176 152.115 44.0969 152.116H42.3808C42.7016 152.116 43.0094 152.243 43.2363 152.471C43.4632 152.698 43.5907 153.006 43.5907 153.328C43.5907 153.649 43.4632 153.958 43.2363 154.185C43.0094 154.412 42.7016 154.54 42.3808 154.54H44.7977C45.1186 154.54 45.4263 154.668 45.6532 154.895C45.8801 155.122 46.0076 155.431 46.0076 155.752C46.0076 156.074 45.8801 156.382 45.6532 156.609C45.4263 156.837 45.1186 156.964 44.7977 156.964H33.4395C41.1995 178.743 55.7498 197.783 74.8794 212.131C75.079 211.994 75.3152 211.92 75.5573 211.919H89.5528C89.8736 211.919 90.1814 212.047 90.4083 212.274C90.6352 212.502 90.7627 212.81 90.7627 213.131C90.7627 213.453 90.6352 213.761 90.4083 213.989C90.1814 214.216 89.8736 214.344 89.5528 214.344H87.8366C88.1575 214.344 88.4652 214.471 88.6921 214.699C88.919 214.926 89.0465 215.234 89.0465 215.556C89.0465 215.877 88.919 216.186 88.6921 216.413C88.4652 216.64 88.1575 216.768 87.8366 216.768H90.2564C90.5773 216.768 90.885 216.896 91.1119 217.123C91.3388 217.35 91.4663 217.659 91.4663 217.98C91.4663 218.302 91.3388 218.61 91.1119 218.837C90.885 219.065 90.5773 219.192 90.2564 219.192H85.2823C106.715 232.317 132.649 240 160.588 240C177.152 240.033 193.602 237.267 209.248 231.818C211.326 231.087 213.381 230.313 215.411 229.497C218.947 228.066 222.399 226.506 225.769 224.818C227.222 224.09 228.658 223.337 230.079 222.559L230.145 222.525L230.465 222.347L231.298 221.886C232.977 220.946 234.632 219.974 236.26 218.969L237.261 218.347C238.108 217.814 238.946 217.272 239.775 216.722C241.431 215.631 243.057 214.504 244.655 213.341L245.227 212.916L245.688 212.575C247.839 210.982 249.93 209.331 251.963 207.621L252.049 207.549C253.044 206.71 254.025 205.857 254.992 204.99L255.078 204.913C258.231 202.087 261.239 199.103 264.091 195.972C268.366 191.284 272.265 186.265 275.749 180.961H270.172C269.851 180.961 269.543 180.834 269.316 180.606C269.089 180.379 268.962 180.071 268.962 179.749C268.962 179.428 269.089 179.119 269.316 178.892C269.543 178.665 269.851 178.537 270.172 178.537H267.755C267.434 178.537 267.126 178.409 266.899 178.182C266.672 177.955 266.545 177.646 266.545 177.325C266.545 177.003 266.672 176.695 266.899 176.468C267.126 176.24 267.434 176.113 267.755 176.113H269.471C269.307 176.121 269.144 176.095 268.99 176.038C268.837 175.981 268.696 175.893 268.578 175.78C268.459 175.666 268.365 175.53 268.3 175.379C268.236 175.229 268.202 175.066 268.202 174.902C268.202 174.738 268.236 174.575 268.3 174.424C268.365 174.274 268.459 174.137 268.578 174.024C268.696 173.911 268.837 173.823 268.99 173.766C269.144 173.709 269.307 173.683 269.471 173.691H280.137C289.004 157.724 293.99 139.733 293.99 120.696C293.993 108.688 291.988 96.764 288.057 85.4199H264.32C263.657 85.3976 263.028 85.1181 262.567 84.6404C262.106 84.1626 261.848 83.524 261.848 82.8594C261.848 82.1948 262.106 81.5562 262.567 81.0784C263.028 80.6006 263.657 80.3211 264.32 80.2989H259.211C258.534 80.2989 257.884 80.0293 257.405 79.5494C256.926 79.0695 256.657 78.4186 256.657 77.7399C256.657 77.0612 256.926 76.4103 257.405 75.9304C257.884 75.4504 258.534 75.1808 259.211 75.1808H262.861C262.198 75.1586 261.569 74.8791 261.108 74.4014C260.647 73.9236 260.389 73.285 260.389 72.6204C260.389 71.9557 260.647 71.3171 261.108 70.8394C261.569 70.3616 262.198 70.0821 262.861 70.0599H281.427C260.132 29.4906 214.03 1.39551 160.588 1.39551C129.371 1.39551 100.662 10.9812 77.9257 27.0375H83.8751C84.5381 27.0598 85.1665 27.3393 85.6277 27.817C86.0889 28.2948 86.3467 28.9334 86.3467 29.598C86.3467 30.2626 86.0889 30.9013 85.6277 31.379C85.1665 31.8568 84.5381 32.1363 83.8751 32.1585H80.2339C80.9113 32.1585 81.561 32.4281 82.04 32.908C82.519 33.3879 82.7882 34.0388 82.7882 34.7175C82.7882 35.3962 82.519 36.0471 82.04 36.5271C81.561 37.007 80.9113 37.2766 80.2339 37.2766H85.3424C85.6852 37.2651 86.0268 37.3228 86.3469 37.4463C86.667 37.5698 86.959 37.7566 87.2056 37.9955C87.4521 38.2344 87.6482 38.5205 87.7821 38.8369C87.916 39.1533 87.985 39.4934 87.985 39.8371C87.985 40.1807 87.916 40.5208 87.7821 40.8372C87.6482 41.1536 87.4521 41.4398 87.2056 41.6786C86.959 41.9175 86.667 42.1043 86.3469 42.2278C86.0268 42.3513 85.6852 42.409 85.3424 42.3975H59.9201C39.5176 63.3513 27.1611 90.7328 27.1611 120.696C27.159 130.498 28.4957 140.253 31.1341 149.691H44.0969C44.4174 149.693 44.7242 149.821 44.9508 150.048C45.1774 150.275 45.3053 150.582 45.3068 150.903Z" fill="white"/>
<path d="M233.514 99.7051C232.321 99.6019 228.165 96.2462 225.757 95.2576C224.647 94.8019 223.952 95.7648 223.523 96.934C222.047 95.9683 220.428 94.8994 219.233 94.4122C219.078 94.3398 218.909 94.3006 218.739 94.2971C218.568 94.2937 218.398 94.326 218.24 94.3922C216.69 95.0656 216.358 99.1262 216.358 99.1262L216.412 99.3813C215.652 99.9802 213.369 100.356 212.379 100.422C211.215 100.496 209.676 100.668 209.133 100.937C208.59 101.207 202.268 102.731 198.633 103.843C194.997 104.955 185.607 110.494 185.607 110.494L176.706 112.5L175.456 112.26C175.058 110.827 173.239 110.841 171.108 111.42C167.647 110.784 164.195 110.288 163.079 110.795C166.269 109.168 170.19 106.586 170.144 103.737C170.081 99.8513 162.404 105.302 159.498 107.505L159.249 107.695L159.184 107.448C159.184 107.448 157.064 108.276 152.545 108.167C148.026 108.059 146.015 110.188 145.609 110.4C145.203 110.612 141.067 112.007 140.746 112.062C140.497 112.102 133.364 112.75 129.763 113.073C124.783 112.624 117.592 113.409 117.197 114.154C116.745 115.014 111.271 118.143 111.271 118.143L109.395 118.636C109.395 118.636 109.171 119.209 108.914 119.942C108.731 119.663 108.576 119.367 108.451 119.057C108.167 118.297 107.945 117.515 107.787 116.719C107.764 116.613 107.738 116.507 107.713 116.401C107.713 116.375 107.698 116.349 107.693 116.323L107.624 116.057L107.607 115.991C107.514 115.647 107.401 115.31 107.269 114.979C107.139 114.648 106.976 114.33 106.783 114.031C106.51 113.593 106.14 113.224 105.702 112.953C104.984 112.515 104.117 112.411 103.282 112.317C102.579 112.215 101.867 112.184 101.157 112.225C100.548 112.283 99.9498 112.449 99.3406 112.486C98.3595 112.543 97.3956 112.265 96.4231 112.116C95.4506 111.967 94.3923 111.97 93.5628 112.515C92.8649 112.979 92.4616 113.761 92.0125 114.469C91.1699 115.798 90.0874 116.959 88.8204 117.891C87.9623 118.513 86.987 119.111 86.6752 120.114C86.3634 121.117 86.7953 122.089 86.987 123.078C87.4103 125.255 86.7267 127.645 87.4875 129.669C87.5047 129.714 87.5218 129.757 87.5419 129.803C87.5848 129.912 87.6305 130.024 87.6849 130.13C87.733 130.228 87.7864 130.324 87.8451 130.417C87.9014 130.508 87.9645 130.595 88.0338 130.677C88.1011 130.76 88.1769 130.834 88.2598 130.901C88.3414 130.969 88.4307 131.028 88.5258 131.076C88.8763 131.226 89.263 131.271 89.6385 131.205L89.8444 131.176L90.0332 131.142C90.2553 131.102 90.475 131.049 90.6911 130.984C90.9062 130.921 91.112 130.829 91.3032 130.712C91.4762 130.603 91.6231 130.458 91.7334 130.286C91.8436 130.114 91.9146 129.92 91.941 129.717C91.969 129.538 91.9824 129.357 91.981 129.176V129.05L92.024 129.181C92.5765 130.731 93.5653 132.088 94.8708 133.087C96.1764 134.086 97.7428 134.685 99.3808 134.811C101.019 134.937 102.658 134.585 104.101 133.797C105.543 133.01 106.727 131.821 107.51 130.374L107.833 130.265C108.871 129.932 109.935 129.685 111.013 129.525C111.131 129.764 111.263 129.996 111.408 130.219C114.929 135.718 125.933 135.907 125.933 135.907C125.933 135.907 138.092 135.434 139.033 135.188C139.974 134.941 142.78 135.371 143.589 136.125C144.399 136.879 147.966 137.191 149.124 135.242C150.282 133.294 151.612 133.669 151.612 133.669C151.852 133.343 152.058 132.992 152.225 132.623L153 132.66C155.045 132.769 158.328 132.981 159.038 133.268C160.085 133.689 164.581 133.658 167.012 132.632C169.444 131.606 177.023 127.256 177.023 127.256C177.023 127.256 181.737 125.823 182.575 125.536C183.413 125.25 185.607 123.152 185.607 123.152L190.126 121.398C190.126 121.398 194.9 118.819 196.914 118.55C198.927 118.28 200.752 116.515 200.752 116.515L213.552 110.543C214.41 110.417 215.285 110.461 216.126 110.672C217.271 111.03 224.722 109.936 226.978 107.52C226.978 107.52 227.061 107.207 227.173 106.697C227.276 106.697 227.382 106.677 227.493 106.674C227.974 106.78 228.268 106.852 228.268 106.852C229.219 107.565 230.232 108.192 231.295 108.723C232.813 109.454 234.441 109.855 235.013 108.603C235.098 108.41 235.156 108.205 235.185 107.995C236.655 109.041 241.603 112.265 241.743 108.425C241.915 103.915 234.704 99.8083 233.514 99.7051Z" fill="url(#paint0_linear_377:8927)"/>
<path d="M114.125 129.211C114.125 129.211 111.814 129.065 108.594 130.096C107.526 130.433 106.488 130.858 105.49 131.366C100.754 133.756 104.686 120.86 104.686 120.86C104.686 120.86 106.005 120.86 107.59 120.725C109.483 120.574 111.754 120.258 112.595 119.599C114.14 118.376 114.125 129.211 114.125 129.211Z" fill="#EFB7B9"/>
<path d="M170.062 103.933C170.119 107.538 163.735 110.71 160.703 112.014C159.759 112.418 159.135 112.641 159.135 112.641L158.475 108.492C158.475 108.492 158.889 108.157 159.559 107.649C162.439 105.474 169.999 100.098 170.062 103.933Z" fill="#EFB7B9"/>
<path opacity="0.1" d="M160.703 112.014C159.759 112.418 159.135 112.641 159.135 112.641L158.475 108.492C158.475 108.492 158.889 108.157 159.559 107.649L160.703 112.014Z" fill="black"/>
<path d="M128.204 113.323C128.204 113.323 140.721 112.197 141.05 112.143C141.379 112.088 145.457 110.71 145.858 110.506C146.258 110.303 148.24 108.194 152.7 108.303C157.159 108.411 159.25 107.595 159.25 107.595L160.723 113.211L130.993 116.59L128.204 113.323Z" fill="#E1E7EF"/>
<path opacity="0.05" d="M128.204 113.323C128.204 113.323 140.721 112.197 141.05 112.143C141.379 112.088 145.457 110.71 145.858 110.506C146.258 110.303 148.24 108.194 152.7 108.303C157.159 108.411 159.25 107.595 159.25 107.595L160.723 113.211L130.993 116.59L128.204 113.323Z" fill="black"/>
<path d="M215.654 99.3669C215.654 99.3669 216.112 93.7416 218.486 94.7159C220.86 95.6903 224.962 99.0144 226.137 99.1061C227.313 99.1978 234.432 103.258 234.263 107.703C234.095 112.148 227.399 106.984 227.399 106.984C227.399 106.984 221.169 105.451 219.155 106.141C217.142 106.832 215.654 99.3669 215.654 99.3669Z" fill="#B07473"/>
<path opacity="0.1" d="M234.264 107.712C234.101 112.156 227.399 106.992 227.399 106.992C227.399 106.992 221.172 105.459 219.156 106.15C218.584 106.35 218.011 105.863 217.554 105.058C216.653 103.534 216.001 100.891 215.763 99.8311C215.697 99.5445 215.666 99.3754 215.666 99.3754C215.666 99.3754 216.124 93.7501 218.498 94.7273C220.872 95.7045 224.971 99.0115 226.146 99.1146C227.322 99.2178 234.424 103.267 234.264 107.712Z" fill="black"/>
<path opacity="0.1" d="M221.418 102.697C221.215 103.218 219.776 104.047 217.543 105.058C216.642 103.534 215.989 100.891 215.752 99.8312C216.172 99.6507 216.47 99.4415 216.519 99.2065C216.684 98.4213 222.582 99.7051 221.418 102.697Z" fill="black"/>
<path d="M171.635 113.696L185.321 110.589C185.321 110.589 194.589 105.124 198.193 104.03C201.797 102.935 208.012 101.431 208.55 101.164C209.087 100.897 210.603 100.726 211.75 100.654C212.897 100.582 215.812 100.081 215.978 99.2985C216.144 98.5161 222.042 99.7942 220.878 102.786C219.713 105.778 178.119 118.797 178.119 118.797L171.635 113.696Z" fill="#444053"/>
<path opacity="0.1" d="M171.635 113.696L185.321 110.589C185.321 110.589 194.589 105.124 198.193 104.03C201.797 102.935 208.012 101.431 208.55 101.164C209.087 100.897 210.603 100.726 211.75 100.654C212.897 100.582 215.812 100.081 215.978 99.2985C216.144 98.5161 222.042 99.7942 220.878 102.786C219.713 105.778 178.119 118.797 178.119 118.797L171.635 113.696Z" fill="black"/>
<path d="M240.694 108.537C240.531 112.985 233.83 107.818 233.83 107.818C233.83 107.818 229.473 106.746 226.87 106.798C226.436 106.792 226.003 106.851 225.586 106.976C223.584 107.666 222.094 100.201 222.094 100.201C222.094 100.201 222.122 99.84 222.205 99.3185C222.448 97.771 223.152 94.8222 224.928 95.5501C227.302 96.5273 231.401 99.8486 232.577 99.9375C233.752 100.026 240.854 104.101 240.694 108.537Z" fill="#B07473"/>
<path opacity="0.1" d="M226.862 106.818C226.427 106.811 225.994 106.871 225.577 106.995C223.575 107.686 222.085 100.221 222.085 100.221C222.085 100.221 222.114 99.8599 222.196 99.3383C223.867 98.9801 225.266 98.6592 225.266 98.6592C228.332 98.7939 227.325 104.683 226.862 106.818Z" fill="black"/>
<path d="M226.118 107.652C223.89 110.039 216.533 111.116 215.412 110.767C214.585 110.558 213.725 110.513 212.881 110.635L200.255 116.524C200.255 116.524 198.453 118.26 196.468 118.53C194.483 118.799 189.772 121.338 189.772 121.338L185.316 123.057C185.316 123.057 183.139 125.158 182.316 125.445C181.492 125.731 176.838 127.138 176.838 127.138C176.838 127.138 169.364 131.437 166.964 132.442C164.565 133.448 160.134 133.483 159.099 133.067C158.401 132.781 155.16 132.577 153.146 132.468C152.191 132.42 151.51 132.394 151.51 132.394L149.153 114.538C149.153 114.538 151.101 114.105 153.561 113.523C157.134 112.681 161.787 111.517 163.077 110.91C165.26 109.881 176.892 112.916 179.026 112.959C181.16 113.002 192.043 109.52 192.043 109.52C192.043 109.52 205.641 101.834 208.393 101.831C211.144 101.829 214.717 100.628 216.937 100.321C219.156 100.015 224.699 98.7422 224.699 98.7422C228.444 98.9141 226.118 107.652 226.118 107.652Z" fill="#444053"/>
<path opacity="0.1" d="M109.469 124.826C109.759 126.632 109.451 128.482 108.594 130.096C107.526 130.433 106.488 130.858 105.49 131.366C100.754 133.756 104.686 120.86 104.686 120.86C104.686 120.86 106.005 120.86 107.59 120.726C108.579 121.894 109.229 123.313 109.469 124.826Z" fill="black"/>
<path d="M109.186 124.872C109.516 126.94 109.062 129.057 107.915 130.808C106.768 132.559 105.009 133.818 102.984 134.338C100.959 134.858 98.8132 134.602 96.9668 133.619C95.1204 132.637 93.7067 130.999 93.0025 129.027C92.9511 128.884 92.9053 128.74 92.8595 128.594C92.7537 128.243 92.6715 127.885 92.6135 127.522C92.2779 125.394 92.7711 123.217 93.9912 121.442C95.2113 119.667 97.0653 118.429 99.1701 117.984C101.275 117.539 103.47 117.921 105.302 119.051C107.134 120.18 108.463 121.972 109.014 124.055C109.087 124.324 109.144 124.597 109.186 124.872Z" fill="#EFB7B9"/>
<path opacity="0.1" d="M152.92 124.855C154.702 128.333 153.816 131.125 153.146 132.457C152.191 132.408 151.51 132.383 151.51 132.383L149.153 114.527C149.153 114.527 151.101 114.094 153.561 113.512L153.816 113.492C153.816 113.492 150.4 119.937 152.92 124.855Z" fill="black"/>
<path d="M152.073 124.989C154.593 129.909 151.787 133.451 151.787 133.451C151.787 133.451 150.474 133.082 149.333 135.005C148.192 136.927 144.665 136.621 143.873 135.864C143.08 135.108 140.306 134.692 139.379 134.939C138.452 135.185 126.459 135.646 126.459 135.646C126.459 135.646 115.607 135.463 112.132 130.038C111.989 129.819 111.859 129.591 111.743 129.356C111.743 129.356 109 124.215 108.914 123.069C108.877 122.622 109.057 121.848 109.286 121.063C109.649 119.845 110.144 118.61 110.144 118.61L111.995 118.123C111.995 118.123 117.395 115.037 117.838 114.191C118.282 113.346 127.506 112.455 132.194 113.397C136.882 114.34 145.743 114.22 145.743 114.22L152.986 113.609C152.986 113.609 149.567 120.071 152.073 124.989Z" fill="#E1E7EF"/>
<path opacity="0.1" d="M141.447 133.468C142.535 133.046 143.587 132.537 144.594 131.946C146.261 130.946 141.447 133.468 141.447 133.468Z" fill="black"/>
<path opacity="0.1" d="M114.958 121.679C114.958 121.679 118.522 128.316 126.142 126.132C133.762 123.949 139.468 125.559 139.468 125.559C139.468 125.559 146.596 125.15 147.909 124.602C149.878 123.857 151.889 123.229 153.932 122.722C155.056 122.493 156.624 122.04 157.865 121.653C159.107 121.267 165.74 119.868 165.74 119.868C165.74 119.868 163.643 115.174 164.658 114.575C164.658 114.575 158.111 115.911 158.037 115.435C157.963 114.959 150.626 114.67 150.028 115.148C149.43 115.627 142.877 116.1 142.305 116.315C141.733 116.53 131.608 117.421 131.608 117.421C131.608 117.421 116.417 111.234 114.958 121.679Z" fill="black"/>
<path d="M163.011 115.062C163.011 115.062 174.941 108.136 175.379 112.709C175.816 117.283 164.155 118.951 164.155 118.951L163.011 115.062Z" fill="#EFB7B9"/>
<path opacity="0.1" d="M115.102 120.785C115.102 120.785 118.677 127.422 126.285 125.238C133.894 123.054 139.614 124.665 139.614 124.665C139.614 124.665 146.742 124.255 148.052 123.708C150.022 122.962 152.035 122.334 154.079 121.828C155.2 121.599 156.77 121.146 158.012 120.759C159.253 120.372 165.886 118.974 165.886 118.974C165.886 118.974 163.787 114.28 164.802 113.681C164.802 113.681 158.258 115.016 158.18 114.54C158.103 114.065 150.769 113.775 150.172 114.254C149.574 114.732 143.021 115.205 142.449 115.42C141.877 115.635 131.76 116.523 131.76 116.523C131.76 116.523 116.563 110.339 115.102 120.785Z" fill="black"/>
<path d="M114.863 121.112C114.863 121.112 118.43 127.749 126.047 125.565C133.664 123.381 139.376 124.992 139.376 124.992C139.376 124.992 146.504 124.582 147.814 124.035C149.784 123.288 151.796 122.66 153.841 122.152C154.962 121.926 156.532 121.47 157.773 121.083C159.015 120.696 165.648 119.301 165.648 119.301C165.648 119.301 163.548 114.604 164.564 114.008C164.564 114.008 158.019 115.343 157.942 114.868C157.865 114.392 150.531 114.102 149.933 114.581C149.336 115.06 142.797 115.532 142.211 115.75C141.624 115.968 131.516 116.848 131.516 116.848C131.516 116.848 116.325 110.666 114.863 121.112Z" fill="#E1E7EF"/>
<path opacity="0.1" d="M139.731 119.639C139.62 119.333 141.542 119.479 145.334 118.745C149.127 118.012 155.511 116.258 155.511 116.258C155.511 116.258 140.584 121.955 139.731 119.639Z" fill="black"/>
<path opacity="0.1" d="M125.106 117.53C125.106 117.53 125.286 118.046 123.436 119.164L125.106 117.53Z" fill="black"/>
<path opacity="0.1" d="M128.991 118.28C129.111 118.781 129.039 119.309 128.789 119.759C128.539 120.21 128.129 120.549 127.641 120.71" fill="black"/>
<path opacity="0.1" d="M112.347 129.723L113.823 131.095C113.823 131.095 115.407 131.955 115.576 132.414C115.745 132.872 118.963 132.789 118.963 132.789L122.681 135.139L121.102 132.932C121.729 133.084 122.381 133.093 123.012 132.959C123.643 132.824 124.235 132.55 124.746 132.156C126.557 130.803 130.149 127.284 130.149 127.284L136.633 122.229L136.742 118.971L131.639 118.143L119.763 130.196L117.072 130.577L114.212 130.259L112.347 129.723Z" fill="black"/>
<path d="M112.021 129.485L113.496 130.857C113.496 130.857 115.078 131.717 115.25 132.176C115.421 132.634 118.639 132.551 118.639 132.551L122.358 134.901L120.779 132.694C121.405 132.846 122.057 132.855 122.687 132.721C123.318 132.586 123.91 132.312 124.42 131.918C126.233 130.565 129.826 127.046 129.826 127.046L136.319 122.005L136.427 118.747L131.325 117.919L119.434 129.972L116.743 130.353L113.883 130.035L112.021 129.485Z" fill="#67647E"/>
<path opacity="0.1" d="M115.985 128.769L112.73 130.245C112.586 130.025 112.457 129.796 112.343 129.56C112.343 129.56 109.598 124.422 109.512 123.273C109.475 122.826 109.655 122.052 109.886 121.267L115.985 128.769Z" fill="black"/>
<path d="M115.376 128.577L112.121 130.049C111.978 129.83 111.848 129.602 111.732 129.367C111.732 129.367 108.989 124.226 108.903 123.08C108.866 122.633 109.046 121.859 109.275 121.074L115.376 128.577Z" fill="#E1E7EF"/>
<path d="M109.014 124.052C108.879 124.229 108.707 124.373 108.511 124.476C108.004 124.708 107.415 124.476 106.86 124.502C106.305 124.528 105.745 124.832 105.17 124.877C104.764 124.883 104.36 124.833 103.968 124.728C103.21 124.571 102.387 124.482 101.68 124.826C100.974 125.17 100.536 126.098 100.948 126.754C100.499 127.388 99.6264 127.591 98.857 127.485C97.055 127.23 95.5448 125.677 93.7085 126.88C92.9105 127.411 92.962 128.23 92.9791 129.024C92.9276 128.881 92.8819 128.737 92.8361 128.591C92.7303 128.24 92.6481 127.882 92.5901 127.52C92.2545 125.391 92.7476 123.214 93.9678 121.439C95.1879 119.664 97.0418 118.426 99.1467 117.981C101.252 117.536 103.447 117.918 105.279 119.048C107.111 120.177 108.44 121.969 108.991 124.052H109.014Z" fill="url(#paint1_linear_377:8927)"/>
<path d="M92.2906 130.532C91.9038 130.751 91.4786 130.895 91.0378 130.956C90.548 131.095 90.0261 131.072 89.5505 130.89C89.1829 130.679 88.893 130.356 88.7239 129.967C87.6656 127.864 88.4836 125.307 88.0345 122.995C87.8457 122.02 87.431 121.017 87.7256 120.072C88.0202 119.126 89.007 118.493 89.8394 117.88C91.0874 116.959 92.1542 115.814 92.9857 114.504C93.429 113.805 93.8266 113.034 94.5131 112.578C95.3197 112.039 96.3666 112.039 97.3248 112.186C98.283 112.332 99.2326 112.604 100.202 112.547C100.803 112.512 101.392 112.349 101.993 112.292C102.693 112.249 103.396 112.28 104.089 112.383C104.913 112.475 105.766 112.578 106.475 113.008C107.725 113.764 108.211 115.3 108.537 116.733C108.863 118.166 109.192 119.708 110.296 120.662C110.478 120.779 110.616 120.952 110.691 121.155C110.697 121.274 110.677 121.394 110.635 121.505C110.592 121.617 110.526 121.718 110.442 121.803L109.138 123.539C108.968 123.808 108.736 124.03 108.46 124.187C107.956 124.422 107.364 124.187 106.81 124.21C106.255 124.233 105.697 124.545 105.119 124.588C104.714 124.596 104.309 124.545 103.918 124.439C103.16 124.281 102.336 124.193 101.644 124.537C100.952 124.88 100.5 125.809 100.912 126.465C100.46 127.098 99.5873 127.305 98.8207 127.196C97.0159 126.944 95.5056 125.388 93.6722 126.591C92.1848 127.588 93.7036 129.635 92.2906 130.532Z" fill="#585268"/>
<g opacity="0.1">
<path opacity="0.1" d="M108.093 115.87C108.345 116.962 108.597 118.128 109.197 119.043C108.919 118.297 108.701 117.53 108.545 116.75C108.369 115.81 108.032 114.908 107.55 114.082C107.78 114.662 107.962 115.26 108.093 115.87Z" fill="black"/>
<path opacity="0.1" d="M110.301 120.667L110.213 120.584C110.158 120.713 110.086 120.833 109.998 120.942L108.694 122.679C108.524 122.947 108.291 123.169 108.016 123.326C107.513 123.561 106.92 123.326 106.366 123.349C105.811 123.372 105.253 123.685 104.675 123.728C104.27 123.735 103.865 123.685 103.474 123.579C102.716 123.421 101.892 123.332 101.186 123.676C100.479 124.02 100.041 124.948 100.453 125.605C100.001 126.238 99.1319 126.444 98.3624 126.335C96.5605 126.083 95.0502 124.527 93.2139 125.731C91.7123 126.722 93.2311 128.768 91.8152 129.665C91.4296 129.886 91.0052 130.03 90.5653 130.089C90.0676 130.184 89.5298 130.25 89.0779 130.024C88.8483 129.902 88.652 129.726 88.5059 129.511C88.5626 129.666 88.6285 129.818 88.7032 129.966C88.8724 130.355 89.1623 130.679 89.5298 130.889C90.0055 131.071 90.5273 131.094 91.0172 130.955C91.4579 130.895 91.8831 130.751 92.27 130.531C93.683 129.634 92.1642 127.588 93.6687 126.596C95.4907 125.393 97.0009 126.949 98.8172 127.201C99.5838 127.31 100.456 127.103 100.908 126.47C100.496 125.814 100.945 124.885 101.64 124.541C102.335 124.198 103.156 124.286 103.914 124.444C104.306 124.55 104.71 124.601 105.116 124.593C105.688 124.55 106.228 124.241 106.806 124.215C107.384 124.189 107.95 124.427 108.456 124.192C108.732 124.035 108.965 123.813 109.134 123.544L110.439 121.808C110.523 121.723 110.588 121.622 110.631 121.51C110.674 121.399 110.693 121.279 110.687 121.16C110.615 120.958 110.48 120.786 110.301 120.667Z" fill="black"/>
</g>
<path opacity="0.1" d="M177.138 116.876C177.138 116.876 179.372 120.888 178.897 121.553C178.422 122.218 177.138 116.876 177.138 116.876Z" fill="black"/>
<path opacity="0.1" d="M184.483 115.701C184.483 115.701 185.891 118.169 185.605 118.659L184.483 115.701Z" fill="black"/>
<path opacity="0.1" d="M192.915 109.996C192.915 109.996 194.543 111.142 193.939 111.887L192.915 109.996Z" fill="black"/>
<path opacity="0.1" d="M194.555 109.368C194.555 109.368 196.623 111.901 195.936 112.592L194.555 109.368Z" fill="black"/>
<path opacity="0.1" d="M222.991 102.425C222.991 102.425 223.306 106.663 224.55 106.302C225.794 105.941 222.991 102.425 222.991 102.425Z" fill="black"/>
<path d="M212.823 207.179C212.823 207.179 214.56 201.273 212.497 196.926C211.619 195.107 211.355 193.051 211.745 191.069C211.936 190.13 212.213 189.211 212.572 188.323" stroke="#535461" stroke-width="2" stroke-miterlimit="10"/>
<path d="M211.287 185.581C211.287 186.303 212.597 188.404 212.597 188.404C212.597 188.404 213.904 186.303 213.904 185.581C213.889 185.244 213.744 184.926 213.5 184.693C213.256 184.46 212.933 184.33 212.596 184.33C212.259 184.33 211.935 184.46 211.691 184.693C211.448 184.926 211.303 185.244 211.287 185.581Z" fill="#A3CC4A"/>
<path d="M209.124 189.59C209.519 190.198 211.756 191.247 211.756 191.247C211.756 191.247 211.713 188.774 211.321 188.166C211.131 187.874 210.834 187.67 210.494 187.598C210.154 187.526 209.799 187.592 209.508 187.782C209.216 187.972 209.012 188.27 208.94 188.611C208.869 188.952 208.935 189.307 209.124 189.599V189.59Z" fill="#A3CC4A"/>
<path d="M209.219 196.442C209.865 196.769 212.325 196.542 212.325 196.542C212.325 196.542 211.044 194.427 210.397 194.101C210.09 193.963 209.741 193.949 209.424 194.062C209.106 194.175 208.845 194.406 208.693 194.708C208.541 195.009 208.511 195.358 208.609 195.68C208.707 196.003 208.926 196.276 209.219 196.442Z" fill="#A3CC4A"/>
<path d="M210.457 201.608C211.03 202.038 213.501 202.233 213.501 202.233C213.501 202.233 212.594 199.941 212.013 199.502C211.735 199.295 211.385 199.208 211.042 199.259C210.699 199.311 210.391 199.497 210.184 199.776C209.978 200.055 209.891 200.405 209.942 200.749C209.993 201.093 210.179 201.402 210.457 201.608Z" fill="#A3CC4A"/>
<path d="M214.496 191.387C213.979 191.891 211.564 192.413 211.564 192.413C211.564 192.413 212.154 190.011 212.674 189.507C212.923 189.265 213.258 189.132 213.604 189.137C213.951 189.142 214.282 189.285 214.523 189.534C214.765 189.783 214.898 190.119 214.893 190.466C214.888 190.814 214.745 191.145 214.496 191.387Z" fill="#A3CC4A"/>
<path d="M215.872 197.451C215.225 197.775 212.766 197.551 212.766 197.551C212.766 197.551 214.047 195.436 214.693 195.109C215.001 194.972 215.35 194.958 215.667 195.071C215.984 195.184 216.246 195.415 216.398 195.717C216.55 196.018 216.579 196.366 216.482 196.689C216.384 197.012 216.165 197.285 215.872 197.451Z" fill="#A3CC4A"/>
<path d="M216.396 203.526C215.824 203.956 213.353 204.151 213.353 204.151C213.353 204.151 214.259 201.858 214.84 201.417C214.977 201.306 215.136 201.224 215.306 201.176C215.476 201.128 215.654 201.115 215.829 201.138C216.004 201.16 216.173 201.218 216.325 201.308C216.477 201.397 216.61 201.517 216.715 201.659C216.82 201.802 216.895 201.964 216.936 202.136C216.977 202.308 216.982 202.486 216.953 202.661C216.923 202.835 216.858 203.002 216.762 203.15C216.667 203.299 216.542 203.427 216.396 203.526Z" fill="#A3CC4A"/>
<path d="M255.202 201.165C255.202 201.165 256.938 195.258 254.876 190.911C253.998 189.091 253.734 187.034 254.123 185.051C254.314 184.111 254.591 183.191 254.95 182.303" stroke="#535461" stroke-width="2" stroke-miterlimit="10"/>
<path d="M253.665 179.566C253.665 180.288 254.976 182.389 254.976 182.389C254.976 182.389 256.283 180.288 256.283 179.566C256.291 179.389 256.263 179.212 256.201 179.045C256.139 178.879 256.044 178.727 255.922 178.599C255.799 178.47 255.652 178.368 255.49 178.298C255.327 178.228 255.151 178.192 254.974 178.192C254.797 178.192 254.622 178.228 254.459 178.298C254.296 178.368 254.149 178.47 254.026 178.599C253.904 178.727 253.809 178.879 253.747 179.045C253.685 179.212 253.657 179.389 253.665 179.566Z" fill="#A3CC4A"/>
<path d="M251.503 183.575C251.898 184.182 254.135 185.231 254.135 185.231C254.135 185.231 254.095 182.758 253.7 182.15C253.606 182.006 253.485 181.881 253.343 181.784C253.201 181.686 253.041 181.618 252.873 181.582C252.704 181.546 252.531 181.544 252.361 181.576C252.192 181.608 252.031 181.672 251.887 181.766C251.742 181.86 251.618 181.982 251.521 182.124C251.423 182.267 251.355 182.427 251.319 182.595C251.284 182.764 251.282 182.938 251.313 183.108C251.345 183.277 251.409 183.439 251.503 183.583V183.575Z" fill="#A3CC4A"/>
<path d="M251.6 190.424C252.243 190.75 254.703 190.527 254.703 190.527C254.703 190.527 253.422 188.409 252.775 188.085C252.622 188.002 252.453 187.951 252.279 187.935C252.105 187.918 251.93 187.937 251.763 187.989C251.596 188.042 251.442 188.127 251.309 188.241C251.176 188.354 251.067 188.493 250.988 188.649C250.91 188.805 250.863 188.976 250.852 189.151C250.84 189.325 250.863 189.5 250.92 189.666C250.977 189.831 251.067 189.983 251.183 190.114C251.3 190.244 251.442 190.349 251.6 190.424Z" fill="#A3CC4A"/>
<path d="M252.825 195.594C253.397 196.024 255.868 196.218 255.868 196.218C255.868 196.218 254.961 193.926 254.381 193.485C254.101 193.295 253.758 193.22 253.425 193.278C253.092 193.335 252.793 193.519 252.592 193.791C252.392 194.064 252.303 194.403 252.347 194.739C252.39 195.075 252.561 195.381 252.825 195.594Z" fill="#A3CC4A"/>
<path d="M256.88 185.372C256.362 185.877 253.948 186.398 253.948 186.398C253.948 186.398 254.54 183.997 255.058 183.492C255.307 183.25 255.641 183.117 255.988 183.122C256.335 183.127 256.666 183.27 256.907 183.52C257.149 183.769 257.282 184.104 257.277 184.451C257.272 184.799 257.129 185.13 256.88 185.372Z" fill="#A3CC4A"/>
<path d="M258.259 191.432C257.612 191.759 255.152 191.532 255.152 191.532C255.152 191.532 256.437 189.418 257.08 189.094C257.39 188.937 257.749 188.91 258.078 189.019C258.407 189.127 258.68 189.362 258.836 189.673C258.993 189.983 259.02 190.342 258.911 190.672C258.803 191.002 258.568 191.276 258.259 191.432Z" fill="#A3CC4A"/>
<path d="M258.774 197.508C258.202 197.938 255.73 198.133 255.73 198.133C255.73 198.133 256.637 195.84 257.218 195.402C257.356 195.299 257.513 195.225 257.679 195.183C257.846 195.142 258.019 195.133 258.189 195.159C258.359 195.184 258.522 195.243 258.669 195.332C258.816 195.42 258.945 195.537 259.047 195.675C259.149 195.814 259.223 195.971 259.265 196.138C259.306 196.305 259.315 196.478 259.289 196.648C259.264 196.818 259.205 196.982 259.117 197.129C259.028 197.277 258.912 197.405 258.774 197.508Z" fill="#A3CC4A"/>
<path d="M221.819 200.591C221.819 200.591 223.555 194.685 221.493 190.338C220.615 188.518 220.351 186.461 220.741 184.478C220.931 183.539 221.208 182.62 221.567 181.732" stroke="#535461" stroke-width="2" stroke-miterlimit="10"/>
<path d="M220.283 178.992C220.283 179.715 221.593 181.815 221.593 181.815C221.593 181.815 222.9 179.715 222.9 178.992C222.885 178.655 222.74 178.337 222.496 178.104C222.253 177.871 221.929 177.741 221.592 177.741C221.255 177.741 220.931 177.871 220.687 178.104C220.444 178.337 220.299 178.655 220.283 178.992Z" fill="#A3CC4A"/>
<path d="M218.12 183.001C218.515 183.609 220.752 184.658 220.752 184.658C220.752 184.658 220.712 182.185 220.317 181.577C220.128 181.285 219.83 181.081 219.49 181.009C219.15 180.937 218.795 181.003 218.504 181.193C218.212 181.383 218.008 181.681 217.937 182.022C217.865 182.363 217.931 182.718 218.12 183.01V183.001Z" fill="#A3CC4A"/>
<path d="M218.215 189.854C218.859 190.181 221.319 189.954 221.319 189.954C221.319 189.954 220.037 187.84 219.391 187.513C219.237 187.435 219.07 187.389 218.899 187.377C218.728 187.364 218.556 187.385 218.392 187.439C218.229 187.493 218.079 187.579 217.949 187.691C217.818 187.804 217.712 187.941 217.635 188.095C217.557 188.248 217.511 188.416 217.499 188.587C217.486 188.759 217.507 188.931 217.561 189.095C217.615 189.258 217.701 189.409 217.813 189.54C217.925 189.67 218.062 189.777 218.215 189.854Z" fill="#A3CC4A"/>
<path d="M219.454 195.021C220.026 195.45 222.497 195.645 222.497 195.645C222.497 195.645 221.59 193.353 221.01 192.914C220.872 192.812 220.715 192.738 220.548 192.696C220.381 192.655 220.208 192.646 220.038 192.672C219.869 192.697 219.705 192.756 219.558 192.844C219.411 192.933 219.283 193.05 219.18 193.188C219.078 193.326 219.004 193.483 218.963 193.65C218.921 193.817 218.913 193.991 218.938 194.161C218.964 194.331 219.022 194.495 219.111 194.642C219.199 194.79 219.316 194.918 219.454 195.021Z" fill="#A3CC4A"/>
<path d="M223.498 184.799C222.98 185.303 220.566 185.825 220.566 185.825C220.566 185.825 221.158 183.423 221.676 182.919C221.925 182.677 222.26 182.544 222.606 182.549C222.953 182.554 223.284 182.697 223.525 182.946C223.767 183.196 223.9 183.531 223.895 183.878C223.89 184.226 223.747 184.557 223.498 184.799Z" fill="#A3CC4A"/>
<path d="M224.868 190.863C224.222 191.187 221.762 190.963 221.762 190.963C221.762 190.963 223.046 188.848 223.69 188.522C223.997 188.384 224.346 188.37 224.663 188.483C224.981 188.596 225.242 188.827 225.394 189.129C225.546 189.43 225.576 189.778 225.478 190.101C225.38 190.424 225.161 190.697 224.868 190.863Z" fill="#A3CC4A"/>
<path d="M225.391 196.937C224.819 197.367 222.348 197.562 222.348 197.562C222.348 197.562 223.254 195.269 223.835 194.828C223.973 194.717 224.131 194.635 224.301 194.587C224.471 194.539 224.649 194.526 224.824 194.549C224.999 194.572 225.168 194.629 225.32 194.719C225.472 194.809 225.605 194.928 225.71 195.07C225.815 195.213 225.89 195.375 225.931 195.547C225.972 195.719 225.977 195.898 225.948 196.072C225.918 196.246 225.853 196.413 225.758 196.562C225.662 196.71 225.537 196.838 225.391 196.937Z" fill="#A3CC4A"/>
<path d="M251.966 206.876C251.966 207.128 251.966 207.377 251.966 207.621L252.052 207.549C253.047 206.711 254.029 205.858 254.995 204.99L255.081 204.913C258.234 202.087 261.242 199.103 264.094 195.972C261.042 190.653 253.894 190.625 252.61 190.665H252.41C252.41 190.665 251.949 200.239 251.966 206.876Z" fill="#EFEFEF"/>
<path opacity="0.1" d="M251.966 206.876C251.966 207.128 251.966 207.377 251.966 207.621L252.052 207.549C253.047 206.711 254.029 205.858 254.995 204.99L255.081 204.913C258.234 202.087 261.242 199.103 264.094 195.972C261.042 190.653 253.894 190.625 252.61 190.665H252.41C252.41 190.665 251.949 200.239 251.966 206.876Z" fill="white"/>
<path d="M221.498 196.665L221.738 198.253L224.187 214.384L224.988 219.674L225.768 224.815C227.221 224.087 228.658 223.334 230.079 222.557L230.145 222.522L230.465 222.345L231.297 221.883C232.977 220.943 234.632 219.971 236.26 218.966L237.261 218.344C238.108 217.811 238.946 217.27 239.775 216.719C241.43 215.629 243.057 214.501 244.655 213.338L245.227 212.914L245.688 212.573C247.839 210.979 249.93 209.328 251.963 207.618L252.049 207.546C253.044 206.708 254.025 205.855 254.992 204.987L253.562 197.608C253.276 196.114 253.039 194.615 252.853 193.109C252.75 192.295 252.664 191.479 252.595 190.662C252.575 190.467 252.558 190.269 252.544 190.074C252.052 183.922 250.541 171.141 246.305 168.135C245.902 167.83 245.433 167.626 244.936 167.537C244.439 167.449 243.928 167.48 243.445 167.628C243.025 167.746 242.611 167.887 242.207 168.052C239.235 169.244 236.423 171.611 234.092 174.07C230.749 177.614 228.04 181.709 226.083 186.174L221.793 195.863L221.778 195.895L221.738 195.983L221.498 196.665Z" fill="#EFEFEF"/>
<path opacity="0.1" d="M231.944 213.203L236.918 196.158C236.918 196.158 241.575 208.695 245.239 212.917L245.7 212.576L239.095 196.227C239.095 196.227 236.933 186.911 238.663 183.518C240.036 180.824 244.544 171.768 246.343 168.135C245.94 167.83 245.471 167.626 244.974 167.537C244.477 167.449 243.966 167.48 243.483 167.628C243.062 167.746 242.649 167.887 242.244 168.052C239.956 171.685 235.723 178.941 235.408 183.443C235.164 187.381 235.333 191.333 235.912 195.235L231.944 213.203Z" fill="white"/>
<path d="M209.248 231.818C211.327 231.087 213.381 230.313 215.412 229.497C218.947 228.066 222.4 226.506 225.769 224.818C227.222 224.09 228.659 223.337 230.08 222.559L230.145 222.525L229.979 221.473L229.799 220.327L229.207 216.527C229.207 216.527 226.453 204.594 223.541 198.574C223.109 197.597 222.539 196.687 221.85 195.871C221.808 195.823 221.762 195.78 221.716 195.737C221.12 195.359 220.416 195.188 219.714 195.25C218.788 195.354 217.922 195.762 217.251 196.41C215.821 197.685 214.262 200.239 212.924 205.125C210.861 212.616 209.789 223.691 209.248 231.818Z" fill="#EFEFEF"/>
<path opacity="0.1" d="M215.412 229.497C218.947 228.067 222.4 226.507 225.769 224.818C227.222 224.09 228.659 223.337 230.08 222.56C230.065 222.204 230.031 221.843 229.98 221.474C229.98 221.474 229.616 219.468 225.775 219.62C225.512 219.62 225.249 219.651 224.988 219.683C222.977 219.934 221.075 220.742 219.496 222.015C217.916 223.288 216.721 224.975 216.044 226.89C215.733 227.731 215.521 228.607 215.412 229.497Z" fill="white"/>
<path opacity="0.1" d="M220.486 201.359C220.615 197.955 218.77 196.789 217.245 196.399C217.915 195.75 218.781 195.342 219.708 195.238C220.769 196.128 221.521 197.332 221.856 198.677L225.749 217.671C225.749 217.671 220.268 207.065 220.486 201.359Z" fill="white"/>
<path d="M237.325 217.51L236.261 218.969L237.262 218.347C238.108 217.814 238.947 217.272 239.776 216.722L238.149 216.381L237.325 217.51Z" fill="#EFEFEF"/>
<path opacity="0.1" d="M237.262 218.347C238.108 217.814 238.946 217.272 239.776 216.722C241.431 215.631 243.058 214.504 244.656 213.341C243.531 212.538 242.462 211.982 241.718 212.048C241.718 212.048 237.905 212.309 237.325 217.51C237.296 217.777 237.273 218.055 237.262 218.347Z" fill="white"/>
<path opacity="0.1" d="M221.71 195.726L221.796 195.989L229.805 220.325L230.471 222.348L231.303 221.886C230.302 213.673 227.664 205.744 223.546 198.571C222.723 197.167 222.096 196.259 221.83 195.9C221.767 195.809 221.727 195.754 221.71 195.734V195.726Z" fill="black"/>
<path opacity="0.1" d="M251.967 206.875C251.992 207.099 252.024 207.322 252.055 207.549C253.051 206.71 254.032 205.857 254.998 204.99L255.084 204.912L252.87 193.112L252.413 190.673C251.427 196.018 251.276 201.484 251.967 206.875Z" fill="black"/>
<path d="M147.4 21.4208H151.05C150.387 21.3985 149.758 21.119 149.297 20.6413C148.836 20.1635 148.578 19.5249 148.578 18.8603C148.578 18.1957 148.836 17.557 149.297 17.0793C149.758 16.6015 150.387 16.322 151.05 16.2998H180.614C181.277 16.322 181.905 16.6015 182.366 17.0793C182.827 17.557 183.085 18.1957 183.085 18.8603C183.085 19.5249 182.827 20.1635 182.366 20.6413C181.905 21.119 181.277 21.3985 180.614 21.4208H176.964C177.641 21.4208 178.291 21.6904 178.77 22.1703C179.249 22.6502 179.518 23.3011 179.518 23.9798C179.518 24.6585 179.249 25.3094 178.77 25.7893C178.291 26.2692 177.641 26.5389 176.964 26.5389H182.072C182.735 26.5611 183.364 26.8406 183.825 27.3183C184.286 27.7961 184.544 28.4347 184.544 29.0993C184.544 29.764 184.286 30.4026 183.825 30.8803C183.364 31.3581 182.735 31.6376 182.072 31.6598H152.508C151.845 31.6376 151.217 31.3581 150.756 30.8803C150.295 30.4026 150.037 29.764 150.037 29.0993C150.037 28.4347 150.295 27.7961 150.756 27.3183C151.217 26.8406 151.845 26.5611 152.508 26.5389H147.4C146.723 26.5389 146.073 26.2692 145.594 25.7893C145.115 25.3094 144.846 24.6585 144.846 23.9798C144.846 23.3011 145.115 22.6502 145.594 22.1703C146.073 21.6904 146.723 21.4208 147.4 21.4208Z" fill="#EFF3F2"/>
<path d="M189.541 60.6435H193.19C192.513 60.6435 191.863 60.3739 191.384 59.894C190.905 59.414 190.636 58.7631 190.636 58.0844C190.636 57.4057 190.905 56.7548 191.384 56.2749C191.863 55.795 192.513 55.5254 193.19 55.5254H222.754C223.432 55.5254 224.081 55.795 224.56 56.2749C225.039 56.7548 225.309 57.4057 225.309 58.0844C225.309 58.7631 225.039 59.414 224.56 59.894C224.081 60.3739 223.432 60.6435 222.754 60.6435H219.105C219.782 60.6435 220.432 60.9131 220.911 61.393C221.39 61.8729 221.659 62.5238 221.659 63.2025C221.659 63.8812 221.39 64.5321 220.911 65.012C220.432 65.492 219.782 65.7616 219.105 65.7616H224.222C224.885 65.7838 225.513 66.0633 225.974 66.5411C226.435 67.0188 226.693 67.6574 226.693 68.322C226.693 68.9867 226.435 69.6253 225.974 70.103C225.513 70.5808 224.885 70.8603 224.222 70.8825H194.649C193.986 70.8603 193.358 70.5808 192.896 70.103C192.435 69.6253 192.177 68.9867 192.177 68.322C192.177 67.6574 192.435 67.0188 192.896 66.5411C193.358 66.0633 193.986 65.7838 194.649 65.7616H189.541C188.863 65.7616 188.213 65.492 187.734 65.012C187.255 64.5321 186.986 63.8812 186.986 63.2025C186.986 62.5238 187.255 61.8729 187.734 61.393C188.213 60.9131 188.863 60.6435 189.541 60.6435Z" fill="#EFF3F2"/>
<path d="M146.707 183.126H148.423C148.102 183.126 147.795 182.998 147.568 182.77C147.341 182.543 147.213 182.235 147.213 181.913C147.213 181.592 147.341 181.284 147.568 181.056C147.795 180.829 148.102 180.701 148.423 180.701H162.439C162.759 180.701 163.067 180.829 163.294 181.056C163.521 181.284 163.648 181.592 163.648 181.913C163.648 182.235 163.521 182.543 163.294 182.77C163.067 182.998 162.759 183.126 162.439 183.126H160.722C161.043 183.126 161.351 183.253 161.578 183.481C161.805 183.708 161.932 184.016 161.932 184.338C161.932 184.659 161.805 184.968 161.578 185.195C161.351 185.422 161.043 185.55 160.722 185.55H163.139C163.46 185.55 163.768 185.678 163.995 185.905C164.222 186.132 164.349 186.441 164.349 186.762C164.349 187.084 164.222 187.392 163.995 187.619C163.768 187.847 163.46 187.974 163.139 187.974H149.127C148.806 187.974 148.498 187.847 148.271 187.619C148.044 187.392 147.917 187.084 147.917 186.762C147.917 186.441 148.044 186.132 148.271 185.905C148.498 185.678 148.806 185.55 149.127 185.55H146.707C146.386 185.55 146.078 185.422 145.851 185.195C145.625 184.968 145.497 184.659 145.497 184.338C145.497 184.016 145.625 183.708 145.851 183.481C146.078 183.253 146.386 183.126 146.707 183.126Z" fill="#EFF3F2"/>
<path d="M108.176 203.726H109.555C109.308 203.713 109.076 203.605 108.906 203.425C108.736 203.245 108.641 203.007 108.641 202.759C108.641 202.511 108.736 202.273 108.906 202.093C109.076 201.913 109.308 201.805 109.555 201.792H120.727C120.974 201.805 121.207 201.913 121.377 202.093C121.547 202.273 121.641 202.511 121.641 202.759C121.641 203.007 121.547 203.245 121.377 203.425C121.207 203.605 120.974 203.713 120.727 203.726H119.349C119.596 203.74 119.828 203.848 119.998 204.027C120.168 204.207 120.263 204.446 120.263 204.693C120.263 204.941 120.168 205.18 119.998 205.36C119.828 205.539 119.596 205.647 119.349 205.661H121.279C121.526 205.674 121.759 205.782 121.929 205.962C122.099 206.142 122.194 206.38 122.194 206.628C122.194 206.876 122.099 207.114 121.929 207.294C121.759 207.474 121.526 207.582 121.279 207.595H110.096C109.964 207.602 109.833 207.582 109.71 207.537C109.586 207.492 109.474 207.422 109.378 207.331C109.283 207.241 109.207 207.132 109.155 207.011C109.103 206.89 109.076 206.759 109.076 206.628C109.076 206.496 109.103 206.366 109.155 206.245C109.207 206.124 109.283 206.015 109.378 205.925C109.474 205.834 109.586 205.764 109.71 205.719C109.833 205.673 109.964 205.653 110.096 205.661H108.165C108.034 205.668 107.902 205.648 107.779 205.603C107.656 205.557 107.543 205.487 107.448 205.397C107.352 205.306 107.276 205.197 107.224 205.076C107.172 204.955 107.146 204.825 107.146 204.693C107.146 204.562 107.172 204.432 107.224 204.311C107.276 204.19 107.352 204.081 107.448 203.99C107.543 203.9 107.656 203.83 107.779 203.784C107.902 203.739 108.034 203.719 108.165 203.726H108.176Z" fill="#EFF3F2"/>
<path d="M60.9501 167.676H62.6806C62.3597 167.676 62.052 167.549 61.8251 167.321C61.5982 167.094 61.4707 166.786 61.4707 166.464C61.4707 166.143 61.5982 165.834 61.8251 165.607C62.052 165.38 62.3597 165.252 62.6806 165.252H76.676C76.9969 165.252 77.3047 165.38 77.5316 165.607C77.7585 165.834 77.8859 166.143 77.8859 166.464C77.8859 166.786 77.7585 167.094 77.5316 167.321C77.3047 167.549 76.9969 167.676 76.676 167.676H74.9599C75.2807 167.676 75.5885 167.804 75.8154 168.031C76.0423 168.259 76.1698 168.567 76.1698 168.888C76.1698 169.21 76.0423 169.518 75.8154 169.746C75.5885 169.973 75.2807 170.101 74.9599 170.101H77.3797C77.7006 170.101 78.0083 170.228 78.2352 170.456C78.4621 170.683 78.5896 170.991 78.5896 171.313C78.5896 171.634 78.4621 171.943 78.2352 172.17C78.0083 172.397 77.7006 172.525 77.3797 172.525H63.3699C63.0491 172.525 62.7413 172.397 62.5144 172.17C62.2875 171.943 62.16 171.634 62.16 171.313C62.16 170.991 62.2875 170.683 62.5144 170.456C62.7413 170.228 63.0491 170.101 63.3699 170.101H60.9501C60.6292 170.101 60.3215 169.973 60.0946 169.746C59.8677 169.518 59.7402 169.21 59.7402 168.888C59.7402 168.567 59.8677 168.259 60.0946 168.031C60.3215 167.804 60.6292 167.676 60.9501 167.676Z" fill="#EFF3F2"/>
<path d="M183.033 205.569H184.749C184.428 205.569 184.121 205.441 183.894 205.214C183.667 204.987 183.539 204.678 183.539 204.357C183.539 204.035 183.667 203.727 183.894 203.5C184.121 203.272 184.428 203.145 184.749 203.145H198.765C199.086 203.145 199.393 203.272 199.62 203.5C199.847 203.727 199.975 204.035 199.975 204.357C199.975 204.678 199.847 204.987 199.62 205.214C199.393 205.441 199.086 205.569 198.765 205.569H197.049C197.369 205.569 197.677 205.697 197.904 205.924C198.131 206.151 198.258 206.46 198.258 206.781C198.258 207.103 198.131 207.411 197.904 207.638C197.677 207.866 197.369 207.993 197.049 207.993H199.468C199.779 208.008 200.071 208.143 200.286 208.368C200.5 208.593 200.619 208.893 200.619 209.204C200.619 209.515 200.5 209.815 200.286 210.04C200.071 210.265 199.779 210.4 199.468 210.415H185.447C185.284 210.423 185.12 210.397 184.966 210.34C184.813 210.283 184.673 210.195 184.554 210.082C184.435 209.968 184.341 209.832 184.276 209.681C184.212 209.531 184.179 209.368 184.179 209.204C184.179 209.04 184.212 208.877 184.276 208.727C184.341 208.576 184.435 208.439 184.554 208.326C184.673 208.213 184.813 208.125 184.966 208.068C185.12 208.011 185.284 207.985 185.447 207.993H183.033C182.712 207.993 182.405 207.866 182.178 207.638C181.951 207.411 181.823 207.103 181.823 206.781C181.823 206.46 181.951 206.151 182.178 205.924C182.405 205.697 182.712 205.569 183.033 205.569Z" fill="#EFF3F2"/>
<path d="M202.483 88.1912C202.576 88.0141 202.6 87.809 202.552 87.615C202.503 87.4211 202.385 87.2518 202.22 87.1395C202.194 87.1225 202.171 87.1023 202.151 87.0793C202.092 87.0143 202.056 86.9321 202.047 86.8447C202.038 86.7574 202.058 86.6695 202.103 86.5941C202.147 86.5186 202.215 86.4596 202.296 86.4258C202.377 86.3919 202.466 86.3849 202.552 86.4059C202.581 86.4138 202.61 86.4254 202.637 86.4402C202.814 86.5337 203.019 86.5587 203.213 86.5106C203.407 86.4625 203.577 86.3447 203.69 86.1795C203.707 86.1531 203.727 86.129 203.75 86.1078C203.815 86.0496 203.897 86.0138 203.984 86.0057C204.071 85.9976 204.159 86.0175 204.233 86.0627C204.308 86.1079 204.367 86.1758 204.4 86.2567C204.433 86.3375 204.44 86.4269 204.419 86.5119C204.41 86.5415 204.399 86.5702 204.385 86.5979C204.292 86.7749 204.268 86.98 204.316 87.174C204.365 87.368 204.483 87.5373 204.648 87.6496C204.674 87.6672 204.698 87.6874 204.72 87.7097C204.778 87.7751 204.814 87.8573 204.822 87.9444C204.83 88.0316 204.81 88.119 204.765 88.194C204.72 88.2689 204.652 88.3274 204.571 88.361C204.49 88.3945 204.401 88.4013 204.316 88.3803C204.286 88.3736 204.257 88.362 204.231 88.3459C204.053 88.2534 203.848 88.2292 203.654 88.2778C203.46 88.3263 203.291 88.4444 203.178 88.6096C203.162 88.6359 203.143 88.6599 203.121 88.6812C203.056 88.7407 202.973 88.7776 202.886 88.7864C202.798 88.7952 202.71 88.7755 202.634 88.7301C202.559 88.6847 202.5 88.6161 202.467 88.5345C202.433 88.4529 202.427 88.3626 202.449 88.2771C202.458 88.2476 202.469 88.2188 202.483 88.1912Z" fill="#A3CC4A"/>
<path d="M293.063 39.8533C293.156 39.6763 293.181 39.4711 293.133 39.2769C293.084 39.0827 292.965 38.9134 292.8 38.8016C292.775 38.7839 292.752 38.7637 292.731 38.7414C292.672 38.6763 292.635 38.5937 292.626 38.5059C292.617 38.4181 292.637 38.3298 292.682 38.2541C292.728 38.1785 292.796 38.1195 292.878 38.086C292.959 38.0524 293.049 38.0461 293.134 38.068C293.163 38.0765 293.191 38.088 293.217 38.1024C293.394 38.1961 293.6 38.2211 293.794 38.1724C293.988 38.1238 294.158 38.0049 294.27 37.8387C294.288 37.8138 294.308 37.7908 294.33 37.7699C294.395 37.7117 294.477 37.6759 294.564 37.6678C294.651 37.6597 294.738 37.6796 294.813 37.7248C294.888 37.77 294.947 37.8379 294.98 37.9188C295.013 37.9996 295.02 38.089 294.999 38.174C294.992 38.2033 294.981 38.2314 294.965 38.2571C294.873 38.4347 294.848 38.6401 294.897 38.8344C294.945 39.0287 295.063 39.1985 295.228 39.3117C295.254 39.3293 295.278 39.3495 295.3 39.3718C295.358 39.4372 295.393 39.5194 295.402 39.6065C295.41 39.6937 295.39 39.7811 295.345 39.8561C295.3 39.931 295.232 39.9895 295.151 40.0231C295.07 40.0566 294.981 40.0634 294.896 40.0424C294.866 40.0347 294.838 40.0232 294.811 40.008C294.634 39.9157 294.429 39.8916 294.236 39.9402C294.042 39.9887 293.873 40.1067 293.761 40.2717C293.742 40.2968 293.722 40.3208 293.701 40.3433C293.636 40.4028 293.553 40.4397 293.466 40.4485C293.378 40.4573 293.29 40.4376 293.214 40.3922C293.139 40.3468 293.08 40.2782 293.047 40.1966C293.013 40.115 293.007 40.0247 293.029 39.9392C293.038 39.9097 293.049 39.8809 293.063 39.8533Z" fill="white"/>
<path opacity="0.3" d="M294.456 169.685C294.549 169.508 294.573 169.303 294.525 169.109C294.476 168.915 294.358 168.745 294.193 168.633C294.167 168.616 294.144 168.596 294.124 168.573C294.064 168.508 294.027 168.426 294.018 168.338C294.009 168.251 294.028 168.163 294.073 168.087C294.118 168.011 294.187 167.953 294.268 167.919C294.35 167.886 294.44 167.88 294.525 167.902C294.555 167.909 294.584 167.921 294.61 167.937C294.788 168.029 294.993 168.053 295.187 168.005C295.381 167.956 295.55 167.838 295.663 167.673C295.679 167.647 295.698 167.623 295.72 167.601C295.785 167.542 295.868 167.505 295.955 167.496C296.043 167.487 296.131 167.507 296.207 167.553C296.282 167.598 296.341 167.667 296.374 167.748C296.408 167.83 296.414 167.92 296.392 168.005C296.383 168.035 296.372 168.064 296.358 168.091C296.265 168.269 296.241 168.474 296.289 168.668C296.338 168.862 296.456 169.031 296.621 169.143C296.647 169.16 296.67 169.18 296.69 169.203C296.743 169.268 296.775 169.347 296.782 169.431C296.788 169.514 296.769 169.598 296.727 169.67C296.684 169.742 296.62 169.799 296.544 169.834C296.468 169.868 296.383 169.878 296.301 169.862C296.271 169.857 296.242 169.846 296.215 169.831C296.038 169.737 295.833 169.712 295.639 169.761C295.445 169.809 295.275 169.926 295.162 170.092C295.146 170.118 295.125 170.142 295.102 170.163C295.037 170.222 294.955 170.257 294.868 170.265C294.781 170.274 294.694 170.254 294.619 170.208C294.544 170.163 294.486 170.095 294.452 170.014C294.419 169.934 294.412 169.844 294.433 169.759C294.439 169.734 294.447 169.709 294.456 169.685Z" fill="#A3CC4A"/>
<path d="M14.0985 10.8952C14.1915 10.7177 14.216 10.5122 14.1675 10.3177C14.119 10.1232 14.0008 9.95344 13.8354 9.84064C13.8099 9.8237 13.7869 9.80347 13.7667 9.78046C13.7069 9.71591 13.6696 9.63366 13.6604 9.54606C13.6512 9.45846 13.6707 9.37023 13.7158 9.29465C13.761 9.21906 13.8294 9.16019 13.9107 9.12687C13.9921 9.09356 14.0821 9.0876 14.1672 9.1099C14.1971 9.11785 14.2259 9.1294 14.253 9.14428C14.4302 9.23741 14.6353 9.262 14.8294 9.21339C15.0235 9.16477 15.193 9.04634 15.3056 8.88064C15.3232 8.85482 15.3433 8.83082 15.3656 8.809C15.4308 8.75077 15.5129 8.71497 15.5999 8.70685C15.6869 8.69873 15.7741 8.71871 15.8489 8.76387C15.9238 8.80904 15.9822 8.87701 16.0156 8.95784C16.0491 9.03866 16.0559 9.1281 16.0349 9.21306C16.027 9.243 16.0155 9.27187 16.0006 9.29903C15.9077 9.47653 15.8831 9.68208 15.9316 9.87654C15.9802 10.071 16.0984 10.2408 16.2638 10.3536C16.2895 10.3702 16.3135 10.3894 16.3353 10.4109C16.3947 10.476 16.4315 10.5586 16.4403 10.6464C16.4491 10.7342 16.4294 10.8225 16.3841 10.8982C16.3387 10.9738 16.2703 11.0328 16.1888 11.0663C16.1074 11.0999 16.0173 11.1062 15.932 11.0843C15.9021 11.0764 15.8733 11.0648 15.8462 11.05C15.669 10.9568 15.4638 10.9322 15.2697 10.9808C15.0756 11.0295 14.9062 11.1479 14.7936 11.3136C14.7777 11.339 14.7585 11.3621 14.7364 11.3824C14.6715 11.4414 14.5894 11.478 14.5022 11.4867C14.415 11.4955 14.3273 11.476 14.2521 11.4311C14.1768 11.3861 14.1179 11.3181 14.0841 11.2372C14.0502 11.1562 14.0433 11.0664 14.0642 10.9812C14.0721 10.9512 14.0837 10.9224 14.0985 10.8952Z" fill="white"/>
<path d="M0.440942 2.19336C0.533713 2.01629 0.558163 1.81119 0.509627 1.61721C0.461091 1.42323 0.342967 1.25394 0.177795 1.14166C0.152363 1.12472 0.129281 1.10448 0.109149 1.08148C0.0502385 1.01648 0.0137207 0.934252 0.00497326 0.846896C-0.00377423 0.759541 0.01571 0.67168 0.0605591 0.596256C0.105408 0.520832 0.173251 0.461833 0.25409 0.427949C0.33493 0.394065 0.424494 0.387087 0.50959 0.408044C0.539473 0.415998 0.568284 0.427545 0.595398 0.442433C0.772241 0.535837 0.977176 0.560879 1.17124 0.512799C1.36531 0.46472 1.53498 0.346871 1.64799 0.181657C1.66475 0.156016 1.68391 0.132028 1.70519 0.110015C1.76963 0.0523597 1.85062 0.0166242 1.93658 0.00793166C2.02253 -0.000760852 2.10902 0.0180361 2.18366 0.0616275C2.25829 0.105219 2.31723 0.171367 2.35203 0.250587C2.38683 0.329807 2.39569 0.418031 2.37736 0.502612C2.36889 0.531454 2.35739 0.559313 2.34304 0.585717C2.24763 0.764099 2.22172 0.971619 2.27034 1.16805C2.31896 1.36448 2.43864 1.53583 2.60618 1.64888C2.63162 1.66582 2.6547 1.68605 2.67483 1.70906C2.73843 1.77381 2.77857 1.85801 2.78887 1.94827C2.79917 2.03852 2.77903 2.12963 2.73165 2.20709C2.68428 2.28455 2.6124 2.34389 2.52746 2.37568C2.44252 2.40747 2.34941 2.40987 2.26295 2.38249C2.23268 2.37577 2.20369 2.36415 2.17714 2.3481C1.99984 2.25561 1.79487 2.23137 1.60094 2.27994C1.40702 2.32851 1.23755 2.44654 1.12455 2.61175C1.10769 2.63812 1.0875 2.6622 1.06449 2.68339C0.999293 2.74162 0.917205 2.77742 0.830239 2.78554C0.743272 2.79366 0.655996 2.77368 0.581185 2.72851C0.506374 2.68335 0.447957 2.61538 0.414486 2.53455C0.381016 2.45373 0.37425 2.36429 0.395178 2.27933C0.40781 2.24935 0.423126 2.22057 0.440942 2.19336Z" fill="white"/>
<path d="M109.238 65.3947C109.331 65.2176 109.355 65.0125 109.307 64.8186C109.258 64.6246 109.14 64.4553 108.975 64.343C108.949 64.3261 108.926 64.3058 108.906 64.2828C108.847 64.2178 108.811 64.1356 108.802 64.0482C108.793 63.9609 108.813 63.873 108.857 63.7976C108.902 63.7222 108.97 63.6632 109.051 63.6293C109.132 63.5954 109.221 63.5884 109.306 63.6094C109.336 63.6174 109.365 63.6289 109.392 63.6438C109.569 63.7372 109.774 63.7622 109.968 63.7142C110.162 63.6661 110.332 63.5482 110.445 63.383C110.461 63.3567 110.48 63.3326 110.502 63.3114C110.567 63.2519 110.65 63.215 110.737 63.2061C110.825 63.1973 110.913 63.2171 110.988 63.2625C111.064 63.3079 111.123 63.3765 111.156 63.4581C111.19 63.5397 111.196 63.6299 111.174 63.7154C111.166 63.7443 111.154 63.7721 111.14 63.7985C111.047 63.976 111.022 64.1816 111.071 64.376C111.119 64.5705 111.238 64.7403 111.403 64.8531C111.429 64.87 111.452 64.8903 111.472 64.9133C111.532 64.9778 111.569 65.0601 111.578 65.1477C111.587 65.2353 111.568 65.3235 111.523 65.3991C111.477 65.4747 111.409 65.5336 111.328 65.5669C111.246 65.6002 111.156 65.6061 111.071 65.5838C111.041 65.5771 111.012 65.5655 110.985 65.5495C110.808 65.457 110.603 65.4327 110.409 65.4813C110.215 65.5299 110.046 65.6479 109.933 65.8131C109.916 65.8395 109.896 65.8635 109.873 65.8847C109.808 65.943 109.726 65.9788 109.639 65.9869C109.552 65.995 109.464 65.975 109.389 65.9299C109.315 65.8847 109.256 65.8167 109.223 65.7359C109.189 65.6551 109.183 65.5656 109.203 65.4807C109.212 65.4511 109.224 65.4223 109.238 65.3947Z" fill="#A3CC4A"/>
<path d="M58.7909 99.0636C58.8837 98.8866 58.9081 98.6815 58.8596 98.4875C58.8111 98.2935 58.6929 98.1242 58.5278 98.0119C58.5023 97.995 58.4792 97.9748 58.4591 97.9518C58.3993 97.8872 58.362 97.805 58.3528 97.7174C58.3436 97.6298 58.3631 97.5415 58.4082 97.466C58.4533 97.3904 58.5217 97.3315 58.6031 97.2982C58.6845 97.2649 58.7745 97.2589 58.8596 97.2812C58.8898 97.2879 58.9188 97.2995 58.9454 97.3156C59.1227 97.4081 59.3276 97.4323 59.5216 97.3838C59.7155 97.3352 59.885 97.2172 59.998 97.052C60.0147 97.0263 60.0339 97.0023 60.0552 96.9803C60.1202 96.9208 60.2026 96.8839 60.2902 96.8751C60.3779 96.8663 60.466 96.8861 60.5415 96.9314C60.617 96.9768 60.6759 97.0454 60.7094 97.127C60.7429 97.2086 60.7491 97.2989 60.7273 97.3844C60.7184 97.414 60.7069 97.4427 60.693 97.4703C60.6002 97.6474 60.5758 97.8525 60.6243 98.0465C60.6729 98.2405 60.791 98.4097 60.9562 98.522C60.9816 98.539 61.0047 98.5592 61.0248 98.5822C61.0846 98.6468 61.1219 98.729 61.1311 98.8166C61.1403 98.9042 61.1208 98.9924 61.0757 99.068C61.0306 99.1436 60.9622 99.2025 60.8808 99.2358C60.7994 99.2691 60.7094 99.2751 60.6244 99.2528C60.5941 99.2461 60.5651 99.2344 60.5385 99.2184C60.3612 99.1259 60.1563 99.1017 59.9623 99.1502C59.7684 99.1988 59.599 99.3168 59.486 99.482C59.4692 99.5077 59.45 99.5317 59.4288 99.5537C59.3637 99.6132 59.2813 99.6501 59.1937 99.6589C59.106 99.6677 59.0179 99.6479 58.9424 99.6025C58.8669 99.5571 58.808 99.4885 58.7745 99.4069C58.7411 99.3253 58.7348 99.2351 58.7566 99.1496C58.7655 99.12 58.777 99.0913 58.7909 99.0636Z" fill="#A3CC4A"/>
<path d="M137.734 55.0323C137.806 54.8456 137.807 54.6389 137.736 54.4518C137.665 54.2647 137.528 54.1102 137.351 54.0179C137.323 54.0041 137.297 53.9867 137.274 53.9663C137.207 53.9093 137.16 53.8318 137.14 53.7456C137.12 53.6594 137.129 53.5692 137.166 53.4885C137.202 53.4079 137.263 53.3413 137.341 53.2988C137.418 53.2562 137.507 53.2401 137.594 53.2527C137.625 53.256 137.655 53.2637 137.683 53.2757C137.87 53.3471 138.076 53.3474 138.263 53.2767C138.45 53.2059 138.605 53.069 138.698 52.8917C138.713 52.8642 138.73 52.8383 138.75 52.8143C138.808 52.7486 138.885 52.7032 138.971 52.6848C139.056 52.6665 139.146 52.6762 139.225 52.7124C139.305 52.7487 139.371 52.8096 139.414 52.8862C139.456 52.9628 139.473 53.0511 139.462 53.1381C139.456 53.1684 139.448 53.1982 139.436 53.227C139.365 53.4141 139.366 53.6208 139.437 53.8078C139.508 53.9948 139.645 54.1491 139.822 54.2414C139.849 54.2559 139.874 54.2732 139.897 54.293C139.962 54.3509 140.007 54.4282 140.025 54.5137C140.044 54.5991 140.034 54.6881 139.999 54.7678C139.963 54.8475 139.903 54.9136 139.827 54.9566C139.751 54.9995 139.663 55.017 139.576 55.0065C139.546 55.0019 139.516 54.9943 139.488 54.9836C139.301 54.9117 139.095 54.9111 138.908 54.982C138.722 55.0528 138.567 55.1901 138.475 55.3676C138.46 55.3947 138.443 55.4206 138.424 55.445C138.366 55.5107 138.288 55.5561 138.203 55.5744C138.117 55.5928 138.028 55.5831 137.948 55.5469C137.868 55.5106 137.802 55.4497 137.76 55.3731C137.717 55.2965 137.7 55.2082 137.712 55.1212C137.715 55.0907 137.723 55.0608 137.734 55.0323Z" fill="#A3CC4A"/>
<path d="M266.419 143.565C266.673 143.454 266.878 143.254 266.994 143.002C267.11 142.75 267.129 142.463 267.048 142.198C267.036 142.157 267.028 142.115 267.025 142.072C267.022 141.952 267.057 141.835 267.124 141.736C267.191 141.638 267.287 141.562 267.399 141.521C267.511 141.479 267.633 141.474 267.748 141.506C267.863 141.537 267.965 141.604 268.041 141.696C268.066 141.731 268.087 141.769 268.104 141.808C268.214 142.063 268.414 142.268 268.666 142.385C268.917 142.501 269.203 142.52 269.468 142.439C269.509 142.426 269.551 142.417 269.594 142.413C269.714 142.409 269.832 142.444 269.931 142.511C270.03 142.578 270.106 142.675 270.148 142.788C270.189 142.901 270.194 143.024 270.162 143.139C270.13 143.255 270.062 143.358 269.968 143.433C269.934 143.458 269.896 143.48 269.857 143.496C269.605 143.61 269.403 143.81 269.287 144.062C269.171 144.313 269.15 144.597 269.228 144.863C269.242 144.904 269.251 144.946 269.253 144.989C269.257 145.109 269.223 145.227 269.156 145.327C269.088 145.427 268.992 145.503 268.879 145.544C268.767 145.586 268.644 145.591 268.528 145.558C268.413 145.526 268.31 145.458 268.235 145.365C268.21 145.331 268.189 145.293 268.175 145.253C268.065 144.998 267.865 144.793 267.613 144.677C267.361 144.56 267.076 144.541 266.811 144.622C266.77 144.635 266.728 144.644 266.685 144.648C266.565 144.652 266.447 144.617 266.348 144.55C266.248 144.483 266.172 144.386 266.131 144.273C266.089 144.16 266.084 144.037 266.117 143.922C266.149 143.806 266.216 143.703 266.31 143.628C266.344 143.603 266.38 143.582 266.419 143.565Z" fill="#EFF3F2"/>
<path d="M92.2449 154.419C92.4968 154.306 92.6992 154.105 92.8149 153.854C92.9305 153.603 92.9516 153.318 92.8742 153.052C92.8601 153.013 92.8515 152.971 92.8484 152.929C92.8442 152.809 92.878 152.69 92.9449 152.59C93.0118 152.49 93.1085 152.414 93.2212 152.372C93.334 152.33 93.457 152.325 93.5729 152.357C93.6887 152.389 93.7915 152.457 93.8667 152.551C93.8915 152.586 93.9125 152.623 93.9296 152.663C94.0393 152.918 94.2393 153.123 94.4912 153.24C94.7431 153.356 95.029 153.375 95.294 153.293C95.3337 153.28 95.3751 153.272 95.4169 153.27C95.5362 153.267 95.6533 153.302 95.7519 153.369C95.8505 153.436 95.9257 153.533 95.967 153.645C96.0083 153.757 96.0136 153.879 95.9821 153.994C95.9507 154.109 95.8841 154.212 95.7916 154.287C95.7581 154.313 95.7216 154.334 95.6829 154.351C95.4286 154.461 95.2239 154.661 95.1078 154.914C94.9917 155.166 94.9724 155.452 95.0537 155.717C95.0657 155.759 95.0734 155.801 95.0766 155.844C95.0794 155.963 95.0448 156.08 94.9778 156.179C94.9108 156.278 94.8146 156.353 94.7027 156.395C94.5908 156.436 94.4689 156.441 94.3538 156.41C94.2388 156.378 94.1365 156.312 94.0612 156.219C94.0358 156.184 94.0147 156.147 93.9982 156.107C93.8851 155.855 93.6846 155.652 93.4338 155.536C93.1831 155.42 92.899 155.399 92.6339 155.477C92.593 155.49 92.5508 155.498 92.508 155.503C92.3881 155.506 92.2701 155.472 92.1707 155.405C92.0713 155.337 91.9956 155.24 91.9541 155.128C91.9127 155.015 91.9077 154.892 91.9399 154.776C91.972 154.66 92.0397 154.557 92.1333 154.482C92.1679 154.457 92.2053 154.436 92.2449 154.419Z" fill="#A3CC4A"/>
<path d="M146.688 157.202C146.942 157.092 147.147 156.891 147.263 156.639C147.379 156.387 147.398 156.101 147.317 155.835C147.304 155.794 147.295 155.752 147.291 155.709C147.287 155.589 147.322 155.471 147.389 155.371C147.456 155.272 147.553 155.196 147.665 155.154C147.778 155.113 147.901 155.108 148.016 155.14C148.132 155.172 148.234 155.24 148.309 155.334C148.335 155.369 148.356 155.406 148.372 155.446C148.483 155.7 148.683 155.904 148.935 156.02C149.187 156.136 149.472 156.155 149.737 156.073C149.778 156.061 149.82 156.054 149.862 156.05C149.982 156.048 150.099 156.082 150.197 156.149C150.296 156.216 150.371 156.313 150.412 156.425C150.454 156.537 150.459 156.659 150.428 156.774C150.396 156.89 150.33 156.992 150.237 157.068C150.203 157.093 150.165 157.114 150.126 157.131C149.871 157.241 149.666 157.442 149.55 157.694C149.434 157.946 149.415 158.232 149.496 158.498C149.509 158.539 149.518 158.581 149.522 158.624C149.526 158.744 149.491 158.862 149.424 158.962C149.357 159.061 149.26 159.137 149.148 159.179C149.035 159.22 148.912 159.225 148.797 159.193C148.681 159.161 148.579 159.093 148.504 158.999C148.478 158.965 148.457 158.927 148.441 158.887C148.328 158.635 148.127 158.432 147.876 158.316C147.626 158.2 147.342 158.179 147.077 158.257C147.036 158.271 146.994 158.28 146.951 158.283C146.831 158.286 146.714 158.251 146.616 158.184C146.517 158.117 146.442 158.02 146.401 157.908C146.359 157.796 146.354 157.674 146.385 157.559C146.417 157.443 146.484 157.341 146.576 157.265C146.61 157.24 146.648 157.219 146.688 157.202Z" fill="#A3CC4A"/>
<path d="M34.8582 34.3278C37.4647 34.3278 39.5776 32.2109 39.5776 29.5995C39.5776 26.9881 37.4647 24.8711 34.8582 24.8711C32.2517 24.8711 30.1387 26.9881 30.1387 29.5995C30.1387 32.2109 32.2517 34.3278 34.8582 34.3278Z" fill="white"/>
<path d="M270.198 39.0563C272.804 39.0563 274.917 36.9394 274.917 34.328C274.917 31.7166 272.804 29.5996 270.198 29.5996C267.591 29.5996 265.479 31.7166 265.479 34.328C265.479 36.9394 267.591 39.0563 270.198 39.0563Z" fill="white"/>
<path d="M57.169 8.70313C58.5907 8.70313 59.7433 7.54843 59.7433 6.12403C59.7433 4.69963 58.5907 3.54492 57.169 3.54492C55.7473 3.54492 54.5947 4.69963 54.5947 6.12403C54.5947 7.54843 55.7473 8.70313 57.169 8.70313Z" fill="white"/>
<path d="M303.426 83.7578C304.848 83.7578 306 82.6031 306 81.1787C306 79.7543 304.848 78.5996 303.426 78.5996C302.004 78.5996 300.852 79.7543 300.852 81.1787C300.852 82.6031 302.004 83.7578 303.426 83.7578Z" fill="white"/>
<path d="M39.5782 215.782C40.9999 215.782 42.1524 214.628 42.1524 213.203C42.1524 211.779 40.9999 210.624 39.5782 210.624C38.1564 210.624 37.0039 211.779 37.0039 213.203C37.0039 214.628 38.1564 215.782 39.5782 215.782Z" fill="white"/>
<path d="M49.4463 227.396C50.8681 227.396 52.0206 226.242 52.0206 224.817C52.0206 223.393 50.8681 222.238 49.4463 222.238C48.0246 222.238 46.8721 223.393 46.8721 224.817C46.8721 226.242 48.0246 227.396 49.4463 227.396Z" fill="white"/>
<path d="M30.1387 234.397C31.5604 234.397 32.713 233.243 32.713 231.818C32.713 230.394 31.5604 229.239 30.1387 229.239C28.717 229.239 27.5645 230.394 27.5645 231.818C27.5645 233.243 28.717 234.397 30.1387 234.397Z" fill="white"/>
</g>
<defs>
<linearGradient id="paint0_linear_377:8927" x1="166.898" y1="133.414" x2="161.776" y2="101.354" gradientUnits="userSpaceOnUse">
<stop stop-color="#808080" stop-opacity="0.25"/>
<stop offset="0.54" stop-color="#808080" stop-opacity="0.12"/>
<stop offset="1" stop-color="#808080" stop-opacity="0.1"/>
</linearGradient>
<linearGradient id="paint1_linear_377:8927" x1="6468.79" y1="4970.7" x2="7435.93" y2="4970.7" gradientUnits="userSpaceOnUse">
<stop stop-color="#808080" stop-opacity="0.25"/>
<stop offset="0.54" stop-color="#808080" stop-opacity="0.12"/>
<stop offset="1" stop-color="#808080" stop-opacity="0.1"/>
</linearGradient>
<clipPath id="clip0_377:8927">
<rect width="306" height="240" fill="white"/>
</clipPath>
</defs>
</svg>
