<svg width="20" height="14" viewBox="0 0 20 14" fill="none" xmlns="http://www.w3.org/2000/svg">
<path d="M0 14V12.7612L4.93702 7.76685C6.34759 6.35112 7.05288 5.13858 7.05288 4.12921C7.05288 3.25094 6.7786 2.56929 6.23004 2.08427C5.69455 1.58614 5.04803 1.33708 4.2905 1.33708C2.87993 1.33708 1.85465 1.98595 1.21466 3.28371L0.058774 2.5955C0.489783 1.74345 1.07752 1.10112 1.82199 0.668538C2.56647 0.222845 3.3893 0 4.2905 0C5.38762 0 6.34759 0.373595 7.17043 1.12079C8.00633 1.85487 8.42428 2.85768 8.42428 4.12921C8.42428 4.92884 8.20224 5.69569 7.75817 6.42977C7.3141 7.16386 6.68718 7.93727 5.8774 8.75L1.95913 12.6629H8.71815V14H0Z" fill="white"/>
<path d="M20 9.94944V11.2472H18.2368V14H16.8654V11.2472H9.61659V9.94944L14.7103 0.235954H16.2189L11.1251 9.94944H16.8654V5.74157H18.2368V9.94944H20Z" fill="white"/>
</svg>
