<svg width="16" height="16" viewBox="0 0 16 16" fill="none" xmlns="http://www.w3.org/2000/svg">
<path fill-rule="evenodd" clip-rule="evenodd" d="M11.8569 2.0651C11.8569 0.924577 12.7844 0 13.9284 0C15.0725 0 16 0.924577 16 2.0651C16 3.20562 15.0725 4.1302 13.9284 4.1302C12.7844 4.1302 11.8569 3.20562 11.8569 2.0651ZM14.8371 2.06507C14.8371 1.56476 14.4303 1.15918 13.9284 1.15918C13.4266 1.15918 13.0197 1.56476 13.0197 2.06507C13.0197 2.56537 13.4266 2.97095 13.9284 2.97095C14.4303 2.97095 14.8371 2.56537 14.8371 2.06507ZM10.8222 6.03225C11.0189 5.77921 11.3841 5.73302 11.6379 5.92908C11.8686 6.10732 11.9279 6.42441 11.789 6.6707L11.7414 6.74225L9.47074 9.66372C9.29111 9.89484 8.9711 9.95324 8.72379 9.81268L8.652 9.76452L6.46678 8.0535L4.50493 10.5959C4.32692 10.8265 4.00905 10.8867 3.76153 10.7491L3.68959 10.7018C3.45823 10.5244 3.39789 10.2075 3.53594 9.96073L3.58333 9.88902L5.90364 6.88266C6.08291 6.65038 6.40371 6.59126 6.65162 6.73205L6.72359 6.78031L8.90946 8.49246L10.8222 6.03225ZM10.5789 1.23039C10.5789 0.91028 10.3186 0.650781 9.99745 0.650781H4.36343L4.18186 0.653804C1.66017 0.738258 0 2.58449 0 5.20585V11.452L0.00278075 11.6385C0.0805014 14.2302 1.78152 16 4.36343 16H11.0334L11.2151 15.997C13.7377 15.9128 15.3969 14.0721 15.3969 11.452V6.01226L15.3916 5.93361C15.3531 5.65071 15.1098 5.43265 14.8155 5.43265C14.4944 5.43265 14.234 5.69215 14.234 6.01226V11.452L14.2308 11.6319C14.1606 13.5895 12.938 14.8408 11.0334 14.8408H4.36343L4.19072 14.8374C2.31282 14.7627 1.16281 13.4632 1.16281 11.452V5.20585L1.16602 5.02579C1.23638 3.06621 2.46053 1.81 4.36343 1.81H9.99745L10.0763 1.80471C10.3601 1.76633 10.5789 1.52382 10.5789 1.23039Z" fill="white"/>
</svg>
