<svg width="58" height="24" viewBox="0 0 58 24" fill="none" xmlns="http://www.w3.org/2000/svg">
<path fill-rule="evenodd" clip-rule="evenodd" d="M10.5976 3.09419C9.91782 3.90485 8.8302 4.54424 7.74257 4.4529C7.60662 3.3568 8.1391 2.1922 8.76222 1.47288C9.44199 0.639391 10.6316 0.0456708 11.5946 0C11.7079 1.14177 11.266 2.2607 10.5976 3.09419ZM11.5834 4.66962C10.6252 4.61404 9.75089 4.96002 9.04469 5.23948C8.59024 5.41932 8.20541 5.57161 7.91263 5.57161C7.58407 5.57161 7.18334 5.41118 6.73342 5.23105C6.14388 4.99502 5.46986 4.72517 4.76304 4.73812C3.14294 4.76096 1.63612 5.68579 0.809074 7.15867C-0.890341 10.1044 0.367226 14.466 2.00999 16.8637C2.81438 18.0511 3.77738 19.3528 5.04628 19.3071C5.60452 19.2859 6.00608 19.1141 6.42166 18.9364C6.90011 18.7318 7.39713 18.5193 8.1732 18.5193C8.92237 18.5193 9.39766 18.7263 9.8539 18.925C10.2877 19.1139 10.7043 19.2954 11.3228 19.2843C12.637 19.2614 13.464 18.0968 14.2684 16.9094C15.1365 15.6349 15.518 14.3911 15.5759 14.2024L15.5827 14.1805C15.5813 14.1792 15.5706 14.1742 15.5517 14.1655L15.5516 14.1655L15.5516 14.1655C15.2614 14.0316 13.0435 13.0083 13.0222 10.2643C13.0008 7.96108 14.7814 6.79413 15.0617 6.61044L15.0618 6.6104C15.0788 6.59924 15.0903 6.59171 15.0955 6.58779C13.9625 4.89797 12.1952 4.71529 11.5834 4.66962ZM20.6808 19.1591V1.35889H27.3085C30.73 1.35889 33.1205 3.73377 33.1205 7.20474C33.1205 10.6757 30.6847 13.0734 27.2179 13.0734H23.4225V19.1591H20.6808ZM23.4227 3.68799H26.5836C28.9627 3.68799 30.3223 4.96677 30.3223 7.21605C30.3223 9.46533 28.9627 10.7555 26.5722 10.7555H23.4227V3.68799ZM42.1728 17.0238C41.4478 18.4167 39.8503 19.2959 38.1282 19.2959C35.5791 19.2959 33.8004 17.7659 33.8004 15.4596C33.8004 13.176 35.5225 11.863 38.706 11.6689L42.1275 11.4634V10.4814C42.1275 9.0314 41.1872 8.24358 39.5104 8.24358C38.1282 8.24358 37.1199 8.96289 36.916 10.059H34.4462C34.5255 7.75262 36.6781 6.07422 39.5897 6.07422C42.728 6.07422 44.7673 7.72978 44.7673 10.2988V19.1589H42.2295V17.0238H42.1728ZM38.8646 17.1839C37.4031 17.1839 36.4741 16.476 36.4741 15.3913C36.4741 14.2724 37.3691 13.6216 39.0799 13.5188L42.1275 13.3247V14.3295C42.1275 15.9964 40.7226 17.1839 38.8646 17.1839ZM53.185 19.855C52.086 22.972 50.8285 23.9996 48.1547 23.9996C47.9508 23.9996 47.271 23.9768 47.1124 23.9311V21.796C47.2824 21.8188 47.7015 21.8417 47.9168 21.8417C49.1291 21.8417 49.8088 21.3279 50.228 19.992L50.4773 19.2042L45.8322 6.24512H48.6985L51.9274 16.7608H51.9841L55.213 6.24512H58L53.185 19.855Z" fill="black"/>
</svg>
