<svg width="12" height="14" viewBox="0 0 12 14" fill="none" xmlns="http://www.w3.org/2000/svg">
<path fill-rule="evenodd" clip-rule="evenodd" d="M6.65817 0.550006C6.61419 0.2394 6.33627 0 5.99998 0C5.63312 0 5.33573 0.284906 5.33573 0.636356V11.822L1.13493 7.78138L1.06056 7.71962C0.800915 7.53426 0.431843 7.55407 0.195529 7.77952C-0.064415 8.02752 -0.0652858 8.43043 0.193585 8.67946L5.51889 13.8023C5.5549 13.8385 5.59531 13.8706 5.6393 13.8979C5.89709 14.0582 6.2455 14.0298 6.47115 13.8127L11.8065 8.67942L11.8706 8.60792C12.063 8.3584 12.0408 8.00492 11.8044 7.77948C11.5445 7.53151 11.1239 7.53237 10.865 7.78142L6.66424 11.8232V0.636356L6.65817 0.550006Z" fill="#A3CC4A"/>
</svg>
