<svg width="14" height="16" viewBox="0 0 14 16" fill="none" xmlns="http://www.w3.org/2000/svg">
<path fill-rule="evenodd" clip-rule="evenodd" d="M10.1558 2.82648C11.0567 3.34802 11.7471 4.19225 11.7471 5.36783V9.31822L13.6745 11.5497C14.4089 12.4 13.8201 13.7409 12.7124 13.7409H1.28764C0.179894 13.7409 -0.408866 12.4 0.325536 11.5497L2.25288 9.31822V5.36778C2.25288 4.19222 2.94327 3.348 3.84423 2.82647C4.7352 2.31072 5.88426 2.07031 7 2.07031C8.11573 2.07031 9.2648 2.31072 10.1558 2.82648ZM4.38579 3.80996C3.71312 4.19934 3.35442 4.72151 3.35442 5.36778V9.3899C3.35442 9.62032 3.27202 9.84182 3.12369 10.0136L1.1502 12.2985C1.04528 12.4199 1.12939 12.6115 1.28764 12.6115H12.7124C12.8706 12.6115 12.9547 12.4199 12.8498 12.2985L10.8763 10.0136C10.728 9.84182 10.6456 9.62032 10.6456 9.38991V5.36783C10.6456 4.72153 10.2869 4.19935 9.6142 3.80996C8.93154 3.41479 7.98244 3.19972 7 3.19972C6.01756 3.19972 5.06846 3.41478 4.38579 3.80996Z" fill="white"/>
<path d="M8.46869 1.50588C8.46869 2.33756 7.81112 3.01176 6.99997 3.01176C6.18882 3.01176 5.53125 2.33756 5.53125 1.50588C5.53125 0.674206 6.18882 0 6.99997 0C7.81112 0 8.46869 0.674206 8.46869 1.50588Z" fill="white"/>
<path fill-rule="evenodd" clip-rule="evenodd" d="M3.87891 12.6118H10.1207V13.1765C10.1207 13.9559 9.76767 14.6821 9.17552 15.2025C8.586 15.7206 7.8023 16.0001 6.99963 16.0001C6.20071 16.0001 5.39767 15.7229 4.80553 15.2025C4.20439 14.6742 3.87891 13.9444 3.87891 13.1765L3.87891 12.6118ZM5.08912 13.7412C5.17824 13.963 5.3224 14.1692 5.5224 14.345C5.8943 14.6718 6.43521 14.8706 6.99963 14.8706C7.56032 14.8706 8.08413 14.6741 8.45865 14.345C8.66133 14.1669 8.80957 13.9602 8.9025 13.7412H5.08912Z" fill="white"/>
<path fill-rule="evenodd" clip-rule="evenodd" d="M10.5669 1.21517C10.7234 0.947737 11.0617 0.861018 11.3225 1.02148C13.4151 2.30879 13.793 4.45942 13.793 6.39983C13.793 6.71171 13.5464 6.96453 13.2422 6.96453C12.938 6.96453 12.6914 6.71171 12.6914 6.39983C12.6914 4.57553 12.335 2.96145 10.7558 1.98994C10.4949 1.82948 10.4104 1.4826 10.5669 1.21517Z" fill="white"/>
<path fill-rule="evenodd" clip-rule="evenodd" d="M3.43315 1.21517C3.27665 0.947737 2.93833 0.861018 2.6775 1.02148C1.67121 1.64053 1.03351 2.38809 0.661577 3.31423C0.298339 4.21869 0.207014 5.24999 0.207014 6.39983C0.207014 6.71171 0.453602 6.96453 0.757784 6.96453C1.06197 6.96453 1.30855 6.71171 1.30855 6.39983C1.30855 5.29084 1.40082 4.43978 1.68015 3.74425C1.95077 3.07038 2.41462 2.5003 3.24423 1.98994C3.50507 1.82948 3.58965 1.4826 3.43315 1.21517Z" fill="white"/>
</svg>
