<svg width="22" height="22" viewBox="0 0 22 22" fill="none" xmlns="http://www.w3.org/2000/svg">
<path fill-rule="evenodd" clip-rule="evenodd" d="M20.6141 3.91254C21.1677 3.71485 21.75 4.12521 21.75 4.71302V15.9379C21.75 16.2599 21.5681 16.5542 21.2801 16.6982L11.4801 21.5982C10.915 21.8807 10.25 21.4698 10.25 20.8379V8.21302C10.25 7.8538 10.4758 7.53336 10.8141 7.41254L20.6141 3.91254ZM20.25 5.63538L11.75 8.67109V19.7862L20.25 15.5362V5.63538Z" fill="#151A40"/>
<path fill-rule="evenodd" clip-rule="evenodd" d="M0.25 4.71302C0.25 4.12523 0.832321 3.71484 1.38589 3.91254L11.1859 7.41254C11.5242 7.53336 11.75 7.8538 11.75 8.21302V20.8379C11.75 21.4698 11.085 21.8807 10.5199 21.5982L0.719868 16.6982C0.431901 16.5542 0.25 16.2598 0.25 15.9379V4.71302ZM1.75 5.63538V15.5362L10.25 19.7862V8.67109L1.75 5.63538Z" fill="#151A40"/>
<path fill-rule="evenodd" clip-rule="evenodd" d="M10.9999 1.79607L3.22985 4.5711L10.9999 7.34613L18.77 4.5711L10.9999 1.79607ZM10.7141 0.305379C10.8989 0.239353 11.101 0.239353 11.2858 0.305379L20.9885 3.77062C21.7407 4.03925 21.7407 5.10296 20.9885 5.37158L11.2858 8.83682C11.101 8.90285 10.8989 8.90285 10.7141 8.83682L1.01138 5.37158C0.259221 5.10295 0.259234 4.03924 1.01138 3.77062L10.7141 0.305379Z" fill="#151A40"/>
</svg>
