<svg width="14" height="16" viewBox="0 0 14 16" fill="none" xmlns="http://www.w3.org/2000/svg">
<path fill-rule="evenodd" clip-rule="evenodd" d="M10.4367 0.482403C10.401 0.209975 10.1757 0 9.90312 0C9.60574 0 9.36466 0.249888 9.36466 0.55814V1.1752H4.64182V0.55814L4.63691 0.482403C4.60125 0.209975 4.37596 0 4.10336 0C3.80598 0 3.5649 0.249888 3.5649 0.55814V1.18906C1.3584 1.3454 0 2.81594 0 5.18861V11.9232C0 14.4698 1.52316 16 3.96376 16H10.0362C12.4797 16 14 14.4954 14 11.9795V5.18861C14.007 2.81506 12.6529 1.34491 10.4416 1.18899V0.55814L10.4367 0.482403ZM9.36466 2.29153V3.00709L9.36958 3.08283C9.40523 3.35526 9.63052 3.56523 9.90312 3.56523C10.2005 3.56523 10.4416 3.31534 10.4416 3.00709V2.30802C12.0505 2.4457 12.9282 3.44222 12.923 5.18695V5.51013H1.0769V5.18866C1.0769 3.44506 1.95938 2.44644 3.5649 2.30814V3.00709L3.56982 3.08283C3.60547 3.35526 3.83076 3.56523 4.10336 3.56523C4.40075 3.56523 4.64182 3.31534 4.64182 3.00709V2.29153H9.36466ZM1.0769 6.62641V11.9233C1.0769 13.8454 2.1105 14.8838 3.96374 14.8838H10.0362C11.8958 14.8838 12.923 13.8671 12.923 11.9796L12.923 6.62641H1.0769ZM10.7343 8.97464C10.7343 8.66639 10.4932 8.4165 10.1958 8.4165L10.1161 8.4216C9.85325 8.45856 9.65068 8.69208 9.65068 8.97464C9.65068 9.2829 9.89176 9.53278 10.1958 9.53278L10.2689 9.52769C10.5317 9.49073 10.7343 9.25721 10.7343 8.97464ZM7.00995 8.4165C7.30733 8.4165 7.54841 8.66639 7.54841 8.97464C7.54841 9.25721 7.34584 9.49073 7.08302 9.52769L7.00995 9.53278C6.70592 9.53278 6.46484 9.2829 6.46484 8.97464C6.46484 8.69208 6.66741 8.45856 6.93023 8.4216L7.00995 8.4165ZM4.35593 8.97464C4.35593 8.66639 4.11485 8.4165 3.81747 8.4165L3.73775 8.4216C3.47493 8.45856 3.27236 8.69208 3.27236 8.97464C3.27236 9.2829 3.51343 9.53278 3.81082 9.53278L3.89053 9.52769C4.15336 9.49073 4.35593 9.25721 4.35593 8.97464ZM10.1958 11.3088C10.4932 11.3088 10.7343 11.5587 10.7343 11.867C10.7343 12.1495 10.5317 12.3831 10.2689 12.42L10.1958 12.4251C9.89176 12.4251 9.65068 12.1752 9.65068 11.867C9.65068 11.5844 9.85325 11.3509 10.1161 11.3139L10.1958 11.3088ZM7.54841 11.867C7.54841 11.5587 7.30733 11.3088 7.00995 11.3088L6.93023 11.3139C6.66741 11.3509 6.46484 11.5844 6.46484 11.867C6.46484 12.1752 6.70592 12.4251 7.00995 12.4251L7.08302 12.42C7.34584 12.3831 7.54841 12.1495 7.54841 11.867ZM3.81747 11.3088C4.11485 11.3088 4.35593 11.5587 4.35593 11.867C4.35593 12.1495 4.15336 12.3831 3.89053 12.42L3.81082 12.4251C3.51343 12.4251 3.27236 12.1752 3.27236 11.867C3.27236 11.5844 3.47493 11.3509 3.73775 11.3139L3.81747 11.3088Z" fill="#C4C4C4"/>
</svg>
