<svg width="16" height="16" viewBox="0 0 16 16" fill="none" xmlns="http://www.w3.org/2000/svg">
<path fill-rule="evenodd" clip-rule="evenodd" d="M3.55763 0.00138038L3.58038 0.00288871C3.99659 0.0387193 4.35897 0.246846 4.68852 0.570498L4.7904 0.673562C5.42274 1.33803 6.5616 2.86433 6.74741 3.40531L6.76742 3.47617C6.88069 4.02296 6.76013 4.37805 6.40048 5.00618L6.31355 5.16056C6.14855 5.46331 6.12333 5.58818 6.17433 5.73115C6.95877 7.66089 8.29738 9.00621 10.1957 9.78552C10.3755 9.85112 10.5111 9.81369 10.8906 9.59488L11.0893 9.48187C11.6229 9.18766 11.9612 9.09455 12.4601 9.19856C12.885 9.28786 14.2587 10.298 15.0522 11.0075L15.2713 11.2101L15.35 11.2884C15.6726 11.6203 15.8802 11.985 15.9164 12.4317C15.9545 13.5175 14.6365 15.0462 13.8328 15.5057C12.9187 16.1639 11.7584 16.1528 10.4567 15.5438C7.05442 14.1207 1.85012 8.92298 0.463212 5.50736L0.380234 5.3164C-0.146102 4.0518 -0.134514 2.95851 0.468204 2.13525C1.01752 1.21907 2.50415 -0.0476334 3.55763 0.00138038ZM3.53538 1.17942L3.49199 1.17109L3.42317 1.17472C2.88254 1.24705 1.79674 2.1867 1.43645 2.78327L1.37411 2.87656C1.06325 3.38592 1.09917 4.08598 1.53211 5.04357L1.6149 5.23838C3.01208 8.39031 7.84967 13.1854 10.9258 14.4725L11.0953 14.5483C11.9857 14.9278 12.6591 14.911 13.2044 14.5218L13.2447 14.4958C13.4135 14.3779 13.8027 14.0224 14.1025 13.6747C14.5236 13.1863 14.7621 12.7388 14.7544 12.5006C14.746 12.3987 14.6678 12.2614 14.5247 12.114L14.4599 12.0496C13.9052 11.5159 12.3919 10.3801 12.2228 10.3445C12.0497 10.3085 11.9075 10.3572 11.5192 10.5818L11.3232 10.6925C10.7509 11.0027 10.3469 11.0859 9.77713 10.8776C7.56779 9.97115 5.99929 8.39479 5.08798 6.15166C4.87209 5.55182 4.98838 5.12766 5.36406 4.46982L5.45332 4.31203C5.62392 4.00252 5.65992 3.87118 5.62737 3.71404C5.59292 3.54664 4.55132 2.14674 4.01368 1.55311L3.87508 1.40721L3.80165 1.34006C3.70083 1.25343 3.6113 1.20086 3.53538 1.17942Z" fill="white"/>
</svg>
