<svg width="16" height="16" viewBox="0 0 16 16" fill="none" xmlns="http://www.w3.org/2000/svg">
<path fill-rule="evenodd" clip-rule="evenodd" d="M0 8.2573C0 7.04002 0.963828 6.05322 2.15277 6.05322C3.34171 6.05322 4.30554 7.04002 4.30554 8.2573V10.4947C4.30554 11.712 3.34171 12.6988 2.15277 12.6988C0.963827 12.6988 0 11.712 0 10.4947V8.2573ZM2.15277 7.19608C1.58031 7.19608 1.11625 7.6712 1.11625 8.2573V10.4947C1.11625 11.0808 1.58032 11.5559 2.15277 11.5559C2.72522 11.5559 3.18929 11.0808 3.18929 10.4947V8.2573C3.18929 7.67121 2.72522 7.19608 2.15277 7.19608Z" fill="white"/>
<path fill-rule="evenodd" clip-rule="evenodd" d="M11.6943 8.2573C11.6943 7.04002 12.6582 6.05322 13.8471 6.05322C15.036 6.05322 15.9999 7.04002 15.9999 8.2573V10.4947C15.9999 11.712 15.036 12.6988 13.8471 12.6988C12.6582 12.6988 11.6943 11.712 11.6943 10.4947V8.2573ZM13.8471 7.19608C13.2747 7.19608 12.8106 7.6712 12.8106 8.2573V10.4947C12.8106 11.0808 13.2747 11.5559 13.8471 11.5559C14.4196 11.5559 14.8836 11.0808 14.8836 10.4947V8.2573C14.8836 7.67121 14.4196 7.19608 13.8471 7.19608Z" fill="white"/>
<path fill-rule="evenodd" clip-rule="evenodd" d="M2.71195 5.52553V6.6244C2.71195 6.93999 2.46207 7.19583 2.15383 7.19583C1.84558 7.19583 1.5957 6.93999 1.5957 6.6244V5.52386H2.15383C1.5957 5.52386 1.5957 5.52424 1.5957 5.52386L1.59571 5.52228L1.59571 5.52024L1.59575 5.51479L1.59599 5.49851C1.59624 5.48532 1.59671 5.46745 1.59758 5.44524C1.59933 5.40082 1.6027 5.33888 1.60919 5.2619C1.62216 5.10815 1.64768 4.89318 1.69806 4.63719C1.7984 4.12722 1.99983 3.44189 2.40705 2.75207C3.24319 1.33564 4.89018 0 8.00085 0C11.1115 0 12.7585 1.33564 13.5947 2.75207C14.0019 3.44189 14.2033 4.12722 14.3036 4.63719C14.354 4.89318 14.3795 5.10815 14.3925 5.2619C14.399 5.33888 14.4024 5.40082 14.4041 5.44524C14.405 5.46745 14.4055 5.48532 14.4057 5.49851L14.406 5.51479L14.406 5.52024L14.406 5.52228L14.406 5.52313C14.406 5.5235 14.406 5.52386 13.8479 5.52386L14.406 5.52313V6.6244C14.406 6.93999 14.1561 7.19583 13.8479 7.19583C13.5396 7.19583 13.2898 6.93999 13.2898 6.6244V5.52448L13.2897 5.52079C13.2896 5.51525 13.2893 5.5053 13.2888 5.49125C13.2877 5.46312 13.2853 5.41866 13.2804 5.36021C13.2705 5.24313 13.2504 5.07119 13.2094 4.8629C13.127 4.44428 12.963 3.89151 12.6393 3.34322C12.0137 2.28343 10.7372 1.14286 8.00085 1.14286C5.2645 1.14286 3.98798 2.28343 3.36237 3.34322C3.0387 3.89151 2.87469 4.44428 2.79232 4.8629C2.75133 5.07119 2.73118 5.24313 2.7213 5.36021C2.71638 5.41866 2.71404 5.46312 2.71293 5.49125C2.71238 5.5053 2.71213 5.51525 2.71203 5.52079L2.71195 5.52553ZM13.2898 5.52552C13.2898 5.52583 13.2898 5.52578 13.2898 5.52552V5.52552Z" fill="white"/>
<path fill-rule="evenodd" clip-rule="evenodd" d="M12.2516 9.35449C12.5599 9.35449 12.8097 9.61033 12.8097 9.92592V9.94334C12.8097 10.7555 12.8097 11.5332 12.7494 12.2291C12.6887 12.9294 12.5638 13.5951 12.2868 14.1687C12.0019 14.7586 11.5649 15.232 10.924 15.548C10.2981 15.8565 9.50838 16.0001 8.53078 16.0001C8.22254 16.0001 7.97266 15.7442 7.97266 15.4286C7.97266 15.113 8.22254 14.8572 8.53078 14.8572C9.4136 14.8572 10.0192 14.7256 10.4398 14.5183C10.8453 14.3183 11.106 14.0351 11.2862 13.6621C11.4743 13.2727 11.582 12.7691 11.6375 12.1281C11.6931 11.4877 11.6935 10.7583 11.6935 9.92592C11.6935 9.61033 11.9434 9.35449 12.2516 9.35449Z" fill="white"/>
</svg>
