<svg width="16" height="16" viewBox="0 0 16 16" fill="none" xmlns="http://www.w3.org/2000/svg">
<path fill-rule="evenodd" clip-rule="evenodd" d="M8.04637 6.51476e-05C5.23708 -0.0112245 2.62843 1.44548 1.16848 3.83995C-0.291671 6.23474 -0.389694 9.21799 0.910122 11.7032L1.05718 11.9899C1.1134 12.0952 1.12424 12.2089 1.09167 12.314C0.881633 12.869 0.697091 13.4684 0.549838 14.0774L0.534205 14.2086C0.534205 14.8209 0.860925 15.2417 1.50937 15.2273L1.61734 15.2143C2.20638 15.0842 2.78648 14.9166 3.35408 14.7126C3.42932 14.6935 3.55256 14.7009 3.66377 14.7464L4.20979 15.0554C4.21102 15.0592 4.21194 15.0621 4.21766 15.0654L4.25431 15.0783C7.19435 16.6242 10.785 16.1977 13.2798 14.0062C15.7749 11.8143 16.656 8.31196 15.494 5.20297C14.3322 2.09429 11.3692 0.0244852 8.04637 6.51476e-05ZM7.81401 1.11916L8.0387 1.11564C10.8985 1.13739 13.4487 2.91883 14.4484 5.59381C15.448 8.2685 14.6901 11.2816 12.5431 13.1676L12.3669 13.3172C10.2901 15.0224 7.40659 15.366 4.98617 14.1974L4.75599 14.082L4.76585 14.0833L4.75129 14.0793L4.41344 13.8855C4.29178 13.8167 4.19528 13.7646 4.1175 13.7272C3.74698 13.5744 3.37085 13.5519 3.01709 13.6493L2.68219 13.7643C2.46086 13.8374 2.243 13.9035 2.0262 13.9632L1.71016 14.0458L1.63487 14.3399C1.77137 13.7753 1.94245 13.2196 2.14713 12.676C2.27884 12.2546 2.23856 11.8324 2.04606 11.4721L1.90132 11.1898C0.781034 9.04784 0.865359 6.48146 2.12159 4.42113C3.33872 2.4249 5.48397 1.18582 7.81401 1.11916ZM3.57969 8C3.57969 7.49584 3.98869 7.0875 4.49278 7.0875C4.99686 7.0875 5.40586 7.49584 5.40586 8C5.40586 8.50417 4.99686 8.91251 4.49278 8.91251C3.98869 8.91251 3.57969 8.50417 3.57969 8ZM7.12917 8.0001C7.12917 7.49594 7.53818 7.0876 8.04226 7.0876C8.54634 7.0876 8.95535 7.49594 8.95535 8.0001C8.95535 8.50427 8.54634 8.91261 8.04226 8.91261C7.53818 8.91261 7.12917 8.50427 7.12917 8.0001ZM11.5918 7.0876C11.0877 7.0876 10.6787 7.49594 10.6787 8.0001C10.6787 8.50427 11.0877 8.91261 11.5918 8.91261C12.0959 8.91261 12.5049 8.50427 12.5049 8.0001C12.5049 7.49594 12.0959 7.0876 11.5918 7.0876Z" fill="white"/>
</svg>
