<svg width="16" height="16" viewBox="0 0 16 16" fill="none" xmlns="http://www.w3.org/2000/svg">
<path fill-rule="evenodd" clip-rule="evenodd" d="M0 8.2573C0 7.04002 0.963828 6.05322 2.15277 6.05322C3.34171 6.05322 4.30554 7.04002 4.30554 8.2573V10.4947C4.30554 11.712 3.34171 12.6988 2.15277 12.6988C0.963827 12.6988 0 11.712 0 10.4947V8.2573ZM2.15277 7.19608C1.58031 7.19608 1.11625 7.6712 1.11625 8.2573V10.4947C1.11625 11.0808 1.58032 11.5559 2.15277 11.5559C2.72522 11.5559 3.18929 11.0808 3.18929 10.4947V8.2573C3.18929 7.67121 2.72522 7.19608 2.15277 7.19608Z" fill="white"/>
<path fill-rule="evenodd" clip-rule="evenodd" d="M11.6943 8.2573C11.6943 7.04002 12.6582 6.05322 13.8471 6.05322C15.036 6.05322 15.9999 7.04002 15.9999 8.2573V10.4947C15.9999 11.712 15.036 12.6988 13.8471 12.6988C12.6582 12.6988 11.6943 11.712 11.6943 10.4947V8.2573ZM13.8471 7.19608C13.2747 7.19608 12.8106 7.6712 12.8106 8.2573V10.4947C12.8106 11.0808 13.2747 11.5559 13.8471 11.5559C14.4196 11.5559 14.8836 11.0808 14.8836 10.4947V8.2573C14.8836 7.67121 14.4196 7.19608 13.8471 7.19608Z" fill="white"/>
<path fill-rule="evenodd" clip-rule="evenodd" d="M2.71147 5.52553V6.6244C2.71147 6.93999 2.46158 7.19583 2.15334 7.19583C1.8451 7.19583 1.59521 6.93999 1.59521 6.6244V5.52386H2.15334C1.59521 5.52386 1.59521 5.52424 1.59521 5.52386L1.59522 5.52228L1.59522 5.52024L1.59526 5.51479L1.5955 5.49851C1.59575 5.48532 1.59622 5.46745 1.59709 5.44524C1.59884 5.40082 1.60221 5.33888 1.6087 5.2619C1.62167 5.10815 1.64719 4.89318 1.69757 4.63719C1.79791 4.12722 1.99935 3.44189 2.40656 2.75207C3.2427 1.33564 4.88969 0 8.00036 0C11.111 0 12.758 1.33564 13.5942 2.75207C14.0014 3.44189 14.2028 4.12722 14.3032 4.63719C14.3535 4.89318 14.3791 5.10815 14.392 5.2619C14.3985 5.33888 14.4019 5.40082 14.4036 5.44524C14.4045 5.46745 14.405 5.48532 14.4052 5.49851L14.4055 5.51479L14.4055 5.52024L14.4055 5.52228L14.4055 5.52313C14.4055 5.5235 14.4055 5.52386 13.8474 5.52386L14.4055 5.52313V6.6244C14.4055 6.93999 14.1556 7.19583 13.8474 7.19583C13.5391 7.19583 13.2893 6.93999 13.2893 6.6244V5.52448L13.2892 5.52079C13.2891 5.51525 13.2888 5.5053 13.2883 5.49125C13.2872 5.46312 13.2848 5.41866 13.2799 5.36021C13.27 5.24313 13.2499 5.07119 13.2089 4.8629C13.1265 4.44428 12.9625 3.89151 12.6388 3.34322C12.0132 2.28343 10.7367 1.14286 8.00036 1.14286C5.26402 1.14286 3.98749 2.28343 3.36188 3.34322C3.03821 3.89151 2.8742 4.44428 2.79183 4.8629C2.75085 5.07119 2.73069 5.24313 2.72082 5.36021C2.71589 5.41866 2.71355 5.46312 2.71244 5.49125C2.71189 5.5053 2.71164 5.51525 2.71154 5.52079L2.71147 5.52553ZM13.2893 5.52552C13.2893 5.52583 13.2893 5.52578 13.2893 5.52552V5.52552Z" fill="white"/>
<path fill-rule="evenodd" clip-rule="evenodd" d="M12.2521 9.35449C12.5603 9.35449 12.8102 9.61033 12.8102 9.92592V9.94334C12.8102 10.7555 12.8102 11.5332 12.7499 12.2291C12.6892 12.9294 12.5643 13.5951 12.2873 14.1687C12.0024 14.7586 11.5654 15.232 10.9245 15.548C10.2986 15.8565 9.50887 16.0001 8.53127 16.0001C8.22303 16.0001 7.97314 15.7442 7.97314 15.4286C7.97314 15.113 8.22303 14.8572 8.53127 14.8572C9.41408 14.8572 10.0196 14.7256 10.4403 14.5183C10.8458 14.3183 11.1065 14.0351 11.2867 13.6621C11.4748 13.2727 11.5825 12.7691 11.638 12.1281C11.6935 11.4877 11.694 10.7583 11.694 9.92592C11.694 9.61033 11.9439 9.35449 12.2521 9.35449Z" fill="white"/>
</svg>
