<svg width="24" height="24" viewBox="0 0 24 24" fill="none" xmlns="http://www.w3.org/2000/svg">
<path fill-rule="evenodd" clip-rule="evenodd" d="M12 4.25581C7.723 4.25581 4.25581 7.723 4.25581 12C4.25581 16.277 7.723 19.7442 12 19.7442C16.277 19.7442 19.7442 16.277 19.7442 12C19.7442 7.723 16.277 4.25581 12 4.25581ZM3 12C3 7.02944 7.02944 3 12 3C16.9706 3 21 7.02944 21 12C21 16.9706 16.9706 21 12 21C7.02944 21 3 16.9706 3 12Z" fill="white"/>
<path fill-rule="evenodd" clip-rule="evenodd" d="M12 6.34863C12.3468 6.34863 12.6279 6.62976 12.6279 6.97654V12.1243L14.9136 14.0291C15.18 14.2511 15.216 14.647 14.994 14.9134C14.772 15.1798 14.376 15.2158 14.1096 14.9938L11.598 12.9008C11.4548 12.7815 11.3721 12.6048 11.3721 12.4184V6.97654C11.3721 6.62976 11.6532 6.34863 12 6.34863Z" fill="white"/>
</svg>
