<svg width="20" height="20" viewBox="0 0 20 20" fill="none" xmlns="http://www.w3.org/2000/svg">
<path fill-rule="evenodd" clip-rule="evenodd" d="M9.99976 0C4.47654 0 -0.000244141 4.47679 -0.000244141 10C-0.000244141 15.5232 4.47654 20 9.99976 20C15.523 20 19.9998 15.5232 19.9998 10C19.9998 4.47679 15.523 0 9.99976 0ZM9.99976 1.5C14.6945 1.5 18.4998 5.30521 18.4998 10C18.4998 14.6948 14.6945 18.5 9.99976 18.5C5.30497 18.5 1.49976 14.6948 1.49976 10C1.49976 5.30521 5.30497 1.5 9.99976 1.5ZM10.4045 5.74463C10.3548 5.37855 10.0411 5.0964 9.66136 5.0964C9.24714 5.0964 8.91136 5.43219 8.91136 5.8464V10.6934L8.91971 10.8051C8.95284 11.0252 9.08269 11.2215 9.27712 11.3375L13.0471 13.5865L13.138 13.6328C13.4779 13.7777 13.8809 13.6527 14.0755 13.3266L14.1217 13.2357C14.2666 12.8959 14.1417 12.4928 13.8156 12.2983L10.411 10.2665L10.4114 5.8464L10.4045 5.74463Z" fill="#151A40"/>
</svg>
