<svg width="62" height="24" viewBox="0 0 62 24" fill="none" xmlns="http://www.w3.org/2000/svg">
<path fill-rule="evenodd" clip-rule="evenodd" d="M29.3217 18.7594V11.7243V11.7229H33.1043C34.6638 11.7239 35.9744 11.2308 37.0362 10.2438C38.1092 9.30713 38.7091 7.96033 38.6786 6.55652C38.6999 5.1605 38.1011 3.82367 37.0362 2.88998C35.9837 1.89759 34.5682 1.35612 33.1043 1.38593H27.0322V18.7594H29.3217ZM29.3217 9.58969V3.525V3.52361H33.1612C34.0169 3.50017 34.8418 3.83585 35.4265 4.44544C36.0147 5.00294 36.3466 5.76868 36.3466 6.56843C36.3466 7.36818 36.0147 8.13393 35.4265 8.69142C34.8346 9.28819 34.0123 9.61428 33.1612 9.58969H29.3217Z" fill="#5F6368"/>
<path fill-rule="evenodd" clip-rule="evenodd" d="M47.9618 7.8078C46.9825 6.92617 45.6468 6.48535 43.9545 6.48535C41.7807 6.48535 40.1392 7.26163 39.0301 8.81419L41.0465 10.0521C41.7916 9.00041 42.8036 8.47457 44.0825 8.47457C44.8979 8.46527 45.6869 8.7558 46.2924 9.28828C46.896 9.77479 47.2433 10.5001 47.238 11.2636V11.7738C46.3582 11.2886 45.2386 11.046 43.8792 11.046C42.2865 11.0478 41.0133 11.412 40.0596 12.1383C39.1059 12.8647 38.629 13.8429 38.629 15.073C38.6083 16.193 39.1067 17.2624 39.9857 17.984C40.8901 18.7603 42.0139 19.1484 43.3573 19.1484C44.931 19.1484 46.1919 18.4692 47.1399 17.1107H47.2394V18.7603H49.4294V11.4341C49.4303 9.89821 48.9411 8.68943 47.9618 7.8078ZM41.7518 16.5773C41.2722 16.2403 40.9893 15.6981 40.9924 15.1218C40.9924 14.4744 41.3038 13.9352 41.931 13.4916C42.5519 13.0545 43.3274 12.8359 44.2574 12.8359C45.5344 12.8359 46.5298 13.1132 47.2437 13.6677C47.2437 14.6047 46.8644 15.4212 46.106 16.1171C45.4229 16.7831 44.4969 17.158 43.5307 17.1595C42.8866 17.1713 42.2581 16.9656 41.7518 16.5773Z" fill="#5F6368"/>
<path fill-rule="evenodd" clip-rule="evenodd" d="M61.9999 6.87305L54.3551 23.9997H51.9917L54.8286 18.0071L49.8018 6.87305H52.2903L55.9236 15.4121H55.9734L59.5071 6.87305L61.9999 6.87305Z" fill="#5F6368"/>
<path fill-rule="evenodd" clip-rule="evenodd" d="M20.0702 10.2091C20.071 9.52896 20.0121 8.85 19.8939 8.17969H10.2383V12.0237H15.7685C15.5399 13.2643 14.8012 14.3599 13.7237 15.0567V17.5519H17.0242C18.9567 15.815 20.0702 13.2463 20.0702 10.2091Z" fill="#4285F4"/>
<path fill-rule="evenodd" clip-rule="evenodd" d="M10.2382 19.9621C13.0012 19.9621 15.3277 19.0777 17.0242 17.5529L13.7236 15.0577C12.805 15.6649 11.6219 16.0114 10.2382 16.0114C7.56767 16.0114 5.30096 14.2565 4.4904 11.8916H1.09033V14.463C2.82827 17.8342 6.36779 19.962 10.2382 19.9621Z" fill="#34A853"/>
<path fill-rule="evenodd" clip-rule="evenodd" d="M4.4903 11.8918C4.06179 10.6526 4.06179 9.31064 4.4903 8.07143V5.5H1.09023C-0.36341 8.31974 -0.36341 11.6435 1.09023 14.4633L4.4903 11.8918Z" fill="#FBBC04"/>
<path fill-rule="evenodd" clip-rule="evenodd" d="M10.2382 3.95137C11.6984 3.92811 13.1092 4.4659 14.1659 5.44848L17.0882 2.59981C15.2351 0.903186 12.7803 -0.028288 10.2382 0.00065483C6.3678 0.000826787 2.82827 2.12855 1.09033 5.49977L4.4904 8.0712C5.30096 5.70631 7.56767 3.95137 10.2382 3.95137Z" fill="#EA4335"/>
</svg>
