<svg width="20" height="19" xmlns="http://www.w3.org/2000/svg">

 <g>
  <title>background</title>
  <rect fill="none" id="canvas_background" height="402" width="582" y="-1" x="-1"/>
 </g>
 <g>
  <title>Layer 1</title>
  <path id="svg_1" fill="#d30000" d="m0.40482,9.32952c-1.23096,-3.82383 0.4067,-7.83214 4.07829,-9.01423c1.75729,-0.56526 3.65883,-0.36185 5.24988,0.54095l0.2634,0.15805l0.268109,-0.15894c1.5085,-0.85405 3.2979,-1.08226 4.9818,-0.61912l0.2657,0.07912c3.6727,1.18245 5.3171,5.19266 4.0817,9.0298c-0.6194,1.78495 -1.6353,3.40335 -2.976301,4.73725c-1.824699,1.772099 -3.836199,3.336999 -5.995599,4.664899l-0.2292,0.142401c-0.2328,0.144701 -0.52699,0.1472 -0.76216,0.006399l-0.24556,-0.146999c-2.16234,-1.3297 -4.17387,-2.8946 -6.00484,-4.6729c-1.3347,-1.3277 -2.35057,-2.946099 -2.97522,-4.746679zm9.16656,-6.83414l-0.19673,-0.14111c-1.30409,-0.89138 -2.94134,-1.13088 -4.44312,-0.64781c-2.84407,0.91566 -4.13345,4.07155 -3.13946,7.15989c0.5467,1.57535 1.44298,3.00325 2.61375,4.16795c1.74793,1.6976 3.67467,3.196501 5.73818,4.4655l-0.1427,-0.09l0.4678,-0.294199c1.6335,-1.0546 3.1719,-2.251401 4.5945,-3.573501l0.528001,-0.5016c1.177099,-1.170899 2.0734,-2.5988 2.614799,-4.158509c0.998301,-3.10103 -0.2967,-6.259151 -3.1423,-7.1753c-1.5768,-0.50587 -3.2981,-0.21612 -4.6281,0.77956c-0.2554,0.19117 -0.60528,0.19486 -0.86462,0.00913z" clip-rule="evenodd" fill-rule="evenodd"/>
  <rect id="svg_6" height="10.218338" width="15.764188" y="2.074238" x="2.07424" stroke-width="1.5" fill="#d30000"/>
  <rect id="svg_7" height="0.043668" width="0.043668" y="15.349344" x="10.327512" stroke-width="1.5" fill="#d30000"/>
  <rect id="svg_8" height="5.938863" width="1.353711" y="3.777294" x="1.244546" stroke-width="1.5" fill="#d30000"/>
  <rect id="svg_9" height="1.877729" width="12.969429" y="1.11354" x="3.427951" stroke-opacity="null" stroke-width="null" stroke="null" fill="#d30000"/>
  <rect id="svg_10" height="6.593885" width="3.144104" y="3.253277" x="15.742358" stroke-opacity="null" stroke-width="null" stroke="null" fill="#d30000"/>
  <rect id="svg_11" height="1.965065" width="12.70742" y="12.030567" x="3.602623" stroke-opacity="null" stroke-width="null" stroke="null" fill="#d30000"/>
  <rect id="svg_12" height="1.877729" width="9.344976" y="13.602619" x="5.393016" stroke-opacity="null" stroke-width="null" stroke="null" fill="#d30000"/>
  <rect id="svg_13" height="1.179039" width="6.113535" y="15.131003" x="6.9214" stroke-opacity="null" stroke-width="null" stroke="null" fill="#d30000"/>
  <rect id="svg_14" height="1.877729" width="3.580785" y="15.65502" x="8.187775" stroke-opacity="null" stroke-width="null" stroke="null" fill="#d30000"/>
 </g>
</svg>