<svg width="17" height="16" viewBox="0 0 17 16" fill="none" xmlns="http://www.w3.org/2000/svg">
<path fill-rule="evenodd" clip-rule="evenodd" d="M15.0238 4.52765C15.5881 4.94289 15.9342 5.55975 15.9932 6.23102L16.0016 6.39183V12.8797C16.0016 14.5519 14.6112 15.912 12.8687 16H11.1927C10.3918 15.9848 9.74414 15.3927 9.68518 14.6487L9.67676 14.5359V12.2484C9.67676 11.9996 9.48222 11.7924 9.22198 11.7516L9.14618 11.7436H6.89669C6.62804 11.7516 6.40907 11.9356 6.37538 12.1756L6.36696 12.2484V14.5287C6.36696 14.5759 6.35769 14.6319 6.35011 14.6719L6.34169 14.6887L6.33243 14.7439C6.23221 15.4247 5.64267 15.944 4.90997 15.9928L4.80048 16H3.29296C1.53279 16 0.0926409 14.6887 0 13.0397V6.39183C0.00757971 5.71097 0.320032 5.0789 0.84219 4.63886L6.08903 0.630454C7.15861 -0.176827 8.65771 -0.20883 9.76014 0.534445L9.89573 0.630454L15.0238 4.52765ZM14.8217 13.0079L14.831 12.8799V6.39924C14.8217 6.05601 14.671 5.73517 14.4099 5.49595L14.3004 5.40714L9.16307 1.50275C8.52301 1.0147 7.61344 0.991497 6.93969 1.41474L6.81252 1.50275L1.692 5.42394C1.39808 5.63116 1.22122 5.9432 1.17911 6.27123L1.16984 6.39924V12.8799C1.16984 13.944 2.04572 14.8161 3.15825 14.8801H4.80053C4.98581 14.8801 5.14582 14.7609 5.17025 14.5929L5.18793 14.4489L5.19635 14.408V12.2486C5.19635 11.3925 5.88695 10.6965 6.77125 10.6317H9.14622C10.0465 10.6317 10.7792 11.2885 10.8474 12.1286V14.5361C10.8474 14.7041 10.9738 14.8489 11.1422 14.8801H12.7078C13.8364 14.8801 14.7544 14.0568 14.8217 13.0079Z" fill="white"/>
</svg>
