<svg width="20" height="20" viewBox="0 0 20 20" fill="none" xmlns="http://www.w3.org/2000/svg">
<path fill-rule="evenodd" clip-rule="evenodd" d="M18.7779 5.65899C19.4832 6.17799 19.9158 6.94899 19.9895 7.78799L20 7.98899V16.098C20 18.188 18.2621 19.888 16.0842 19.998H13.9895C12.9884 19.979 12.1789 19.239 12.1053 18.309L12.0947 18.168V15.309C12.0947 14.998 11.8516 14.739 11.5263 14.688L11.4316 14.678H8.62C8.28421 14.688 8.01053 14.918 7.96842 15.218L7.95789 15.309V18.159C7.95789 18.218 7.94632 18.288 7.93684 18.338L7.92632 18.359L7.91474 18.428C7.78947 19.279 7.05263 19.928 6.13684 19.989L6 19.998H4.11579C1.91579 19.998 0.115789 18.359 0 16.298V7.98899C0.00947368 7.13799 0.4 6.34799 1.05263 5.79799L7.61053 0.787988C8.94737 -0.221012 10.8211 -0.261012 12.1989 0.667988L12.3684 0.787988L18.7779 5.65899ZM18.5253 16.2583L18.5369 16.0983V7.99831C18.5253 7.56931 18.3369 7.16831 18.0105 6.86931L17.8737 6.75831L11.4526 1.87831C10.6526 1.26831 9.5158 1.23931 8.6737 1.76831L8.51475 1.87831L2.11475 6.77931C1.74738 7.03831 1.52633 7.42831 1.4737 7.83831L1.46212 7.99831V16.0983C1.46212 17.4283 2.55685 18.5183 3.94738 18.5983H6.00001C6.23159 18.5983 6.43159 18.4493 6.46212 18.2393L6.48422 18.0593L6.49475 18.0083V15.3093C6.49475 14.2393 7.35791 13.3693 8.46317 13.2883H11.4316C12.5569 13.2883 13.4726 14.1093 13.5579 15.1593V18.1683C13.5579 18.3783 13.7158 18.5593 13.9263 18.5983H15.8832C17.2937 18.5983 18.4411 17.5693 18.5253 16.2583Z" fill="#151A40"/>
</svg>
