<svg width="48" height="48" viewBox="0 0 48 48" fill="none" xmlns="http://www.w3.org/2000/svg">
<rect x="0.75" y="0.75" width="46.5" height="46.5" rx="23.25" fill="white"/>
<path fill-rule="evenodd" clip-rule="evenodd" d="M32.7779 19.659C33.4832 20.178 33.9158 20.949 33.9895 21.788L34 21.989V30.098C34 32.188 32.2621 33.888 30.0842 33.998H27.9895C26.9884 33.979 26.1789 33.239 26.1053 32.309L26.0947 32.168V29.309C26.0947 28.998 25.8516 28.739 25.5263 28.688L25.4316 28.678H22.62C22.2842 28.688 22.0105 28.918 21.9684 29.218L21.9579 29.309V32.159C21.9579 32.218 21.9463 32.288 21.9368 32.338L21.9263 32.359L21.9147 32.428C21.7895 33.279 21.0526 33.928 20.1368 33.989L20 33.998H18.1158C15.9158 33.998 14.1158 32.359 14 30.298V21.989C14.0095 21.138 14.4 20.348 15.0526 19.798L21.6105 14.788C22.9474 13.779 24.8211 13.739 26.1989 14.668L26.3684 14.788L32.7779 19.659ZM32.5253 30.2583L32.5369 30.0983V21.9983C32.5253 21.5693 32.3369 21.1683 32.0105 20.8693L31.8737 20.7583L25.4526 15.8783C24.6526 15.2683 23.5158 15.2393 22.6737 15.7683L22.5147 15.8783L16.1147 20.7793C15.7474 21.0383 15.5263 21.4283 15.4737 21.8383L15.4621 21.9983V30.0983C15.4621 31.4283 16.5569 32.5183 17.9474 32.5983H20C20.2316 32.5983 20.4316 32.4493 20.4621 32.2393L20.4842 32.0593L20.4947 32.0083V29.3093C20.4947 28.2393 21.3579 27.3693 22.4632 27.2883H25.4316C26.5569 27.2883 27.4726 28.1093 27.5579 29.1593V32.1683C27.5579 32.3783 27.7158 32.5593 27.9263 32.5983H29.8832C31.2937 32.5983 32.4411 31.5693 32.5253 30.2583Z" fill="#A3CC4A"/>
<rect x="0.75" y="0.75" width="46.5" height="46.5" rx="23.25" stroke="#A3CC4A" stroke-width="1.5"/>
</svg>
