<svg width="20" height="20" viewBox="0 0 20 20" fill="none" xmlns="http://www.w3.org/2000/svg">
<path fill-rule="evenodd" clip-rule="evenodd" d="M0 10C0 4.47779 4.47779 0 10 0C15.5229 0 20 4.47745 20 10C20 15.5225 15.5229 20 10 20C4.47779 20 0 15.5222 0 10ZM18.5 10C18.5 5.30586 14.6944 1.5 10 1.5C5.30621 1.5 1.5 5.30621 1.5 10C1.5 14.6938 5.30621 18.5 10 18.5C14.6944 18.5 18.5 14.6941 18.5 10ZM9.9951 5.4541C10.3748 5.4541 10.6886 5.73625 10.7383 6.10233L10.7451 6.2041V10.6231C10.7451 11.0373 10.4093 11.3731 9.9951 11.3731C9.6154 11.3731 9.30161 11.0909 9.25195 10.7249L9.2451 10.6231V6.2041C9.2451 5.78989 9.58089 5.4541 9.9951 5.4541ZM10.7551 13.7959C10.7551 13.3817 10.4193 13.0459 10.0051 13.0459L9.89333 13.0527C9.52725 13.1024 9.2451 13.4162 9.2451 13.7959C9.2451 14.2101 9.58089 14.5459 9.9951 14.5459L10.1069 14.5391C10.4729 14.4894 10.7551 14.1756 10.7551 13.7959Z" fill="#200E32"/>
</svg>
