<svg width="24" height="24" viewBox="0 0 24 24" fill="none" xmlns="http://www.w3.org/2000/svg">
<circle cx="12" cy="12" r="12" fill="#151A40"/>
<path fill-rule="evenodd" clip-rule="evenodd" d="M14.1142 6.76929H9.88577C8.1673 6.76929 6.76923 8.16736 6.76923 9.88584V14.1143C6.76923 15.8327 8.1673 17.2308 9.88577 17.2308H14.1142C15.8327 17.2308 17.2308 15.8327 17.2308 14.1143V9.88584C17.2307 8.16736 15.8327 6.76929 14.1142 6.76929ZM16.1783 14.1141C16.1783 15.2541 15.2542 16.1782 14.1142 16.1782H9.88577C8.7458 16.1782 7.82166 15.2541 7.82166 14.1141V9.88565C7.82166 8.74566 8.7458 7.82153 9.88577 7.82153H14.1142C15.2542 7.82153 16.1783 8.74566 16.1783 9.88565V14.1141ZM9.29427 11.9999C9.29427 10.508 10.5081 9.29419 12 9.29419C13.4919 9.29419 14.7057 10.508 14.7057 11.9999C14.7057 13.4918 13.4919 14.7056 12 14.7056C10.5081 14.7056 9.29427 13.4918 9.29427 11.9999ZM12 13.653C11.0869 13.653 10.3467 12.9128 10.3467 11.9997C10.3467 11.0866 11.0869 10.3464 12 10.3464C12.9131 10.3464 13.6533 11.0866 13.6533 11.9997C13.6533 12.9128 12.9131 13.653 12 13.653ZM14.711 9.96271C15.069 9.96271 15.3593 9.67244 15.3593 9.31436C15.3593 8.95629 15.069 8.66602 14.711 8.66602C14.3529 8.66602 14.0626 8.95629 14.0626 9.31436C14.0626 9.67244 14.3529 9.96271 14.711 9.96271Z" fill="white"/>
</svg>
