<svg width="18" height="21" viewBox="0 0 18 21" fill="none" xmlns="http://www.w3.org/2000/svg">
<path d="M17 16.6276C17 17.1647 16.6957 17.694 16.1124 18.1715C15.5291 18.6491 14.6836 19.0609 13.6464 19.3729C12.6092 19.6848 11.4103 19.8878 10.1494 19.965C8.88852 20.0422 7.60213 19.9913 6.39733 19.8165C5.19253 19.6418 4.10416 19.3483 3.2228 18.9604C2.34145 18.5725 1.69261 18.1015 1.33029 17.5866C0.967966 17.0717 0.902641 16.5277 1.13975 16" stroke="#151A40" stroke-width="1.5" stroke-linecap="round"/>
<path d="M3.24396 9.02725C1.5358 5.13749 4.49047 0.75 9 0.75C13.5095 0.75 16.4642 5.13749 14.756 9.02725L11.9723 15.3662C11.4766 16.4952 10.3125 17.25 9 17.25C7.68747 17.25 6.52344 16.4952 6.02768 15.3662L3.24396 9.02725Z" stroke="#151A40" stroke-width="1.5"/>
<circle cx="9" cy="6" r="2" stroke="#151A40" stroke-width="1.5"/>
</svg>
