<svg width="14" height="16" viewBox="0 0 14 16" fill="none" xmlns="http://www.w3.org/2000/svg">
<path fill-rule="evenodd" clip-rule="evenodd" d="M7.00815 4.1124e-05C9.39717 4.1124e-05 11.3458 1.80534 11.4418 4.06612L11.4455 4.2409V5.50165C12.9325 5.99498 14 7.34574 14 8.93521V12.3664C14 14.3736 12.2978 16 10.198 16H3.80197C1.70216 16 0 14.3736 0 12.3664V8.93521C0 7.3456 1.06765 5.99474 2.55493 5.50152L2.55494 4.22227C2.56566 1.87986 4.56043 -0.0101629 7.00815 4.1124e-05ZM10.1898 4.2409V5.30159H3.81054V4.2249L3.81539 4.06865C3.90793 2.46446 5.30333 1.19295 7.00541 1.20004C8.76497 1.20005 10.1898 2.56185 10.1898 4.2409ZM10.198 6.50154H3.8019C2.39549 6.50154 1.25553 7.59082 1.25553 8.93515V12.3664C1.25553 13.7107 2.39549 14.8 3.8019 14.8H10.198C11.6044 14.8 12.7443 13.7107 12.7443 12.3664V8.93515C12.7443 7.59082 11.6044 6.50154 10.198 6.50154ZM7.62225 9.68106C7.58068 9.3882 7.31801 9.16248 7.00018 9.16248C6.65345 9.16248 6.37238 9.43111 6.37238 9.76248V11.5393L6.37811 11.6207C6.41968 11.9136 6.68235 12.1393 7.00018 12.1393C7.3469 12.1393 7.62798 11.8707 7.62798 11.5393V9.76248L7.62225 9.68106Z" fill="#A3CC4A"/>
</svg>
