<svg width="116" height="48" viewBox="0 0 116 48" fill="none" xmlns="http://www.w3.org/2000/svg">
<g clip-path="url(#clip0)">
<path d="M25.8576 0.0791016C23.9079 0.0791016 22.0021 0.659159 20.381 1.74592C18.7599 2.83268 17.4965 4.37733 16.7504 6.18455C16.0043 7.99177 15.8091 9.98038 16.1894 11.899C16.5698 13.8175 17.5086 15.5798 18.8872 16.963C20.2658 18.3461 22.0223 19.2881 23.9345 19.6697C25.8467 20.0513 27.8287 19.8555 29.6299 19.1069C31.4311 18.3583 32.9707 17.0907 34.0539 15.4642C35.137 13.8378 35.7152 11.9256 35.7152 9.96941C35.7152 7.34633 34.6766 4.8307 32.8279 2.9759C30.9793 1.12111 28.472 0.0791016 25.8576 0.0791016ZM25.8576 4.06043C26.3394 4.06063 26.8104 4.20415 27.2109 4.47287C27.6114 4.74159 27.9235 5.12343 28.1078 5.57011C28.2921 6.01679 28.3402 6.50826 28.246 6.98238C28.1519 7.45649 27.9198 7.89196 27.579 8.23373C27.2383 8.57549 26.8042 8.80821 26.3316 8.90245C25.859 8.99669 25.3692 8.94823 24.924 8.76318C24.4789 8.57814 24.0984 8.26483 23.8308 7.86286C23.5631 7.46089 23.4202 6.98832 23.4202 6.50489C23.4202 6.1838 23.4833 5.86585 23.6058 5.56921C23.7283 5.27258 23.9078 5.00306 24.1342 4.77606C24.3605 4.54905 24.6292 4.36902 24.9249 4.24623C25.2206 4.12344 25.5375 4.06031 25.8576 4.06043Z" fill="#151A40"/>
<path d="M29.3494 19.3184H22.626V48.0798H29.3494V19.3184Z" fill="#151A40"/>
<path d="M35.7164 31.9551H29.3496V36.7927H35.7164V31.9551Z" fill="#151A40"/>
<path d="M32.533 39.7695H29.3496V44.1105H32.533V39.7695Z" fill="#151A40"/>
<path d="M54.0004 17.9353H50.4459V26.2519H42.4004L42.3172 34.3241H37.3005V30.1654H30.9414V20.3352C32.8711 19.6572 34.5429 18.394 35.7254 16.7205C36.9078 15.047 37.5424 13.046 37.5411 10.9946C37.5413 10.6464 37.5229 10.2985 37.4861 9.95222L40.5284 7.63867L54.0004 17.9353Z" fill="#A3CC4A"/>
<path d="M43.9834 28.1533H50.4836L43.9834 34.293V28.1533Z" fill="#A3CC4A"/>
</g>
<path d="M76.8138 10.3242H72.9883V19.9872H69.8255V10.3242H66V8.01074H76.8138V10.3242Z" fill="#151A40"/>
<path d="M90.721 19.9939H87.4536L86.6047 17.5725H82.0641L81.2095 19.9939H78.0234L82.5525 8.01172H86.1919L90.721 19.9939ZM85.8431 15.3727L84.3315 11.0812L82.8257 15.3727H85.8431Z" fill="#151A40"/>
<path d="M104.592 19.9935H100.708L97.0457 15.1961L96.3131 16.0828V19.9935H93.1504V8.01134H96.3131V13.4284L100.691 8H104.354L99.5631 13.542L104.592 19.9935Z" fill="#151A40"/>
<path d="M115.697 19.9939H106.831V8.01172H115.697V10.3252H109.976V12.3942H115.284V14.7134H109.976V17.6748H115.697V19.9939Z" fill="#151A40"/>
<path d="M78.6692 39.7751H74.7856L71.1228 34.9777L70.3903 35.8644V39.7751H67.2275V27.793H70.3903V33.2213L74.7681 27.793H78.4309L73.6402 33.3236L78.6692 39.7751Z" fill="#151A40"/>
<path d="M89.7675 39.7751H80.9014V27.793H89.7675V30.1064H84.0467V32.1868H89.3548V34.5059H84.0467V37.4674H89.7675V39.7751Z" fill="#151A40"/>
<path d="M103.878 27.793L99.3602 35.1369V39.7751H96.2033V35.2847L91.6045 27.793H95.2091L97.8486 32.4142L100.407 27.793H103.878Z" fill="#151A40"/>
<path d="M115.999 36.006C116.009 36.5732 115.873 37.1339 115.605 37.6371C115.337 38.1403 114.945 38.5702 114.464 38.8878C113.231 39.6812 111.77 40.0677 110.296 39.9906C109.403 40.0041 108.511 39.9164 107.639 39.7291C106.916 39.5649 106.208 39.3424 105.522 39.064V36.1936H105.865C106.524 36.7049 107.268 37.1028 108.063 37.3702C108.81 37.6319 109.596 37.7703 110.389 37.7795C110.641 37.7757 110.894 37.7586 111.144 37.7283C111.406 37.7094 111.665 37.6558 111.912 37.5691C112.127 37.4847 112.325 37.3613 112.493 37.2054C112.576 37.1203 112.64 37.0191 112.68 36.9084C112.72 36.7977 112.735 36.6801 112.726 36.563C112.724 36.4315 112.693 36.302 112.633 36.184C112.574 36.0659 112.488 35.9624 112.383 35.8809C112.089 35.6613 111.746 35.5115 111.383 35.4432C110.924 35.3352 110.435 35.2386 109.924 35.142C109.433 35.0563 108.949 34.9366 108.476 34.7839C107.618 34.56 106.845 34.0981 106.249 33.4538C105.787 32.8522 105.549 32.1141 105.575 31.362C105.573 30.8173 105.713 30.2811 105.981 29.8038C106.25 29.3265 106.638 28.9238 107.11 28.6337C108.279 27.8827 109.66 27.5107 111.057 27.5707C111.86 27.5714 112.66 27.6495 113.447 27.8038C114.146 27.9287 114.831 28.119 115.493 28.3722V31.1347H115.156C114.608 30.7189 113.996 30.3908 113.342 30.1627C112.64 29.904 111.895 29.7711 111.144 29.7705C110.882 29.7705 110.62 29.7876 110.36 29.8217C110.101 29.8591 109.847 29.9259 109.604 30.0206C109.383 30.0973 109.184 30.2239 109.022 30.3901C108.948 30.4656 108.89 30.5546 108.851 30.6522C108.812 30.7497 108.793 30.8538 108.796 30.9585C108.789 31.1008 108.819 31.2424 108.884 31.3699C108.949 31.4973 109.047 31.6062 109.168 31.686C109.6 31.9225 110.073 32.0804 110.563 32.1521L111.86 32.4136C112.312 32.5084 112.758 32.6279 113.197 32.7717C113.995 32.981 114.717 33.4066 115.278 33.9995C115.76 34.5601 116.017 35.2736 115.999 36.006Z" fill="#151A40"/>
<defs>
<clipPath id="clip0">
<rect width="38" height="48" fill="white" transform="translate(16)"/>
</clipPath>
</defs>
</svg>
