<svg width="15" height="15" viewBox="0 0 15 15" fill="none" xmlns="http://www.w3.org/2000/svg">
<path d="M12.3752 2.60574C11.0887 1.28142 9.31036 0.5625 7.49414 0.5625C3.63468 0.5625 0.531978 3.70304 0.569816 7.52466C0.569816 8.73547 0.910357 9.90845 1.47792 10.9679L0.494141 14.5625L4.16441 13.6166C5.18603 14.1841 6.32117 14.449 7.4563 14.449C11.2779 14.449 14.3806 11.3084 14.3806 7.48682C14.3806 5.63277 13.6617 3.89223 12.3752 2.60574ZM7.49414 13.276C6.47252 13.276 5.4509 13.0111 4.58063 12.4814L4.3536 12.3679L2.15901 12.9355L2.72657 10.7787L2.57522 10.5517C0.910357 7.8652 1.70495 4.30845 4.42928 2.64358C7.1536 0.978716 10.6725 1.77331 12.3374 4.49764C14.0022 7.22196 13.2077 10.7409 10.4833 12.4057C9.61306 12.9733 8.5536 13.276 7.49414 13.276ZM10.8239 9.07601L10.4077 8.88682C10.4077 8.88682 9.80225 8.62196 9.42387 8.43277C9.38603 8.43277 9.3482 8.39493 9.31036 8.39493C9.19684 8.39493 9.12117 8.43277 9.04549 8.47061C9.04549 8.47061 9.00766 8.50845 8.47793 9.11385C8.44009 9.18953 8.36441 9.22736 8.28874 9.22736H8.2509C8.21306 9.22736 8.13738 9.18953 8.09955 9.15169L7.91036 9.07601C7.49414 8.88682 7.11576 8.6598 6.81306 8.3571C6.73738 8.28142 6.62387 8.20574 6.5482 8.13007C6.28333 7.8652 6.01847 7.5625 5.82928 7.22196L5.79144 7.14628C5.7536 7.10845 5.7536 7.07061 5.71576 6.99493C5.71576 6.91926 5.71576 6.84358 5.7536 6.80574C5.7536 6.80574 5.90495 6.61655 6.01847 6.50304C6.09414 6.42737 6.13198 6.31385 6.20765 6.23818C6.28333 6.12466 6.32117 5.97331 6.28333 5.8598C6.24549 5.67061 5.79144 4.64899 5.67793 4.42196C5.60225 4.30845 5.52657 4.27061 5.41306 4.23277H5.29955C5.22387 4.23277 5.11036 4.23277 4.99684 4.23277C4.92117 4.23277 4.84549 4.27061 4.76982 4.27061L4.73198 4.30845C4.6563 4.34628 4.58063 4.42196 4.50495 4.4598C4.42928 4.53547 4.39144 4.61115 4.31576 4.68682C4.0509 5.02736 3.89955 5.44358 3.89955 5.8598C3.89955 6.1625 3.97522 6.4652 4.08874 6.73007L4.12657 6.84358C4.46711 7.5625 4.92117 8.20574 5.52657 8.77331L5.67793 8.92466C5.79144 9.03818 5.90495 9.11385 5.98063 9.22736C6.77522 9.90845 7.68333 10.4003 8.70495 10.6652C8.81847 10.703 8.96982 10.703 9.08333 10.7409C9.19685 10.7409 9.3482 10.7409 9.46171 10.7409C9.6509 10.7409 9.87793 10.6652 10.0293 10.5895C10.1428 10.5139 10.2185 10.5139 10.2941 10.4382L10.3698 10.3625C10.4455 10.2868 10.5212 10.249 10.5968 10.1733C10.6725 10.0976 10.7482 10.022 10.786 9.94628C10.8617 9.79493 10.8995 9.60574 10.9374 9.41655C10.9374 9.34088 10.9374 9.22737 10.9374 9.15169C10.9374 9.15169 10.8995 9.11385 10.8239 9.07601Z" fill="#0DC143"/>
</svg>
