<svg width="14" height="11" viewBox="0 0 14 11" fill="none" xmlns="http://www.w3.org/2000/svg">
<path d="M1.39368 4.73547C4.88334 3.18313 7.21032 2.15973 8.37463 1.66527C11.699 0.253502 12.3897 0.00826281 12.84 7.85078e-05C12.939 -0.00161621 13.1604 0.0234407 13.3038 0.142263C13.4249 0.242595 13.4583 0.378129 13.4742 0.473254C13.4901 0.56838 13.51 0.785077 13.4942 0.954399C13.3141 2.88701 12.5346 7.57694 12.138 9.74149C11.9702 10.6574 11.6398 10.9645 11.3199 10.9945C10.6248 11.0599 10.0969 10.5255 9.42363 10.0749C8.37007 9.36973 7.77488 8.93077 6.75221 8.24269C5.57034 7.44748 6.3365 7.01043 7.01004 6.29615C7.18631 6.10923 10.2492 3.26477 10.3084 3.00673C10.3159 2.97446 10.3227 2.85417 10.2527 2.79065C10.1828 2.72713 10.0794 2.74885 10.0049 2.76612C9.89923 2.79061 8.21615 3.92645 4.95566 6.17363C4.47792 6.50858 4.04521 6.67177 3.6575 6.66322C3.23009 6.65379 2.40793 6.41648 1.79673 6.21363C1.04708 5.96482 0.451268 5.83328 0.503149 5.41073C0.530173 5.19064 0.827017 4.96555 1.39368 4.73547Z" fill="#25A3E1"/>
</svg>
