<svg width="16" height="11" viewBox="0 0 16 11" fill="none" xmlns="http://www.w3.org/2000/svg">
<path fill-rule="evenodd" clip-rule="evenodd" d="M15.6329 1.26742C15.7442 0.896588 15.6329 0.624023 15.1035 0.624023H13.3531C12.908 0.624023 12.703 0.859453 12.5917 1.11914C12.5917 1.11914 11.7015 3.28877 10.4404 4.6981C10.0325 5.10607 9.84705 5.23573 9.6245 5.23573C9.51322 5.23573 9.35218 5.10607 9.35218 4.73523V1.26742C9.35218 0.82232 9.22303 0.624023 8.85207 0.624023H6.10142C5.82336 0.624023 5.65607 0.830572 5.65607 1.02637C5.65607 1.44834 6.28647 1.54561 6.35148 2.73239V5.31012C6.35148 5.87525 6.24946 5.97777 6.02691 5.97777C5.43352 5.97777 3.99018 3.79826 3.13398 1.30456C2.96619 0.819819 2.7979 0.624023 2.35055 0.624023H0.60014C0.100023 0.624023 0 0.859453 0 1.11914C0 1.58275 0.593513 3.88228 2.76314 6.92349C4.20973 9.00023 6.24746 10.1262 8.10189 10.1262C9.21465 10.1262 9.35218 9.87618 9.35218 9.44546V7.87572C9.35218 7.3756 9.45758 7.27583 9.80979 7.27583C10.0696 7.27583 10.5146 7.40561 11.5532 8.40697C12.74 9.59362 12.9355 10.1262 13.6032 10.1262H15.3536C15.8537 10.1262 16.1038 9.87618 15.9595 9.38269C15.8017 8.89083 15.2351 8.17741 14.4831 7.33146C14.0752 6.84923 13.4631 6.32998 13.2779 6.07042C13.0182 5.73659 13.0923 5.58831 13.2779 5.29174C13.2779 5.29174 15.4103 2.28754 15.6329 1.26755V1.26742Z" fill="#5181B8"/>
</svg>
