<svg width="16" height="17" viewBox="0 0 16 17" fill="none" xmlns="http://www.w3.org/2000/svg">
<path d="M13.877 2.09227C13.48 1.72734 11.8731 0.558911 8.29095 0.542905C8.29095 0.542905 4.06861 0.286811 2.01025 2.1755C0.864236 3.32152 0.460888 4.99573 0.419273 7.07649C0.377658 9.15405 0.323238 13.0499 4.07821 14.1063H4.08141L4.07821 15.7165C4.07821 15.7165 4.0558 16.3695 4.48476 16.5007C5.00335 16.6608 5.31066 16.1646 5.80684 15.63C6.07894 15.3355 6.45348 14.9066 6.73838 14.5768C9.30572 14.7913 11.2808 14.2983 11.5049 14.2247C12.0235 14.055 14.959 13.6805 15.436 9.78469C15.9289 5.77682 15.1959 3.23829 13.877 2.09227ZM14.3124 9.50298C13.909 12.7554 11.5305 12.9602 11.092 13.1011C10.9063 13.1619 9.17127 13.5941 6.98807 13.45C6.98807 13.45 5.36188 15.4123 4.8561 15.9213C4.77607 16.0014 4.68323 16.0334 4.62241 16.0174C4.53598 15.995 4.51037 15.8925 4.51357 15.7421C4.51357 15.5244 4.52637 13.0627 4.52637 13.0627C4.52317 13.0627 4.52317 13.0627 4.52637 13.0627C1.34761 12.1824 1.53328 8.86595 1.56849 7.13091C1.60371 5.39588 1.93023 3.97136 2.90018 3.01421C4.63842 1.43923 8.22693 1.67292 8.22693 1.67292C11.2552 1.68572 12.7054 2.59806 13.0415 2.90217C14.1587 3.86252 14.7285 6.15136 14.3124 9.50298Z" fill="#675DA9"/>
<path d="M9.76654 7.19174C9.6609 7.19174 9.57127 7.10851 9.56487 6.99967C9.52966 6.31142 9.20634 5.9753 8.5469 5.94009C8.43486 5.93368 8.34842 5.83765 8.35483 5.72561C8.36123 5.61357 8.45726 5.52713 8.5693 5.53354C9.44002 5.58155 9.9266 6.08094 9.97142 6.97727C9.97782 7.08931 9.89139 7.18534 9.77935 7.18854C9.77294 7.19174 9.76974 7.19174 9.76654 7.19174Z" fill="#675DA9"/>
<path d="M10.8038 7.53715H10.8006C10.6886 7.53395 10.599 7.44112 10.6022 7.32907C10.6182 6.63762 10.4197 6.07742 9.99714 5.61645C9.57779 5.15548 8.99838 4.90579 8.2333 4.85137C8.12126 4.84176 8.03803 4.74573 8.04763 4.63369C8.05723 4.52165 8.15327 4.43842 8.26531 4.44802C9.12963 4.51204 9.81147 4.81295 10.2981 5.34435C10.7878 5.87894 11.0247 6.54799 11.0087 7.33868C11.0055 7.45072 10.9127 7.53715 10.8038 7.53715Z" fill="#675DA9"/>
<path d="M11.867 7.95327C11.7549 7.95327 11.6653 7.86364 11.6653 7.7516C11.6557 6.51274 11.3004 5.5684 10.5769 4.86094C9.86305 4.16308 8.95712 3.80775 7.89113 3.79815C7.77909 3.79815 7.68945 3.70532 7.68945 3.59328C7.68945 3.48123 7.78229 3.3916 7.89113 3.3916C9.06596 3.40121 10.0647 3.79495 10.8554 4.56963C11.6493 5.34432 12.0559 6.41351 12.0687 7.74519C12.0719 7.86044 11.9822 7.95327 11.867 7.95327C11.8702 7.95327 11.8702 7.95327 11.867 7.95327Z" fill="#675DA9"/>
<path d="M8.59532 9.69835C8.59532 9.69835 8.88023 9.72396 9.03389 9.53509L9.33159 9.16055C9.47565 8.97488 9.82457 8.85644 10.1639 9.04531C10.3528 9.15095 10.6953 9.36222 10.9066 9.51908C11.1339 9.68554 11.5948 10.0697 11.598 10.0729C11.8189 10.2586 11.8701 10.5307 11.7197 10.822C11.7197 10.822 11.7197 10.8252 11.7197 10.8284C11.566 11.1005 11.3579 11.3566 11.0986 11.5934C11.0954 11.5934 11.0954 11.5966 11.0922 11.5966C10.8778 11.7759 10.6665 11.8783 10.4616 11.9008C10.436 11.9072 10.4072 11.9072 10.3688 11.9072C10.2791 11.9072 10.1895 11.8943 10.0999 11.8655L10.0935 11.8559C9.77336 11.7663 9.24196 11.5422 8.35844 11.0524C7.78223 10.7355 7.30525 10.4122 6.8987 10.0889C6.68423 9.91923 6.46655 9.73036 6.24246 9.50628C6.23606 9.49987 6.22646 9.49027 6.22006 9.48387C6.21365 9.47747 6.20405 9.46786 6.19765 9.46146C6.19125 9.45506 6.18164 9.44545 6.17524 9.43905C6.16884 9.43265 6.15923 9.42305 6.15283 9.41664C5.93195 9.19256 5.73988 8.97488 5.57022 8.7604C5.2469 8.35705 4.92358 7.87688 4.60667 7.30067C4.11689 6.41394 3.8928 5.88255 3.80317 5.56563L3.79357 5.55923C3.76476 5.4696 3.75195 5.37997 3.75195 5.29033C3.75195 5.25192 3.75195 5.22311 3.75836 5.1975C3.78396 4.98942 3.8864 4.78135 4.06247 4.56687C4.06247 4.56367 4.06567 4.56367 4.06567 4.56047C4.30255 4.29797 4.55865 4.0931 4.83075 3.93944C4.83075 3.93944 4.83395 3.93944 4.83715 3.93944C5.12526 3.78898 5.39736 3.8402 5.58622 4.06108C5.58622 4.06108 5.97357 4.52525 6.14003 4.75254C6.29688 4.96701 6.50816 5.30634 6.6138 5.49521C6.80267 5.83453 6.68423 6.18346 6.49856 6.32751L6.12402 6.62522C5.93515 6.77888 5.96076 7.06378 5.96076 7.06378C5.96076 7.06378 6.51456 9.17015 8.59532 9.69835Z" fill="#675DA9"/>
</svg>
