<svg width="14" height="16" viewBox="0 0 14 16" fill="none" xmlns="http://www.w3.org/2000/svg">
<path fill-rule="evenodd" clip-rule="evenodd" d="M10.1558 2.82648C11.0567 3.34802 11.7471 4.19225 11.7471 5.36783V9.31822L13.6745 11.5497C14.4089 12.4 13.8201 13.7409 12.7124 13.7409H1.28764C0.179894 13.7409 -0.408866 12.4 0.325536 11.5497L2.25288 9.31822V5.36778C2.25288 4.19222 2.94327 3.348 3.84423 2.82647C4.7352 2.31072 5.88426 2.07031 7 2.07031C8.11573 2.07031 9.2648 2.31072 10.1558 2.82648ZM4.38579 3.80996C3.71312 4.19934 3.35442 4.72151 3.35442 5.36778V9.3899C3.35442 9.62032 3.27202 9.84182 3.12369 10.0136L1.1502 12.2985C1.04528 12.4199 1.12939 12.6115 1.28764 12.6115H12.7124C12.8706 12.6115 12.9547 12.4199 12.8498 12.2985L10.8763 10.0136C10.728 9.84182 10.6456 9.62032 10.6456 9.38991V5.36783C10.6456 4.72153 10.2869 4.19935 9.6142 3.80996C8.93154 3.41479 7.98244 3.19972 7 3.19972C6.01756 3.19972 5.06846 3.41478 4.38579 3.80996Z" fill="#A3CC4A"/>
<path d="M8.46869 1.50588C8.46869 2.33756 7.81112 3.01176 6.99997 3.01176C6.18882 3.01176 5.53125 2.33756 5.53125 1.50588C5.53125 0.674206 6.18882 0 6.99997 0C7.81112 0 8.46869 0.674206 8.46869 1.50588Z" fill="#A3CC4A"/>
<path fill-rule="evenodd" clip-rule="evenodd" d="M3.87891 12.6113H10.1207V13.176C10.1207 13.9554 9.76767 14.6816 9.17552 15.202C8.586 15.7201 7.8023 15.9996 6.99963 15.9996C6.20071 15.9996 5.39766 15.7224 4.80553 15.202C4.20439 14.6737 3.87891 13.9439 3.87891 13.176L3.87891 12.6113ZM5.08912 13.7407C5.17824 13.9625 5.3224 14.1687 5.5224 14.3445C5.8943 14.6713 6.43521 14.8702 6.99963 14.8702C7.56032 14.8702 8.08413 14.6736 8.45865 14.3445C8.66133 14.1664 8.80957 13.9597 8.9025 13.7407H5.08912Z" fill="#A3CC4A"/>
<path fill-rule="evenodd" clip-rule="evenodd" d="M10.5669 1.21566C10.7234 0.948225 11.0617 0.861506 11.3225 1.02197C13.4151 2.30928 13.793 4.4599 13.793 6.40032C13.793 6.71219 13.5464 6.96502 13.2422 6.96502C12.938 6.96502 12.6914 6.71219 12.6914 6.40032C12.6914 4.57602 12.335 2.96194 10.7558 1.99043C10.4949 1.82997 10.4104 1.48309 10.5669 1.21566Z" fill="#A3CC4A"/>
<path fill-rule="evenodd" clip-rule="evenodd" d="M3.43315 1.21566C3.27665 0.948225 2.93833 0.861506 2.6775 1.02197C1.67121 1.64101 1.03351 2.38858 0.661577 3.31472C0.298339 4.21918 0.207014 5.25048 0.207014 6.40032C0.207014 6.71219 0.453602 6.96502 0.757784 6.96502C1.06197 6.96502 1.30855 6.71219 1.30855 6.40032C1.30855 5.29133 1.40082 4.44027 1.68015 3.74474C1.95077 3.07087 2.41462 2.50079 3.24423 1.99043C3.50507 1.82997 3.58965 1.48309 3.43315 1.21566Z" fill="#A3CC4A"/>
</svg>
