<svg width="14" height="16" viewBox="0 0 14 16" fill="none" xmlns="http://www.w3.org/2000/svg">
<path fill-rule="evenodd" clip-rule="evenodd" d="M9.12564 0.0106286C9.0882 0.00365127 9.04955 0 9.01004 0C8.97052 0 8.93188 0.00365127 8.89443 0.0106286H3.76355C1.72143 0.0106286 0 1.63582 0 3.61809V12.2465C0 14.341 1.64581 16.0005 3.76355 16.0005H10.3227C12.3369 16.0005 14 14.2593 14 12.2465V4.86406C14 4.70812 13.9385 4.55822 13.8284 4.44573L9.66998 0.196357C9.55387 0.077702 9.39345 0.0106286 9.22578 0.0106286H9.12564ZM8.39427 1.21697L3.76359 1.21761C2.39128 1.21761 1.23157 2.31249 1.23157 3.61695V12.2454C1.23157 13.68 2.33369 14.7913 3.76359 14.7913H10.3227C11.6382 14.7913 12.7685 13.6079 12.7685 12.2454L12.768 5.62429L12.0491 5.62669C11.7752 5.62636 11.4636 5.6258 11.1171 5.62502C9.66429 5.62201 8.47862 4.50492 8.39858 3.09875L8.39427 2.94702V1.21697ZM12.094 4.41677L11.1198 4.4169C10.2943 4.41519 9.6258 3.75763 9.6258 2.94702V1.89466L12.094 4.41677ZM8.85417 10.3154C9.19425 10.3154 9.46993 10.5859 9.46993 10.9195C9.46993 11.2253 9.23828 11.4781 8.93773 11.5181L8.85417 11.5236H4.42314C4.08306 11.5236 3.80737 11.2531 3.80737 10.9195C3.80737 10.6137 4.03903 10.361 4.33958 10.321L4.42314 10.3154H8.85417ZM7.79387 6.93084C7.79387 6.59722 7.51818 6.32677 7.17811 6.32677H4.42277L4.33921 6.33229C4.03866 6.37229 3.80701 6.62502 3.80701 6.93084C3.80701 7.26445 4.08269 7.5349 4.42277 7.5349H7.17811L7.26166 7.52938C7.56222 7.48938 7.79387 7.23665 7.79387 6.93084Z" fill="white"/>
</svg>
