<svg width="24" height="24" viewBox="0 0 24 24" fill="none" xmlns="http://www.w3.org/2000/svg">
<path fill-rule="evenodd" clip-rule="evenodd" d="M9.23541 5.1708C8.3146 5.17075 7.52869 5.79134 7.37722 6.63812L7.11449 8.1069C7.05727 8.42678 6.7604 8.66122 6.41255 8.66122H6.13956C5.0992 8.66122 4.25582 9.4475 4.25582 10.4174V17.073C4.25582 18.0429 5.0992 18.8292 6.13956 18.8292L17.86 18.8292C18.9003 18.8292 19.7437 18.043 19.7437 17.0731L19.7442 10.4175C19.7442 9.44757 18.9008 8.66122 17.8604 8.66122H17.6081C17.2589 8.66122 16.9613 8.42496 16.9056 8.10353L16.6534 6.64736C16.506 5.79656 15.7182 5.17117 14.7938 5.17112L9.23541 5.1708ZM6.13851 6.44553C6.39096 5.03422 7.70079 3.99991 9.23549 4L14.7939 4.00031C16.3346 4.0004 17.6475 5.04272 17.8931 6.46072L18.0726 7.497C19.7077 7.59873 21.0001 8.86747 21 10.4176L20.9996 17.0732C20.9995 18.6896 19.5939 20 17.86 20L6.13956 20C4.40563 20 3 18.6895 3 17.073V10.4174C3 8.86002 4.30468 7.5867 5.95066 7.49563L6.13851 6.44553Z" fill="#151A40"/>
<path fill-rule="evenodd" clip-rule="evenodd" d="M12 10.6088C10.9076 10.6088 10.022 11.4423 10.022 12.4705C10.022 13.4987 10.9076 14.3322 12 14.3322C13.0924 14.3322 13.978 13.4987 13.978 12.4705C13.978 11.4423 13.0924 10.6088 12 10.6088ZM9 12.4705C9 10.9111 10.3431 9.64697 12 9.64697C13.6569 9.64697 15 10.9111 15 12.4705C15 14.0299 13.6569 15.294 12 15.294C10.3431 15.294 9 14.0299 9 12.4705Z" fill="#151A40"/>
</svg>
