<svg width="11" height="14" viewBox="0 0 11 14" fill="none" xmlns="http://www.w3.org/2000/svg">
<path d="M6.8 8.4H3.2V10.28H8.4V11.44H3.2V14H1.8V11.44H0V10.28H1.8V8.4H0V7.08H1.8V0H6.8C7.96 0 8.94667 0.413334 9.76 1.24C10.5867 2.05333 11 3.04 11 4.2C11 5.34667 10.5867 6.33333 9.76 7.16C8.94667 7.98667 7.96 8.4 6.8 8.4ZM3.2 1.32V7.08H6.8C7.57333 7.08 8.23333 6.8 8.78 6.24C9.32667 5.66667 9.6 4.98667 9.6 4.2C9.6 3.4 9.32667 2.72 8.78 2.16C8.23333 1.6 7.57333 1.32 6.8 1.32H3.2Z" fill="white"/>
</svg>
