<svg width="21" height="21" viewBox="0 0 21 21" fill="none" xmlns="http://www.w3.org/2000/svg">
<path fill-rule="evenodd" clip-rule="evenodd" d="M3.71429 8.53564C2.62944 8.53564 1.75 9.41509 1.75 10.4999C1.75 11.5848 2.62944 12.4642 3.71429 12.4642C4.79913 12.4642 5.67857 11.5848 5.67857 10.4999C5.67857 9.41509 4.79913 8.53564 3.71429 8.53564ZM0.25 10.4999C0.25 8.58666 1.80101 7.03564 3.71429 7.03564C5.62756 7.03564 7.17857 8.58666 7.17857 10.4999C7.17857 12.4132 5.62756 13.9642 3.71429 13.9642C1.80101 13.9642 0.25 12.4132 0.25 10.4999Z" fill="#151A40"/>
<path fill-rule="evenodd" clip-rule="evenodd" d="M17.2861 1.75C16.2012 1.75 15.3218 2.62944 15.3218 3.71429C15.3218 4.79913 16.2012 5.67857 17.2861 5.67857C18.3709 5.67857 19.2503 4.79913 19.2503 3.71429C19.2503 2.62944 18.3709 1.75 17.2861 1.75ZM13.8218 3.71429C13.8218 1.80101 15.3728 0.25 17.2861 0.25C19.1993 0.25 20.7503 1.80101 20.7503 3.71429C20.7503 5.62756 19.1993 7.17857 17.2861 7.17857C15.3728 7.17857 13.8218 5.62756 13.8218 3.71429Z" fill="#151A40"/>
<path fill-rule="evenodd" clip-rule="evenodd" d="M17.2861 15.3213C16.2012 15.3213 15.3218 16.2007 15.3218 17.2856C15.3218 18.3704 16.2012 19.2499 17.2861 19.2499C18.3709 19.2499 19.2503 18.3704 19.2503 17.2856C19.2503 16.2007 18.3709 15.3213 17.2861 15.3213ZM13.8218 17.2856C13.8218 15.3723 15.3728 13.8213 17.2861 13.8213C19.1993 13.8213 20.7503 15.3723 20.7503 17.2856C20.7503 19.1988 19.1993 20.7499 17.2861 20.7499C15.3728 20.7499 13.8218 19.1988 13.8218 17.2856Z" fill="#151A40"/>
<path fill-rule="evenodd" clip-rule="evenodd" d="M15.2189 4.69351C15.4276 5.0513 15.3068 5.51054 14.949 5.71925L7.17822 10.2522V10.7478L14.949 15.2807C15.3068 15.4894 15.4276 15.9487 15.2189 16.3065C15.0102 16.6642 14.551 16.7851 14.1932 16.5764L6.09993 11.8553C5.8388 11.703 5.67822 11.4234 5.67822 11.1211V9.87885C5.67822 9.57653 5.8388 9.29696 6.09993 9.14464L14.1932 4.42358C14.551 4.21487 15.0102 4.33572 15.2189 4.69351Z" fill="#151A40"/>
</svg>
