<svg width="14" height="16" viewBox="0 0 14 16" fill="none" xmlns="http://www.w3.org/2000/svg">
<path fill-rule="evenodd" clip-rule="evenodd" d="M6.4938 0.0813518L1.02261 1.89604C0.410089 2.09845 0 2.64436 0 3.25758V8.56777C0 10.1852 0.620039 11.7431 1.73692 12.9568C2.26302 13.5297 2.93335 14.0062 3.74649 14.4207L6.70898 15.9294C6.89382 16.0236 7.11647 16.0235 7.30126 15.9293L10.2585 14.4215C11.0695 14.0076 11.7399 13.5301 12.266 12.9571C13.3812 11.7443 14 10.1873 14 8.57091V3.25758C14 2.64436 13.5899 2.09845 12.9767 1.89582L7.50699 0.0816128C7.17953 -0.0271607 6.82188 -0.0271607 6.4938 0.0813518ZM7.0932 1.19154L12.5641 3.00614C12.6779 3.04374 12.7534 3.14417 12.7534 3.25751V8.57084C12.7534 9.90325 12.2433 11.1865 11.3242 12.1861L11.161 12.3541C10.7655 12.7396 10.2672 13.0793 9.6658 13.3862L7.00425 14.7426L4.33885 13.3852C3.6494 13.0337 3.09693 12.641 2.67868 12.1855C1.75789 11.185 1.24683 9.90083 1.24683 8.5677V3.25751C1.24683 3.14417 1.32227 3.04374 1.43537 3.00637L6.90672 1.19163C6.9671 1.17165 7.03335 1.17165 7.0932 1.19154ZM10.0925 5.79196C9.84909 5.56219 9.4544 5.56219 9.21096 5.79196L6.41148 8.43382L5.28025 7.36496L5.21035 7.30798C4.96636 7.13701 4.62004 7.15592 4.39868 7.36474C4.15517 7.59445 4.15507 7.96699 4.39844 8.19682L5.97099 9.68185L6.0409 9.73885C6.28494 9.90983 6.63133 9.89088 6.85268 9.68196L10.0925 6.62403L10.1529 6.55804C10.334 6.32771 10.3138 6.00084 10.0925 5.79196Z" fill="white"/>
</svg>
