<svg width="14" height="16" viewBox="0 0 14 16" fill="none" xmlns="http://www.w3.org/2000/svg">
<path fill-rule="evenodd" clip-rule="evenodd" d="M6.4938 0.0813518L1.02261 1.89604C0.410089 2.09845 0 2.64436 0 3.25758V8.56777C0 10.1852 0.620039 11.7431 1.73692 12.9568C2.26302 13.5297 2.93335 14.0062 3.74649 14.4207L6.70898 15.9294C6.89382 16.0236 7.11647 16.0235 7.30126 15.9293L10.2585 14.4215C11.0695 14.0076 11.7399 13.5301 12.266 12.9571C13.3812 11.7443 14 10.1873 14 8.57091V3.25758C14 2.64436 13.5899 2.09845 12.9767 1.89582L7.50699 0.0816128C7.17953 -0.0271607 6.82188 -0.0271607 6.4938 0.0813518ZM7.09324 1.19166L12.5642 3.00627C12.678 3.04386 12.7534 3.14429 12.7534 3.25763V8.57096C12.7534 9.90338 12.2434 11.1866 11.3243 12.1862L11.1611 12.3542C10.7655 12.7397 10.2672 13.0794 9.66584 13.3864L7.00429 14.7427L4.33888 13.3853C3.64944 13.0338 3.09697 12.6411 2.67871 12.1857C1.75793 11.1851 1.24687 9.90095 1.24687 8.56782V3.25763C1.24687 3.14429 1.32231 3.04386 1.4354 3.00649L6.90675 1.19175C6.96714 1.17178 7.03338 1.17178 7.09324 1.19166ZM10.0925 5.79196C9.84902 5.56219 9.45433 5.56219 9.21089 5.79196L6.41141 8.43382L5.28018 7.36496L5.21028 7.30798C4.96629 7.13701 4.61998 7.15592 4.39861 7.36474C4.1551 7.59445 4.155 7.96699 4.39838 8.19682L5.97092 9.68185L6.04084 9.73884C6.28487 9.90983 6.63126 9.89088 6.85261 9.68196L10.0925 6.62403L10.1528 6.55804C10.3339 6.32771 10.3138 6.00084 10.0925 5.79196Z" fill="#151A40"/>
</svg>
