<svg width="24" height="24" viewBox="0 0 24 24" fill="none" xmlns="http://www.w3.org/2000/svg">
<rect width="24" height="24" rx="2" fill="#FF0000"/>
<path d="M14.9586 4H12.5343C10.1521 4 8.13195 5.8132 8.13195 9.33356C8.13195 11.4454 9.1103 13.0025 10.8539 13.7706L7.60026 19.6588C7.49377 19.851 7.60026 20 7.77031 20H9.28027C9.40785 20 9.49325 19.9575 9.53572 19.851L12.4917 14.0694H13.5551V19.851C13.5551 19.9146 13.6186 20 13.7037 20H15.0225C15.1501 20 15.1925 19.9361 15.1925 19.83V4.21328C15.1926 4.06394 15.1077 4 14.9586 4ZM13.555 12.7042H12.6618C11.2584 12.7042 9.89744 11.6802 9.89744 9.1202C9.89744 6.45312 11.1733 5.36525 12.4703 5.36525H13.5551V12.7042H13.555Z" fill="white"/>
</svg>
