<svg width="24" height="24" viewBox="0 0 24 24" fill="none" xmlns="http://www.w3.org/2000/svg">
<rect width="24" height="24" rx="2" fill="#EA4335"/>
<path d="M7.00332 12.4087C6.89754 9.62367 9.33695 7.05 12.1247 7.01661C13.5456 6.89543 14.9279 7.44719 16.0032 8.34711C15.5621 8.8321 15.1133 9.31148 14.634 9.76027C13.6873 9.18516 12.5476 8.74687 11.4413 9.13612C9.65684 9.64422 8.57619 11.7511 9.23654 13.4968C9.7834 15.32 12.001 16.3205 13.7389 15.5547C14.6389 15.2324 15.2322 14.4021 15.4926 13.5099C14.4612 13.4893 13.4296 13.5022 12.3982 13.4737C12.3956 12.86 12.393 12.2487 12.3956 11.6351C14.1156 11.6325 15.8381 11.6274 17.5607 11.6428C17.6665 13.1463 17.4446 14.7554 16.4672 15.9621C15.1288 17.6847 12.656 18.1902 10.6443 17.5144C8.50941 16.8132 6.95685 14.6624 7.00332 12.4087Z" fill="white"/>
</svg>
