<svg width="24" height="24" viewBox="0 0 24 24" fill="none" xmlns="http://www.w3.org/2000/svg">
<path fill-rule="evenodd" clip-rule="evenodd" d="M0 12.3852C0 10.5593 1.44574 9.0791 3.22915 9.0791C5.01256 9.0791 6.4583 10.5593 6.4583 12.3852V15.7413C6.4583 17.5672 5.01256 19.0474 3.22915 19.0474C1.44574 19.0474 0 17.5672 0 15.7413V12.3852ZM3.22915 10.7934C2.37047 10.7934 1.67438 11.5061 1.67438 12.3852V15.7413C1.67438 16.6205 2.37047 17.3332 3.22915 17.3332C4.08783 17.3332 4.78393 16.6205 4.78393 15.7413V12.3852C4.78393 11.5061 4.08783 10.7934 3.22915 10.7934Z" fill="white"/>
<path fill-rule="evenodd" clip-rule="evenodd" d="M17.541 12.3852C17.541 10.5593 18.9868 9.0791 20.7702 9.0791C22.5536 9.0791 23.9993 10.5593 23.9993 12.3852V15.7413C23.9993 17.5672 22.5536 19.0474 20.7702 19.0474C18.9868 19.0474 17.541 17.5672 17.541 15.7413V12.3852ZM20.7702 10.7934C19.9115 10.7934 19.2154 11.5061 19.2154 12.3852V15.7413C19.2154 16.6205 19.9115 17.3332 20.7702 17.3332C21.6288 17.3332 22.3249 16.6205 22.3249 15.7413V12.3852C22.3249 11.5061 21.6288 10.7934 20.7702 10.7934Z" fill="white"/>
<path fill-rule="evenodd" clip-rule="evenodd" d="M4.06695 8.2883V9.9366C4.06695 10.41 3.69213 10.7937 3.22977 10.7937C2.7674 10.7937 2.39258 10.41 2.39258 9.9366V8.28579H3.22977C2.39258 8.28579 2.39258 8.28635 2.39258 8.28579L2.39258 8.28342L2.39259 8.28036L2.39265 8.27218L2.393 8.24777C2.39338 8.22797 2.39409 8.20118 2.3954 8.16785C2.39802 8.10123 2.40307 8.00832 2.41281 7.89286C2.43226 7.66223 2.47055 7.33978 2.54611 6.95578C2.69663 6.19084 2.99877 5.16283 3.60959 4.1281C4.86381 2.00346 7.33429 0 12.0003 0C16.6663 0 19.1368 2.00346 20.391 4.1281C21.0018 5.16283 21.304 6.19084 21.4545 6.95578C21.5301 7.33978 21.5683 7.66223 21.5878 7.89286C21.5975 8.00832 21.6026 8.10123 21.6052 8.16785C21.6065 8.20118 21.6072 8.22797 21.6076 8.24777L21.608 8.27218L21.608 8.28036L21.608 8.28342L21.608 8.28469C21.608 8.28525 21.608 8.28579 20.7708 8.28579L21.608 8.28469V9.9366C21.608 10.41 21.2332 10.7937 20.7708 10.7937C20.3085 10.7937 19.9336 10.41 19.9336 9.9366L19.9336 8.28672L19.9335 8.28119C19.9334 8.27287 19.933 8.25795 19.9322 8.23687C19.9305 8.19467 19.927 8.12798 19.9196 8.04032C19.9048 7.86469 19.8746 7.60679 19.8131 7.29434C19.6895 6.66642 19.4435 5.83726 18.958 5.01483C18.0196 3.42515 16.1048 1.71428 12.0003 1.71428C7.89578 1.71428 5.98099 3.42515 5.04257 5.01483C4.55707 5.83726 4.31106 6.66642 4.1875 7.29434C4.12602 7.60679 4.09579 7.86469 4.08098 8.04032C4.07359 8.12798 4.07008 8.19467 4.06842 8.23687C4.06759 8.25795 4.06722 8.27287 4.06706 8.28119L4.06695 8.2883ZM19.9336 8.28828C19.9336 8.28875 19.9337 8.28867 19.9336 8.28828V8.28828Z" fill="white"/>
<path fill-rule="evenodd" clip-rule="evenodd" d="M18.3774 14.0312C18.8398 14.0312 19.2146 14.415 19.2146 14.8884V14.9145C19.2146 16.1327 19.2146 17.2993 19.1241 18.3432C19.0331 19.3936 18.8457 20.3922 18.4302 21.2525C18.0028 22.1374 17.3474 22.8475 16.386 23.3215C15.4472 23.7843 14.2626 23.9996 12.7962 23.9996C12.3338 23.9996 11.959 23.6158 11.959 23.1424C11.959 22.6691 12.3338 22.2853 12.7962 22.2853C14.1204 22.2853 15.0287 22.0879 15.6596 21.7769C16.268 21.477 16.659 21.0522 16.9293 20.4926C17.2114 19.9085 17.373 19.1531 17.4563 18.1916C17.5396 17.231 17.5402 16.137 17.5402 14.8884C17.5402 14.415 17.9151 14.0312 18.3774 14.0312Z" fill="white"/>
</svg>
