<svg width="24" height="24" viewBox="0 0 24 24" fill="none" xmlns="http://www.w3.org/2000/svg">
<path fill-rule="evenodd" clip-rule="evenodd" d="M7.84849 5.11609C7.57817 4.9441 7.19375 4.96321 6.94878 5.17342L3.20078 8.38967L3.13421 8.45584C2.9346 8.68675 2.95773 9.01382 3.20303 9.22238L3.2805 9.27924C3.55083 9.44974 3.93375 9.42998 4.17791 9.22046L6.7478 7.01476V16.2805L6.7541 16.3604C6.79974 16.6478 7.08816 16.8693 7.43715 16.8693C7.81786 16.8693 8.12649 16.6057 8.12649 16.2805V7.01469L10.6968 9.22046L10.7739 9.27762C11.0433 9.44919 11.4264 9.43094 11.6717 9.22238C11.9415 8.99297 11.9425 8.62015 11.6739 8.38967L7.92591 5.17342L7.9198 5.1689C7.89954 5.15192 7.87805 5.13601 7.85547 5.12126L7.84849 5.11609ZM17.2457 7.63979C17.2 7.35239 16.9116 7.13087 16.5626 7.13087C16.1819 7.13087 15.8733 7.39449 15.8733 7.71969V16.9847L13.3033 14.7795L13.2261 14.7223C12.9567 14.5508 12.5737 14.569 12.3284 14.7776C12.0586 15.007 12.0576 15.3798 12.3261 15.6103L16.0741 18.8265L16.0759 18.8278C16.0987 18.8472 16.1231 18.8653 16.1489 18.8819L16.1516 18.8838C16.4219 19.0558 16.8063 19.0367 17.0513 18.8265L20.7993 15.6103L20.8658 15.5441C21.0655 15.3132 21.0423 14.9861 20.797 14.7776C20.5272 14.5481 20.0907 14.549 19.8221 14.7795L17.252 16.9843V7.71969L17.2457 7.63979Z" fill="#200E32"/>
</svg>
