<svg width="24" height="24" viewBox="0 0 24 24" fill="none" xmlns="http://www.w3.org/2000/svg">
<circle cx="12" cy="12" r="12" fill="#151A40"/>
<path fill-rule="evenodd" clip-rule="evenodd" d="M9.0137 12.8097L6.56632 11.8463C6.31775 11.7481 6.3156 11.378 6.56346 11.2772L16.6076 7.19061C16.8205 7.10375 17.0402 7.30051 16.9938 7.53634L15.1914 16.6807C15.1489 16.8966 14.9089 16.9945 14.7395 16.8646L12.2789 14.9805C12.1295 14.8661 11.9258 14.8722 11.7828 14.9951L10.4186 16.1681C10.2602 16.3046 10.0216 16.2285 9.96099 16.0228L9.0137 12.8097ZM14.5914 9.18962L9.80833 12.2966C9.62501 12.4159 9.53869 12.6494 9.59791 12.868L10.1151 14.7845C10.1518 14.9203 10.3387 14.9064 10.3565 14.7661L10.491 13.7151C10.5163 13.5172 10.6058 13.3349 10.7446 13.1987L14.692 9.32875C14.7658 9.25652 14.6774 9.13393 14.5914 9.18962Z" fill="white"/>
<path d="M9.80833 12.2966L14.5914 9.18962C14.6774 9.13394 14.7658 9.25652 14.692 9.32875L10.7446 13.1987C10.6058 13.3349 10.5163 13.5172 10.491 13.7151L10.3565 14.7661C10.3387 14.9064 10.1518 14.9203 10.1151 14.7845L9.59791 12.868C9.53869 12.6494 9.62501 12.4159 9.80833 12.2966Z" fill="#151A40"/>
</svg>
