<svg width="24" height="24" viewBox="0 0 24 24" fill="none" xmlns="http://www.w3.org/2000/svg">
<ellipse cx="12.0001" cy="12" rx="12.0001" ry="12" fill="#151A40"/>
<path d="M15.6872 13.0317C16.0546 13.4014 16.4424 13.7494 16.772 14.1564C16.9176 14.3373 17.0554 14.524 17.1608 14.7339C17.3102 15.0324 17.1749 15.3608 16.9153 15.3786L15.3016 15.3778C14.8854 15.4134 14.5534 15.2407 14.2742 14.9474C14.0508 14.7128 13.8439 14.4632 13.629 14.2207C13.5409 14.1215 13.4488 14.0283 13.3386 13.9546C13.1183 13.8072 12.9271 13.8523 12.8012 14.0891C12.673 14.33 12.6439 14.5967 12.6313 14.8652C12.614 15.2569 12.4992 15.3599 12.1175 15.3778C11.3017 15.4175 10.5276 15.2902 9.80837 14.8661C9.17431 14.4921 8.68262 13.9642 8.25466 13.3666C7.42142 12.2028 6.78331 10.924 6.20981 9.60943C6.08072 9.31325 6.17513 9.15426 6.49216 9.14864C7.0186 9.13809 7.54497 9.13884 8.07204 9.14789C8.286 9.15111 8.42765 9.27761 8.51026 9.48597C8.79508 10.2079 9.1436 10.8947 9.58105 11.5313C9.69755 11.7008 9.81634 11.8703 9.98551 11.9896C10.1726 12.1217 10.3151 12.0779 10.4032 11.863C10.459 11.7268 10.4835 11.58 10.4961 11.4341C10.5378 10.932 10.5433 10.4308 10.4701 9.93052C10.4252 9.61828 10.2546 9.41615 9.95235 9.35707C9.79811 9.32694 9.82108 9.26778 9.89576 9.17703C10.0255 9.02052 10.1475 8.9231 10.3906 8.9231H12.2144C12.5015 8.98151 12.5653 9.11446 12.6046 9.41225L12.6062 11.5004C12.603 11.6157 12.662 11.9578 12.8635 12.0341C13.0247 12.0885 13.131 11.9555 13.2277 11.8501C13.6644 11.3724 13.976 10.8078 14.2544 10.2233C14.378 9.9662 14.4842 9.69924 14.5872 9.43251C14.6635 9.23458 14.7832 9.13719 14.9994 9.14151L16.7547 9.14312C16.8067 9.14312 16.8594 9.14391 16.9098 9.1528C17.2056 9.20476 17.2866 9.33591 17.1953 9.63363C17.0514 10.1007 16.7713 10.49 16.4975 10.881C16.2048 11.2985 15.8917 11.7018 15.6014 12.1217C15.3347 12.5052 15.3559 12.6986 15.6872 13.0317Z" fill="white"/>
</svg>
