<svg width="24" height="24" viewBox="0 0 24 24" fill="none" xmlns="http://www.w3.org/2000/svg">
<circle cx="12" cy="12" r="12" fill="#151A40"/>
<path fill-rule="evenodd" clip-rule="evenodd" d="M16.9846 8.33854C17.3093 8.71055 17.4239 9.55252 17.4239 9.55252C17.4239 9.55252 17.5385 10.5511 17.5385 11.5497V12.47C17.5385 13.449 17.4239 14.4476 17.4239 14.4476C17.4239 14.4476 17.3093 15.2896 16.9846 15.6616C16.5851 16.1085 16.1337 16.1481 15.9097 16.1678C15.8982 16.1688 15.8872 16.1698 15.8769 16.1707C14.33 16.3078 12 16.3078 12 16.3078C12 16.3078 9.11618 16.2882 8.23768 16.1903C8.191 16.1793 8.13352 16.171 8.06815 16.1616C7.78586 16.1209 7.35656 16.0591 7.01539 15.6616C6.69074 15.2896 6.57615 14.4477 6.57615 14.4477C6.57615 14.4477 6.46155 13.4686 6.46155 12.47V11.5497C6.46155 10.5511 6.57615 9.55252 6.57615 9.55252C6.57615 9.55252 6.67162 8.71058 7.01539 8.33854C7.41497 7.89164 7.86636 7.85203 8.09031 7.83237C8.10186 7.83136 8.11279 7.8304 8.12309 7.82944C9.67003 7.71197 12 7.69238 12 7.69238C12 7.69238 14.33 7.71197 15.8769 7.82944C15.8929 7.83093 15.9104 7.8323 15.9293 7.83378C16.1592 7.85185 16.5964 7.88619 16.9846 8.33854ZM10.6631 14.2714V10.0225L14.2918 12.1959L10.6631 14.2714Z" fill="white"/>
</svg>
