<svg width="38" height="48" viewBox="0 0 38 48" fill="none" xmlns="http://www.w3.org/2000/svg">
<g clip-path="url(#clip0)">
<path d="M9.85758 0.0794373C7.90794 0.0794373 6.00207 0.659495 4.381 1.74626C2.75993 2.83302 1.49646 4.37767 0.750367 6.18489C0.00427103 7.99211 -0.190942 9.98072 0.189415 11.8993C0.569772 13.8178 1.50861 15.5801 2.88722 16.9633C4.26583 18.3464 6.02228 19.2884 7.93446 19.67C9.84665 20.0516 11.8287 19.8558 13.6299 19.1072C15.4311 18.3586 16.9707 17.091 18.0539 15.4645C19.137 13.8381 19.7152 11.9259 19.7152 9.96975C19.7152 7.34667 18.6766 4.83104 16.8279 2.97624C14.9793 1.12145 12.472 0.0794373 9.85758 0.0794373ZM9.85758 4.06077C10.3394 4.06097 10.8104 4.20449 11.2109 4.47321C11.6114 4.74193 11.9235 5.12377 12.1078 5.57045C12.2921 6.01713 12.3402 6.5086 12.246 6.98272C12.1519 7.45683 11.9198 7.8923 11.579 8.23407C11.2383 8.57583 10.8042 8.80855 10.3316 8.90279C9.85899 8.99703 9.36917 8.94857 8.92403 8.76352C8.4789 8.57848 8.09845 8.26517 7.83078 7.8632C7.56311 7.46123 7.42025 6.98866 7.42025 6.50523C7.42025 6.18414 7.4833 5.86619 7.6058 5.56955C7.7283 5.27292 7.90784 5.0034 8.13418 4.7764C8.36052 4.54939 8.62922 4.36936 8.92493 4.24657C9.22063 4.12378 9.53755 4.06065 9.85758 4.06077Z" fill="#151A40"/>
<path d="M13.3493 19.318H6.62585V48.0794H13.3493V19.318Z" fill="#151A40"/>
<path d="M19.7161 31.9553H13.3493V36.7929H19.7161V31.9553Z" fill="#151A40"/>
<path d="M16.5327 39.7697H13.3493V44.1107H16.5327V39.7697Z" fill="#151A40"/>
<path d="M38 17.9353H34.4455V26.2519H26.4L26.3168 34.3241H21.3001V30.1654H14.941V20.3352C16.8707 19.6572 18.5425 18.394 19.725 16.7205C20.9074 15.047 21.542 13.046 21.5407 10.9946C21.5409 10.6464 21.5225 10.2985 21.4857 9.95228L24.528 7.63873L38 17.9353Z" fill="#A3CC4A"/>
<path d="M27.983 28.1534H34.4832L27.983 34.2931V28.1534Z" fill="#A3CC4A"/>
</g>
<defs>
<clipPath id="clip0">
<rect width="38" height="48" fill="white"/>
</clipPath>
</defs>
</svg>
