<svg width="196" height="206" viewBox="0 0 196 206" fill="none" xmlns="http://www.w3.org/2000/svg">
<path d="M19.2689 110.979C29.9108 110.979 38.5377 102.338 38.5377 91.6785C38.5377 81.0191 29.9108 72.3779 19.2689 72.3779C8.62696 72.3779 0 81.0191 0 91.6785C0 102.338 8.62696 110.979 19.2689 110.979Z" fill="#EFF3F2"/>
<path d="M58.7291 200.696H58.7095C58.031 200.695 57.3806 200.425 56.9008 199.944C56.421 199.464 56.1512 198.812 56.1504 198.133V47.6483C56.1512 46.9687 56.421 46.3172 56.9008 45.8366C57.3806 45.356 58.031 45.0857 58.7095 45.085H185.161C185.84 45.0857 186.49 45.356 186.97 45.8366C187.45 46.3171 187.72 46.9687 187.721 47.6483V164.658C187.72 165.334 187.453 165.983 186.977 166.463C186.502 166.943 185.856 167.215 185.181 167.221L58.7291 200.696Z" fill="#EFF3F2"/>
<path d="M110.194 0H135.484C136.123 0 136.736 0.254182 137.187 0.706627C137.639 1.15907 137.893 1.77272 137.893 2.41257V38.6012H107.785V2.41257C107.785 1.77272 108.039 1.15907 108.491 0.706627C108.942 0.254182 109.555 0 110.194 0Z" fill="#EFF3F2"/>
<path d="M36.8532 206C36.7614 206 36.6733 205.964 36.6083 205.899C36.5433 205.834 36.5068 205.745 36.5068 205.653V134.824C36.5066 134.778 36.5153 134.733 36.5326 134.69C36.5499 134.648 36.5754 134.609 36.6076 134.577C36.6398 134.545 36.678 134.519 36.7202 134.501C36.7624 134.484 36.8076 134.475 36.8532 134.475C36.8989 134.475 36.9441 134.484 36.9863 134.501C37.0284 134.519 37.0667 134.545 37.0989 134.577C37.1311 134.609 37.1565 134.648 37.1738 134.69C37.1911 134.733 37.1999 134.778 37.1996 134.824V205.653C37.1996 205.745 37.1631 205.834 37.0982 205.899C37.0332 205.964 36.9451 206 36.8532 206Z" fill="#151A40"/>
<path d="M37.1559 169.435C37.0359 169.435 36.9191 169.435 36.7991 169.432C28.7499 169.341 21.0611 166.075 15.4004 160.342C9.7396 154.61 6.56335 146.873 6.56055 138.81C6.56055 129.909 10.2205 115.662 15.4608 104.166C19.2294 95.8977 27.0592 82.0273 37.1559 82.0273C41.3147 82.0273 45.5025 84.4016 49.6029 89.0844C49.8062 89.3153 50.01 89.5531 50.2109 89.7968L50.2798 89.8804V166.476L50.11 166.558C49.9073 166.656 49.7018 166.749 49.4962 166.838C45.7177 168.513 41.6371 169.395 37.5053 169.432C37.3929 169.435 37.2728 169.435 37.1559 169.435ZM37.1559 82.6305C27.3959 82.6305 19.7171 96.2798 16.0086 104.416C10.8003 115.843 7.1627 129.986 7.1627 138.81C7.1627 155.178 20.4624 168.644 36.81 168.829C36.9318 168.832 37.0454 168.833 37.1639 168.832C37.2732 168.832 37.3852 168.832 37.4944 168.829C41.5467 168.793 45.549 167.928 49.2548 166.285C49.3969 166.223 49.5379 166.161 49.6776 166.096V90.0976C49.5033 89.8879 49.327 89.683 49.1507 89.4826C45.1691 84.9357 41.1337 82.6305 37.1559 82.6305Z" fill="#151A40"/>
<path d="M37.1542 148.057C37.1046 148.057 37.0555 148.046 37.0103 148.025C36.9651 148.005 36.9248 147.975 36.8923 147.937L19.471 127.813C19.411 127.744 19.381 127.653 19.3876 127.561C19.3942 127.47 19.4369 127.384 19.5062 127.324C19.5755 127.264 19.6659 127.234 19.7574 127.24C19.8489 127.247 19.9342 127.289 19.9944 127.358L37.4158 147.482C37.4593 147.533 37.4874 147.594 37.4969 147.66C37.5064 147.726 37.4967 147.793 37.4692 147.854C37.4416 147.914 37.3973 147.965 37.3415 148.001C37.2856 148.037 37.2206 148.057 37.1542 148.057V148.057Z" fill="#151A40"/>
<path d="M37.1549 159.67C37.0864 159.67 37.0195 159.65 36.9625 159.612C36.9056 159.574 36.8612 159.52 36.835 159.456C36.8087 159.393 36.8019 159.323 36.8152 159.256C36.8286 159.188 36.8616 159.127 36.91 159.078L46.8092 149.162C46.8742 149.098 46.9622 149.061 47.0539 149.062C47.1456 149.062 47.2335 149.098 47.2983 149.163C47.3631 149.228 47.3996 149.316 47.3997 149.408C47.3999 149.5 47.3636 149.588 47.299 149.653L37.3999 159.569C37.3677 159.601 37.3296 159.627 37.2875 159.644C37.2455 159.661 37.2004 159.67 37.1549 159.67Z" fill="#151A40"/>
<path d="M64.3581 26.2364L64.581 26.6767C64.6798 26.8667 64.7314 27.0777 64.7315 27.2919V39.204H75.2692V27.2919C75.2693 27.0777 75.321 26.8667 75.4197 26.6767L75.6426 26.2364H64.3581ZM74.667 27.2919V38.6009H65.3337V27.2919C65.3338 27.1395 65.3156 26.9876 65.2794 26.8396H74.7213C74.6851 26.9876 74.6669 27.1395 74.667 27.2919ZM77.6055 26.2364L77.8283 26.6767C77.9271 26.8667 77.9787 27.0777 77.9789 27.2919V39.204H88.5165V27.2919C88.5167 27.0777 88.5683 26.8667 88.6671 26.6767L88.8899 26.2364H77.6055ZM87.9144 27.2919V38.6009H78.581V27.2919C78.5812 27.1395 78.563 26.9876 78.5268 26.8396H87.9686C87.9324 26.9876 87.9142 27.1395 87.9144 27.2919ZM90.8528 26.2364L91.0757 26.6767C91.1744 26.8667 91.2261 27.0777 91.2262 27.2919V39.204H101.764V27.2919C101.764 27.0777 101.816 26.8667 101.914 26.6767L102.137 26.2364H90.8528ZM101.162 27.2919V38.6009H91.8284V27.2919C91.8285 27.1395 91.8103 26.9876 91.7741 26.8396H101.216C101.18 26.9876 101.162 27.1395 101.162 27.2919ZM104.1 26.2364L104.323 26.6767C104.422 26.8667 104.473 27.0777 104.474 27.2919V39.204H115.011V27.2919C115.011 27.0777 115.063 26.8667 115.162 26.6767L115.385 26.2364H104.1ZM114.409 27.2919V38.6009H105.076V27.2919C105.076 27.1395 105.058 26.9876 105.021 26.8396H114.463C114.427 26.9876 114.409 27.1395 114.409 27.2919ZM117.348 26.2364L117.57 26.6767C117.669 26.8667 117.721 27.0777 117.721 27.2919V39.204H128.259V27.2919C128.259 27.0777 128.31 26.8667 128.409 26.6767L128.632 26.2364H117.348ZM127.656 27.2919V38.6009H118.323V27.2919C118.323 27.1395 118.305 26.9876 118.269 26.8396H127.711C127.674 26.9876 127.656 27.1395 127.656 27.2919ZM130.595 26.2364L130.818 26.6767C130.916 26.8667 130.968 27.0777 130.968 27.2919V39.204H141.506V27.2919C141.506 27.0777 141.558 26.8667 141.656 26.6767L141.879 26.2364H130.595ZM140.904 27.2919V38.6009H131.57V27.2919C131.571 27.1395 131.552 26.9876 131.516 26.8396H140.958C140.922 26.9876 140.904 27.1395 140.904 27.2919ZM143.842 26.2364L144.065 26.6767C144.164 26.8667 144.215 27.0777 144.216 27.2919V39.204H154.753V27.2919C154.753 27.0777 154.805 26.8667 154.904 26.6767L155.127 26.2364H143.842ZM154.151 27.2919V38.6009H144.818V27.2919C144.818 27.1395 144.8 26.9876 144.764 26.8396H154.205C154.169 26.9876 154.151 27.1395 154.151 27.2919ZM157.09 26.2364L157.312 26.6767C157.411 26.8667 157.463 27.0777 157.463 27.2919V39.204H168.001V27.2919C168.001 27.0777 168.052 26.8667 168.151 26.6767L168.374 26.2364H157.09ZM167.398 27.2919V38.6009H158.065V27.2919C158.065 27.1395 158.047 26.9876 158.011 26.8396H167.453C167.416 26.9876 167.398 27.1395 167.398 27.2919ZM170.337 26.2364L170.56 26.6767C170.659 26.8667 170.71 27.0777 170.71 27.2919V39.204H181.248V27.2919C181.248 27.0777 181.3 26.8667 181.398 26.6767L181.621 26.2364H170.337ZM180.646 27.2919V38.6009H171.312V27.2919C171.313 27.1395 171.294 26.9876 171.258 26.8396H180.7C180.664 26.9876 180.646 27.1395 180.646 27.2919ZM170.337 26.2364L170.56 26.6767C170.659 26.8667 170.71 27.0777 170.71 27.2919V39.204H181.248V27.2919C181.248 27.0777 181.3 26.8667 181.398 26.6767L181.621 26.2364H170.337ZM180.646 27.2919V38.6009H171.312V27.2919C171.313 27.1395 171.294 26.9876 171.258 26.8396H180.7C180.664 26.9876 180.646 27.1395 180.646 27.2919ZM157.09 26.2364L157.312 26.6767C157.411 26.8667 157.463 27.0777 157.463 27.2919V39.204H168.001V27.2919C168.001 27.0777 168.052 26.8667 168.151 26.6767L168.374 26.2364H157.09ZM167.398 27.2919V38.6009H158.065V27.2919C158.065 27.1395 158.047 26.9876 158.011 26.8396H167.453C167.416 26.9876 167.398 27.1395 167.398 27.2919ZM143.842 26.2364L144.065 26.6767C144.164 26.8667 144.215 27.0777 144.216 27.2919V39.204H154.753V27.2919C154.753 27.0777 154.805 26.8667 154.904 26.6767L155.127 26.2364H143.842ZM154.151 27.2919V38.6009H144.818V27.2919C144.818 27.1395 144.8 26.9876 144.764 26.8396H154.205C154.169 26.9876 154.151 27.1395 154.151 27.2919ZM130.595 26.2364L130.818 26.6767C130.916 26.8667 130.968 27.0777 130.968 27.2919V39.204H141.506V27.2919C141.506 27.0777 141.558 26.8667 141.656 26.6767L141.879 26.2364H130.595ZM140.904 27.2919V38.6009H131.57V27.2919C131.571 27.1395 131.552 26.9876 131.516 26.8396H140.958C140.922 26.9876 140.904 27.1395 140.904 27.2919ZM117.348 26.2364L117.57 26.6767C117.669 26.8667 117.721 27.0777 117.721 27.2919V39.204H128.259V27.2919C128.259 27.0777 128.31 26.8667 128.409 26.6767L128.632 26.2364H117.348ZM127.656 27.2919V38.6009H118.323V27.2919C118.323 27.1395 118.305 26.9876 118.269 26.8396H127.711C127.674 26.9876 127.656 27.1395 127.656 27.2919ZM104.1 26.2364L104.323 26.6767C104.422 26.8667 104.473 27.0777 104.474 27.2919V39.204H115.011V27.2919C115.011 27.0777 115.063 26.8667 115.162 26.6767L115.385 26.2364H104.1ZM114.409 27.2919V38.6009H105.076V27.2919C105.076 27.1395 105.058 26.9876 105.021 26.8396H114.463C114.427 26.9876 114.409 27.1395 114.409 27.2919ZM90.8528 26.2364L91.0757 26.6767C91.1744 26.8667 91.2261 27.0777 91.2262 27.2919V39.204H101.764V27.2919C101.764 27.0777 101.816 26.8667 101.914 26.6767L102.137 26.2364H90.8528ZM101.162 27.2919V38.6009H91.8284V27.2919C91.8285 27.1395 91.8103 26.9876 91.7741 26.8396H101.216C101.18 26.9876 101.162 27.1395 101.162 27.2919ZM77.6055 26.2364L77.8283 26.6767C77.9271 26.8667 77.9787 27.0777 77.9789 27.2919V39.204H88.5165V27.2919C88.5167 27.0777 88.5683 26.8667 88.6671 26.6767L88.8899 26.2364H77.6055ZM87.9144 27.2919V38.6009H78.581V27.2919C78.5812 27.1395 78.563 26.9876 78.5268 26.8396H87.9686C87.9324 26.9876 87.9142 27.1395 87.9144 27.2919ZM64.3581 26.2364L64.581 26.6767C64.6798 26.8667 64.7314 27.0777 64.7315 27.2919V39.204H75.2692V27.2919C75.2693 27.0777 75.321 26.8667 75.4197 26.6767L75.6426 26.2364H64.3581ZM74.667 27.2919V38.6009H65.3337V27.2919C65.3338 27.1395 65.3156 26.9876 65.2794 26.8396H74.7213C74.6851 26.9876 74.6669 27.1395 74.667 27.2919ZM170.337 26.2364L170.56 26.6767C170.659 26.8667 170.71 27.0777 170.71 27.2919V39.204H181.248V27.2919C181.248 27.0777 181.3 26.8667 181.398 26.6767L181.621 26.2364H170.337ZM180.646 27.2919V38.6009H171.312V27.2919C171.313 27.1395 171.294 26.9876 171.258 26.8396H180.7C180.664 26.9876 180.646 27.1395 180.646 27.2919ZM157.09 26.2364L157.312 26.6767C157.411 26.8667 157.463 27.0777 157.463 27.2919V39.204H168.001V27.2919C168.001 27.0777 168.052 26.8667 168.151 26.6767L168.374 26.2364H157.09ZM167.398 27.2919V38.6009H158.065V27.2919C158.065 27.1395 158.047 26.9876 158.011 26.8396H167.453C167.416 26.9876 167.398 27.1395 167.398 27.2919ZM143.842 26.2364L144.065 26.6767C144.164 26.8667 144.215 27.0777 144.216 27.2919V39.204H154.753V27.2919C154.753 27.0777 154.805 26.8667 154.904 26.6767L155.127 26.2364H143.842ZM154.151 27.2919V38.6009H144.818V27.2919C144.818 27.1395 144.8 26.9876 144.764 26.8396H154.205C154.169 26.9876 154.151 27.1395 154.151 27.2919ZM130.595 26.2364L130.818 26.6767C130.916 26.8667 130.968 27.0777 130.968 27.2919V39.204H141.506V27.2919C141.506 27.0777 141.558 26.8667 141.656 26.6767L141.879 26.2364H130.595ZM140.904 27.2919V38.6009H131.57V27.2919C131.571 27.1395 131.552 26.9876 131.516 26.8396H140.958C140.922 26.9876 140.904 27.1395 140.904 27.2919ZM117.348 26.2364L117.57 26.6767C117.669 26.8667 117.721 27.0777 117.721 27.2919V39.204H128.259V27.2919C128.259 27.0777 128.31 26.8667 128.409 26.6767L128.632 26.2364H117.348ZM127.656 27.2919V38.6009H118.323V27.2919C118.323 27.1395 118.305 26.9876 118.269 26.8396H127.711C127.674 26.9876 127.656 27.1395 127.656 27.2919ZM104.1 26.2364L104.323 26.6767C104.422 26.8667 104.473 27.0777 104.474 27.2919V39.204H115.011V27.2919C115.011 27.0777 115.063 26.8667 115.162 26.6767L115.385 26.2364H104.1ZM114.409 27.2919V38.6009H105.076V27.2919C105.076 27.1395 105.058 26.9876 105.021 26.8396H114.463C114.427 26.9876 114.409 27.1395 114.409 27.2919ZM90.8528 26.2364L91.0757 26.6767C91.1744 26.8667 91.2261 27.0777 91.2262 27.2919V39.204H101.764V27.2919C101.764 27.0777 101.816 26.8667 101.914 26.6767L102.137 26.2364H90.8528ZM101.162 27.2919V38.6009H91.8284V27.2919C91.8285 27.1395 91.8103 26.9876 91.7741 26.8396H101.216C101.18 26.9876 101.162 27.1395 101.162 27.2919ZM77.6055 26.2364L77.8283 26.6767C77.9271 26.8667 77.9787 27.0777 77.9789 27.2919V39.204H88.5165V27.2919C88.5167 27.0777 88.5683 26.8667 88.6671 26.6767L88.8899 26.2364H77.6055ZM87.9144 27.2919V38.6009H78.581V27.2919C78.5812 27.1395 78.563 26.9876 78.5268 26.8396H87.9686C87.9324 26.9876 87.9142 27.1395 87.9144 27.2919ZM64.3581 26.2364L64.581 26.6767C64.6798 26.8667 64.7314 27.0777 64.7315 27.2919V39.204H75.2692V27.2919C75.2693 27.0777 75.321 26.8667 75.4197 26.6767L75.6426 26.2364H64.3581ZM74.667 27.2919V38.6009H65.3337V27.2919C65.3338 27.1395 65.3156 26.9876 65.2794 26.8396H74.7213C74.6851 26.9876 74.6669 27.1395 74.667 27.2919ZM170.337 26.2364L170.56 26.6767C170.659 26.8667 170.71 27.0777 170.71 27.2919V39.204H181.248V27.2919C181.248 27.0777 181.3 26.8667 181.398 26.6767L181.621 26.2364H170.337ZM180.646 27.2919V38.6009H171.312V27.2919C171.313 27.1395 171.294 26.9876 171.258 26.8396H180.7C180.664 26.9876 180.646 27.1395 180.646 27.2919ZM157.09 26.2364L157.312 26.6767C157.411 26.8667 157.463 27.0777 157.463 27.2919V39.204H168.001V27.2919C168.001 27.0777 168.052 26.8667 168.151 26.6767L168.374 26.2364H157.09ZM167.398 27.2919V38.6009H158.065V27.2919C158.065 27.1395 158.047 26.9876 158.011 26.8396H167.453C167.416 26.9876 167.398 27.1395 167.398 27.2919ZM143.842 26.2364L144.065 26.6767C144.164 26.8667 144.215 27.0777 144.216 27.2919V39.204H154.753V27.2919C154.753 27.0777 154.805 26.8667 154.904 26.6767L155.127 26.2364H143.842ZM154.151 27.2919V38.6009H144.818V27.2919C144.818 27.1395 144.8 26.9876 144.764 26.8396H154.205C154.169 26.9876 154.151 27.1395 154.151 27.2919ZM130.595 26.2364L130.818 26.6767C130.916 26.8667 130.968 27.0777 130.968 27.2919V39.204H141.506V27.2919C141.506 27.0777 141.558 26.8667 141.656 26.6767L141.879 26.2364H130.595ZM140.904 27.2919V38.6009H131.57V27.2919C131.571 27.1395 131.552 26.9876 131.516 26.8396H140.958C140.922 26.9876 140.904 27.1395 140.904 27.2919ZM117.348 26.2364L117.57 26.6767C117.669 26.8667 117.721 27.0777 117.721 27.2919V39.204H128.259V27.2919C128.259 27.0777 128.31 26.8667 128.409 26.6767L128.632 26.2364H117.348ZM127.656 27.2919V38.6009H118.323V27.2919C118.323 27.1395 118.305 26.9876 118.269 26.8396H127.711C127.674 26.9876 127.656 27.1395 127.656 27.2919ZM104.1 26.2364L104.323 26.6767C104.422 26.8667 104.473 27.0777 104.474 27.2919V39.204H115.011V27.2919C115.011 27.0777 115.063 26.8667 115.162 26.6767L115.385 26.2364H104.1ZM114.409 27.2919V38.6009H105.076V27.2919C105.076 27.1395 105.058 26.9876 105.021 26.8396H114.463C114.427 26.9876 114.409 27.1395 114.409 27.2919ZM90.8528 26.2364L91.0757 26.6767C91.1744 26.8667 91.2261 27.0777 91.2262 27.2919V39.204H101.764V27.2919C101.764 27.0777 101.816 26.8667 101.914 26.6767L102.137 26.2364H90.8528ZM101.162 27.2919V38.6009H91.8284V27.2919C91.8285 27.1395 91.8103 26.9876 91.7741 26.8396H101.216C101.18 26.9876 101.162 27.1395 101.162 27.2919ZM77.6055 26.2364L77.8283 26.6767C77.9271 26.8667 77.9787 27.0777 77.9789 27.2919V39.204H88.5165V27.2919C88.5167 27.0777 88.5683 26.8667 88.6671 26.6767L88.8899 26.2364H77.6055ZM87.9144 27.2919V38.6009H78.581V27.2919C78.5812 27.1395 78.563 26.9876 78.5268 26.8396H87.9686C87.9324 26.9876 87.9142 27.1395 87.9144 27.2919ZM64.3581 26.2364L64.581 26.6767C64.6798 26.8667 64.7314 27.0777 64.7315 27.2919V39.204H75.2692V27.2919C75.2693 27.0777 75.321 26.8667 75.4197 26.6767L75.6426 26.2364H64.3581ZM74.667 27.2919V38.6009H65.3337V27.2919C65.3338 27.1395 65.3156 26.9876 65.2794 26.8396H74.7213C74.6851 26.9876 74.6669 27.1395 74.667 27.2919ZM170.337 26.2364L170.56 26.6767C170.659 26.8667 170.71 27.0777 170.71 27.2919V39.204H181.248V27.2919C181.248 27.0777 181.3 26.8667 181.398 26.6767L181.621 26.2364H170.337ZM180.646 27.2919V38.6009H171.312V27.2919C171.313 27.1395 171.294 26.9876 171.258 26.8396H180.7C180.664 26.9876 180.646 27.1395 180.646 27.2919ZM157.09 26.2364L157.312 26.6767C157.411 26.8667 157.463 27.0777 157.463 27.2919V39.204H168.001V27.2919C168.001 27.0777 168.052 26.8667 168.151 26.6767L168.374 26.2364H157.09ZM167.398 27.2919V38.6009H158.065V27.2919C158.065 27.1395 158.047 26.9876 158.011 26.8396H167.453C167.416 26.9876 167.398 27.1395 167.398 27.2919ZM143.842 26.2364L144.065 26.6767C144.164 26.8667 144.215 27.0777 144.216 27.2919V39.204H154.753V27.2919C154.753 27.0777 154.805 26.8667 154.904 26.6767L155.127 26.2364H143.842ZM154.151 27.2919V38.6009H144.818V27.2919C144.818 27.1395 144.8 26.9876 144.764 26.8396H154.205C154.169 26.9876 154.151 27.1395 154.151 27.2919ZM130.595 26.2364L130.818 26.6767C130.916 26.8667 130.968 27.0777 130.968 27.2919V39.204H141.506V27.2919C141.506 27.0777 141.558 26.8667 141.656 26.6767L141.879 26.2364H130.595ZM140.904 27.2919V38.6009H131.57V27.2919C131.571 27.1395 131.552 26.9876 131.516 26.8396H140.958C140.922 26.9876 140.904 27.1395 140.904 27.2919ZM117.348 26.2364L117.57 26.6767C117.669 26.8667 117.721 27.0777 117.721 27.2919V39.204H128.259V27.2919C128.259 27.0777 128.31 26.8667 128.409 26.6767L128.632 26.2364H117.348ZM127.656 27.2919V38.6009H118.323V27.2919C118.323 27.1395 118.305 26.9876 118.269 26.8396H127.711C127.674 26.9876 127.656 27.1395 127.656 27.2919ZM104.1 26.2364L104.323 26.6767C104.422 26.8667 104.473 27.0777 104.474 27.2919V39.204H115.011V27.2919C115.011 27.0777 115.063 26.8667 115.162 26.6767L115.385 26.2364H104.1ZM114.409 27.2919V38.6009H105.076V27.2919C105.076 27.1395 105.058 26.9876 105.021 26.8396H114.463C114.427 26.9876 114.409 27.1395 114.409 27.2919ZM90.8528 26.2364L91.0757 26.6767C91.1744 26.8667 91.2261 27.0777 91.2262 27.2919V39.204H101.764V27.2919C101.764 27.0777 101.816 26.8667 101.914 26.6767L102.137 26.2364H90.8528ZM101.162 27.2919V38.6009H91.8284V27.2919C91.8285 27.1395 91.8103 26.9876 91.7741 26.8396H101.216C101.18 26.9876 101.162 27.1395 101.162 27.2919ZM77.6055 26.2364L77.8283 26.6767C77.9271 26.8667 77.9787 27.0777 77.9789 27.2919V39.204H88.5165V27.2919C88.5167 27.0777 88.5683 26.8667 88.6671 26.6767L88.8899 26.2364H77.6055ZM87.9144 27.2919V38.6009H78.581V27.2919C78.5812 27.1395 78.563 26.9876 78.5268 26.8396H87.9686C87.9324 26.9876 87.9142 27.1395 87.9144 27.2919ZM64.3581 26.2364L64.581 26.6767C64.6798 26.8667 64.7314 27.0777 64.7315 27.2919V39.204H75.2692V27.2919C75.2693 27.0777 75.321 26.8667 75.4197 26.6767L75.6426 26.2364H64.3581ZM74.667 27.2919V38.6009H65.3337V27.2919C65.3338 27.1395 65.3156 26.9876 65.2794 26.8396H74.7213C74.6851 26.9876 74.6669 27.1395 74.667 27.2919ZM170.337 26.2364L170.56 26.6767C170.659 26.8667 170.71 27.0777 170.71 27.2919V39.204H181.248V27.2919C181.248 27.0777 181.3 26.8667 181.398 26.6767L181.621 26.2364H170.337ZM180.646 27.2919V38.6009H171.312V27.2919C171.313 27.1395 171.294 26.9876 171.258 26.8396H180.7C180.664 26.9876 180.646 27.1395 180.646 27.2919ZM157.312 26.6767C157.411 26.8667 157.463 27.0777 157.463 27.2919V39.204H168.001V27.2919C168.001 27.0777 168.052 26.8667 168.151 26.6767L168.374 26.2364H157.09L157.312 26.6767ZM167.453 26.8396C167.416 26.9876 167.398 27.1395 167.398 27.2919V38.6009H158.065V27.2919C158.065 27.1395 158.047 26.9876 158.011 26.8396H167.453ZM144.065 26.6767C144.164 26.8667 144.215 27.0777 144.216 27.2919V39.204H154.753V27.2919C154.753 27.0777 154.805 26.8667 154.904 26.6767L155.127 26.2364H143.842L144.065 26.6767ZM154.205 26.8396C154.169 26.9876 154.151 27.1395 154.151 27.2919V38.6009H144.818V27.2919C144.818 27.1395 144.8 26.9876 144.764 26.8396H154.205ZM130.818 26.6767C130.916 26.8667 130.968 27.0777 130.968 27.2919V39.204H141.506V27.2919C141.506 27.0777 141.558 26.8667 141.656 26.6767L141.879 26.2364H130.595L130.818 26.6767ZM140.958 26.8396C140.922 26.9876 140.904 27.1395 140.904 27.2919V38.6009H131.57V27.2919C131.571 27.1395 131.552 26.9876 131.516 26.8396H140.958ZM117.57 26.6767C117.669 26.8667 117.721 27.0777 117.721 27.2919V39.204H128.259V27.2919C128.259 27.0777 128.31 26.8667 128.409 26.6767L128.632 26.2364H117.348L117.57 26.6767ZM127.711 26.8396C127.674 26.9876 127.656 27.1395 127.656 27.2919V38.6009H118.323V27.2919C118.323 27.1395 118.305 26.9876 118.269 26.8396H127.711ZM104.323 26.6767C104.422 26.8667 104.473 27.0777 104.474 27.2919V39.204H115.011V27.2919C115.011 27.0777 115.063 26.8667 115.162 26.6767L115.385 26.2364H104.1L104.323 26.6767ZM114.463 26.8396C114.427 26.9876 114.409 27.1395 114.409 27.2919V38.6009H105.076V27.2919C105.076 27.1395 105.058 26.9876 105.021 26.8396H114.463ZM91.0757 26.6767C91.1744 26.8667 91.2261 27.0777 91.2262 27.2919V39.204H101.764V27.2919C101.764 27.0777 101.816 26.8667 101.914 26.6767L102.137 26.2364H90.8528L91.0757 26.6767ZM101.216 26.8396C101.18 26.9876 101.162 27.1395 101.162 27.2919V38.6009H91.8284V27.2919C91.8285 27.1395 91.8103 26.9876 91.7741 26.8396H101.216ZM77.8283 26.6767C77.9271 26.8667 77.9787 27.0777 77.9789 27.2919V39.204H88.5165V27.2919C88.5167 27.0777 88.5683 26.8667 88.6671 26.6767L88.8899 26.2364H77.6055L77.8283 26.6767ZM87.9686 26.8396C87.9324 26.9876 87.9142 27.1395 87.9144 27.2919V38.6009H78.581V27.2919C78.5812 27.1395 78.563 26.9876 78.5268 26.8396H87.9686ZM64.581 26.6767C64.6798 26.8667 64.7314 27.0777 64.7315 27.2919V39.204H75.2692V27.2919C75.2693 27.0777 75.321 26.8667 75.4197 26.6767L75.6426 26.2364H64.3581L64.581 26.6767ZM74.7213 26.8396C74.6851 26.9876 74.6669 27.1395 74.667 27.2919V38.6009H65.3337V27.2919C65.3338 27.1395 65.3156 26.9876 65.2794 26.8396H74.7213ZM170.56 26.6767C170.659 26.8667 170.71 27.0777 170.71 27.2919V39.204H181.248V27.2919C181.248 27.0777 181.3 26.8667 181.398 26.6767L181.621 26.2364H170.337L170.56 26.6767ZM180.7 26.8396C180.664 26.9876 180.646 27.1395 180.646 27.2919V38.6009H171.312V27.2919C171.313 27.1395 171.294 26.9876 171.258 26.8396H180.7ZM157.312 26.6767C157.411 26.8667 157.463 27.0777 157.463 27.2919V39.204H168.001V27.2919C168.001 27.0777 168.052 26.8667 168.151 26.6767L168.374 26.2364H157.09L157.312 26.6767ZM167.453 26.8396C167.416 26.9876 167.398 27.1395 167.398 27.2919V38.6009H158.065V27.2919C158.065 27.1395 158.047 26.9876 158.011 26.8396H167.453ZM144.065 26.6767C144.164 26.8667 144.215 27.0777 144.216 27.2919V39.204H154.753V27.2919C154.753 27.0777 154.805 26.8667 154.904 26.6767L155.127 26.2364H143.842L144.065 26.6767ZM154.205 26.8396C154.169 26.9876 154.151 27.1395 154.151 27.2919V38.6009H144.818V27.2919C144.818 27.1395 144.8 26.9876 144.764 26.8396H154.205ZM130.818 26.6767C130.916 26.8667 130.968 27.0777 130.968 27.2919V39.204H141.506V27.2919C141.506 27.0777 141.558 26.8667 141.656 26.6767L141.879 26.2364H130.595L130.818 26.6767ZM140.958 26.8396C140.922 26.9876 140.904 27.1395 140.904 27.2919V38.6009H131.57V27.2919C131.571 27.1395 131.552 26.9876 131.516 26.8396H140.958ZM117.57 26.6767C117.669 26.8667 117.721 27.0777 117.721 27.2919V39.204H128.259V27.2919C128.259 27.0777 128.31 26.8667 128.409 26.6767L128.632 26.2364H117.348L117.57 26.6767ZM127.711 26.8396C127.674 26.9876 127.656 27.1395 127.656 27.2919V38.6009H118.323V27.2919C118.323 27.1395 118.305 26.9876 118.269 26.8396H127.711ZM104.323 26.6767C104.422 26.8667 104.473 27.0777 104.474 27.2919V39.204H115.011V27.2919C115.011 27.0777 115.063 26.8667 115.162 26.6767L115.385 26.2364H104.1L104.323 26.6767ZM114.463 26.8396C114.427 26.9876 114.409 27.1395 114.409 27.2919V38.6009H105.076V27.2919C105.076 27.1395 105.058 26.9876 105.021 26.8396H114.463ZM91.0757 26.6767C91.1744 26.8667 91.2261 27.0777 91.2262 27.2919V39.204H101.764V27.2919C101.764 27.0777 101.816 26.8667 101.914 26.6767L102.137 26.2364H90.8528L91.0757 26.6767ZM101.216 26.8396C101.18 26.9876 101.162 27.1395 101.162 27.2919V38.6009H91.8284V27.2919C91.8285 27.1395 91.8103 26.9876 91.7741 26.8396H101.216ZM77.8283 26.6767C77.9271 26.8667 77.9787 27.0777 77.9789 27.2919V39.204H88.5165V27.2919C88.5167 27.0777 88.5683 26.8667 88.6671 26.6767L88.8899 26.2364H77.6055L77.8283 26.6767ZM87.9686 26.8396C87.9324 26.9876 87.9142 27.1395 87.9144 27.2919V38.6009H78.581V27.2919C78.5812 27.1395 78.563 26.9876 78.5268 26.8396H87.9686ZM64.581 26.6767C64.6798 26.8667 64.7314 27.0777 64.7315 27.2919V39.204H75.2692V27.2919C75.2693 27.0777 75.321 26.8667 75.4197 26.6767L75.6426 26.2364H64.3581L64.581 26.6767ZM74.7213 26.8396C74.6851 26.9876 74.6669 27.1395 74.667 27.2919V38.6009H65.3337V27.2919C65.3338 27.1395 65.3156 26.9876 65.2794 26.8396H74.7213ZM193.291 41.0134H189.702C189.504 40.3197 189.087 39.7092 188.512 39.274C187.937 38.8389 187.237 38.6026 186.517 38.6009H184.56V27.2919C184.561 27.0492 184.515 26.8085 184.424 26.5832C184.765 26.382 185.031 26.0739 185.18 25.7065C185.329 25.3391 185.353 24.9328 185.249 24.5503C185.144 24.1678 184.917 23.8304 184.602 23.5901C184.287 23.3498 183.902 23.22 183.506 23.2207H62.4735C62.0776 23.22 61.6924 23.3498 61.3775 23.5901C61.0626 23.8304 60.8354 24.1678 60.7309 24.5503C60.6265 24.9328 60.6506 25.3391 60.7996 25.7065C60.9485 26.0739 61.2141 26.382 61.5552 26.5832C61.4649 26.8085 61.4189 27.0492 61.4197 27.2919V38.6009H59.4627C58.7424 38.6026 58.0421 38.8389 57.4676 39.274C56.893 39.7092 56.4752 40.3197 56.2773 41.0134H52.3874C51.6691 41.0145 50.9805 41.3008 50.4726 41.8096C49.9646 42.3184 49.6788 43.0081 49.6777 43.7276V202.958C49.6793 203.677 49.9653 204.366 50.4731 204.875C50.9809 205.384 51.6692 205.67 52.3874 205.672H193.291C194.009 205.671 194.698 205.384 195.206 204.876C195.714 204.367 196 203.677 196.001 202.958V43.7276C196 43.0081 195.714 42.3184 195.206 41.8096C194.698 41.3008 194.009 41.0145 193.291 41.0134ZM195.399 202.958C195.398 203.388 195.266 203.809 195.02 204.163C194.774 204.516 194.426 204.786 194.023 204.936C193.789 205.025 193.541 205.07 193.291 205.069H52.3874C52.1374 205.07 51.8894 205.025 51.6558 204.936C51.2523 204.786 50.9043 204.516 50.6584 204.163C50.4125 203.809 50.2804 203.388 50.2799 202.958V43.7276C50.2805 43.1679 50.5028 42.6313 50.8979 42.2356C51.293 41.8398 51.8287 41.6172 52.3874 41.6166H56.759L56.8073 41.3753C56.9339 40.7631 57.2669 40.2132 57.7504 39.8178C58.2339 39.4224 58.8385 39.2057 59.4627 39.204H62.0218V27.2919C62.0219 27.0465 62.0886 26.8057 62.2146 26.5953L62.4011 26.2847L62.061 26.158C61.7951 26.0615 61.5717 25.8741 61.4303 25.6288C61.2888 25.3836 61.2382 25.0962 61.2875 24.8172C61.3368 24.5383 61.4828 24.2857 61.6997 24.104C61.9167 23.9223 62.1907 23.8231 62.4735 23.8238H183.506C183.789 23.8231 184.063 23.9223 184.28 24.104C184.497 24.2857 184.643 24.5383 184.692 24.8172C184.741 25.0962 184.691 25.3836 184.549 25.6288C184.408 25.8741 184.184 26.0615 183.919 26.158L183.578 26.2847L183.765 26.5953C183.891 26.8057 183.958 27.0465 183.958 27.2919V39.204H186.517C187.141 39.2057 187.746 39.4224 188.229 39.8178C188.713 40.2131 189.046 40.7631 189.172 41.3753L189.22 41.6166H193.291C193.85 41.6172 194.385 41.8398 194.781 42.2356C195.176 42.6313 195.398 43.1679 195.398 43.7276L195.399 202.958ZM64.3581 26.2364L64.581 26.6767C64.6798 26.8667 64.7314 27.0777 64.7315 27.2919V39.204H75.2692V27.2919C75.2693 27.0777 75.321 26.8667 75.4197 26.6767L75.6426 26.2364H64.3581ZM74.667 27.2919V38.6009H65.3337V27.2919C65.3338 27.1395 65.3156 26.9876 65.2794 26.8396H74.7213C74.6851 26.9876 74.6669 27.1395 74.667 27.2919ZM77.6055 26.2364L77.8283 26.6767C77.9271 26.8667 77.9787 27.0777 77.9789 27.2919V39.204H88.5165V27.2919C88.5167 27.0777 88.5683 26.8667 88.6671 26.6767L88.8899 26.2364H77.6055ZM87.9144 27.2919V38.6009H78.581V27.2919C78.5812 27.1395 78.563 26.9876 78.5268 26.8396H87.9686C87.9324 26.9876 87.9142 27.1395 87.9144 27.2919ZM90.8528 26.2364L91.0757 26.6767C91.1744 26.8667 91.2261 27.0777 91.2262 27.2919V39.204H101.764V27.2919C101.764 27.0777 101.816 26.8667 101.914 26.6767L102.137 26.2364H90.8528ZM101.162 27.2919V38.6009H91.8284V27.2919C91.8285 27.1395 91.8103 26.9876 91.7741 26.8396H101.216C101.18 26.9876 101.162 27.1395 101.162 27.2919ZM104.1 26.2364L104.323 26.6767C104.422 26.8667 104.473 27.0777 104.474 27.2919V39.204H115.011V27.2919C115.011 27.0777 115.063 26.8667 115.162 26.6767L115.385 26.2364H104.1ZM114.409 27.2919V38.6009H105.076V27.2919C105.076 27.1395 105.058 26.9876 105.021 26.8396H114.463C114.427 26.9876 114.409 27.1395 114.409 27.2919ZM117.348 26.2364L117.57 26.6767C117.669 26.8667 117.721 27.0777 117.721 27.2919V39.204H128.259V27.2919C128.259 27.0777 128.31 26.8667 128.409 26.6767L128.632 26.2364H117.348ZM127.656 27.2919V38.6009H118.323V27.2919C118.323 27.1395 118.305 26.9876 118.269 26.8396H127.711C127.674 26.9876 127.656 27.1395 127.656 27.2919ZM130.595 26.2364L130.818 26.6767C130.916 26.8667 130.968 27.0777 130.968 27.2919V39.204H141.506V27.2919C141.506 27.0777 141.558 26.8667 141.656 26.6767L141.879 26.2364H130.595ZM140.904 27.2919V38.6009H131.57V27.2919C131.571 27.1395 131.552 26.9876 131.516 26.8396H140.958C140.922 26.9876 140.904 27.1395 140.904 27.2919ZM143.842 26.2364L144.065 26.6767C144.164 26.8667 144.215 27.0777 144.216 27.2919V39.204H154.753V27.2919C154.753 27.0777 154.805 26.8667 154.904 26.6767L155.127 26.2364H143.842ZM154.151 27.2919V38.6009H144.818V27.2919C144.818 27.1395 144.8 26.9876 144.764 26.8396H154.205C154.169 26.9876 154.151 27.1395 154.151 27.2919ZM157.09 26.2364L157.312 26.6767C157.411 26.8667 157.463 27.0777 157.463 27.2919V39.204H168.001V27.2919C168.001 27.0777 168.052 26.8667 168.151 26.6767L168.374 26.2364H157.09ZM167.398 27.2919V38.6009H158.065V27.2919C158.065 27.1395 158.047 26.9876 158.011 26.8396H167.453C167.416 26.9876 167.398 27.1395 167.398 27.2919ZM170.337 26.2364L170.56 26.6767C170.659 26.8667 170.71 27.0777 170.71 27.2919V39.204H181.248V27.2919C181.248 27.0777 181.3 26.8667 181.398 26.6767L181.621 26.2364H170.337ZM180.646 27.2919V38.6009H171.312V27.2919C171.313 27.1395 171.294 26.9876 171.258 26.8396H180.7C180.664 26.9876 180.646 27.1395 180.646 27.2919ZM64.3581 26.2364L64.581 26.6767C64.6798 26.8667 64.7314 27.0777 64.7315 27.2919V39.204H75.2692V27.2919C75.2693 27.0777 75.321 26.8667 75.4197 26.6767L75.6426 26.2364H64.3581ZM74.667 27.2919V38.6009H65.3337V27.2919C65.3338 27.1395 65.3156 26.9876 65.2794 26.8396H74.7213C74.6851 26.9876 74.6669 27.1395 74.667 27.2919ZM77.6055 26.2364L77.8283 26.6767C77.9271 26.8667 77.9787 27.0777 77.9789 27.2919V39.204H88.5165V27.2919C88.5167 27.0777 88.5683 26.8667 88.6671 26.6767L88.8899 26.2364H77.6055ZM87.9144 27.2919V38.6009H78.581V27.2919C78.5812 27.1395 78.563 26.9876 78.5268 26.8396H87.9686C87.9324 26.9876 87.9142 27.1395 87.9144 27.2919ZM90.8528 26.2364L91.0757 26.6767C91.1744 26.8667 91.2261 27.0777 91.2262 27.2919V39.204H101.764V27.2919C101.764 27.0777 101.816 26.8667 101.914 26.6767L102.137 26.2364H90.8528ZM101.162 27.2919V38.6009H91.8284V27.2919C91.8285 27.1395 91.8103 26.9876 91.7741 26.8396H101.216C101.18 26.9876 101.162 27.1395 101.162 27.2919ZM104.1 26.2364L104.323 26.6767C104.422 26.8667 104.473 27.0777 104.474 27.2919V39.204H115.011V27.2919C115.011 27.0777 115.063 26.8667 115.162 26.6767L115.385 26.2364H104.1ZM114.409 27.2919V38.6009H105.076V27.2919C105.076 27.1395 105.058 26.9876 105.021 26.8396H114.463C114.427 26.9876 114.409 27.1395 114.409 27.2919ZM117.348 26.2364L117.57 26.6767C117.669 26.8667 117.721 27.0777 117.721 27.2919V39.204H128.259V27.2919C128.259 27.0777 128.31 26.8667 128.409 26.6767L128.632 26.2364H117.348ZM127.656 27.2919V38.6009H118.323V27.2919C118.323 27.1395 118.305 26.9876 118.269 26.8396H127.711C127.674 26.9876 127.656 27.1395 127.656 27.2919ZM130.595 26.2364L130.818 26.6767C130.916 26.8667 130.968 27.0777 130.968 27.2919V39.204H141.506V27.2919C141.506 27.0777 141.558 26.8667 141.656 26.6767L141.879 26.2364H130.595ZM140.904 27.2919V38.6009H131.57V27.2919C131.571 27.1395 131.552 26.9876 131.516 26.8396H140.958C140.922 26.9876 140.904 27.1395 140.904 27.2919ZM143.842 26.2364L144.065 26.6767C144.164 26.8667 144.215 27.0777 144.216 27.2919V39.204H154.753V27.2919C154.753 27.0777 154.805 26.8667 154.904 26.6767L155.127 26.2364H143.842ZM154.151 27.2919V38.6009H144.818V27.2919C144.818 27.1395 144.8 26.9876 144.764 26.8396H154.205C154.169 26.9876 154.151 27.1395 154.151 27.2919ZM157.09 26.2364L157.312 26.6767C157.411 26.8667 157.463 27.0777 157.463 27.2919V39.204H168.001V27.2919C168.001 27.0777 168.052 26.8667 168.151 26.6767L168.374 26.2364H157.09ZM167.398 27.2919V38.6009H158.065V27.2919C158.065 27.1395 158.047 26.9876 158.011 26.8396H167.453C167.416 26.9876 167.398 27.1395 167.398 27.2919ZM170.337 26.2364L170.56 26.6767C170.659 26.8667 170.71 27.0777 170.71 27.2919V39.204H181.248V27.2919C181.248 27.0777 181.3 26.8667 181.398 26.6767L181.621 26.2364H170.337ZM180.646 27.2919V38.6009H171.312V27.2919C171.313 27.1395 171.294 26.9876 171.258 26.8396H180.7C180.664 26.9876 180.646 27.1395 180.646 27.2919ZM64.3581 26.2364L64.581 26.6767C64.6798 26.8667 64.7314 27.0777 64.7315 27.2919V39.204H75.2692V27.2919C75.2693 27.0777 75.321 26.8667 75.4197 26.6767L75.6426 26.2364H64.3581ZM74.667 27.2919V38.6009H65.3337V27.2919C65.3338 27.1395 65.3156 26.9876 65.2794 26.8396H74.7213C74.6851 26.9876 74.6669 27.1395 74.667 27.2919ZM77.6055 26.2364L77.8283 26.6767C77.9271 26.8667 77.9787 27.0777 77.9789 27.2919V39.204H88.5165V27.2919C88.5167 27.0777 88.5683 26.8667 88.6671 26.6767L88.8899 26.2364H77.6055ZM87.9144 27.2919V38.6009H78.581V27.2919C78.5812 27.1395 78.563 26.9876 78.5268 26.8396H87.9686C87.9324 26.9876 87.9142 27.1395 87.9144 27.2919ZM90.8528 26.2364L91.0757 26.6767C91.1744 26.8667 91.2261 27.0777 91.2262 27.2919V39.204H101.764V27.2919C101.764 27.0777 101.816 26.8667 101.914 26.6767L102.137 26.2364H90.8528ZM101.162 27.2919V38.6009H91.8284V27.2919C91.8285 27.1395 91.8103 26.9876 91.7741 26.8396H101.216C101.18 26.9876 101.162 27.1395 101.162 27.2919ZM104.1 26.2364L104.323 26.6767C104.422 26.8667 104.473 27.0777 104.474 27.2919V39.204H115.011V27.2919C115.011 27.0777 115.063 26.8667 115.162 26.6767L115.385 26.2364H104.1ZM114.409 27.2919V38.6009H105.076V27.2919C105.076 27.1395 105.058 26.9876 105.021 26.8396H114.463C114.427 26.9876 114.409 27.1395 114.409 27.2919ZM117.348 26.2364L117.57 26.6767C117.669 26.8667 117.721 27.0777 117.721 27.2919V39.204H128.259V27.2919C128.259 27.0777 128.31 26.8667 128.409 26.6767L128.632 26.2364H117.348ZM127.656 27.2919V38.6009H118.323V27.2919C118.323 27.1395 118.305 26.9876 118.269 26.8396H127.711C127.674 26.9876 127.656 27.1395 127.656 27.2919ZM130.595 26.2364L130.818 26.6767C130.916 26.8667 130.968 27.0777 130.968 27.2919V39.204H141.506V27.2919C141.506 27.0777 141.558 26.8667 141.656 26.6767L141.879 26.2364H130.595ZM140.904 27.2919V38.6009H131.57V27.2919C131.571 27.1395 131.552 26.9876 131.516 26.8396H140.958C140.922 26.9876 140.904 27.1395 140.904 27.2919ZM143.842 26.2364L144.065 26.6767C144.164 26.8667 144.215 27.0777 144.216 27.2919V39.204H154.753V27.2919C154.753 27.0777 154.805 26.8667 154.904 26.6767L155.127 26.2364H143.842ZM154.151 27.2919V38.6009H144.818V27.2919C144.818 27.1395 144.8 26.9876 144.764 26.8396H154.205C154.169 26.9876 154.151 27.1395 154.151 27.2919ZM157.09 26.2364L157.312 26.6767C157.411 26.8667 157.463 27.0777 157.463 27.2919V39.204H168.001V27.2919C168.001 27.0777 168.052 26.8667 168.151 26.6767L168.374 26.2364H157.09ZM167.398 27.2919V38.6009H158.065V27.2919C158.065 27.1395 158.047 26.9876 158.011 26.8396H167.453C167.416 26.9876 167.398 27.1395 167.398 27.2919ZM170.337 26.2364L170.56 26.6767C170.659 26.8667 170.71 27.0777 170.71 27.2919V39.204H181.248V27.2919C181.248 27.0777 181.3 26.8667 181.398 26.6767L181.621 26.2364H170.337ZM180.646 27.2919V38.6009H171.312V27.2919C171.313 27.1395 171.294 26.9876 171.258 26.8396H180.7C180.664 26.9876 180.646 27.1395 180.646 27.2919ZM64.3581 26.2364L64.581 26.6767C64.6798 26.8667 64.7314 27.0777 64.7315 27.2919V39.204H75.2692V27.2919C75.2693 27.0777 75.321 26.8667 75.4197 26.6767L75.6426 26.2364H64.3581ZM74.667 27.2919V38.6009H65.3337V27.2919C65.3338 27.1395 65.3156 26.9876 65.2794 26.8396H74.7213C74.6851 26.9876 74.6669 27.1395 74.667 27.2919ZM77.6055 26.2364L77.8283 26.6767C77.9271 26.8667 77.9787 27.0777 77.9789 27.2919V39.204H88.5165V27.2919C88.5167 27.0777 88.5683 26.8667 88.6671 26.6767L88.8899 26.2364H77.6055ZM87.9144 27.2919V38.6009H78.581V27.2919C78.5812 27.1395 78.563 26.9876 78.5268 26.8396H87.9686C87.9324 26.9876 87.9142 27.1395 87.9144 27.2919ZM90.8528 26.2364L91.0757 26.6767C91.1744 26.8667 91.2261 27.0777 91.2262 27.2919V39.204H101.764V27.2919C101.764 27.0777 101.816 26.8667 101.914 26.6767L102.137 26.2364H90.8528ZM101.162 27.2919V38.6009H91.8284V27.2919C91.8285 27.1395 91.8103 26.9876 91.7741 26.8396H101.216C101.18 26.9876 101.162 27.1395 101.162 27.2919ZM104.1 26.2364L104.323 26.6767C104.422 26.8667 104.473 27.0777 104.474 27.2919V39.204H115.011V27.2919C115.011 27.0777 115.063 26.8667 115.162 26.6767L115.385 26.2364H104.1ZM114.409 27.2919V38.6009H105.076V27.2919C105.076 27.1395 105.058 26.9876 105.021 26.8396H114.463C114.427 26.9876 114.409 27.1395 114.409 27.2919ZM117.348 26.2364L117.57 26.6767C117.669 26.8667 117.721 27.0777 117.721 27.2919V39.204H128.259V27.2919C128.259 27.0777 128.31 26.8667 128.409 26.6767L128.632 26.2364H117.348ZM127.656 27.2919V38.6009H118.323V27.2919C118.323 27.1395 118.305 26.9876 118.269 26.8396H127.711C127.674 26.9876 127.656 27.1395 127.656 27.2919ZM130.595 26.2364L130.818 26.6767C130.916 26.8667 130.968 27.0777 130.968 27.2919V39.204H141.506V27.2919C141.506 27.0777 141.558 26.8667 141.656 26.6767L141.879 26.2364H130.595ZM140.904 27.2919V38.6009H131.57V27.2919C131.571 27.1395 131.552 26.9876 131.516 26.8396H140.958C140.922 26.9876 140.904 27.1395 140.904 27.2919ZM143.842 26.2364L144.065 26.6767C144.164 26.8667 144.215 27.0777 144.216 27.2919V39.204H154.753V27.2919C154.753 27.0777 154.805 26.8667 154.904 26.6767L155.127 26.2364H143.842ZM154.151 27.2919V38.6009H144.818V27.2919C144.818 27.1395 144.8 26.9876 144.764 26.8396H154.205C154.169 26.9876 154.151 27.1395 154.151 27.2919ZM157.09 26.2364L157.312 26.6767C157.411 26.8667 157.463 27.0777 157.463 27.2919V39.204H168.001V27.2919C168.001 27.0777 168.052 26.8667 168.151 26.6767L168.374 26.2364H157.09ZM167.398 27.2919V38.6009H158.065V27.2919C158.065 27.1395 158.047 26.9876 158.011 26.8396H167.453C167.416 26.9876 167.398 27.1395 167.398 27.2919ZM170.337 26.2364L170.56 26.6767C170.659 26.8667 170.71 27.0777 170.71 27.2919V39.204H181.248V27.2919C181.248 27.0777 181.3 26.8667 181.398 26.6767L181.621 26.2364H170.337ZM180.646 27.2919V38.6009H171.312V27.2919C171.313 27.1395 171.294 26.9876 171.258 26.8396H180.7C180.664 26.9876 180.646 27.1395 180.646 27.2919Z" fill="#151A40"/>
<path d="M100.154 79.012H77.9512C77.4836 79.0115 77.0353 78.8252 76.7047 78.494C76.374 78.1628 76.188 77.7137 76.1875 77.2454V65.3985C76.188 64.9301 76.374 64.4811 76.7047 64.1499C77.0353 63.8187 77.4836 63.6324 77.9512 63.6318H100.154C100.621 63.6324 101.069 63.8187 101.4 64.1498C101.731 64.481 101.917 64.9301 101.917 65.3985V77.2454C101.917 77.7137 101.731 78.1628 101.4 78.494C101.069 78.8252 100.621 79.0115 100.154 79.012Z" fill="white"/>
<path d="M133.941 79.012H111.738C111.271 79.0115 110.822 78.8252 110.492 78.494C110.161 78.1628 109.975 77.7137 109.975 77.2454V65.3985C109.975 64.9301 110.161 64.4811 110.492 64.1499C110.822 63.8187 111.271 63.6324 111.738 63.6318H133.941C134.408 63.6324 134.857 63.8187 135.187 64.1498C135.518 64.481 135.704 64.9301 135.704 65.3985V77.2454C135.704 77.7137 135.518 78.1628 135.187 78.494C134.857 78.8252 134.408 79.0115 133.941 79.012Z" fill="white"/>
<path d="M167.727 79.012H145.524C145.057 79.0115 144.609 78.8252 144.278 78.494C143.947 78.1628 143.761 77.7137 143.761 77.2454V65.3985C143.761 64.9301 143.947 64.4811 144.278 64.1499C144.609 63.8187 145.057 63.6324 145.524 63.6318H167.727C168.194 63.6324 168.643 63.8187 168.973 64.1498C169.304 64.481 169.49 64.9301 169.491 65.3985V77.2454C169.49 77.7137 169.304 78.1628 168.973 78.494C168.643 78.8252 168.194 79.0115 167.727 79.012Z" fill="white"/>
<path d="M100.154 118.517H77.9512C77.4836 118.516 77.0353 118.33 76.7047 117.999C76.374 117.668 76.188 117.219 76.1875 116.75V104.903C76.188 104.435 76.374 103.986 76.7047 103.655C77.0353 103.324 77.4836 103.137 77.9512 103.137H100.154C100.621 103.137 101.069 103.324 101.4 103.655C101.731 103.986 101.917 104.435 101.917 104.903V116.75C101.917 117.219 101.731 117.668 101.4 117.999C101.069 118.33 100.621 118.516 100.154 118.517Z" fill="white"/>
<path d="M133.941 118.517H111.738C111.271 118.516 110.822 118.33 110.492 117.999C110.161 117.668 109.975 117.219 109.975 116.75V104.903C109.975 104.435 110.161 103.986 110.492 103.655C110.822 103.324 111.271 103.137 111.738 103.137H133.941C134.408 103.137 134.857 103.324 135.187 103.655C135.518 103.986 135.704 104.435 135.704 104.903V116.75C135.704 117.219 135.518 117.668 135.187 117.999C134.857 118.33 134.408 118.516 133.941 118.517Z" fill="white"/>
<path d="M167.727 118.517H145.524C145.057 118.516 144.609 118.33 144.278 117.999C143.947 117.668 143.761 117.219 143.761 116.75V104.903C143.761 104.435 143.947 103.986 144.278 103.655C144.609 103.324 145.057 103.137 145.524 103.137H167.727C168.194 103.137 168.643 103.324 168.973 103.655C169.304 103.986 169.49 104.435 169.491 104.903V116.75C169.49 117.219 169.304 117.668 168.973 117.999C168.643 118.33 168.194 118.516 167.727 118.517Z" fill="#A3CC4A"/>
<path d="M100.154 158.024H77.9512C77.4836 158.023 77.0353 157.837 76.7047 157.506C76.374 157.175 76.188 156.725 76.1875 156.257V144.41C76.188 143.942 76.374 143.493 76.7047 143.162C77.0353 142.83 77.4836 142.644 77.9512 142.644H100.154C100.621 142.644 101.069 142.83 101.4 143.162C101.731 143.493 101.917 143.942 101.917 144.41V156.257C101.917 156.725 101.731 157.175 101.4 157.506C101.069 157.837 100.621 158.023 100.154 158.024Z" fill="white"/>
<path d="M133.941 158.024H111.738C111.271 158.023 110.822 157.837 110.492 157.506C110.161 157.175 109.975 156.725 109.975 156.257V144.41C109.975 143.942 110.161 143.493 110.492 143.162C110.822 142.83 111.271 142.644 111.738 142.644H133.941C134.408 142.644 134.857 142.83 135.187 143.162C135.518 143.493 135.704 143.942 135.704 144.41V156.257C135.704 156.725 135.518 157.175 135.187 157.506C134.857 157.837 134.408 158.023 133.941 158.024Z" fill="white"/>
<path d="M167.727 158.024H145.524C145.057 158.023 144.609 157.837 144.278 157.506C143.947 157.175 143.761 156.725 143.761 156.257V144.41C143.761 143.942 143.947 143.493 144.278 143.162C144.609 142.83 145.057 142.644 145.524 142.644H167.727C168.194 142.644 168.643 142.83 168.973 143.162C169.304 143.493 169.49 143.942 169.491 144.41V156.257C169.49 156.725 169.304 157.175 168.973 157.506C168.643 157.837 168.194 158.023 167.727 158.024Z" fill="white"/>
<path d="M96.5595 80.5326H70.8394C70.2178 80.5319 69.622 80.2843 69.1825 79.844C68.743 79.4038 68.4958 78.807 68.4951 78.1844V64.4605C68.4958 63.838 68.743 63.2411 69.1825 62.8009C69.622 62.3607 70.2178 62.113 70.8394 62.1123H96.5595C97.181 62.113 97.7769 62.3607 98.2164 62.8009C98.6559 63.2411 98.9031 63.838 98.9038 64.4605V78.1844C98.9031 78.807 98.6559 79.4038 98.2164 79.8441C97.7769 80.2843 97.181 80.5319 96.5595 80.5326ZM70.8394 62.7154C70.3775 62.716 69.9347 62.9 69.6081 63.2272C69.2815 63.5543 69.0978 63.9979 69.0973 64.4605V78.1844C69.0978 78.6471 69.2815 79.0906 69.6081 79.4178C69.9347 79.7449 70.3775 79.929 70.8394 79.9295H96.5595C97.0214 79.929 97.4642 79.7449 97.7908 79.4178C98.1174 79.0906 98.3011 78.6471 98.3016 78.1844V64.4605C98.3011 63.9979 98.1174 63.5543 97.7908 63.2271C97.4642 62.9 97.0214 62.716 96.5595 62.7154H70.8394Z" fill="#151A40"/>
<path d="M135.699 80.5326H109.979C109.358 80.5319 108.762 80.2843 108.322 79.8441C107.883 79.4038 107.635 78.807 107.635 78.1844V64.4605C107.635 63.838 107.883 63.2411 108.322 62.8009C108.762 62.3607 109.358 62.113 109.979 62.1123H135.699C136.321 62.113 136.917 62.3607 137.356 62.8009C137.796 63.2411 138.043 63.838 138.043 64.4605V78.1844C138.043 78.807 137.796 79.4038 137.356 79.8441C136.917 80.2843 136.321 80.5319 135.699 80.5326ZM109.979 62.7154C109.517 62.716 109.074 62.9 108.748 63.2271C108.421 63.5543 108.237 63.9979 108.237 64.4605V78.1844C108.237 78.6471 108.421 79.0906 108.748 79.4178C109.074 79.7449 109.517 79.929 109.979 79.9295H135.699C136.161 79.929 136.604 79.7449 136.93 79.4178C137.257 79.0906 137.441 78.6471 137.441 78.1844V64.4605C137.441 63.9979 137.257 63.5543 136.93 63.2271C136.604 62.9 136.161 62.716 135.699 62.7154H109.979Z" fill="#151A40"/>
<path d="M174.84 80.5326H149.12C148.498 80.5319 147.902 80.2843 147.463 79.8441C147.023 79.4038 146.776 78.807 146.775 78.1844V64.4605C146.776 63.838 147.023 63.2411 147.463 62.8009C147.902 62.3607 148.498 62.113 149.12 62.1123H174.84C175.461 62.113 176.057 62.3607 176.497 62.8009C176.936 63.2411 177.183 63.838 177.184 64.4605V78.1844C177.183 78.807 176.936 79.4038 176.497 79.8441C176.057 80.2843 175.461 80.5319 174.84 80.5326ZM149.12 62.7154C148.658 62.716 148.215 62.9 147.888 63.2271C147.562 63.5543 147.378 63.9979 147.378 64.4605V78.1844C147.378 78.6471 147.562 79.0906 147.888 79.4178C148.215 79.7449 148.658 79.929 149.12 79.9295H174.84C175.302 79.929 175.745 79.7449 176.071 79.4178C176.398 79.0906 176.581 78.6471 176.582 78.1844V64.4605C176.581 63.9979 176.398 63.5543 176.071 63.2271C175.745 62.9 175.302 62.716 174.84 62.7154H149.12Z" fill="#151A40"/>
<path d="M96.5595 120.038H70.8394C70.2178 120.037 69.622 119.789 69.1825 119.349C68.743 118.909 68.4958 118.312 68.4951 117.689V103.965C68.4958 103.343 68.743 102.746 69.1825 102.306C69.622 101.866 70.2178 101.618 70.8394 101.617H96.5595C97.181 101.618 97.7769 101.866 98.2164 102.306C98.6559 102.746 98.9031 103.343 98.9038 103.965V117.689C98.9031 118.312 98.6559 118.909 98.2164 119.349C97.7769 119.789 97.181 120.037 96.5595 120.038ZM70.8394 102.22C70.3775 102.221 69.9347 102.405 69.6081 102.732C69.2815 103.059 69.0978 103.503 69.0973 103.965V117.689C69.0978 118.152 69.2815 118.595 69.6081 118.923C69.9347 119.25 70.3775 119.434 70.8394 119.434H96.5595C97.0214 119.434 97.4642 119.25 97.7908 118.923C98.1174 118.596 98.3011 118.152 98.3016 117.689V103.965C98.3011 103.503 98.1174 103.059 97.7908 102.732C97.4642 102.405 97.0214 102.221 96.5595 102.22H70.8394Z" fill="#151A40"/>
<path d="M135.699 120.038H109.979C109.358 120.037 108.762 119.789 108.322 119.349C107.883 118.909 107.635 118.312 107.635 117.689V103.965C107.635 103.343 107.883 102.746 108.322 102.306C108.762 101.866 109.358 101.618 109.979 101.617H135.699C136.321 101.618 136.917 101.866 137.356 102.306C137.796 102.746 138.043 103.343 138.043 103.965V117.689C138.043 118.312 137.796 118.909 137.356 119.349C136.917 119.789 136.321 120.037 135.699 120.038ZM109.979 102.22C109.517 102.221 109.074 102.405 108.748 102.732C108.421 103.059 108.237 103.503 108.237 103.965V117.689C108.237 118.152 108.421 118.596 108.748 118.923C109.074 119.25 109.517 119.434 109.979 119.434H135.699C136.161 119.434 136.604 119.25 136.93 118.923C137.257 118.596 137.441 118.152 137.441 117.689V103.965C137.441 103.503 137.257 103.059 136.93 102.732C136.604 102.405 136.161 102.221 135.699 102.22H109.979Z" fill="#151A40"/>
<path d="M174.84 120.038H149.12C148.498 120.037 147.902 119.789 147.463 119.349C147.023 118.909 146.776 118.312 146.775 117.689V103.965C146.776 103.343 147.023 102.746 147.463 102.306C147.902 101.866 148.498 101.618 149.12 101.617H174.84C175.461 101.618 176.057 101.866 176.497 102.306C176.936 102.746 177.183 103.343 177.184 103.965V117.689C177.183 118.312 176.936 118.909 176.497 119.349C176.057 119.789 175.461 120.037 174.84 120.038ZM149.12 102.22C148.658 102.221 148.215 102.405 147.888 102.732C147.562 103.059 147.378 103.503 147.378 103.965V117.689C147.378 118.152 147.562 118.596 147.888 118.923C148.215 119.25 148.658 119.434 149.12 119.434H174.84C175.302 119.434 175.745 119.25 176.071 118.923C176.398 118.596 176.581 118.152 176.582 117.689V103.965C176.581 103.503 176.398 103.059 176.071 102.732C175.745 102.405 175.302 102.221 174.84 102.22H149.12Z" fill="#151A40"/>
<path d="M96.5595 159.543H70.8394C70.2178 159.543 69.622 159.295 69.1825 158.855C68.743 158.415 68.4958 157.818 68.4951 157.195V143.471C68.4958 142.849 68.743 142.252 69.1825 141.812C69.622 141.371 70.2178 141.124 70.8394 141.123H96.5595C97.181 141.124 97.7769 141.371 98.2164 141.812C98.6559 142.252 98.9031 142.849 98.9038 143.471V157.195C98.9031 157.818 98.6559 158.415 98.2164 158.855C97.7769 159.295 97.181 159.543 96.5595 159.543ZM70.8394 141.726C70.3775 141.727 69.9347 141.911 69.6081 142.238C69.2815 142.565 69.0978 143.009 69.0973 143.471V157.195C69.0978 157.658 69.2815 158.101 69.6081 158.429C69.9347 158.756 70.3775 158.94 70.8394 158.94H96.5595C97.0214 158.94 97.4642 158.756 97.7908 158.429C98.1174 158.101 98.3011 157.658 98.3016 157.195V143.471C98.3011 143.009 98.1174 142.565 97.7908 142.238C97.4642 141.911 97.0214 141.727 96.5595 141.726H70.8394Z" fill="#151A40"/>
<path d="M135.699 159.543H109.979C109.358 159.543 108.762 159.295 108.322 158.855C107.883 158.415 107.635 157.818 107.635 157.195V143.471C107.635 142.849 107.883 142.252 108.322 141.812C108.762 141.371 109.358 141.124 109.979 141.123H135.699C136.321 141.124 136.917 141.371 137.356 141.812C137.796 142.252 138.043 142.849 138.043 143.471V157.195C138.043 157.818 137.796 158.415 137.356 158.855C136.917 159.295 136.321 159.543 135.699 159.543ZM109.979 141.726C109.517 141.727 109.074 141.911 108.748 142.238C108.421 142.565 108.237 143.009 108.237 143.471V157.195C108.237 157.658 108.421 158.101 108.748 158.429C109.074 158.756 109.517 158.94 109.979 158.94H135.699C136.161 158.94 136.604 158.756 136.93 158.429C137.257 158.101 137.441 157.658 137.441 157.195V143.471C137.441 143.009 137.257 142.565 136.93 142.238C136.604 141.911 136.161 141.727 135.699 141.726H109.979Z" fill="#151A40"/>
<path d="M174.84 159.543H149.12C148.498 159.543 147.902 159.295 147.463 158.855C147.023 158.415 146.776 157.818 146.775 157.195V143.471C146.776 142.849 147.023 142.252 147.463 141.812C147.902 141.371 148.498 141.124 149.12 141.123H174.84C175.461 141.124 176.057 141.371 176.497 141.812C176.936 142.252 177.183 142.849 177.184 143.471V157.195C177.183 157.818 176.936 158.415 176.497 158.855C176.057 159.295 175.461 159.543 174.84 159.543ZM149.12 141.726C148.658 141.727 148.215 141.911 147.888 142.238C147.562 142.565 147.378 143.009 147.378 143.471V157.195C147.378 157.658 147.562 158.101 147.888 158.429C148.215 158.756 148.658 158.94 149.12 158.94H174.84C175.302 158.94 175.745 158.756 176.071 158.429C176.398 158.101 176.581 157.658 176.582 157.195V143.471C176.581 143.009 176.398 142.565 176.071 142.238C175.745 141.911 175.302 141.727 174.84 141.726H149.12Z" fill="#151A40"/>
<path d="M138.044 176.935C138.052 176.247 137.788 175.584 137.308 175.091C136.828 174.599 136.172 174.317 135.485 174.309H122.84V205.521H138.044V176.935Z" fill="#151A40"/>
<path d="M123.139 205.219H107.333V177.022C107.334 176.263 107.635 175.534 108.172 174.997C108.708 174.46 109.435 174.158 110.193 174.157H123.139V205.219ZM107.935 204.616H122.537V174.76H110.193C109.595 174.761 109.021 175 108.597 175.424C108.174 175.848 107.936 176.423 107.935 177.022V204.616Z" fill="#151A40"/>
<path d="M109.29 191.8C109.789 191.8 110.193 191.395 110.193 190.895C110.193 190.395 109.789 189.99 109.29 189.99C108.791 189.99 108.387 190.395 108.387 190.895C108.387 191.395 108.791 191.8 109.29 191.8Z" fill="#151A40"/>
</svg>
