<svg width="306" height="178" viewBox="0 0 306 178" fill="none" xmlns="http://www.w3.org/2000/svg">
<path d="M113.447 24.0786L6.07823 0.397031L4.68289 0.0899889C3.97231 -0.0678089 3.23262 -0.017344 2.54885 0.235582C1.86507 0.488508 1.265 0.93361 0.81764 1.51973C0.370277 2.10584 0.0937777 2.80916 0.0199587 3.5488C-0.0538604 4.28844 0.0780047 5.03437 0.400358 5.70079L43.03 94.2167C43.3059 94.7854 43.7114 95.2781 44.2123 95.6531C44.7132 96.0281 45.295 96.2746 45.9085 96.3718C46.524 96.4697 47.1535 96.4129 47.7427 96.2063C48.3319 95.9998 48.8631 95.6496 49.2903 95.1862L78.8998 63.2639C79.1105 63.0311 79.3659 62.8453 79.6502 62.7184C79.9344 62.5915 80.2413 62.5261 80.5515 62.5263C80.9731 62.5203 81.3884 62.6315 81.7529 62.8482C82.1174 63.0649 82.4175 63.3789 82.6209 63.7565L88.6858 75.2266C89.0729 75.9913 89.6992 76.6017 90.4648 76.9604C91.2305 77.3192 92.0915 77.4057 92.9109 77.2063L92.9411 77.1994C93.7704 77.0198 94.5165 76.5603 95.0595 75.8948C95.6026 75.2292 95.911 74.3963 95.9352 73.5299L97.1501 47.053C97.1646 46.7227 97.2453 46.3989 97.3872 46.1017C97.5395 45.8077 97.7463 45.5466 97.996 45.3332L115.078 30.9959C115.639 30.5247 116.06 29.9012 116.291 29.197C116.521 28.4928 116.554 27.7363 116.383 27.0143C116.213 26.2923 115.847 25.6339 115.328 25.1147C114.808 24.5954 114.156 24.2364 113.447 24.0786H113.447ZM114.102 29.7771L97.0205 44.1144C96.7979 44.2978 96.5962 44.5061 96.4192 44.7356L5.88418 2.7537C5.80433 2.71572 5.72103 2.68585 5.63547 2.6645C5.28627 2.57247 4.91658 2.60811 4.59036 2.76527C4.26414 2.92243 4.00188 3.19121 3.84896 3.52514C3.69603 3.85907 3.66206 4.23712 3.7529 4.59395C3.84374 4.95079 4.05369 5.26396 4.34644 5.47927L78.7865 61.3892C78.4087 61.59 78.0677 61.8559 77.7783 62.1752L48.1691 94.0973C47.9122 94.3737 47.5938 94.5827 47.241 94.7063C46.8882 94.83 46.5114 94.8648 46.1426 94.8077C45.7739 94.7506 45.424 94.6034 45.1228 94.3784C44.8216 94.1535 44.578 93.8576 44.4126 93.5158L1.78303 4.99984C1.59245 4.5999 1.51556 4.15327 1.56114 3.71083C1.60672 3.26839 1.77292 2.84793 2.04081 2.49736C2.3087 2.14679 2.66751 1.88022 3.07635 1.728C3.4852 1.57577 3.92764 1.54401 4.35327 1.63636L5.78176 1.95198L113.117 25.625C113.543 25.7194 113.934 25.9345 114.247 26.2458C114.559 26.5571 114.779 26.952 114.882 27.3853C114.985 27.8186 114.966 28.2727 114.828 28.6957C114.69 29.1187 114.439 29.4935 114.102 29.7771Z" fill="#A3CC4A"/>
<path d="M96.1348 72.2215C97.2321 68.09 101.796 63.062 108.068 64.1385C111.179 64.6723 113.193 66.7213 114.495 68.8459C116.297 71.7846 116.975 75.1315 117.147 78.3569C117.345 82.0771 116.846 85.7932 116.318 89.4856C115.798 93.1308 115.332 96.7763 115.047 100.438C113.942 114.765 114.994 129.18 118.168 143.185C118.952 146.641 119.873 150.077 120.929 153.492C121.865 156.728 123.028 159.892 124.408 162.959C126.325 167.02 130.055 173.622 136.962 173.084C140.625 172.798 143.55 170.605 145.588 168.392C148.052 165.717 149.674 162.622 151.248 159.59C158.571 145.487 165.808 131.357 173.087 117.24C174.786 113.946 176.44 110.629 178.431 107.432C180.294 104.438 182.46 101.459 185.454 99.0494C188.068 96.9453 191.579 95.065 195.503 95.1314C198.757 95.1864 201.519 96.6924 203.583 98.537C208.693 103.104 210.764 109.564 211.85 115.403C213.198 122.656 213.191 130.015 214.493 137.274C215.544 143.135 217.574 149.397 222.329 154.164C224.263 156.18 226.714 157.606 229.403 158.281C232.22 158.89 235.153 158.594 237.797 157.435C240.83 156.143 243.245 154.084 245.224 151.918C247.464 149.43 249.318 146.609 250.72 143.551C253.737 137.113 255.307 130.344 257.622 123.75C258.758 120.516 260.002 117.249 261.953 114.246C263.605 111.702 265.832 108.93 269.143 107.515C275.976 104.595 280.048 111.562 281.59 115.509C282.591 118.193 283.369 120.956 283.916 123.772C284.042 124.367 285.21 124.115 285.085 123.522C284.517 120.559 283.683 117.654 282.594 114.846C281.621 112.465 280.343 110.009 278.144 108.139C277.151 107.287 275.993 106.658 274.745 106.291C273.497 105.924 272.187 105.829 270.901 106.01C267.622 106.505 265.096 108.658 263.267 110.68C260.847 113.354 259.267 116.403 257.979 119.494C256.622 122.75 255.565 126.074 254.528 129.398C252.456 136.039 250.609 142.978 246.2 148.973C243.115 153.167 237.332 158.864 230.163 157.469C226.981 156.85 224.493 154.969 222.663 152.94C220.578 150.557 218.934 147.809 217.814 144.829C212.556 131.544 216.316 116.923 209.175 103.98C206.748 99.5791 202.327 94.234 195.372 94.1909C191.759 94.1686 188.445 95.6414 185.826 97.4623C182.689 99.6431 180.369 102.467 178.431 105.341C176.464 108.366 174.675 111.508 173.075 114.748C171.246 118.289 169.42 121.83 167.596 125.372L156.512 146.867L151.005 157.547C149.324 160.806 147.712 164.149 145.245 167.113C143.224 169.539 139.91 172.406 135.794 172.159C132.526 171.962 130.168 169.754 128.591 167.736C126.549 165.124 125.228 162.189 124.13 159.269C122.865 155.9 121.814 152.477 120.87 149.047C118.939 142.02 117.559 134.849 116.743 127.601C115.924 120.37 115.657 113.086 115.944 105.814C116.09 102.14 116.379 98.471 116.811 94.808C117.258 91.0322 117.947 87.2726 118.253 83.4871C118.529 80.063 118.465 76.606 117.577 73.234C116.835 70.4184 115.512 67.4438 112.932 65.3066C110.962 63.7313 108.494 62.9424 105.992 63.0885C103.495 63.2332 101.099 64.1385 99.1146 65.6867C97.0881 67.2592 95.6295 69.4689 94.9658 71.9718C94.809 72.5619 95.9773 72.8144 96.1348 72.2215L96.1348 72.2215Z" fill="#EFF3F2"/>
<path d="M129.966 170.145C129.966 174.018 133.053 177.158 136.861 177.158C140.67 177.158 143.757 174.018 143.757 170.145C143.757 166.272 140.67 163.133 136.861 163.133C133.053 163.133 129.966 166.272 129.966 170.145Z" fill="#151A40"/>
<path d="M227.155 157.351C227.155 161.224 230.243 164.364 234.051 164.364C237.859 164.364 240.947 161.224 240.947 157.351C240.947 153.478 237.859 150.339 234.051 150.339C230.243 150.339 227.155 153.478 227.155 157.351Z" fill="#A3CC4A"/>
<path d="M295.19 118.773L276.045 127.238C275.2 127.613 274.535 128.314 274.197 129.187C273.859 130.06 273.875 131.034 274.242 131.895L280.187 145.805C280.555 146.665 281.244 147.341 282.103 147.685C282.961 148.029 283.918 148.013 284.764 147.639L303.909 139.174C304.755 138.799 305.419 138.098 305.758 137.225C306.096 136.352 306.08 135.378 305.713 134.517L299.768 120.607C299.399 119.747 298.71 119.071 297.852 118.727C296.994 118.383 296.036 118.4 295.19 118.773ZM295.983 120.627C296.097 120.577 296.217 120.542 296.341 120.522L289.868 132.944L276.574 129.244C276.657 129.184 276.745 129.134 276.838 129.093L295.983 120.627ZM303.116 137.319L283.972 145.785C283.609 145.945 283.199 145.952 282.831 145.804C282.463 145.657 282.168 145.367 282.01 144.998L276.119 131.214L290.111 135.109C290.329 135.169 290.561 135.153 290.768 135.061C290.976 134.97 291.146 134.81 291.252 134.607L298.027 121.605L303.889 135.323C304.047 135.692 304.054 136.11 303.909 136.484C303.764 136.858 303.479 137.158 303.116 137.319Z" fill="#A3CC4A"/>
<path d="M113.447 24.0786L6.07823 0.397031L4.68289 0.0899889C3.97231 -0.0678089 3.23262 -0.017344 2.54885 0.235582C1.86507 0.488508 1.265 0.93361 0.81764 1.51973C0.370277 2.10584 0.0937777 2.80916 0.0199587 3.5488C-0.0538604 4.28844 0.0780047 5.03437 0.400358 5.70079L43.03 94.2167C43.3059 94.7854 43.7114 95.2781 44.2123 95.6531C44.7132 96.0281 45.295 96.2746 45.9085 96.3718C46.524 96.4697 47.1535 96.4129 47.7427 96.2063C48.3319 95.9998 48.8631 95.6496 49.2903 95.1862L78.8998 63.2639C79.1105 63.0311 79.3659 62.8453 79.6502 62.7184C79.9344 62.5915 80.2413 62.5261 80.5515 62.5263C80.9731 62.5203 81.3884 62.6315 81.7529 62.8482C82.1174 63.0649 82.4175 63.3789 82.6209 63.7565L88.6858 75.2266C89.0729 75.9913 89.6992 76.6017 90.4648 76.9604C91.2305 77.3192 92.0915 77.4057 92.9109 77.2063L92.9411 77.1994C93.7704 77.0198 94.5165 76.5603 95.0595 75.8948C95.6026 75.2292 95.911 74.3963 95.9352 73.5299L97.1501 47.053C97.1646 46.7227 97.2453 46.3989 97.3872 46.1017C97.5395 45.8077 97.7463 45.5466 97.996 45.3332L115.078 30.9959C115.639 30.5247 116.06 29.9012 116.291 29.197C116.521 28.4928 116.554 27.7363 116.383 27.0143C116.213 26.2923 115.847 25.6339 115.328 25.1147C114.808 24.5954 114.156 24.2364 113.447 24.0786H113.447ZM114.102 29.7771L97.0205 44.1144C96.7979 44.2978 96.5962 44.5061 96.4192 44.7356C96.2596 44.9397 96.1217 45.1607 96.008 45.3948C95.8889 45.6341 95.795 45.8858 95.7279 46.1455L95.7296 46.1532C95.6588 46.4237 95.618 46.7015 95.608 46.9813L94.3934 73.4581C94.3832 73.9787 94.2 74.4803 93.874 74.8803C93.548 75.2803 93.0986 75.555 92.5996 75.6592L92.5846 75.6627C92.0929 75.7875 91.5744 75.7389 91.1131 75.5247C90.6519 75.3106 90.2749 74.9434 90.0433 74.4827L83.9768 63.0049C83.6642 62.4146 83.2093 61.9157 82.6552 61.5556C82.1011 61.1955 81.4662 60.9861 80.8107 60.9473L80.8033 60.949C80.7151 60.9447 80.6273 60.9403 80.5411 60.9437C79.9295 60.9439 79.3272 61.0969 78.7865 61.3892C78.4088 61.59 78.0677 61.8559 77.7783 62.1752L48.1691 94.0973C47.9122 94.3737 47.5938 94.5827 47.241 94.7063C46.8882 94.83 46.5114 94.8648 46.1426 94.8077C45.7739 94.7506 45.424 94.6034 45.1228 94.3784C44.8217 94.1535 44.578 93.8576 44.4126 93.5158L1.78303 4.99984C1.59245 4.5999 1.51556 4.15327 1.56114 3.71083C1.60672 3.26839 1.77292 2.84793 2.04081 2.49736C2.3087 2.14679 2.66751 1.88022 3.07635 1.728C3.4852 1.57577 3.92764 1.54401 4.35327 1.63636L5.78176 1.95198L113.117 25.625C113.543 25.7194 113.934 25.9345 114.247 26.2458C114.559 26.5571 114.779 26.952 114.882 27.3853C114.985 27.8186 114.966 28.2727 114.828 28.6957C114.69 29.1187 114.439 29.4935 114.102 29.7771Z" fill="#151A40"/>
<path d="M96.4062 44.6483L95.7728 46.0839L95.3815 45.9064L95.3798 45.8987L5.56721 4.03781L80.5626 60.6738L80.5699 60.6722L80.7685 60.8288L79.8643 62.0998L78.5603 61.1132L4.65563 5.3105C4.36499 5.09559 4.15655 4.78305 4.06636 4.4269C3.97617 4.07075 4.0099 3.6934 4.16173 3.36011C4.31355 3.02682 4.57392 2.75856 4.8978 2.6017C5.22167 2.44484 5.5887 2.40927 5.93539 2.50112C6.02034 2.52243 6.10303 2.55227 6.18231 2.59018L96.0661 44.4915L96.4062 44.6483Z" fill="#151A40"/>
</svg>
