<svg width="212" height="364" viewBox="0 0 212 364" fill="none" xmlns="http://www.w3.org/2000/svg">
<path fill-rule="evenodd" clip-rule="evenodd" d="M212 0H119.7C111.823 0 104.269 3.12057 98.699 8.67523C93.1291 14.2299 90 21.7636 90 29.6191V310.381C90 318.236 93.1291 325.77 98.699 331.325C104.269 336.879 111.823 340 119.7 340H212V332.295H120.373C114.49 332.295 108.849 329.964 104.689 325.816C100.529 321.668 98.1924 316.041 98.1924 310.175V29.8265C98.1924 23.9599 100.529 18.3336 104.689 14.1853C108.849 10.037 114.49 7.70656 120.373 7.70656H133.63C132.978 9.30228 132.729 11.0336 132.905 12.748C133.081 14.4623 133.678 16.1071 134.642 17.5375C135.605 18.9679 136.907 20.1399 138.432 20.9503C139.957 21.7608 141.659 22.1847 143.387 22.1849H205.673C207.401 22.1849 209.103 21.761 210.628 20.9505C211.109 20.6952 211.567 20.4039 212 20.08V0Z" fill="#EFF3F2"/>
<path d="M77.5944 336.791L76.5361 346.834L82.5334 346.141L83.2389 337.83L77.5944 336.791Z" fill="#FFB9B9"/>
<path d="M61.7201 260.604C61.7201 260.604 31.0272 289.693 50.4307 298.697H56.428C56.428 298.697 69.4812 277.571 75.8315 277.919L77.5953 298.005L76.5371 338.522L84.2985 338.869C84.2985 338.869 88.8847 318.437 88.532 307.009L96.6461 264.759L61.7201 260.604Z" fill="#151A40"/>
<path d="M52.1943 297.312L56.4278 298.698C56.4278 298.698 73.0089 294.888 74.0658 295.235L77.3486 295.212L77.2417 286.923H63.1313L52.1943 297.312Z" fill="#151A40"/>
<path d="M83.24 344.756C83.24 344.756 76.8896 341.985 75.8313 344.756C74.773 347.526 75.1258 355.491 75.1258 355.491C75.9722 357.089 76.2218 358.927 75.8313 360.686C75.1258 363.456 78.6537 364.841 83.24 363.456C87.8262 362.071 87.8262 358.608 87.8262 358.608L83.24 344.756Z" fill="#151A40"/>
<path d="M88.5316 286.229C88.5316 286.229 93.4706 283.458 93.1178 287.614C92.8251 290.359 92.1114 293.044 91.0009 295.579C91.0009 295.579 95.5871 307.353 91.0009 308.392C86.4147 309.431 82.8867 307.007 82.8867 305.275C82.8867 303.544 88.5316 286.229 88.5316 286.229Z" fill="#151A40"/>
<path d="M73.0078 191.342L73.7137 204.502L79.711 209.696L86.4141 200.346V190.996L73.0078 191.342Z" fill="#FFB9B9"/>
<path d="M77.5945 204.502L73.556 201.556L70.8917 205.541L58.8968 212.466L65.952 230.474L66.3048 248.136C66.3048 248.136 53.2516 261.295 61.013 263.027C68.7745 264.759 96.2922 268.568 97.7032 265.451C99.1143 262.335 95.9394 230.128 95.9394 230.128L96.9977 202.77L86.4149 199.014L77.5945 204.502Z" fill="#A3CC4A"/>
<path d="M56.0741 226.436C56.0741 226.436 53.2517 246.058 58.5438 246.058C61.6866 246.068 64.8016 245.48 67.7163 244.326L63.4828 233.591L65.2466 226.318L56.0741 226.436Z" fill="#FFB9B9"/>
<path d="M64.1891 243.635L68.0698 244.327C68.0698 244.327 79.3592 237.402 80.0647 237.055C80.7702 236.708 68.7753 230.821 68.7753 230.821L60.6611 233.938L64.1891 243.635Z" fill="#FFB9B9"/>
<path opacity="0.1" d="M68.7752 230.821L63.6797 232.778L65.2476 226.319L56.0751 226.435C56.0751 226.435 53.2527 246.057 58.5448 246.057C61.6875 246.068 64.8026 245.48 67.7172 244.326L67.6905 244.258L68.07 244.326C68.07 244.326 79.3594 237.4 80.0649 237.054C80.7704 236.707 68.7752 230.821 68.7752 230.821Z" fill="#151A40"/>
<path d="M81.1697 197.908C86.7334 197.908 91.2436 193.481 91.2436 188.02C91.2436 182.558 86.7334 178.131 81.1697 178.131C75.606 178.131 71.0957 182.558 71.0957 188.02C71.0957 193.481 75.606 197.908 81.1697 197.908Z" fill="#FFB9B9"/>
<path d="M72.264 176.864L70.2957 176.091C70.2957 176.091 74.4112 171.643 80.137 172.03L78.5264 170.289C78.5264 170.289 82.463 168.742 86.0416 172.803C87.923 174.937 90.0994 177.447 91.4577 180.274H93.5657L92.6859 182.175L95.7642 184.077L92.6036 183.736C92.903 185.377 92.8005 187.065 92.3047 188.66L92.3895 190.164C92.3895 190.164 88.7261 184.601 88.7261 183.827V185.761C88.7261 185.761 86.7578 184.021 86.7578 182.86L85.6842 184.214L85.1458 182.084L78.5253 184.211L79.5989 182.47L75.4834 183.05L77.094 180.923C77.094 180.923 72.4418 183.437 72.2626 185.565C72.0833 187.692 69.7576 190.399 69.7576 190.399L68.684 188.465C68.684 188.465 67.0749 179.765 72.264 176.864Z" fill="#151A40"/>
<path d="M89.9429 220.432C88.1623 222.591 87.1688 225.273 87.1204 228.051L68.4224 227.358C68.4224 227.358 63.4834 226.666 63.4834 230.129V233.592C63.4834 233.592 65.9531 232.553 67.3641 233.592C68.7751 234.63 83.9452 243.635 91.3539 240.171C98.7626 236.708 100.526 223.203 100.526 223.203C100.526 223.203 93.8236 217.661 89.9429 220.432Z" fill="#FFB9B9"/>
<path d="M94.1779 203.117L97.0004 202.771C97.0004 202.771 102.645 203.463 101.939 214.199C101.234 224.934 100.881 225.627 100.881 225.627C100.881 225.627 93.4724 219.047 88.1807 222.164L94.1779 203.117Z" fill="#A3CC4A"/>
<path d="M60.308 212.468H58.8969C57.0686 214.735 56.0741 217.541 56.0745 220.433C56.0421 223.53 55.6275 226.611 54.8398 229.61L65.9528 227.705L60.308 212.468Z" fill="#A3CC4A"/>
<circle cx="20" cy="143" r="19.5" fill="white" stroke="#EFF3F2"/>
<path d="M13.3937 142.735C16.8833 141.183 19.2103 140.16 20.3746 139.665C23.699 138.254 24.3897 138.008 24.84 138C24.939 137.998 25.1604 138.023 25.3038 138.142C25.4249 138.243 25.4583 138.378 25.4742 138.473C25.4901 138.568 25.51 138.785 25.4942 138.954C25.3141 140.887 24.5346 145.577 24.138 147.741C23.9702 148.657 23.6398 148.964 23.3199 148.995C22.6248 149.06 22.0969 148.525 21.4236 148.075C20.3701 147.37 19.7749 146.931 18.7522 146.243C17.5703 145.447 18.3365 145.01 19.01 144.296C19.1863 144.109 22.2492 141.265 22.3084 141.007C22.3159 140.974 22.3227 140.854 22.2527 140.791C22.1828 140.727 22.0794 140.749 22.0049 140.766C21.8992 140.791 20.2162 141.926 16.9557 144.174C16.4779 144.509 16.0452 144.672 15.6575 144.663C15.2301 144.654 14.4079 144.416 13.7967 144.214C13.0471 143.965 12.4513 143.833 12.5031 143.411C12.5302 143.191 12.827 142.966 13.3937 142.735Z" fill="#25A3E1"/>
<path d="M36 163C38.2091 163 40 161.209 40 159C40 156.791 38.2091 155 36 155C33.7909 155 32 156.791 32 159C32 161.209 33.7909 163 36 163Z" fill="#3F3D56"/>
<path d="M36.8004 161.133H35.986V158.063C35.6854 158.343 35.3261 158.554 34.9336 158.681V157.942C35.1856 157.85 35.4199 157.716 35.6263 157.546C35.8598 157.373 36.038 157.137 36.1393 156.866H36.8004V161.133Z" fill="#3F3D56"/>
<path d="M36 163C38.2091 163 40 161.209 40 159C40 156.791 38.2091 155 36 155C33.7909 155 32 156.791 32 159C32 161.209 33.7909 163 36 163Z" fill="#A3CC4A"/>
<path d="M36.8004 161.133H35.986V158.063C35.6854 158.343 35.3261 158.554 34.9336 158.681V157.942C35.1856 157.85 35.4199 157.716 35.6263 157.546C35.8598 157.373 36.038 157.137 36.1393 156.866H36.8004V161.133Z" fill="white"/>
<circle cx="140" cy="103" r="19.5" fill="white" stroke="#EFF3F2"/>
<path d="M145.375 97.6057C144.089 96.2814 142.31 95.5625 140.494 95.5625C136.635 95.5625 133.532 98.703 133.57 102.525C133.57 103.735 133.91 104.908 134.478 105.968L133.494 109.562L137.164 108.617C138.186 109.184 139.321 109.449 140.456 109.449C144.278 109.449 147.381 106.308 147.381 102.487C147.381 100.633 146.662 98.8922 145.375 97.6057ZM140.494 108.276C139.473 108.276 138.451 108.011 137.581 107.481L137.354 107.368L135.159 107.935L135.727 105.779L135.575 105.552C133.91 102.865 134.705 99.3084 137.429 97.6436C140.154 95.9787 143.673 96.7733 145.337 99.4976C147.002 102.222 146.208 105.741 143.483 107.406C142.613 107.973 141.554 108.276 140.494 108.276ZM143.824 104.076L143.408 103.887C143.408 103.887 142.802 103.622 142.424 103.433C142.386 103.433 142.348 103.395 142.31 103.395C142.197 103.395 142.121 103.433 142.045 103.471C142.045 103.471 142.008 103.508 141.478 104.114C141.44 104.19 141.364 104.227 141.289 104.227H141.251C141.213 104.227 141.137 104.19 141.1 104.152L140.91 104.076C140.494 103.887 140.116 103.66 139.813 103.357C139.737 103.281 139.624 103.206 139.548 103.13C139.283 102.865 139.018 102.563 138.829 102.222L138.791 102.146C138.754 102.108 138.754 102.071 138.716 101.995C138.716 101.919 138.716 101.844 138.754 101.806C138.754 101.806 138.905 101.617 139.018 101.503C139.094 101.427 139.132 101.314 139.208 101.238C139.283 101.125 139.321 100.973 139.283 100.86C139.245 100.671 138.791 99.649 138.678 99.422C138.602 99.3084 138.527 99.2706 138.413 99.2328H138.3C138.224 99.2328 138.11 99.2328 137.997 99.2328C137.921 99.2328 137.845 99.2706 137.77 99.2706L137.732 99.3084C137.656 99.3463 137.581 99.422 137.505 99.4598C137.429 99.5355 137.391 99.6111 137.316 99.6868C137.051 100.027 136.9 100.444 136.9 100.86C136.9 101.163 136.975 101.465 137.089 101.73L137.127 101.844C137.467 102.563 137.921 103.206 138.527 103.773L138.678 103.925C138.791 104.038 138.905 104.114 138.981 104.227C139.775 104.908 140.683 105.4 141.705 105.665C141.818 105.703 141.97 105.703 142.083 105.741C142.197 105.741 142.348 105.741 142.462 105.741C142.651 105.741 142.878 105.665 143.029 105.59C143.143 105.514 143.218 105.514 143.294 105.438L143.37 105.363C143.445 105.287 143.521 105.249 143.597 105.173C143.673 105.098 143.748 105.022 143.786 104.946C143.862 104.795 143.9 104.606 143.937 104.417C143.937 104.341 143.937 104.227 143.937 104.152C143.937 104.152 143.9 104.114 143.824 104.076Z" fill="#0DC143"/>
<path d="M156 123C158.209 123 160 121.209 160 119C160 116.791 158.209 115 156 115C153.791 115 152 116.791 152 119C152 121.209 153.791 123 156 123Z" fill="#3F3D56"/>
<path d="M155.524 119.654C155.51 119.869 155.571 120.082 155.696 120.257C155.74 120.32 155.799 120.373 155.867 120.41C155.935 120.446 156.01 120.467 156.088 120.469C156.156 120.47 156.224 120.455 156.286 120.424C156.347 120.394 156.401 120.35 156.442 120.295C156.551 120.126 156.601 119.926 156.584 119.725C156.601 119.515 156.547 119.305 156.431 119.128C156.387 119.07 156.33 119.023 156.265 118.99C156.2 118.957 156.129 118.94 156.056 118.939C155.983 118.938 155.911 118.954 155.845 118.985C155.78 119.017 155.722 119.062 155.677 119.12C155.564 119.274 155.51 119.464 155.524 119.654ZM157.259 117.907L156.518 117.993C156.512 117.862 156.462 117.738 156.376 117.639C156.337 117.601 156.291 117.571 156.24 117.552C156.189 117.532 156.134 117.523 156.08 117.525C155.998 117.527 155.917 117.548 155.846 117.588C155.774 117.628 155.714 117.684 155.67 117.753C155.522 118.047 155.449 118.374 155.458 118.703C155.541 118.592 155.648 118.502 155.772 118.441C155.895 118.38 156.032 118.348 156.169 118.349C156.326 118.348 156.481 118.382 156.623 118.448C156.765 118.514 156.89 118.611 156.991 118.731C157.225 119.005 157.348 119.357 157.332 119.717C157.351 120.094 157.222 120.463 156.973 120.746C156.846 120.877 156.693 120.979 156.524 121.046C156.354 121.112 156.172 121.142 155.99 121.132C155.809 121.122 155.631 121.073 155.47 120.988C155.308 120.904 155.167 120.786 155.056 120.642C154.796 120.314 154.666 119.777 154.666 119.03C154.666 118.264 154.801 117.712 155.072 117.374C155.195 117.212 155.355 117.082 155.538 116.994C155.721 116.906 155.923 116.862 156.126 116.867C156.402 116.857 156.671 116.952 156.879 117.133C157.092 117.339 157.227 117.613 157.259 117.907Z" fill="#3F3D56"/>
<path d="M156 123C158.209 123 160 121.209 160 119C160 116.791 158.209 115 156 115C153.791 115 152 116.791 152 119C152 121.209 153.791 123 156 123Z" fill="#A3CC4A"/>
<path d="M155.524 119.654C155.51 119.869 155.571 120.082 155.696 120.257C155.74 120.32 155.799 120.373 155.867 120.41C155.935 120.446 156.01 120.467 156.088 120.469C156.156 120.47 156.224 120.455 156.286 120.424C156.347 120.394 156.401 120.35 156.442 120.295C156.551 120.126 156.601 119.926 156.584 119.725C156.601 119.515 156.547 119.305 156.431 119.128C156.387 119.07 156.33 119.023 156.265 118.99C156.2 118.957 156.129 118.94 156.056 118.939C155.983 118.938 155.911 118.954 155.845 118.985C155.78 119.017 155.722 119.062 155.677 119.12C155.564 119.274 155.51 119.464 155.524 119.654ZM157.259 117.907L156.518 117.993C156.512 117.862 156.462 117.738 156.376 117.639C156.337 117.601 156.291 117.571 156.24 117.552C156.189 117.532 156.134 117.523 156.08 117.525C155.998 117.527 155.917 117.548 155.846 117.588C155.774 117.628 155.714 117.684 155.67 117.753C155.522 118.047 155.449 118.374 155.458 118.703C155.541 118.592 155.648 118.502 155.772 118.441C155.895 118.38 156.032 118.348 156.169 118.349C156.326 118.348 156.481 118.382 156.623 118.448C156.765 118.514 156.89 118.611 156.991 118.731C157.225 119.005 157.348 119.357 157.332 119.717C157.351 120.094 157.222 120.463 156.973 120.746C156.846 120.877 156.693 120.979 156.524 121.046C156.354 121.112 156.172 121.142 155.99 121.132C155.809 121.122 155.631 121.073 155.47 120.988C155.308 120.904 155.167 120.786 155.056 120.642C154.796 120.314 154.666 119.777 154.666 119.03C154.666 118.264 154.801 117.712 155.072 117.374C155.195 117.212 155.355 117.082 155.538 116.994C155.721 116.906 155.923 116.862 156.126 116.867C156.402 116.857 156.671 116.952 156.879 117.133C157.092 117.339 157.227 117.613 157.259 117.907Z" fill="white"/>
<circle cx="100" cy="223" r="19.5" fill="white" stroke="#EFF3F2"/>
<path d="M105.877 217.092C105.48 216.727 103.873 215.559 100.291 215.543C100.291 215.543 96.0686 215.287 94.0103 217.176C92.8642 218.322 92.4609 219.996 92.4193 222.076C92.3777 224.154 92.3232 228.05 96.0782 229.106H96.0814L96.0782 230.716C96.0782 230.716 96.0558 231.369 96.4848 231.501C97.0033 231.661 97.3107 231.165 97.8068 230.63C98.0789 230.336 98.4535 229.907 98.7384 229.577C101.306 229.791 103.281 229.298 103.505 229.225C104.024 229.055 106.959 228.681 107.436 224.785C107.929 220.777 107.196 218.238 105.877 217.092ZM106.312 224.503C105.909 227.755 103.531 227.96 103.092 228.101C102.906 228.162 101.171 228.594 98.9881 228.45C98.9881 228.45 97.3619 230.412 96.8561 230.921C96.7761 231.001 96.6832 231.033 96.6224 231.017C96.536 230.995 96.5104 230.893 96.5136 230.742C96.5136 230.524 96.5264 228.063 96.5264 228.063C96.5232 228.063 96.5232 228.063 96.5264 228.063C93.3476 227.182 93.5333 223.866 93.5685 222.131C93.6037 220.396 93.9302 218.971 94.9002 218.014C96.6384 216.439 100.227 216.673 100.227 216.673C103.255 216.686 104.705 217.598 105.041 217.902C106.159 218.863 106.729 221.151 106.312 224.503Z" fill="#675DA9"/>
<path d="M101.767 222.192C101.661 222.192 101.571 222.109 101.565 222C101.53 221.311 101.206 220.975 100.547 220.94C100.435 220.934 100.348 220.838 100.355 220.726C100.361 220.614 100.457 220.527 100.569 220.534C101.44 220.582 101.927 221.081 101.971 221.977C101.978 222.089 101.891 222.185 101.779 222.189C101.773 222.192 101.77 222.192 101.767 222.192Z" fill="#675DA9"/>
<path d="M102.804 222.537H102.801C102.689 222.534 102.599 222.441 102.602 222.329C102.618 221.638 102.42 221.077 101.997 220.616C101.578 220.155 100.998 219.906 100.233 219.851C100.121 219.842 100.038 219.746 100.048 219.634C100.057 219.522 100.153 219.438 100.265 219.448C101.13 219.512 101.811 219.813 102.298 220.344C102.788 220.879 103.025 221.548 103.009 222.339C103.006 222.451 102.913 222.537 102.804 222.537Z" fill="#675DA9"/>
<path d="M103.867 222.953C103.755 222.953 103.665 222.864 103.665 222.752C103.656 221.513 103.3 220.568 102.577 219.861C101.863 219.163 100.957 218.808 99.8911 218.798C99.7791 218.798 99.6895 218.705 99.6895 218.593C99.6895 218.481 99.7823 218.392 99.8911 218.392C101.066 218.401 102.065 218.795 102.855 219.57C103.649 220.344 104.056 221.414 104.069 222.745C104.072 222.86 103.982 222.953 103.867 222.953C103.87 222.953 103.87 222.953 103.867 222.953Z" fill="#675DA9"/>
<path d="M100.595 224.698C100.595 224.698 100.88 224.724 101.034 224.535L101.332 224.161C101.476 223.975 101.825 223.856 102.164 224.045C102.353 224.151 102.695 224.362 102.907 224.519C103.134 224.686 103.595 225.07 103.598 225.073C103.819 225.259 103.87 225.531 103.72 225.822C103.72 225.822 103.72 225.825 103.72 225.828C103.566 226.1 103.358 226.357 103.099 226.593C103.095 226.593 103.095 226.597 103.092 226.597C102.878 226.776 102.666 226.878 102.462 226.901C102.436 226.907 102.407 226.907 102.369 226.907C102.279 226.907 102.19 226.894 102.1 226.866L102.093 226.856C101.773 226.766 101.242 226.542 100.358 226.052C99.7822 225.736 99.3053 225.412 98.8987 225.089C98.6842 224.919 98.4665 224.73 98.2425 224.506C98.2361 224.5 98.2265 224.49 98.2201 224.484C98.2137 224.477 98.2041 224.468 98.1976 224.461C98.1912 224.455 98.1816 224.445 98.1752 224.439C98.1688 224.433 98.1592 224.423 98.1528 224.417C97.932 224.193 97.7399 223.975 97.5702 223.76C97.2469 223.357 96.9236 222.877 96.6067 222.301C96.1169 221.414 95.8928 220.883 95.8032 220.566L95.7936 220.559C95.7648 220.47 95.752 220.38 95.752 220.29C95.752 220.252 95.752 220.223 95.7584 220.197C95.784 219.989 95.8864 219.781 96.0625 219.567C96.0625 219.564 96.0657 219.564 96.0657 219.56C96.3026 219.298 96.5586 219.093 96.8307 218.939C96.8307 218.939 96.8339 218.939 96.8372 218.939C97.1253 218.789 97.3974 218.84 97.5862 219.061C97.5862 219.061 97.9736 219.525 98.14 219.753C98.2969 219.967 98.5082 220.306 98.6138 220.495C98.8027 220.835 98.6842 221.183 98.4986 221.328L98.124 221.625C97.9352 221.779 97.9608 222.064 97.9608 222.064C97.9608 222.064 98.5146 224.17 100.595 224.698Z" fill="#675DA9"/>
<path d="M116 243C118.209 243 120 241.209 120 239C120 236.791 118.209 235 116 235C113.791 235 112 236.791 112 239C112 241.209 113.791 243 116 243Z" fill="#3F3D56"/>
<path d="M115.505 238C115.501 238.068 115.511 238.136 115.533 238.2C115.556 238.264 115.591 238.322 115.637 238.373C115.683 238.418 115.737 238.453 115.798 238.476C115.858 238.499 115.922 238.51 115.987 238.507C116.052 238.51 116.117 238.499 116.178 238.476C116.239 238.453 116.294 238.417 116.341 238.371C116.387 238.321 116.422 238.262 116.445 238.198C116.468 238.133 116.477 238.065 116.473 237.997C116.476 237.931 116.466 237.865 116.444 237.803C116.421 237.742 116.387 237.685 116.342 237.636C116.297 237.591 116.242 237.556 116.183 237.532C116.123 237.509 116.059 237.498 115.995 237.501C115.929 237.498 115.864 237.509 115.802 237.532C115.741 237.556 115.685 237.592 115.638 237.638C115.593 237.686 115.558 237.743 115.535 237.805C115.512 237.868 115.502 237.934 115.505 238ZM115.433 239.789C115.422 239.975 115.481 240.159 115.598 240.304C115.649 240.363 115.712 240.411 115.783 240.443C115.854 240.475 115.931 240.491 116.009 240.489C116.084 240.491 116.159 240.476 116.228 240.445C116.297 240.414 116.358 240.368 116.407 240.311C116.521 240.165 116.577 239.982 116.565 239.797C116.573 239.625 116.516 239.457 116.404 239.326C116.354 239.268 116.291 239.222 116.221 239.191C116.151 239.161 116.074 239.146 115.998 239.148C115.916 239.142 115.833 239.158 115.759 239.193C115.685 239.229 115.621 239.283 115.573 239.35C115.482 239.478 115.433 239.631 115.433 239.789ZM115.345 238.806C115.164 238.735 115.011 238.609 114.907 238.445C114.815 238.294 114.768 238.12 114.77 237.943C114.765 237.799 114.791 237.656 114.846 237.523C114.9 237.39 114.982 237.27 115.086 237.171C115.344 236.973 115.66 236.866 115.985 236.866C116.31 236.866 116.626 236.973 116.884 237.171C116.989 237.27 117.072 237.39 117.127 237.523C117.182 237.656 117.208 237.799 117.204 237.943C117.208 238.126 117.157 238.306 117.057 238.46C116.957 238.614 116.814 238.734 116.645 238.806C116.853 238.883 117.031 239.024 117.154 239.208C117.278 239.391 117.341 239.61 117.334 239.831C117.343 240.005 117.316 240.18 117.253 240.343C117.191 240.506 117.094 240.653 116.971 240.776C116.847 240.899 116.698 240.995 116.535 241.056C116.371 241.118 116.197 241.144 116.023 241.133C115.69 241.145 115.364 241.039 115.101 240.834C114.959 240.718 114.845 240.569 114.769 240.401C114.694 240.233 114.659 240.049 114.667 239.865C114.665 239.647 114.721 239.432 114.83 239.243C114.95 239.045 115.13 238.891 115.345 238.806Z" fill="#3F3D56"/>
<path d="M116 243C118.209 243 120 241.209 120 239C120 236.791 118.209 235 116 235C113.791 235 112 236.791 112 239C112 241.209 113.791 243 116 243Z" fill="#A3CC4A"/>
<path d="M115.505 238C115.501 238.068 115.511 238.136 115.533 238.2C115.556 238.264 115.591 238.322 115.637 238.373C115.683 238.418 115.737 238.453 115.798 238.476C115.858 238.499 115.922 238.51 115.987 238.507C116.052 238.51 116.117 238.499 116.178 238.476C116.239 238.453 116.294 238.417 116.341 238.371C116.387 238.321 116.422 238.262 116.445 238.198C116.468 238.133 116.477 238.065 116.473 237.997C116.476 237.931 116.466 237.865 116.444 237.803C116.421 237.742 116.387 237.685 116.342 237.636C116.297 237.591 116.242 237.556 116.183 237.532C116.123 237.509 116.059 237.498 115.995 237.501C115.929 237.498 115.864 237.509 115.802 237.532C115.741 237.556 115.685 237.592 115.638 237.638C115.593 237.686 115.558 237.743 115.535 237.805C115.512 237.868 115.502 237.934 115.505 238ZM115.433 239.789C115.422 239.975 115.481 240.159 115.598 240.304C115.649 240.363 115.712 240.411 115.783 240.443C115.854 240.475 115.931 240.491 116.009 240.489C116.084 240.491 116.159 240.476 116.228 240.445C116.297 240.414 116.358 240.368 116.407 240.311C116.521 240.165 116.577 239.982 116.565 239.797C116.573 239.625 116.516 239.457 116.404 239.326C116.354 239.268 116.291 239.222 116.221 239.191C116.151 239.161 116.074 239.146 115.998 239.148C115.916 239.142 115.833 239.158 115.759 239.193C115.685 239.229 115.621 239.283 115.573 239.35C115.482 239.478 115.433 239.631 115.433 239.789ZM115.345 238.806C115.164 238.735 115.011 238.609 114.907 238.445C114.815 238.294 114.768 238.12 114.77 237.943C114.765 237.799 114.791 237.656 114.846 237.523C114.9 237.39 114.982 237.27 115.086 237.171C115.344 236.973 115.66 236.866 115.985 236.866C116.31 236.866 116.626 236.973 116.884 237.171C116.989 237.27 117.072 237.39 117.127 237.523C117.182 237.656 117.208 237.799 117.204 237.943C117.208 238.126 117.157 238.306 117.057 238.46C116.957 238.614 116.814 238.734 116.645 238.806C116.853 238.883 117.031 239.024 117.154 239.208C117.278 239.391 117.341 239.61 117.334 239.831C117.343 240.005 117.316 240.18 117.253 240.343C117.191 240.506 117.094 240.653 116.971 240.776C116.847 240.899 116.698 240.995 116.535 241.056C116.371 241.118 116.197 241.144 116.023 241.133C115.69 241.145 115.364 241.039 115.101 240.834C114.959 240.718 114.845 240.569 114.769 240.401C114.694 240.233 114.659 240.049 114.667 239.865C114.665 239.647 114.721 239.432 114.83 239.243C114.95 239.045 115.13 238.891 115.345 238.806Z" fill="white"/>
</svg>
