<svg width="306" height="212" viewBox="0 0 306 212" fill="none" xmlns="http://www.w3.org/2000/svg">
<path d="M180.071 155.526C222.479 155.526 256.858 120.71 256.858 77.7629C256.858 34.8157 222.479 0 180.071 0C137.664 0 103.285 34.8157 103.285 77.7629C103.285 120.71 137.664 155.526 180.071 155.526Z" fill="#EFF3F2" fill-opacity="0.2"/>
<path d="M43.3074 188.014C45.3931 188.757 47.6325 188.943 49.8098 188.554C51.9871 188.166 54.0289 187.216 55.7386 185.797C60.0926 182.096 61.4578 175.998 62.5685 170.353L65.8539 153.653L58.9756 158.45C54.0291 161.899 48.9712 165.459 45.5462 170.455C42.1213 175.451 40.6263 182.271 43.3781 187.677" fill="#EFF3F2" fill-opacity="0.1"/>
<path d="M43.895 208.232C43.1988 203.097 42.4829 197.895 42.9713 192.705C43.405 188.095 44.7937 183.592 47.6209 179.901C49.1216 177.945 50.9477 176.269 53.017 174.949C53.5566 174.604 54.0533 175.47 53.516 175.813C49.9355 178.105 47.166 181.489 45.607 185.477C43.8852 189.913 43.6086 194.748 43.9054 199.459C44.0848 202.309 44.4651 205.139 44.8483 207.966C44.8785 208.094 44.8597 208.229 44.7956 208.343C44.7315 208.457 44.627 208.543 44.5031 208.582C44.3767 208.616 44.242 208.599 44.1281 208.534C44.0143 208.468 43.9305 208.36 43.895 208.232Z" fill="white"/>
<path d="M89.9673 201.159C90.7814 202.133 91.8295 202.878 93.0106 203.323C94.1917 203.768 95.4659 203.897 96.7106 203.698C99.9048 203.149 102.312 200.55 104.465 198.098L110.833 190.847L106.086 191.197C102.672 191.449 99.1721 191.723 96.066 193.179C92.96 194.636 90.2837 197.553 90.098 201.014" fill="#EFF3F2" fill-opacity="0.1"/>
<path d="M84.5014 211.271C85.6208 208.543 86.7494 205.777 88.4669 203.367C89.9922 201.227 91.9565 199.419 94.3974 198.429C95.692 197.905 97.0668 197.615 98.46 197.57C98.8235 197.557 98.8212 198.128 98.4593 198.14C96.0465 198.222 93.7217 199.077 91.8199 200.583C89.7109 202.261 88.1988 204.558 87.0036 206.961C86.2808 208.414 85.6621 209.917 85.0459 211.419C85.0244 211.49 84.9767 211.551 84.9127 211.589C84.8486 211.626 84.7729 211.638 84.7009 211.621C84.6289 211.601 84.5676 211.553 84.5302 211.487C84.4929 211.422 84.4825 211.344 84.5014 211.271H84.5014Z" fill="white"/>
<path d="M50.6006 199.145C51.4951 200.522 52.7247 201.642 54.1709 202.398C55.6171 203.154 57.2311 203.52 58.8575 203.461C63.0373 203.26 66.5219 200.306 69.6587 197.501L78.9368 189.205L72.7962 188.907C68.3803 188.693 63.8505 188.494 59.6445 189.873C55.4385 191.252 51.5595 194.571 50.7904 198.98" fill="#EFF3F2" fill-opacity="0.1"/>
<path d="M41.9279 211.185C45.2787 205.18 49.1653 198.507 56.1102 196.374C58.0412 195.783 60.0659 195.571 62.0755 195.75C62.7088 195.805 62.5506 196.794 61.9185 196.739C58.5501 196.456 55.1882 197.356 52.3988 199.289C49.7146 201.14 47.6247 203.712 45.8558 206.44C44.7722 208.111 43.8017 209.853 42.831 211.592C42.5208 212.148 41.614 211.747 41.9279 211.185Z" fill="white"/>
<path d="M186.638 108.695C193.3 104.987 201.592 105.731 208.771 108.266C215.95 110.802 222.455 114.956 229.426 118.028C250.728 127.417 276.403 125.903 296.486 114.074C298.385 118.548 296.348 123.666 294.109 127.976C291.871 132.287 289.32 136.959 290.242 141.739C291.421 147.855 297.753 151.523 300.319 157.187C302.755 162.564 301.447 168.879 299.579 174.484C297.71 180.09 295.285 185.737 295.603 191.644C295.92 197.551 300.158 203.798 306 203.802C297.343 205.165 288.515 206.528 279.863 205.132C271.211 203.736 262.605 199.102 258.588 191.217C256.58 187.276 255.806 182.744 253.5 178.974C249.572 172.553 242.034 169.533 234.922 167.257C227.81 164.981 220.199 162.789 215.191 157.191C210.42 151.857 208.909 144.426 206.381 137.7C202.124 126.439 194.729 116.673 185.096 109.588" fill="white"/>
<path d="M194.357 80.7485C192.018 79.6466 189.147 79.2854 186.767 80.3093C184.387 81.3332 182.765 83.9576 183.534 86.2803C183.883 87.3333 184.678 88.369 184.368 89.4325C184.13 90.2511 183.298 90.7916 182.482 91.1759C181.666 91.5602 180.773 91.8833 180.182 92.5314C179.592 93.1796 179.469 94.2954 180.206 94.798C180.449 94.9636 180.753 95.0421 180.989 95.2166C181.189 95.3819 181.334 95.6064 181.403 95.859C181.472 96.1116 181.461 96.3797 181.372 96.6258C181.176 97.121 180.851 97.5534 180.433 97.8775C179.596 98.6088 178.489 99.4457 178.749 100.484C178.846 100.761 179.007 101.011 179.219 101.212C179.431 101.413 179.688 101.559 179.967 101.638C180.548 101.807 181.151 101.888 181.756 101.877L206.461 102.665C207.277 102.727 208.097 102.681 208.901 102.527C209.291 102.455 209.663 102.302 209.993 102.078C210.322 101.853 210.603 101.563 210.816 101.224C211.289 100.337 210.979 99.2444 210.394 98.4163C209.81 97.5881 208.983 96.9349 208.3 96.1745C207.617 95.414 207.058 94.4648 207.178 93.482C207.275 92.6952 207.787 92.0153 208.155 91.3004C208.523 90.5856 208.736 89.6923 208.26 89.0346C207.589 88.1079 205.977 88.1918 205.214 87.3282C204.638 86.6766 204.749 85.7385 204.692 84.8981C204.554 82.8768 203.172 80.9678 201.205 80.0813C200.205 79.6465 199.117 79.4587 198.031 79.5336C196.945 79.6086 195.892 79.9439 194.959 80.5121L194.357 80.7485Z" fill="#2F2E41"/>
<path d="M178.745 207.623L174.876 206.446L177.519 190.771L183.23 192.508L178.745 207.623Z" fill="#A0616A"/>
<path d="M178.605 211.722L166.129 207.926L166.176 207.766C166.368 207.12 166.683 206.519 167.104 205.996C167.525 205.474 168.044 205.041 168.63 204.721C169.217 204.402 169.859 204.202 170.522 204.134C171.185 204.067 171.854 204.132 172.491 204.326L172.492 204.326L180.112 206.644L178.605 211.722Z" fill="#2F2E41"/>
<path d="M215.259 207.756L211.219 207.756L209.297 191.974L215.26 191.974L215.259 207.756Z" fill="#A0616A"/>
<path d="M216.289 211.722L203.262 211.722V211.555C203.262 210.881 203.393 210.213 203.648 209.59C203.903 208.967 204.276 208.401 204.747 207.924C205.218 207.447 205.777 207.069 206.392 206.811C207.007 206.553 207.667 206.42 208.332 206.42H208.333L216.289 206.42L216.289 211.722Z" fill="#2F2E41"/>
<path d="M209.651 195.819C209.298 195.819 208.957 195.691 208.689 195.46C208.421 195.228 208.243 194.907 208.187 194.555L202.188 156.656C202.148 156.405 202.029 156.174 201.848 155.998C201.666 155.822 201.434 155.711 201.184 155.681C200.935 155.651 200.683 155.704 200.466 155.833C200.25 155.961 200.08 156.158 199.984 156.393L184.442 194.285C184.297 194.635 184.027 194.916 183.687 195.074C183.346 195.231 182.959 195.253 182.603 195.134L176.989 193.239C176.64 193.122 176.346 192.877 176.165 192.552C175.984 192.228 175.93 191.846 176.012 191.483L188.749 134.405C188.811 134.13 188.948 133.878 189.145 133.678C189.341 133.478 189.589 133.338 189.86 133.273L206.942 129.258C207.152 129.209 207.369 129.207 207.58 129.251C207.791 129.296 207.99 129.385 208.164 129.514C219.411 137.791 218.461 164.832 216.365 194.194C216.339 194.561 216.18 194.906 215.919 195.163C215.658 195.42 215.313 195.571 214.95 195.587L209.716 195.817C209.694 195.818 209.672 195.819 209.651 195.819Z" fill="#2F2E41"/>
<path d="M195.271 102.47C199.742 102.47 203.366 98.8005 203.366 94.2733C203.366 89.7462 199.742 86.0762 195.271 86.0762C190.801 86.0762 187.177 89.7462 187.177 94.2733C187.177 98.8005 190.801 102.47 195.271 102.47Z" fill="#A0616A"/>
<path d="M195.621 136.758C193.678 136.746 191.762 136.297 190.011 135.445L189.95 135.417L189.926 135.354L182.667 116.305L182.528 112.995C182.482 111.888 182.665 110.784 183.066 109.753C183.467 108.722 184.076 107.788 184.855 107.01C185.634 106.232 186.565 105.628 187.589 105.237C188.612 104.846 189.705 104.676 190.797 104.738L198.505 105.178C200.496 105.292 202.369 106.171 203.742 107.635C205.116 109.099 205.887 111.038 205.899 113.058C206.099 113.447 207.521 116.493 204.734 119.354C204.63 120.005 203.656 126.779 207.334 130.503L207.437 130.608L207.347 130.724C207.288 130.8 202.565 136.757 195.621 136.758Z" fill="#3F3D56"/>
<path d="M206.444 138.196C206.9 138.029 207.314 137.763 207.656 137.416C207.999 137.069 208.263 136.651 208.429 136.19C208.594 135.729 208.658 135.236 208.616 134.748C208.574 134.259 208.426 133.785 208.183 133.361L215.881 124.335L209.813 123.535L203.433 132.229C202.756 132.689 202.268 133.384 202.063 134.184C201.858 134.983 201.95 135.831 202.322 136.567C202.693 137.302 203.317 137.875 204.077 138.175C204.837 138.475 205.679 138.483 206.444 138.196Z" fill="#A0616A"/>
<path d="M211.258 131.229C210.968 131.229 210.685 131.143 210.444 130.982L206.637 128.453C206.316 128.241 206.09 127.912 206.004 127.535C205.918 127.158 205.979 126.761 206.176 126.429L208.932 121.739C209.081 121.486 209.175 121.203 209.209 120.909C209.243 120.616 209.214 120.319 209.127 120.038C209.039 119.756 208.893 119.496 208.699 119.276C208.505 119.056 208.267 118.879 208.001 118.758L200.083 115.163C199.109 114.715 198.314 113.946 197.828 112.981C197.343 112.016 197.195 110.913 197.409 109.852C197.557 109.136 197.866 108.465 198.312 107.89C198.758 107.315 199.329 106.852 199.981 106.537C200.632 106.222 201.347 106.063 202.069 106.074C202.791 106.084 203.5 106.263 204.143 106.596L216.156 112.83C216.966 113.251 217.677 113.844 218.241 114.568C218.804 115.293 219.205 116.133 219.418 117.029C219.631 117.926 219.65 118.859 219.474 119.763C219.298 120.668 218.931 121.524 218.399 122.272L212.46 130.605C212.323 130.798 212.142 130.956 211.933 131.064C211.724 131.173 211.492 131.229 211.258 131.229Z" fill="#3F3D56"/>
<path d="M186.991 93.1085C189.547 92.9006 191.669 90.3145 191.403 87.7315C191.373 88.7962 191.731 89.8349 192.408 90.65C193.085 91.4651 194.034 91.9997 195.075 92.1522C196.248 92.2831 197.533 91.9238 198.554 92.5229C199.684 93.1863 200.046 94.7976 201.223 95.3707C202.361 95.9244 203.806 95.1692 204.368 94.0246C204.931 92.8799 204.793 91.5047 204.42 90.2832C203.889 88.5413 202.921 86.9682 201.612 85.7171C200.303 84.4659 198.696 83.5793 196.948 83.1434C195.2 82.7074 193.37 82.737 191.637 83.2294C189.903 83.7217 188.325 84.6599 187.056 85.9528C185.981 87.0477 185.128 88.4431 184.989 89.9805C184.851 91.518 185.555 93.1863 186.919 93.877L186.991 93.1085Z" fill="#2F2E41"/>
<path d="M168.16 70.4018C168.586 70.6346 168.957 70.9593 169.246 71.3529C169.536 71.7466 169.736 72.1997 169.833 72.6803C169.931 73.1609 169.923 73.6573 169.811 74.1345C169.699 74.6118 169.484 75.0583 169.183 75.4426L175.497 85.51L169.378 85.4038L164.32 75.8599C163.716 75.3047 163.335 74.5443 163.247 73.7231C163.16 72.9018 163.373 72.0765 163.846 71.4038C164.32 70.731 165.02 70.2574 165.815 70.0727C166.61 69.888 167.444 70.0051 168.16 70.4018V70.4018Z" fill="#A0616A"/>
<path d="M173.249 77.5711L181.38 97.0291L189.906 111.669C190.265 112.287 190.482 112.979 190.539 113.694C190.595 114.41 190.491 115.128 190.233 115.797C189.975 116.465 189.571 117.065 189.051 117.552C188.53 118.039 187.908 118.4 187.229 118.607C186.154 118.93 185 118.854 183.975 118.39C182.951 117.927 182.124 117.108 181.643 116.081L165.213 80.5263C165.123 80.3331 165.076 80.1229 165.073 79.9097C165.07 79.6964 165.112 79.485 165.196 79.2895C165.28 79.094 165.405 78.9189 165.561 78.7759C165.717 78.6328 165.902 78.5251 166.102 78.4599L171.43 76.7267C171.531 76.6938 171.635 76.6718 171.74 76.6609C172.055 76.6287 172.371 76.6998 172.643 76.8637C172.915 77.0276 173.127 77.2756 173.249 77.5711Z" fill="#3F3D56"/>
<path d="M250.669 212H0.331135C0.243312 212 0.159087 211.947 0.0969868 211.854C0.034887 211.76 0 211.633 0 211.5C0 211.367 0.034887 211.24 0.0969868 211.146C0.159087 211.053 0.243312 211 0.331135 211H250.669C250.757 211 250.841 211.053 250.903 211.146C250.965 211.24 251 211.367 251 211.5C251 211.633 250.965 211.76 250.903 211.854C250.841 211.947 250.757 212 250.669 212Z" fill="white"/>
<path d="M197.027 36.116V63.4832C197.027 63.5717 196.992 63.6566 196.93 63.7192C196.868 63.7818 196.785 63.817 196.697 63.817C196.61 63.817 196.526 63.7818 196.464 63.7192C196.402 63.6566 196.368 63.5717 196.368 63.4832V36.116C196.368 36.0275 196.402 35.9426 196.464 35.88C196.526 35.8174 196.61 35.7822 196.697 35.7822C196.785 35.7822 196.868 35.8174 196.93 35.88C196.992 35.9426 197.027 36.0275 197.027 36.116Z" fill="white"/>
<path d="M225.641 59.333L216.319 68.7727C216.258 68.8351 216.174 68.8701 216.087 68.87C215.999 68.8699 215.916 68.8347 215.854 68.7722C215.792 68.7097 215.757 68.625 215.757 68.5366C215.757 68.4482 215.792 68.3634 215.853 68.3008L225.175 58.861C225.205 58.8299 225.241 58.8052 225.281 58.7883C225.321 58.7714 225.364 58.7627 225.408 58.7627C225.451 58.7626 225.494 58.7713 225.534 58.788C225.574 58.8048 225.61 58.8294 225.641 58.8604C225.672 58.8915 225.696 58.9283 225.713 58.9689C225.729 59.0095 225.738 59.0529 225.738 59.0968C225.738 59.1407 225.729 59.1842 225.712 59.2247C225.696 59.2652 225.671 59.302 225.641 59.333Z" fill="white"/>
<path d="M167.754 59.333L177.075 68.7727C177.137 68.8353 177.221 68.8705 177.308 68.8705C177.395 68.8705 177.479 68.8353 177.541 68.7727C177.603 68.7102 177.638 68.6253 177.638 68.5368C177.638 68.4482 177.603 68.3633 177.541 68.3008L168.22 58.861C168.189 58.8299 168.153 58.8052 168.113 58.7883C168.073 58.7714 168.03 58.7627 167.987 58.7627C167.943 58.7626 167.9 58.7713 167.86 58.788C167.82 58.8048 167.784 58.8294 167.753 58.8604C167.723 58.8915 167.698 58.9283 167.682 58.9689C167.665 59.0095 167.657 59.0529 167.657 59.0968C167.657 59.1407 167.665 59.1842 167.682 59.2247C167.699 59.2652 167.723 59.302 167.754 59.333Z" fill="white"/>
</svg>
