<svg width="196" height="158" viewBox="0 0 196 158" fill="none" xmlns="http://www.w3.org/2000/svg">
<path d="M146.686 47.138C132.042 44.7969 115.366 43.5477 97.9997 43.5477C82.1061 43.5477 66.7936 44.5924 53.0894 46.5621C53.0926 46.3513 53.0956 46.1405 53.105 45.9297C53.4683 33.6925 58.5954 22.083 67.3904 13.5827C76.1854 5.08238 87.9506 0.365538 100.171 0.440329C112.392 0.515121 124.099 5.37561 132.79 13.9829C141.48 22.5903 146.465 34.2616 146.679 46.5023C146.683 46.7163 146.686 46.9271 146.686 47.138Z" fill="#A3CC4A"/>
<g opacity="0.1">
<path opacity="0.1" d="M106.025 0.422061C99.5253 -0.45743 92.9136 0.0410397 86.6185 1.88516C80.3234 3.72928 74.4853 6.8779 69.4826 11.127C64.4799 15.376 60.4242 20.6307 57.5785 26.5504C54.7328 32.4701 53.1604 38.9228 52.9634 45.4903C52.9539 45.7011 52.9508 45.9119 52.9478 46.1227C57.0191 45.5375 61.2353 45.036 65.5637 44.6173C66.0931 33.6762 70.4294 23.2661 77.8202 15.1933C85.211 7.12047 95.1898 1.89445 106.025 0.422061Z" fill="white"/>
</g>
<path d="M167.159 50.8558C160.418 49.0253 153.581 47.5714 146.68 46.501C135.367 44.7449 123.963 43.647 112.524 43.2128C107.759 43.0177 102.906 42.917 98 42.917C94.1114 42.917 90.2542 42.9799 86.4504 43.1058C75.2923 43.436 64.1605 44.3783 53.1053 45.9283C44.9216 47.0572 36.8173 48.703 28.8408 50.8558C10.2428 56.0068 0 62.9104 0 70.2923C0 77.6742 10.2428 84.5779 28.8408 89.7288C41.9201 93.3537 58.0461 95.8238 75.6171 96.9565C82.8697 97.4285 90.3674 97.6677 98 97.6677C105.658 97.6677 113.181 97.4254 120.455 96.9534C136.446 95.9182 151.24 93.7753 163.622 90.6602C163.688 90.6413 163.751 90.6256 163.817 90.6099C164.653 90.4022 165.475 90.1851 166.289 89.968C166.581 89.8862 166.87 89.8075 167.159 89.7288C167.175 89.7222 167.192 89.7169 167.209 89.7131C167.486 89.6376 167.759 89.5589 168.032 89.4834C168.579 89.3261 169.119 89.1719 169.65 89.0114C169.675 89.0051 169.697 88.9988 169.719 88.9925C170.181 88.8541 170.633 88.7156 171.082 88.5772C171.45 88.4608 171.814 88.3475 172.175 88.231C172.439 88.1461 172.7 88.0611 172.957 87.9762C173.146 87.9132 173.331 87.8535 173.513 87.7905C173.762 87.7087 174.01 87.6237 174.255 87.5388C174.358 87.5042 174.462 87.4696 174.562 87.4318C174.798 87.3531 175.027 87.2713 175.257 87.1895C175.505 87.1014 175.753 87.0102 175.998 86.9221C176.202 86.8497 176.406 86.7742 176.607 86.6987C176.777 86.6326 176.943 86.5696 177.113 86.5067C177.575 86.3336 178.027 86.1543 178.473 85.9781C178.696 85.8868 178.919 85.7987 179.139 85.7075C179.356 85.6194 179.576 85.5281 179.789 85.4369C180.141 85.289 180.486 85.1411 180.826 84.9932C180.989 84.9177 181.156 84.8453 181.316 84.7761C181.438 84.7195 181.558 84.666 181.68 84.6093C181.768 84.5716 181.856 84.5307 181.941 84.4898C182.258 84.345 182.572 84.1971 182.88 84.0492C184.061 83.4829 185.164 82.9039 186.187 82.3123C192.611 78.6277 196 74.5402 196 70.2923C196 62.9104 185.757 56.0068 167.159 50.8558ZM166.99 89.1247C153.895 92.7527 137.725 95.2228 120.107 96.3461C112.942 96.8024 105.535 97.0383 98 97.0383C90.4898 97.0383 83.1083 96.8055 75.9657 96.3492C58.3194 95.2291 42.1243 92.759 29.0105 89.1247C10.7077 84.0524 0.628205 77.3659 0.628205 70.2923C0.629228 69.6673 0.707321 69.0448 0.860715 68.439C2.46252 62.0577 12.3159 56.0855 29.0105 51.46C36.9266 49.3239 44.9688 47.6876 53.0896 46.5607C64.2114 45.002 75.4104 44.0566 86.6357 43.7288C90.38 43.6061 94.1681 43.5453 98 43.5463C102.84 43.5463 107.627 43.6439 112.332 43.8326C123.838 44.263 135.309 45.3662 146.686 47.1366C153.528 48.2022 160.306 49.6456 166.99 51.46C183.681 56.0855 193.531 62.0546 195.136 68.4327C195.292 69.0403 195.371 69.665 195.372 70.2923C195.372 77.3659 185.292 84.0524 166.99 89.1247Z" fill="#EFF3F2"/>
<path d="M195.821 70.5786C195.821 74.7825 192.363 78.7597 186.187 82.3122C185.16 82.9038 184.055 83.4828 182.88 84.0491C182.572 84.197 182.258 84.3449 181.941 84.4897C181.856 84.5306 181.768 84.5715 181.68 84.6092C181.558 84.6659 181.438 84.7194 181.316 84.776C181.156 84.8452 180.989 84.9176 180.826 84.9931C180.486 85.141 180.141 85.2889 179.789 85.4368C179.576 85.528 179.356 85.6193 179.139 85.7074C178.919 85.7986 178.696 85.8867 178.473 85.978C178.027 86.1542 177.575 86.3335 177.113 86.5066C176.943 86.5695 176.777 86.6325 176.607 86.6986C176.406 86.7741 176.202 86.8496 175.998 86.922C175.753 87.0101 175.505 87.1013 175.257 87.1894C175.027 87.2712 174.798 87.353 174.562 87.4317C174.462 87.4695 174.358 87.5041 174.255 87.5387C174.01 87.6237 173.762 87.7086 173.513 87.7904C173.331 87.8534 173.146 87.9131 172.957 87.9761C172.7 88.061 172.439 88.146 172.175 88.2309C171.814 88.3474 171.45 88.4607 171.082 88.5771C170.633 88.7155 170.181 88.854 169.719 88.9924C169.697 88.9987 169.675 89.005 169.65 89.0113C169.119 89.1718 168.579 89.326 168.032 89.4833C167.759 89.5588 167.486 89.6375 167.209 89.713C167.192 89.7168 167.175 89.7221 167.159 89.7287C166.87 89.8074 166.581 89.8861 166.289 89.9679C165.479 90.1818 164.653 90.3989 163.817 90.6098C163.751 90.6255 163.688 90.6412 163.622 90.6601C151.576 93.6746 136.798 95.8709 120.443 96.9313C113.278 97.3938 105.809 97.6393 98.1351 97.6393C90.3925 97.6393 82.8602 97.3907 75.639 96.9187C32.5315 94.1025 0.449219 83.3789 0.449219 70.5786C0.452613 69.7997 0.571124 69.0256 0.800897 68.2816C0.819762 68.3351 0.838624 68.3854 0.860711 68.4389C5.34281 80.2323 37.1521 89.7633 78.4252 92.0887C84.748 92.4474 91.2971 92.633 98 92.633C104.731 92.633 111.305 92.4442 117.653 92.0855C158.892 89.7508 190.67 80.2166 195.136 68.4326C195.212 68.2438 195.278 68.055 195.334 67.8662C195.653 68.7351 195.817 69.653 195.821 70.5786Z" fill="#EFF3F2"/>
<path d="M28.7936 67.1923C23.5661 67.1923 18.0103 66.0657 18.0103 63.9775C18.0103 61.8894 23.5661 60.7627 28.7936 60.7627C34.0211 60.7627 39.577 61.8894 39.577 63.9775C39.577 66.0657 34.0211 67.1923 28.7936 67.1923ZM28.7936 61.392C22.809 61.392 18.6385 62.7547 18.6385 63.9775C18.6385 65.2003 22.809 66.563 28.7936 66.563C34.7782 66.563 38.9488 65.2003 38.9488 63.9775C38.9488 62.7547 34.7782 61.392 28.7936 61.392Z" fill="#EFF3F2"/>
<path d="M51.0948 81.9814C45.8674 81.9814 40.3115 80.8547 40.3115 78.7666C40.3115 76.6784 45.8674 75.5518 51.0948 75.5518C56.3224 75.5518 61.8782 76.6784 61.8782 78.7666C61.8782 80.8547 56.3224 81.9814 51.0948 81.9814ZM51.0948 76.1811C45.1103 76.1811 40.9397 77.5437 40.9397 78.7666C40.9397 79.9894 45.1103 81.3521 51.0948 81.3521C57.0794 81.3521 61.25 79.9894 61.25 78.7666C61.25 77.5437 57.0794 76.1811 51.0948 76.1811Z" fill="#EFF3F2"/>
<path d="M166.999 67.1923C161.771 67.1923 156.215 66.0657 156.215 63.9775C156.215 61.8894 161.771 60.7627 166.999 60.7627C172.226 60.7627 177.782 61.8894 177.782 63.9775C177.782 66.0657 172.226 67.1923 166.999 67.1923ZM166.999 61.392C161.014 61.392 156.844 62.7547 156.844 63.9775C156.844 65.2003 161.014 66.563 166.999 66.563C172.983 66.563 177.154 65.2003 177.154 63.9775C177.154 62.7547 172.983 61.392 166.999 61.392Z" fill="#EFF3F2"/>
<path d="M144.697 81.9814C139.469 81.9814 133.914 80.8547 133.914 78.7666C133.914 76.6784 139.469 75.5518 144.697 75.5518C149.924 75.5518 155.48 76.6784 155.48 78.7666C155.48 80.8547 149.924 81.9814 144.697 81.9814ZM144.697 76.1811C138.712 76.1811 134.542 77.5437 134.542 78.7666C134.542 79.9894 138.712 81.3521 144.697 81.3521C150.681 81.3521 154.852 79.9894 154.852 78.7666C154.852 77.5437 150.681 76.1811 144.697 76.1811Z" fill="#EFF3F2"/>
<path d="M97.8956 88.9042C92.6681 88.9042 87.1123 87.7776 87.1123 85.6894C87.1123 83.6013 92.6682 82.4746 97.8956 82.4746C103.123 82.4746 108.679 83.6013 108.679 85.6894C108.679 87.7776 103.123 88.9042 97.8956 88.9042ZM97.8956 83.1039C91.911 83.1039 87.7405 84.4666 87.7405 85.6894C87.7405 86.9122 91.911 88.2749 97.8956 88.2749C103.88 88.2749 108.051 86.9122 108.051 85.6894C108.051 84.4666 103.88 83.1039 97.8956 83.1039Z" fill="#EFF3F2"/>
<path d="M105.846 155.038C113.134 155.038 119.042 149.119 119.042 141.818C119.042 134.517 113.134 128.599 105.846 128.599C98.558 128.599 92.6499 134.517 92.6499 141.818C92.6499 149.119 98.558 155.038 105.846 155.038Z" fill="#EFF3F2"/>
<path d="M100.828 150.504L94.4053 153.726L96.2004 157.317L102.623 154.095L100.828 150.504Z" fill="#EFF3F2"/>
<path d="M97.0467 156.952C97.4275 156.373 96.4876 155.08 94.9472 154.062C93.4068 153.045 91.8493 152.689 91.4684 153.268C91.0876 153.846 92.0275 155.14 93.5679 156.158C95.1083 157.175 96.6658 157.531 97.0467 156.952Z" fill="#EFF3F2"/>
<path d="M110.863 150.504L109.068 154.095L115.491 157.317L117.286 153.726L110.863 150.504Z" fill="#EFF3F2"/>
<path d="M118.123 156.158C119.663 155.14 120.603 153.846 120.222 153.268C119.842 152.689 118.284 153.045 116.744 154.062C115.203 155.079 114.263 156.373 114.644 156.952C115.025 157.531 116.583 157.175 118.123 156.158Z" fill="#EFF3F2"/>
<path d="M104.922 143.103C107.413 143.103 109.432 141.08 109.432 138.584C109.432 136.089 107.413 134.066 104.922 134.066C102.431 134.066 100.412 136.089 100.412 138.584C100.412 141.08 102.431 143.103 104.922 143.103Z" fill="#A3CC4A"/>
<path d="M106.019 137.718C106.604 137.132 106.6 136.179 106.011 135.59C105.423 135 104.471 134.996 103.887 135.582C103.302 136.168 103.305 137.121 103.894 137.711C104.483 138.3 105.434 138.304 106.019 137.718Z" fill="#3F3D56"/>
<path d="M116.255 127.437C116.454 122.543 112.243 118.397 106.851 118.178C101.458 117.959 96.9262 121.748 96.7277 126.642C96.5293 131.536 100.278 132.648 105.67 132.868C111.062 133.087 116.057 132.331 116.255 127.437Z" fill="#A3CC4A"/>
<path d="M123.863 148.74C124.731 147.994 123.51 145.143 121.136 142.374C118.763 139.604 116.135 137.963 115.267 138.71C114.399 139.456 115.62 142.307 117.993 145.077C120.367 147.847 122.995 149.487 123.863 148.74Z" fill="#EFF3F2"/>
<path d="M93.7356 145.077C96.1092 142.307 97.3297 139.456 96.4617 138.71C95.5937 137.963 92.9659 139.604 90.5923 142.373C88.2186 145.143 86.9981 147.994 87.8661 148.74C88.7341 149.487 91.3619 147.846 93.7356 145.077Z" fill="#EFF3F2"/>
<path d="M109.47 147.029C109.613 147.814 109.438 148.625 108.985 149.282C108.531 149.939 107.835 150.388 107.051 150.531C106.266 150.674 105.457 150.499 104.801 150.045C104.145 149.59 103.697 148.893 103.554 148.107L103.553 148.102C103.257 146.465 104.52 145.885 106.154 145.589C107.789 145.293 109.174 145.392 109.47 147.029Z" fill="#151A40"/>
</svg>
