<svg width="196" height="164" viewBox="0 0 196 164" fill="none" xmlns="http://www.w3.org/2000/svg">
<path d="M16.4233 92.7306C7.35291 92.7306 -8.39233e-05 85.4263 -8.39233e-05 76.4161C-8.39233e-05 67.4058 7.35291 60.1016 16.4233 60.1016C25.4937 60.1016 32.8467 67.4058 32.8467 76.4161C32.8467 85.4263 25.4937 92.7306 16.4233 92.7306Z" fill="#EFF3F2"/>
<path d="M16.4232 80.7096C14.0362 80.7096 12.1012 78.7875 12.1012 76.4163C12.1012 74.0452 14.0362 72.123 16.4232 72.123C18.8101 72.123 20.7451 74.0452 20.7451 76.4163C20.7451 78.7875 18.8101 80.7096 16.4232 80.7096Z" fill="#A3CC4A"/>
<path d="M17.2125 76.5076C15.3919 77.9829 14.8372 80.3082 15.1759 82.5535C15.592 85.0162 16.8783 87.2509 18.8037 88.8564C20.9687 90.768 23.6093 92.0596 26.1573 93.3822C28.4985 94.5691 30.7484 95.9259 32.8888 97.4414C41.0835 103.358 47.2745 111.782 50.8177 121.183C54.3549 130.568 55.304 141.221 52.6162 150.948C51.2863 155.76 48.596 160.952 43.5841 162.763C39.589 164.207 34.1346 163.277 32.1004 159.187C29.9153 154.793 32.964 149.854 36.891 147.673C41.9815 144.846 48.0621 146.912 52.6406 149.774C57.6814 152.924 61.7334 157.446 66.9961 160.27C69.365 161.581 72.001 162.345 74.7081 162.505C77.194 162.602 79.6755 162.221 82.016 161.383C86.8722 159.626 91.0527 156.402 93.9712 152.165C97.3139 147.338 98.8102 141.421 99.0831 135.625C99.6936 122.657 94.5365 110.524 90.3987 98.4977C88.1749 92.235 86.509 85.7904 85.4202 79.2382C84.3848 72.6527 84.0162 65.9808 84.3201 59.3223C84.594 53.4346 85.1787 47.2779 87.7946 41.9006C90.0948 37.1722 94.2986 33.3023 99.6135 32.3267C102.009 31.8596 104.492 32.1429 106.719 33.1374C107.477 33.481 106.819 34.5914 106.064 34.2495C101.361 32.1181 95.8014 34.192 92.3274 37.6335C88.2706 41.6522 86.7808 47.5869 86.1193 53.063C84.6328 66.0408 85.8043 79.1832 89.5631 91.6996C93.1705 103.872 98.8449 115.536 100.154 128.29C100.752 134.109 100.445 140.125 98.5723 145.705C96.9659 150.676 93.9535 155.082 89.8946 158.399C86.0731 161.468 81.3718 163.559 76.4227 163.791C70.8671 164.053 65.9953 161.593 61.6851 158.32C57.0687 154.814 52.8214 150.489 47.2295 148.524C44.6801 147.628 41.7765 147.21 39.159 148.072C36.9134 148.834 35.0087 150.356 33.7771 152.371C32.6403 154.248 32.2209 156.596 33.2584 158.614C34.2338 160.51 36.1376 161.607 38.1986 161.983C40.3811 162.366 42.6298 161.987 44.5622 160.909C46.8201 159.628 48.4722 157.478 49.6296 155.207C51.9377 150.677 52.7132 145.286 52.8309 140.259C52.9338 135.348 52.3005 130.45 50.9515 125.725C48.2673 116.166 42.8492 107.586 35.354 101.026C33.4658 99.3918 31.4458 97.9144 29.3144 96.6085C26.9892 95.1848 24.5073 94.0473 22.1368 92.704C19.8044 91.3822 17.5057 89.8029 15.8995 87.6278C14.5304 85.7637 13.7909 83.5166 13.7872 81.2091C13.7629 80.1477 13.9751 79.0942 14.4088 78.1239C14.8425 77.1536 15.4868 76.2907 16.2956 75.5968C16.9369 75.0771 17.8596 75.9831 17.2125 76.5076V76.5076Z" fill="#EFF3F2"/>
<path d="M170.535 151.549C164.792 155.236 158.149 157.305 151.315 157.534C151.437 157.821 151.574 158.102 151.726 158.375C152.521 159.834 153.645 161.09 155.01 162.046C156.627 163.176 158.524 163.843 160.496 163.975C162.468 164.107 164.439 163.698 166.193 162.794C167.947 161.889 169.417 160.524 170.444 158.846C171.47 157.168 172.013 155.242 172.013 153.279V151.549H170.535Z" fill="#151A40"/>
<path d="M130.224 152.055V153.278C130.223 155.66 131.021 157.975 132.492 159.856C133.963 161.737 136.023 163.078 138.347 163.667C140.671 164.255 143.126 164.058 145.324 163.105C147.522 162.153 149.338 160.501 150.485 158.409C150.643 158.129 150.786 157.841 150.913 157.546C150.598 157.554 150.286 157.559 149.971 157.559C143.004 157.567 136.17 155.662 130.224 152.055Z" fill="#151A40"/>
<path d="M115.685 22.6642C116.009 22.617 116.338 22.5869 116.666 22.5654C112.934 31.1103 112.675 40.7586 115.944 49.4887C115.616 49.45 115.292 49.3985 114.967 49.3384C111.802 48.7292 108.957 47.024 106.939 44.5263C104.921 42.0287 103.861 38.9007 103.947 35.6993C104.033 32.4978 105.26 29.4305 107.41 27.0435C109.559 24.6565 112.492 23.1046 115.685 22.6642Z" fill="#151A40"/>
<path d="M183.276 22.5654C183.605 22.5869 183.933 22.6169 184.257 22.6642C187.451 23.1046 190.383 24.6565 192.533 27.0435C194.682 29.4305 195.909 32.4977 195.995 35.6992C196.081 38.9007 195.021 42.0287 193.003 44.5264C190.985 47.024 188.14 48.7292 184.975 49.3384C184.651 49.3985 184.327 49.45 183.998 49.4887C187.267 40.7586 187.009 31.1103 183.276 22.5654Z" fill="#151A40"/>
<path d="M115.686 22.6643C119.246 14.215 125.841 7.38216 134.19 3.49312C142.538 -0.395908 152.044 -1.06341 160.86 1.62029C169.676 4.30399 177.173 10.1473 181.895 18.0149C186.617 25.8826 188.226 35.2129 186.41 44.1931C184.593 53.1734 179.482 61.1624 172.067 66.6081C164.653 72.0538 155.466 74.5674 146.29 73.6605C137.115 72.7536 128.606 68.491 122.418 61.7008C116.229 54.9106 112.802 46.0777 112.803 36.918C112.805 32.0241 113.785 27.1792 115.686 22.6643ZM115.945 49.4888C119.107 57.9311 125.335 64.8921 133.404 69.0017C141.472 73.1113 150.798 74.0719 159.544 71.6944C168.29 69.3169 175.823 63.7735 180.661 56.1552C185.5 48.537 187.292 39.3957 185.686 30.5306C184.079 21.6656 179.191 13.7188 171.982 8.2544C164.774 2.79001 155.767 0.203835 146.736 1.00487C137.704 1.8059 129.301 5.93612 123.181 12.5826C117.061 19.2291 113.667 27.9105 113.667 36.918C113.669 41.2094 114.44 45.4662 115.945 49.4888V49.4888Z" fill="#151A40"/>
<path d="M130.954 28.5459H168.987C170.993 28.5459 172.917 29.3375 174.336 30.7465C175.754 32.1555 176.551 34.0665 176.551 36.0592C176.551 38.0518 175.754 39.9628 174.336 41.3718C172.917 42.7808 170.993 43.5724 168.987 43.5724H130.954C128.948 43.5724 127.025 42.7808 125.606 41.3718C124.188 39.9628 123.391 38.0518 123.391 36.0592C123.391 34.0665 124.188 32.1555 125.606 30.7465C127.025 29.3375 128.948 28.5459 130.954 28.5459Z" fill="#151A40"/>
<path d="M149.971 81.1396C160.132 81.1443 169.888 85.0983 177.152 92.1562C184.415 99.214 188.61 108.815 188.84 118.906C189.069 128.997 185.314 138.776 178.378 146.153C171.442 153.529 161.876 157.916 151.726 158.376C151.315 158.397 150.9 158.41 150.486 158.41C150.313 158.419 150.144 158.419 149.971 158.419C139.655 158.419 129.761 154.348 122.467 147.102C115.172 139.855 111.074 130.027 111.074 119.779C111.074 109.531 115.172 99.7033 122.467 92.4569C129.761 85.2106 139.655 81.1396 149.971 81.1396ZM130.224 152.056C136.17 155.664 143.004 157.568 149.971 157.56C150.287 157.56 150.598 157.556 150.914 157.547C151.048 157.547 151.181 157.543 151.315 157.535C160.448 157.219 169.162 153.65 175.864 147.478C182.566 141.307 186.809 132.946 187.816 123.923C188.824 114.901 186.53 105.819 181.353 98.3384C176.176 90.8577 168.462 85.4775 159.62 83.181C150.779 80.8845 141.401 81.8252 133.2 85.8311C125 89.837 118.524 96.6406 114.957 104.998C111.39 113.356 110.97 122.71 113.773 131.35C116.576 139.991 122.416 147.34 130.224 152.056Z" fill="#151A40"/>
<path d="M122.671 110.262H139.671C140.855 110.262 141.991 109.794 142.829 108.962C143.666 108.13 144.137 107.002 144.137 105.825C144.137 104.649 143.666 103.52 142.829 102.688C141.991 101.856 140.855 101.389 139.671 101.389H122.671C121.486 101.389 120.35 101.856 119.513 102.688C118.675 103.52 118.205 104.649 118.205 105.825C118.205 107.002 118.675 108.13 119.513 108.962C120.35 109.794 121.486 110.262 122.671 110.262Z" fill="#151A40"/>
<path d="M138.537 108.076C137.285 108.076 136.27 107.068 136.27 105.825C136.27 104.581 137.285 103.573 138.537 103.573C139.789 103.573 140.804 104.581 140.804 105.825C140.804 107.068 139.789 108.076 138.537 108.076Z" fill="#EFF3F2"/>
<path d="M131.171 108.076C129.919 108.076 128.904 107.068 128.904 105.825C128.904 104.581 129.919 103.573 131.171 103.573C132.423 103.573 133.438 104.581 133.438 105.825C133.438 107.068 132.423 108.076 131.171 108.076Z" fill="#EFF3F2"/>
<path d="M123.805 108.076C122.553 108.076 121.538 107.068 121.538 105.825C121.538 104.581 122.553 103.573 123.805 103.573C125.056 103.573 126.071 104.581 126.071 105.825C126.071 107.068 125.056 108.076 123.805 108.076Z" fill="#A3CC4A"/>
</svg>
