<svg width="254" height="208" viewBox="0 0 254 208" fill="none" xmlns="http://www.w3.org/2000/svg">
<path fill-rule="evenodd" clip-rule="evenodd" d="M254 172.328V200C254 204.418 250.418 208 246 208H7.44001C7.21974 206.993 7.0484 205.895 6.92742 204.696C6.5403 200.86 5.10643 196.714 3.64285 192.482C0.786129 184.222 -2.18377 175.635 2.29619 168.384C7.58004 159.835 19.529 161.325 28.0025 165.788C29.7595 166.713 31.5156 167.733 33.2789 168.757C40.0198 172.672 46.8649 176.647 54.2566 175.632C62.1195 174.552 68.5671 167.761 72.0503 159.926C75.5336 152.091 76.5557 143.256 77.536 134.603C78.7678 123.732 79.9988 112.854 81.2289 101.97C81.6797 97.9898 82.2118 93.7893 84.471 90.6402C87.4563 86.4864 92.9288 85.2091 97.6099 86.4578C102.291 87.7066 106.283 91.0556 109.698 94.7914C116.135 101.83 120.93 110.326 125.735 118.839C129.097 124.795 132.463 130.759 136.4 136.239C138.347 138.949 140.546 141.628 143.456 142.937C147.649 144.819 152.464 143.487 156.56 141.392C169.269 134.903 178.011 121.993 186.426 109.569C186.862 108.925 187.297 108.282 187.731 107.642C192.025 101.326 197.259 94.5707 204.401 93.8828C211.915 93.1429 218.439 99.4852 222.855 106.201C229.065 115.669 233.137 126.652 237.193 137.59C241.788 149.983 246.362 162.318 254 172.328Z" fill="#EFF3F2"/>
<path d="M139.697 146.964C139.697 146.964 143.024 146.213 145.203 148.434C145.203 148.434 143.802 149.687 140.506 148.299L139.697 146.964Z" fill="#A3CC4A"/>
<path d="M139.329 146.932C139.329 146.932 137.359 149.707 138.609 152.555C138.609 152.555 140.312 151.741 140.264 148.184L139.329 146.932Z" fill="#A3CC4A"/>
<path d="M137.111 142.749C137.111 142.749 138.293 140.207 143.915 143.28C143.915 143.28 143.31 144.978 140.921 145.003C138.533 145.028 137.817 143.999 137.111 142.749Z" fill="#A3CC4A"/>
<path d="M136.754 142.594C136.754 142.594 133.94 142.464 134.098 148.835C134.098 148.835 135.895 149.086 137.016 146.987C138.138 144.888 137.543 143.804 136.754 142.594Z" fill="#A3CC4A"/>
<path d="M134.793 137.635C134.793 137.635 136.053 133.206 141.967 135.911C141.967 135.911 140.934 139.966 135.466 139.077L134.793 137.635Z" fill="#A3CC4A"/>
<path d="M132.599 131.288C132.599 131.288 135.265 126.719 140.786 130.426C140.786 130.426 139.226 134.651 133.153 132.818L132.599 131.288Z" fill="#A3CC4A"/>
<path d="M131.555 125.176C131.555 125.176 134.737 120.931 140.213 124.598C140.213 124.598 137.174 128.339 131.623 126.201L131.555 125.176Z" fill="#A3CC4A"/>
<path d="M130.613 119.235C130.613 119.235 133.829 114.812 139.078 118.446C139.078 118.446 135.378 122.411 130.679 120.217L130.613 119.235Z" fill="#A3CC4A"/>
<path d="M130.568 113.911C130.568 113.911 133.882 108.268 138.796 111.614C138.796 111.614 135.162 116.516 130.639 114.935L130.568 113.911Z" fill="#A3CC4A"/>
<path d="M131.014 107.654C131.014 107.654 134.542 102.044 139.352 105.856C139.352 105.856 135.043 110.802 131.069 108.648L131.014 107.654Z" fill="#A3CC4A"/>
<path d="M131.928 102.028C131.928 102.028 136.212 96.6909 140.382 98.4291C140.382 98.4291 135.927 104.09 131.814 103.378L131.928 102.028Z" fill="#A3CC4A"/>
<path d="M133.188 96.6687C133.188 96.6687 138.112 90.1567 141.345 92.0051C141.345 92.0051 137.739 97.0369 132.883 97.8534L133.188 96.6687Z" fill="#A3CC4A"/>
<path d="M135.108 90.4225C135.108 90.4225 139.435 85.0827 142.92 86.1046C142.92 86.1046 139.279 91.5872 134.579 92.0355L135.108 90.4225Z" fill="#A3CC4A"/>
<path d="M136.834 84.5835C136.834 84.5835 141.668 79.424 143.968 80.1203C143.968 80.1203 140.604 85.7206 136.681 85.668L136.834 84.5835Z" fill="#A3CC4A"/>
<path d="M138.541 79.1837C138.541 79.1837 142.596 73.135 145.047 73.4231C145.047 73.4231 142.701 78.7304 138.581 79.7673L138.541 79.1837Z" fill="#A3CC4A"/>
<path d="M140.302 71.9425C140.302 71.9425 143.928 67.2689 146.05 67.1387C146.05 67.1387 143.351 73.2349 140.236 73.4002L140.302 71.9425Z" fill="#A3CC4A"/>
<path d="M141.31 67.1313L144.48 57.6914C144.48 57.6914 145.236 65.9817 140.952 68.8671L141.31 67.1313Z" fill="#A3CC4A"/>
<path d="M142.163 56.8977C142.163 56.8977 142.274 49.1859 141.828 48.5898C141.828 48.5898 144.97 54.7863 142.367 60.289L142.163 56.8977Z" fill="#A3CC4A"/>
<path d="M134.632 137.542C134.632 137.542 130.535 135.383 128.391 141.482C128.391 141.482 132.044 143.555 135.194 139.025L134.632 137.542Z" fill="#A3CC4A"/>
<path d="M132.454 131.05C132.454 131.05 127.485 129.184 125.562 135.528C125.562 135.528 129.461 137.82 132.999 132.583L132.454 131.05Z" fill="#A3CC4A"/>
<path d="M131.357 125.56C131.357 125.56 127.63 121.775 122.698 126.143C122.698 126.143 126.211 129.447 131.425 126.592L131.357 125.56Z" fill="#A3CC4A"/>
<path d="M130.495 119.245C130.495 119.245 126.715 115.285 122 119.586C122 119.586 126.198 123.025 130.568 120.225L130.495 119.245Z" fill="#A3CC4A"/>
<path d="M130.577 114.06C130.577 114.06 127.715 108.182 122.557 111.138C122.557 111.138 125.797 116.305 130.429 115.08L130.577 114.06Z" fill="#A3CC4A"/>
<path d="M131.309 107.608C131.309 107.608 128.454 101.622 123.23 104.836C123.23 104.836 126.925 110.248 131.128 108.575L131.309 107.608Z" fill="#A3CC4A"/>
<path d="M132.45 102.023C132.45 102.023 131.029 95.3485 126.516 95.043C126.516 95.043 127.947 102.088 131.936 103.278L132.45 102.023Z" fill="#A3CC4A"/>
<path d="M133.304 96.674C133.304 96.674 132.379 88.5815 128.652 88.5439C128.652 88.5439 129.194 94.6978 132.964 97.8486L133.304 96.674Z" fill="#A3CC4A"/>
<path d="M135.479 90.1638C135.479 90.1638 133.914 83.4865 130.32 82.9004C130.32 82.9004 131.202 89.4124 135.242 91.8469L135.479 90.1638Z" fill="#A3CC4A"/>
<path d="M137.258 84.6042C137.258 84.6042 136.754 77.5737 134.512 76.6846C134.512 76.6846 133.602 83.1415 136.691 85.5459L137.258 84.6042Z" fill="#A3CC4A"/>
<path d="M138.702 79.0959C138.702 79.0959 137.908 71.8701 135.6 71.001C135.6 71.001 135.222 76.7842 138.397 79.5919L138.702 79.0959Z" fill="#A3CC4A"/>
<path d="M140.655 72.4988C140.655 72.4988 140.242 66.6104 138.551 65.333C138.551 65.333 137.397 71.8926 139.899 73.7385L140.655 72.4988Z" fill="#A3CC4A"/>
<path d="M141.093 66.8533L138.875 57.1504C138.875 57.1504 137.306 65.3255 141.287 68.6166L141.093 66.8533Z" fill="#A3CC4A"/>
<path d="M140.747 57.0856C140.747 57.0856 136.305 50.7539 136.34 50.0176C136.34 50.0176 137.232 56.9003 142.491 60.0085L140.747 57.0856Z" fill="#A3CC4A"/>
<path d="M141.094 55.1089C141.094 55.1089 136.694 45.9945 134.938 45.3408C134.938 45.3408 140.504 47.7027 141.391 54.8083L141.094 55.1089Z" fill="#A3CC4A"/>
<path d="M140.221 73.4484L139.969 73.3857C142.451 62.8663 142.801 56.234 140.952 54.7112L141.123 54.5059C143.073 56.1188 142.766 62.6709 140.221 73.4484Z" fill="#151A40"/>
<path d="M133.096 98.1591L132.705 98.0514C132.98 97.0846 133.277 96.1003 133.595 95.131C136.366 86.6854 138.67 78.8509 140.083 72.8548L140.403 72.667C138.987 78.6781 136.747 86.8006 133.98 95.2537C133.665 96.2205 133.368 97.1973 133.096 98.1591Z" fill="#151A40"/>
<path d="M144.951 154.362C144.895 154.31 139.352 148.885 135.093 139.274C132.598 133.649 131.015 127.667 130.404 121.549C129.648 113.903 130.681 105.236 132.923 97.2793L133.246 97.6099C128.206 115.47 131.686 130.255 135.572 139.036C139.788 148.554 145.268 153.926 145.324 153.979L144.951 154.362Z" fill="#151A40"/>
<path d="M151.055 125.758C151.055 125.758 153.071 125.299 154.386 126.647C154.386 126.647 153.537 127.398 151.546 126.564L151.055 125.758Z" fill="#A3CC4A"/>
<path d="M150.835 125.74C150.835 125.74 149.646 127.418 150.402 129.139C150.402 129.139 151.43 128.638 151.41 126.497L150.835 125.74Z" fill="#A3CC4A"/>
<path d="M149.494 123.207C149.494 123.207 150.207 121.672 153.602 123.53C153.602 123.53 153.236 124.555 151.792 124.57C150.348 124.585 149.925 123.964 149.494 123.207Z" fill="#A3CC4A"/>
<path d="M149.278 123.115C149.278 123.115 147.574 123.038 147.67 126.887C147.67 126.887 148.756 127.038 149.434 125.77C150.112 124.503 149.754 123.847 149.278 123.115Z" fill="#A3CC4A"/>
<path d="M148.086 120.117C148.086 120.117 148.86 117.44 152.428 119.07C152.428 119.07 151.805 121.522 148.499 120.984L148.086 120.117Z" fill="#A3CC4A"/>
<path d="M146.766 116.28C146.766 116.28 148.376 113.524 151.715 115.759C151.715 115.759 150.77 118.313 147.101 117.204L146.766 116.28Z" fill="#A3CC4A"/>
<path d="M146.133 112.585C146.133 112.585 148.058 110.018 151.367 112.235C151.367 112.235 149.532 114.489 146.176 113.204L146.133 112.585Z" fill="#A3CC4A"/>
<path d="M145.562 108.994C145.562 108.994 147.508 106.319 150.68 108.518C150.68 108.518 148.445 110.915 145.603 109.587L145.562 108.994Z" fill="#A3CC4A"/>
<path d="M145.538 105.773C145.538 105.773 147.554 102.364 150.51 104.386C150.51 104.386 148.312 107.349 145.578 106.389L145.538 105.773Z" fill="#A3CC4A"/>
<path d="M145.801 101.993C145.801 101.993 147.94 98.5995 150.841 100.896C150.841 100.896 148.235 103.887 145.831 102.584L145.801 101.993Z" fill="#A3CC4A"/>
<path d="M146.36 98.5919C146.36 98.5919 148.948 95.366 151.47 96.4179C151.47 96.4179 148.776 99.8392 146.297 99.4084L146.36 98.5919Z" fill="#A3CC4A"/>
<path d="M147.121 95.3511C147.121 95.3511 150.097 91.4163 152.053 92.5309C152.053 92.5309 149.873 95.574 146.938 96.0674L147.121 95.3511Z" fill="#A3CC4A"/>
<path d="M148.282 91.5792C148.282 91.5792 150.898 88.3508 153.009 88.9694C153.009 88.9694 150.81 92.283 147.97 92.5535L148.282 91.5792Z" fill="#A3CC4A"/>
<path d="M149.326 88.0451C149.326 88.0451 152.246 84.9269 153.637 85.3476C153.637 85.3476 151.606 88.7314 149.232 88.7013L149.326 88.0451Z" fill="#A3CC4A"/>
<path d="M150.356 84.7813C150.356 84.7813 152.808 81.1245 154.29 81.2948C154.29 81.2948 152.874 84.5033 150.382 85.1319L150.356 84.7813Z" fill="#A3CC4A"/>
<path d="M151.425 80.4034C151.425 80.4034 153.617 77.5782 154.9 77.498C154.9 77.498 153.267 81.1849 151.385 81.2775L151.425 80.4034Z" fill="#A3CC4A"/>
<path d="M152.031 77.4935L153.944 71.793C153.944 71.793 154.398 76.8022 151.805 78.5555L152.031 77.4935Z" fill="#A3CC4A"/>
<path d="M152.548 71.3069C152.548 71.3069 152.613 66.6458 152.344 66.2852C152.344 66.2852 154.244 70.0296 152.669 73.3582L152.548 71.3069Z" fill="#A3CC4A"/>
<path d="M147.993 120.062C147.993 120.062 145.518 118.755 144.213 122.441C144.213 122.441 146.423 123.694 148.328 120.959L147.993 120.062Z" fill="#A3CC4A"/>
<path d="M146.68 116.124C146.68 116.124 143.673 114.997 142.512 118.832C142.512 118.832 144.868 120.217 147.007 117.053L146.68 116.124Z" fill="#A3CC4A"/>
<path d="M146.012 112.816C146.012 112.816 143.762 110.53 140.778 113.167C140.778 113.167 142.903 115.171 146.055 113.438L146.012 112.816Z" fill="#A3CC4A"/>
<path d="M145.493 108.999C145.493 108.999 143.207 106.607 140.357 109.207C140.357 109.207 142.895 111.283 145.533 109.593L145.493 108.999Z" fill="#A3CC4A"/>
<path d="M145.543 105.856C145.543 105.856 143.812 102.302 140.692 104.088C140.692 104.088 142.653 107.211 145.452 106.472L145.543 105.856Z" fill="#A3CC4A"/>
<path d="M145.985 101.961C145.985 101.961 144.259 98.3419 141.094 100.285C141.094 100.285 143.326 103.559 145.869 102.54L145.985 101.961Z" fill="#A3CC4A"/>
<path d="M146.674 98.5924C146.674 98.5924 145.815 94.5549 143.086 94.3721C143.086 94.3721 143.95 98.6299 146.362 99.3488L146.674 98.5924Z" fill="#A3CC4A"/>
<path d="M147.191 95.3541C147.191 95.3541 146.637 90.4625 144.369 90.4375C144.369 90.4375 144.697 94.1594 146.975 96.0654L147.191 95.3541Z" fill="#A3CC4A"/>
<path d="M148.504 91.4185C148.504 91.4185 147.559 87.381 145.387 87.0254C145.387 87.0254 145.921 90.9602 148.363 92.4329L148.504 91.4185Z" fill="#A3CC4A"/>
<path d="M149.58 88.0574C149.58 88.0574 149.27 83.7995 147.922 83.2686C147.922 83.2686 147.37 87.1733 149.237 88.6259L149.58 88.0574Z" fill="#A3CC4A"/>
<path d="M150.454 84.7261C150.454 84.7261 149.975 80.358 148.579 79.832C148.579 79.832 148.35 83.3385 150.27 85.0266L150.454 84.7261Z" fill="#A3CC4A"/>
<path d="M151.634 80.7393C151.634 80.7393 151.382 77.1802 150.374 76.4062C150.374 76.4062 149.676 80.3736 151.188 81.4881L151.634 80.7393Z" fill="#A3CC4A"/>
<path d="M151.906 77.3258L150.566 71.46C150.566 71.46 149.616 76.4041 152.022 78.3928L151.906 77.3258Z" fill="#A3CC4A"/>
<path d="M151.692 71.4223C151.692 71.4223 149.008 67.5977 149.028 67.1494C149.028 67.1494 149.565 71.3096 152.745 73.1881L151.692 71.4223Z" fill="#A3CC4A"/>
<path d="M151.894 70.2246C151.894 70.2246 149.233 64.7144 148.172 64.3262C148.172 64.3262 151.538 65.7538 152.073 70.0517L151.894 70.2246Z" fill="#A3CC4A"/>
<path d="M151.372 81.3105L151.213 81.273C152.725 74.9137 152.926 70.9038 151.808 69.9846L151.911 69.8594C153.098 70.8362 152.911 74.7985 151.372 81.3105Z" fill="#151A40"/>
<path d="M147.065 96.2531L146.828 96.1854C146.994 95.6019 147.176 95.0083 147.367 94.4322C149.038 89.3253 150.434 84.589 151.288 80.9648L151.482 80.8496C150.626 84.4813 149.272 89.3954 147.599 94.5073C147.408 95.0859 147.229 95.6695 147.065 96.2531Z" fill="#151A40"/>
<path d="M154.232 130.231C154.2 130.198 150.848 126.92 148.273 121.109C146.765 117.708 145.809 114.092 145.438 110.394C144.977 105.771 145.607 100.531 146.965 95.7197L147.159 95.9201C144.112 106.718 146.217 115.657 148.565 120.966C151.115 126.727 154.426 129.966 154.462 129.998L154.232 130.231Z" fill="#151A40"/>
<path d="M161.811 142.753C161.164 142.868 160.531 143.047 159.921 143.289C146.329 148.684 146.555 184 146.555 184H142.554C142.554 184 141.294 168.844 135.803 147.222C130.857 127.768 151.144 110.334 155.264 107.027C155.728 106.659 155.985 106.464 155.985 106.464C176.419 113.928 161.811 142.753 161.811 142.753Z" fill="#151A40"/>
<path opacity="0.2" d="M157.473 107.077C157.001 106.862 156.515 106.657 155.999 106.469C155.999 106.469 155.747 106.664 155.278 107.032C151.158 110.338 130.87 127.773 135.817 147.227C141.308 168.849 142.555 184 142.555 184H144.805C144.805 184 143.558 168.844 138.054 147.222C133.128 127.858 153.219 110.489 157.473 107.077Z" fill="white"/>
<path d="M229.229 147.227C223.726 168.849 222.486 184 222.486 184H218.477C218.477 184 218.729 147.091 204.182 142.971C203.866 142.877 203.546 142.803 203.221 142.748C203.221 142.748 188.606 113.923 209.047 106.464C209.047 106.464 209.254 106.617 209.627 106.915C213.414 109.928 234.231 127.548 229.229 147.227Z" fill="#151A40"/>
<path opacity="0.1" d="M161.812 142.753C161.166 142.867 160.532 143.047 159.922 143.289C157.465 131.336 155.908 119.216 155.266 107.032C155.729 106.664 155.986 106.469 155.986 106.469C176.42 113.928 161.812 142.753 161.812 142.753Z" fill="#151A40"/>
<path opacity="0.1" d="M209.635 106.92C208.802 119.068 206.981 131.13 204.189 142.986C203.874 142.892 203.554 142.818 203.229 142.764C203.229 142.764 188.614 113.938 209.055 106.479C209.048 106.469 209.254 106.622 209.635 106.92Z" fill="#151A40"/>
<path d="M202.152 148.219C200.741 153.752 199.087 159.43 197.19 165.25C197.19 165.25 188.189 174.57 166.448 165.25C166.448 165.25 164.276 159.164 161.887 148.817C156.628 126.068 150.321 82.7153 163.759 38.1856C167.761 24.799 173.449 11.9688 180.688 0C180.688 0 192.168 13.1017 200.595 38.178C209.021 63.2544 214.384 100.31 202.152 148.219Z" fill="#EFF3F2"/>
<path d="M182.515 91.477C192.483 91.477 200.565 83.4447 200.565 73.5364C200.565 63.628 192.483 55.5957 182.515 55.5957C172.546 55.5957 164.465 63.628 164.465 73.5364C164.465 83.4447 172.546 91.477 182.515 91.477Z" fill="#151A40"/>
<path d="M195.316 73.5462C195.316 75.9556 194.628 78.3155 193.331 80.3513C192.035 82.3871 190.183 84.0151 187.992 85.046C185.801 86.0769 183.361 86.4682 180.955 86.1745C178.549 85.8808 176.276 84.9141 174.401 83.3869C173.486 82.6378 172.679 81.7672 172.002 80.7996C171.699 80.3674 171.422 79.9165 171.176 79.4496C170.216 77.6282 169.715 75.6024 169.717 73.5462C169.717 73.4435 169.717 73.3433 169.717 73.2431C169.782 70.5223 170.723 67.8939 172.401 65.743C174.079 63.5921 176.406 62.032 179.04 61.2911C180.046 61.0155 181.082 60.8591 182.125 60.8252H182.508C184.189 60.8242 185.854 61.1525 187.408 61.7913C188.962 62.4301 190.374 63.367 191.563 64.5483C192.753 65.7296 193.697 67.1323 194.34 68.6762C194.984 70.22 195.316 71.8749 195.316 73.5462Z" fill="#A3CC4A"/>
<path d="M200.593 38.178C180.114 47.9235 163.747 38.178 163.747 38.178C167.753 24.7935 173.446 11.9659 180.688 0C180.688 0 192.169 13.1017 200.593 38.178Z" fill="#151A40"/>
<path d="M202.152 148.219C201.195 151.966 200.128 155.777 198.952 159.652C198.394 161.501 197.806 163.364 197.188 165.243C197.188 165.243 188.187 174.562 166.445 165.243C166.445 165.243 165.74 163.267 164.682 159.652C163.89 156.922 162.905 153.263 161.877 148.81C161.877 148.81 169.971 152.244 181.459 152.244C188.556 152.268 195.588 150.9 202.152 148.219Z" fill="#151A40"/>
<path d="M198.952 159.652C198.394 161.501 197.806 163.364 197.188 165.243C197.188 165.243 188.187 174.562 166.446 165.243C166.446 165.243 165.74 163.267 164.682 159.652C164.679 159.652 186.839 165.989 198.952 159.652Z" fill="#EFF3F2"/>
<path opacity="0.2" d="M179.048 61.2735L179.02 61.2935L169.722 73.2256C169.722 73.3257 169.722 73.4259 169.722 73.5286C169.72 75.5848 170.221 77.6107 171.181 79.432L182.137 60.8076L179.048 61.2735Z" fill="white"/>
<path opacity="0.2" d="M182.016 72.043L174.401 83.3765C173.486 82.6274 172.679 81.7568 172.002 80.7892L181.074 71.1113L182.016 72.043Z" fill="white"/>
<path opacity="0.2" d="M171.312 165.246C171.312 165.246 169.14 159.157 166.751 148.813C161.492 126.061 155.185 82.7083 168.623 38.1785C172.236 26.1297 177.211 14.5268 183.453 3.59206C181.747 1.21517 180.681 0.00292969 180.681 0.00292969C173.441 11.9683 167.752 24.7951 163.747 38.1785C150.309 82.7083 156.616 126.061 161.875 148.813C164.264 159.157 166.436 165.246 166.436 165.246C175.026 168.925 181.626 169.696 186.469 169.286C182.332 168.973 177.307 167.813 171.312 165.246Z" fill="white"/>
</svg>
