<svg width="306" height="196" viewBox="0 0 306 196" fill="none" xmlns="http://www.w3.org/2000/svg">
<path d="M249.042 6.77366L1.08789 42.5459L18.0845 160.051L266.038 124.279L249.042 6.77366Z" fill="#EFF3F2"/>
<path d="M243.409 17.8732L9.63574 51.5996L23.8166 149.638L257.59 115.912L243.409 17.8732Z" fill="white"/>
<path d="M247.954 0.000221145L0 35.7725L1.52169 46.2926L249.475 10.5203L247.954 0.000221145Z" fill="#EFF3F2"/>
<path d="M8.72267 42.7986C9.81215 42.7986 10.6953 41.9166 10.6953 40.8285C10.6953 39.7404 9.81215 38.8584 8.72267 38.8584C7.6332 38.8584 6.75 39.7404 6.75 40.8285C6.75 41.9166 7.6332 42.7986 8.72267 42.7986Z" fill="white"/>
<path d="M16.1328 41.7303C17.2223 41.7303 18.1055 40.8482 18.1055 39.7601C18.1055 38.6721 17.2223 37.79 16.1328 37.79C15.0433 37.79 14.1602 38.6721 14.1602 39.7601C14.1602 40.8482 15.0433 41.7303 16.1328 41.7303Z" fill="white"/>
<path d="M23.5449 40.6609C24.6344 40.6609 25.5176 39.7789 25.5176 38.6908C25.5176 37.6027 24.6344 36.7207 23.5449 36.7207C22.4554 36.7207 21.5723 37.6027 21.5723 38.6908C21.5723 39.7789 22.4554 40.6609 23.5449 40.6609Z" fill="white"/>
<path d="M306 57.334H55.4727V176.059H306V57.334Z" fill="#EFF3F2"/>
<path d="M298.837 67.5146H62.6367V166.571H298.837V67.5146Z" fill="white"/>
<path d="M305.893 50.4746H55.3652V61.1039H305.893V50.4746Z" fill="#EFF3F2"/>
<path d="M63.2754 58.6951C64.3649 58.6951 65.2481 57.813 65.2481 56.725C65.2481 55.6369 64.3649 54.7549 63.2754 54.7549C62.1859 54.7549 61.3027 55.6369 61.3027 56.725C61.3027 57.813 62.1859 58.6951 63.2754 58.6951Z" fill="white"/>
<path d="M70.7627 58.6951C71.8522 58.6951 72.7354 57.813 72.7354 56.725C72.7354 55.6369 71.8522 54.7549 70.7627 54.7549C69.6732 54.7549 68.79 55.6369 68.79 56.725C68.79 57.813 69.6732 58.6951 70.7627 58.6951Z" fill="white"/>
<path d="M78.25 58.6951C79.3395 58.6951 80.2227 57.813 80.2227 56.725C80.2227 55.6369 79.3395 54.7549 78.25 54.7549C77.1605 54.7549 76.2773 55.6369 76.2773 56.725C76.2773 57.813 77.1605 58.6951 78.25 58.6951Z" fill="white"/>
<path d="M232.008 82.5752H198.742V85.0723H232.008V82.5752Z" fill="#EFF3F2"/>
<path d="M250.112 89.9053H198.742V92.4024H250.112V89.9053Z" fill="#EFF3F2"/>
<path d="M241.142 96.8867H199.276V99.3838H241.142V96.8867Z" fill="#EFF3F2"/>
<path d="M223.182 104.547H198.742V107.044H223.182V104.547Z" fill="#EFF3F2"/>
<path d="M235.629 112.029H198.742V114.526H235.629V112.029Z" fill="#EFF3F2"/>
<path d="M187.653 81.7891H183.58V85.8571H187.653V81.7891Z" fill="#EFF3F2"/>
<path d="M187.653 89.1201H183.58V93.1882H187.653V89.1201Z" fill="#EFF3F2"/>
<path d="M187.653 96.1016H183.58V100.17H187.653V96.1016Z" fill="#EFF3F2"/>
<path d="M187.653 103.762H183.58V107.83H187.653V103.762Z" fill="#EFF3F2"/>
<path d="M187.653 111.244H183.58V115.312H187.653V111.244Z" fill="#EFF3F2"/>
<path d="M232.008 119.559H198.742V122.056H232.008V119.559Z" fill="#EFF3F2"/>
<path d="M250.112 126.89H198.742V129.387H250.112V126.89Z" fill="#EFF3F2"/>
<path d="M241.142 133.871H199.276V136.368H241.142V133.871Z" fill="#EFF3F2"/>
<path d="M223.182 141.531H198.742V144.028H223.182V141.531Z" fill="#EFF3F2"/>
<path d="M235.629 149.014H198.742V151.511H235.629V149.014Z" fill="#EFF3F2"/>
<path d="M187.653 118.773H183.58V122.842H187.653V118.773Z" fill="#EFF3F2"/>
<path d="M187.653 126.104H183.58V130.172H187.653V126.104Z" fill="#EFF3F2"/>
<path d="M187.653 133.085H183.58V137.153H187.653V133.085Z" fill="#EFF3F2"/>
<path d="M187.653 140.745H183.58V144.813H187.653V140.745Z" fill="#EFF3F2"/>
<path d="M187.653 148.228H183.58V152.296H187.653V148.228Z" fill="#EFF3F2"/>
<path d="M126.772 139.146H93.5059V141.643H126.772V139.146Z" fill="#EFF3F2"/>
<path d="M130.92 145.635H89.0547V148.132H130.92V145.635Z" fill="#EFF3F2"/>
<path d="M131.76 107.647C131.759 111.4 130.783 115.088 128.928 118.352C127.073 121.616 124.402 124.343 121.175 126.268C117.949 128.193 114.279 129.249 110.522 129.334C106.765 129.418 103.05 128.528 99.7403 126.751L99.7361 126.746C96.3554 124.928 93.5179 122.246 91.5128 118.975C89.5077 115.705 88.4066 111.962 88.3217 108.127C88.2368 104.293 89.1712 100.505 91.0296 97.1491C92.8881 93.793 95.6041 90.989 98.901 89.0226C102.198 87.0563 105.958 85.9979 109.798 85.9554C113.638 85.9129 117.42 86.8878 120.76 88.7807C124.1 90.6736 126.877 93.4168 128.81 96.7309C130.742 100.045 131.76 103.811 131.76 107.647V107.647Z" fill="#EFF3F2"/>
<path d="M110.15 106.594C113.411 106.594 116.054 103.954 116.054 100.697C116.054 97.44 113.411 94.7998 110.15 94.7998C106.889 94.7998 104.245 97.44 104.245 100.697C104.245 103.954 106.889 106.594 110.15 106.594Z" fill="white"/>
<path d="M120.233 118.778C113.632 121.092 106.435 121.064 99.8519 118.699L99.8477 118.696L104.247 110.024H116.056L120.233 118.778Z" fill="white"/>
<path d="M44.7752 161.492C34.4834 161.492 26.1104 152.609 26.1104 141.69C26.1104 130.771 34.4834 121.889 44.7752 121.889C55.0669 121.889 63.44 130.771 63.44 141.69C63.44 152.609 55.0669 161.492 44.7752 161.492ZM44.7752 126.892C37.2458 126.892 31.1202 133.53 31.1202 141.69C31.1202 149.85 37.2458 156.488 44.7752 156.488C52.3046 156.488 58.4301 149.85 58.4301 141.69C58.4301 133.53 52.3046 126.892 44.7752 126.892Z" fill="#A3CC4A"/>
<path d="M62.4503 196H27.1006C23.9833 195.996 20.9947 194.758 18.7904 192.557C16.5862 190.355 15.3463 187.371 15.3428 184.257V149.628C15.3452 147.497 16.194 145.453 17.7031 143.946C19.2122 142.439 21.2583 141.591 23.3924 141.589H66.1584C68.2926 141.591 70.3387 142.439 71.8478 143.946C73.3569 145.453 74.2057 147.497 74.2081 149.628V184.257C74.2046 187.371 72.9647 190.355 70.7605 192.557C68.5562 194.758 65.5676 195.996 62.4503 196Z" fill="#A3CC4A"/>
<path d="M51.6637 161.289C51.6646 160.066 51.3392 158.865 50.7208 157.81C50.1024 156.754 49.2134 155.882 48.1455 155.284C47.0775 154.686 45.8692 154.382 44.6449 154.406C43.4206 154.429 42.2246 154.777 41.18 155.416C40.1355 156.054 39.2803 156.959 38.7023 158.037C38.1243 159.115 37.8446 160.327 37.8919 161.549C37.9391 162.771 38.3117 163.959 38.9712 164.989C39.6307 166.02 40.5534 166.856 41.6441 167.412V178.175H47.9063V167.412C49.0369 166.836 49.9862 165.96 50.6492 164.879C51.3123 163.799 51.6634 162.556 51.6637 161.289Z" fill="white"/>
</svg>
